<?xml version="1.0" encoding="utf-8"?>
<!-- Generator: Adobe Illustrator 23.0.3, SVG Export Plug-In . SVG Version: 6.00 Build 0)  -->
<svg version="1.1" id="Layer_1" xmlns="http://www.w3.org/2000/svg" xmlns:xlink="http://www.w3.org/1999/xlink" x="0px" y="0px"
	 viewBox="0 0 425.2 194.7" style="enable-background:new 0 0 425.2 194.7;" xml:space="preserve">
<style type="text/css">
	.st0{fill:#C2EBFF;}
</style>
<path class="st0" d="M417.7,35.6c-1.5-0.7-3.2-1.2-5-1.2c-6,0-10.7,4.6-10.7,10.5c0,0,0,0,0,0c-4.1,0.2-7.5,2.5-9.1,6
	c-0.7-2.9-3.2-5-6.4-5c-2.9,0-5.3,1.7-6.2,4.2c-1.3-4.4-5.3-7.4-10.2-7.4c-2.3,0-4.3,0.6-6,1.8c0-0.1,0-0.1,0-0.2
	c0-3.7-2.9-6.5-6.6-6.5c-2.2,0-4.1,1-5.2,2.5c-3.1-4-8-6.5-13.7-6.5c-7.5,0-13.6,4.3-16.1,10.7c-1.9-2.6-5-4.2-8.6-4.2
	c-5.8,0-10.3,4.2-10.6,9.8c-1.6-1-3.6-1.6-5.7-1.6c-2.8,0-5.3,1-7.2,2.6c-1.8-7.5-8.4-12.8-16.7-12.8c-6.5,0-12,3.3-14.9,8.3
	c-1.9-2.9-5.1-4.8-9-4.8c-5.7,0-10.1,4.1-10.6,9.5c-0.8-0.4-1.8-0.6-2.8-0.6c-1.6,0-3.1,0.6-4.3,1.5v0c-0.7,0.6-1.2,1.2-1.6,2
	c-1.4-8.2-8.2-14-17-14c-5.4,0-10.1,2.3-13.3,5.9c-1.5-0.8-3.3-1.3-5.3-1.3c-3.4,0-6.3,1.4-8.2,3.7c-1-4.9-5.2-8.3-10.4-8.3
	c-2.2,0-4.2,0.6-5.9,1.7c-1.3-8.2-8.2-14.1-17-14.1c-6.2,0-11.5,3-14.5,7.7c-1.5-0.7-3.2-1.2-5-1.2c-6,0-10.7,4.6-10.7,10.5
	c0,0,0,0,0,0c-4.1,0.2-7.5,2.5-9.1,6c-0.7-2.9-3.2-5-6.4-5c-2.9,0-5.3,1.7-6.2,4.2c-1.3-4.4-5.3-7.4-10.2-7.4c-2.3,0-4.3,0.6-6,1.8
	c0-0.1,0-0.1,0-0.2c0-3.7-2.9-6.5-6.6-6.5c-2.2,0-4.1,1-5.2,2.5c-3.1-4-8-6.5-13.7-6.5c-7.5,0-13.6,4.3-16.1,10.7
	c-1.9-2.6-5-4.2-8.6-4.2c-5.8,0-10.3,4.2-10.6,9.8c-1.6-1-3.6-1.6-5.7-1.6c-2.8,0-5.3,1-7.2,2.6c-1.4-5.8-5.7-10.3-11.5-12v155.5
	h426.4V28.8C422.7,30,419.7,32.4,417.7,35.6z"/>
</svg>
