<?xml version="1.0" encoding="utf-8"?>
<!-- Generator: Adobe Illustrator 23.0.3, SVG Export Plug-In . SVG Version: 6.00 Build 0)  -->
<svg version="1.1" id="Layer_1" xmlns="http://www.w3.org/2000/svg" xmlns:xlink="http://www.w3.org/1999/xlink" x="0px" y="0px"
	 viewBox="0 0 425.2 194.7" style="enable-background:new 0 0 425.2 194.7;" xml:space="preserve">
<style type="text/css">
	.st0{fill:#7AA8D6;}
	.st1{fill:#9ACEF4;}
</style>
<g>
	<path class="st0" d="M417.8,113.6v-9c-3.8-5.3-16.1-5.1-26.5-3.8v-2.1h-17.2v8.9v0.7H363v7.5h-8V93.1l-8.7-7.7h-9.6l-7.3,6.9v23.9
		h-3.7v-5.9h-5.3v6.9h-9.6v-6.4h-16.7V91.3c0-0.4-4.3-0.8-10.4-0.9v-6.6h-12.2v1.6H264v3.2h-16.5V61.8c0-0.8-7.6-1.5-16.9-1.5
		c-9.4,0-16.9,0.7-16.9,1.5v55.6h-14.5v-4.3h-25.5v4.3h-11.7v-3.7h-1.7V80.9v-1.7v-3.9v-5.6c0-0.2-0.2-0.4-0.4-0.4h-18
		c-0.2,0-0.4,0.2-0.4,0.4v5.2h-3.2c-0.2,0-0.4,0.2-0.4,0.4v3.9h-3.2v12.6h-15.5v17h-12.8v-2.7h-4.8v-11v-3.9v-3.4h-5v3.4h-10v-3.9
		h-5v3.9v3.6v9.7h-6.1v6.4h-6.9v-3.2h-6.9v9.6H46.9v-12.8H28.8v1.6h-4.5v8.5h-3.5v-4.8H9.1v3.7H0v81.1h425.8v-81.1H417.8z"/>
	<g>
		<g>
			<path class="st1" d="M220.6,125.3c-0.4,0-0.6-0.2-0.6-0.4V64c0-0.2,0.3-0.4,0.6-0.4c0.4,0,0.6,0.2,0.6,0.4v60.9
				C221.2,125.1,220.9,125.3,220.6,125.3z"/>
		</g>
		<g>
			<path class="st1" d="M225.6,125.3c-0.4,0-0.6-0.2-0.6-0.4V64c0-0.2,0.3-0.4,0.6-0.4c0.4,0,0.6,0.2,0.6,0.4v60.9
				C226.2,125.1,225.9,125.3,225.6,125.3z"/>
		</g>
		<g>
			<path class="st1" d="M230.6,125.3c-0.4,0-0.6-0.2-0.6-0.4V64c0-0.2,0.3-0.4,0.6-0.4c0.4,0,0.6,0.2,0.6,0.4v60.9
				C231.2,125.1,230.9,125.3,230.6,125.3z"/>
		</g>
		<g>
			<path class="st1" d="M235.6,125.3c-0.4,0-0.6-0.2-0.6-0.4V64c0-0.2,0.3-0.4,0.6-0.4c0.4,0,0.6,0.2,0.6,0.4v60.9
				C236.2,125.1,235.9,125.3,235.6,125.3z"/>
		</g>
		<g>
			<path class="st1" d="M240.6,125.3c-0.4,0-0.6-0.2-0.6-0.4V64c0-0.2,0.3-0.4,0.6-0.4c0.4,0,0.6,0.2,0.6,0.4v60.9
				C241.2,125.1,240.9,125.3,240.6,125.3z"/>
		</g>
	</g>
	<g>
		<g>
			<g>
				<path class="st1" d="M150.8,83.6c-0.3,0-0.5-0.2-0.5-0.5v-1.2c0-0.3,0.2-0.5,0.5-0.5c0.3,0,0.5,0.2,0.5,0.5v1.2
					C151.3,83.4,151.1,83.6,150.8,83.6z"/>
			</g>
			<g>
				<path class="st1" d="M153.1,83.6c-0.3,0-0.5-0.2-0.5-0.5v-1.2c0-0.3,0.2-0.5,0.5-0.5c0.3,0,0.5,0.2,0.5,0.5v1.2
					C153.6,83.4,153.4,83.6,153.1,83.6z"/>
			</g>
			<g>
				<path class="st1" d="M155.4,83.6c-0.3,0-0.5-0.2-0.5-0.5v-1.2c0-0.3,0.2-0.5,0.5-0.5c0.3,0,0.5,0.2,0.5,0.5v1.2
					C155.9,83.4,155.6,83.6,155.4,83.6z"/>
			</g>
			<g>
				<path class="st1" d="M157.7,83.6c-0.3,0-0.5-0.2-0.5-0.5v-1.2c0-0.3,0.2-0.5,0.5-0.5c0.3,0,0.5,0.2,0.5,0.5v1.2
					C158.1,83.4,157.9,83.6,157.7,83.6z"/>
			</g>
			<g>
				<path class="st1" d="M137.1,83.6c-0.3,0-0.5-0.2-0.5-0.5v-1.2c0-0.3,0.2-0.5,0.5-0.5c0.3,0,0.5,0.2,0.5,0.5v1.2
					C137.6,83.4,137.4,83.6,137.1,83.6z"/>
			</g>
			<g>
				<path class="st1" d="M141.7,83.6c-0.3,0-0.5-0.2-0.5-0.5v-1.2c0-0.3,0.2-0.5,0.5-0.5c0.3,0,0.5,0.2,0.5,0.5v1.2
					C142.2,83.4,141.9,83.6,141.7,83.6z"/>
			</g>
			<g>
				<path class="st1" d="M144,83.6c-0.3,0-0.5-0.2-0.5-0.5v-1.2c0-0.3,0.2-0.5,0.5-0.5c0.3,0,0.5,0.2,0.5,0.5v1.2
					C144.4,83.4,144.2,83.6,144,83.6z"/>
			</g>
			<g>
				<path class="st1" d="M146.2,83.6c-0.3,0-0.5-0.2-0.5-0.5v-1.2c0-0.3,0.2-0.5,0.5-0.5c0.3,0,0.5,0.2,0.5,0.5v1.2
					C146.7,83.4,146.5,83.6,146.2,83.6z"/>
			</g>
		</g>
		<g>
			<g>
				<path class="st1" d="M148.5,86.9c-0.3,0-0.5-0.2-0.5-0.5v-1.2c0-0.3,0.2-0.5,0.5-0.5c0.3,0,0.5,0.2,0.5,0.5v1.2
					C149,86.7,148.8,86.9,148.5,86.9z"/>
			</g>
			<g>
				<path class="st1" d="M153.1,86.9c-0.3,0-0.5-0.2-0.5-0.5v-1.2c0-0.3,0.2-0.5,0.5-0.5c0.3,0,0.5,0.2,0.5,0.5v1.2
					C153.6,86.7,153.4,86.9,153.1,86.9z"/>
			</g>
			<g>
				<path class="st1" d="M157.7,86.9c-0.3,0-0.5-0.2-0.5-0.5v-1.2c0-0.3,0.2-0.5,0.5-0.5c0.3,0,0.5,0.2,0.5,0.5v1.2
					C158.1,86.7,157.9,86.9,157.7,86.9z"/>
			</g>
			<g>
				<path class="st1" d="M137.1,86.9c-0.3,0-0.5-0.2-0.5-0.5v-1.2c0-0.3,0.2-0.5,0.5-0.5c0.3,0,0.5,0.2,0.5,0.5v1.2
					C137.6,86.7,137.4,86.9,137.1,86.9z"/>
			</g>
			<g>
				<path class="st1" d="M139.4,86.9c-0.3,0-0.5-0.2-0.5-0.5v-1.2c0-0.3,0.2-0.5,0.5-0.5c0.3,0,0.5,0.2,0.5,0.5v1.2
					C139.9,86.7,139.7,86.9,139.4,86.9z"/>
			</g>
			<g>
				<path class="st1" d="M141.7,86.9c-0.3,0-0.5-0.2-0.5-0.5v-1.2c0-0.3,0.2-0.5,0.5-0.5c0.3,0,0.5,0.2,0.5,0.5v1.2
					C142.2,86.7,141.9,86.9,141.7,86.9z"/>
			</g>
			<g>
				<path class="st1" d="M146.2,86.9c-0.3,0-0.5-0.2-0.5-0.5v-1.2c0-0.3,0.2-0.5,0.5-0.5c0.3,0,0.5,0.2,0.5,0.5v1.2
					C146.7,86.7,146.5,86.9,146.2,86.9z"/>
			</g>
		</g>
		<g>
			<g>
				<path class="st1" d="M148.5,90.2c-0.3,0-0.5-0.2-0.5-0.5v-1.2c0-0.3,0.2-0.5,0.5-0.5c0.3,0,0.5,0.2,0.5,0.5v1.2
					C149,89.9,148.8,90.2,148.5,90.2z"/>
			</g>
			<g>
				<path class="st1" d="M150.8,90.2c-0.3,0-0.5-0.2-0.5-0.5v-1.2c0-0.3,0.2-0.5,0.5-0.5c0.3,0,0.5,0.2,0.5,0.5v1.2
					C151.3,89.9,151.1,90.2,150.8,90.2z"/>
			</g>
			<g>
				<path class="st1" d="M153.1,90.2c-0.3,0-0.5-0.2-0.5-0.5v-1.2c0-0.3,0.2-0.5,0.5-0.5c0.3,0,0.5,0.2,0.5,0.5v1.2
					C153.6,89.9,153.4,90.2,153.1,90.2z"/>
			</g>
			<g>
				<path class="st1" d="M155.4,90.2c-0.3,0-0.5-0.2-0.5-0.5v-1.2c0-0.3,0.2-0.5,0.5-0.5c0.3,0,0.5,0.2,0.5,0.5v1.2
					C155.9,89.9,155.6,90.2,155.4,90.2z"/>
			</g>
			<g>
				<path class="st1" d="M139.4,90.2c-0.3,0-0.5-0.2-0.5-0.5v-1.2c0-0.3,0.2-0.5,0.5-0.5c0.3,0,0.5,0.2,0.5,0.5v1.2
					C139.9,89.9,139.7,90.2,139.4,90.2z"/>
			</g>
			<g>
				<path class="st1" d="M141.7,90.2c-0.3,0-0.5-0.2-0.5-0.5v-1.2c0-0.3,0.2-0.5,0.5-0.5c0.3,0,0.5,0.2,0.5,0.5v1.2
					C142.2,89.9,141.9,90.2,141.7,90.2z"/>
			</g>
			<g>
				<path class="st1" d="M144,90.2c-0.3,0-0.5-0.2-0.5-0.5v-1.2c0-0.3,0.2-0.5,0.5-0.5c0.3,0,0.5,0.2,0.5,0.5v1.2
					C144.4,89.9,144.2,90.2,144,90.2z"/>
			</g>
			<g>
				<path class="st1" d="M146.2,90.2c-0.3,0-0.5-0.2-0.5-0.5v-1.2c0-0.3,0.2-0.5,0.5-0.5c0.3,0,0.5,0.2,0.5,0.5v1.2
					C146.7,89.9,146.5,90.2,146.2,90.2z"/>
			</g>
		</g>
		<g>
			<g>
				<path class="st1" d="M148.5,93.4c-0.3,0-0.5-0.2-0.5-0.5v-1.2c0-0.3,0.2-0.5,0.5-0.5c0.3,0,0.5,0.2,0.5,0.5v1.2
					C149,93.2,148.8,93.4,148.5,93.4z"/>
			</g>
			<g>
				<path class="st1" d="M150.8,93.4c-0.3,0-0.5-0.2-0.5-0.5v-1.2c0-0.3,0.2-0.5,0.5-0.5c0.3,0,0.5,0.2,0.5,0.5v1.2
					C151.3,93.2,151.1,93.4,150.8,93.4z"/>
			</g>
			<g>
				<path class="st1" d="M155.4,93.4c-0.3,0-0.5-0.2-0.5-0.5v-1.2c0-0.3,0.2-0.5,0.5-0.5c0.3,0,0.5,0.2,0.5,0.5v1.2
					C155.9,93.2,155.6,93.4,155.4,93.4z"/>
			</g>
			<g>
				<path class="st1" d="M157.7,93.4c-0.3,0-0.5-0.2-0.5-0.5v-1.2c0-0.3,0.2-0.5,0.5-0.5c0.3,0,0.5,0.2,0.5,0.5v1.2
					C158.1,93.2,157.9,93.4,157.7,93.4z"/>
			</g>
			<g>
				<path class="st1" d="M137.1,93.4c-0.3,0-0.5-0.2-0.5-0.5v-1.2c0-0.3,0.2-0.5,0.5-0.5c0.3,0,0.5,0.2,0.5,0.5v1.2
					C137.6,93.2,137.4,93.4,137.1,93.4z"/>
			</g>
			<g>
				<path class="st1" d="M139.4,93.4c-0.3,0-0.5-0.2-0.5-0.5v-1.2c0-0.3,0.2-0.5,0.5-0.5c0.3,0,0.5,0.2,0.5,0.5v1.2
					C139.9,93.2,139.7,93.4,139.4,93.4z"/>
			</g>
			<g>
				<path class="st1" d="M144,93.4c-0.3,0-0.5-0.2-0.5-0.5v-1.2c0-0.3,0.2-0.5,0.5-0.5c0.3,0,0.5,0.2,0.5,0.5v1.2
					C144.4,93.2,144.2,93.4,144,93.4z"/>
			</g>
		</g>
		<g>
			<g>
				<path class="st1" d="M150.8,96.7c-0.3,0-0.5-0.2-0.5-0.5V95c0-0.3,0.2-0.5,0.5-0.5c0.3,0,0.5,0.2,0.5,0.5v1.2
					C151.3,96.5,151.1,96.7,150.8,96.7z"/>
			</g>
			<g>
				<path class="st1" d="M153.1,96.7c-0.3,0-0.5-0.2-0.5-0.5V95c0-0.3,0.2-0.5,0.5-0.5c0.3,0,0.5,0.2,0.5,0.5v1.2
					C153.6,96.5,153.4,96.7,153.1,96.7z"/>
			</g>
			<g>
				<path class="st1" d="M155.4,96.7c-0.3,0-0.5-0.2-0.5-0.5V95c0-0.3,0.2-0.5,0.5-0.5c0.3,0,0.5,0.2,0.5,0.5v1.2
					C155.9,96.5,155.6,96.7,155.4,96.7z"/>
			</g>
			<g>
				<path class="st1" d="M157.7,96.7c-0.3,0-0.5-0.2-0.5-0.5V95c0-0.3,0.2-0.5,0.5-0.5c0.3,0,0.5,0.2,0.5,0.5v1.2
					C158.1,96.5,157.9,96.7,157.7,96.7z"/>
			</g>
			<g>
				<path class="st1" d="M137.1,96.7c-0.3,0-0.5-0.2-0.5-0.5V95c0-0.3,0.2-0.5,0.5-0.5c0.3,0,0.5,0.2,0.5,0.5v1.2
					C137.6,96.5,137.4,96.7,137.1,96.7z"/>
			</g>
			<g>
				<path class="st1" d="M141.7,96.7c-0.3,0-0.5-0.2-0.5-0.5V95c0-0.3,0.2-0.5,0.5-0.5c0.3,0,0.5,0.2,0.5,0.5v1.2
					C142.2,96.5,141.9,96.7,141.7,96.7z"/>
			</g>
			<g>
				<path class="st1" d="M144,96.7c-0.3,0-0.5-0.2-0.5-0.5V95c0-0.3,0.2-0.5,0.5-0.5c0.3,0,0.5,0.2,0.5,0.5v1.2
					C144.4,96.5,144.2,96.7,144,96.7z"/>
			</g>
			<g>
				<path class="st1" d="M146.2,96.7c-0.3,0-0.5-0.2-0.5-0.5V95c0-0.3,0.2-0.5,0.5-0.5c0.3,0,0.5,0.2,0.5,0.5v1.2
					C146.7,96.5,146.5,96.7,146.2,96.7z"/>
			</g>
		</g>
		<g>
			<g>
				<path class="st1" d="M148.5,100c-0.3,0-0.5-0.2-0.5-0.5v-1.2c0-0.3,0.2-0.5,0.5-0.5c0.3,0,0.5,0.2,0.5,0.5v1.2
					C149,99.7,148.8,100,148.5,100z"/>
			</g>
			<g>
				<path class="st1" d="M153.1,100c-0.3,0-0.5-0.2-0.5-0.5v-1.2c0-0.3,0.2-0.5,0.5-0.5c0.3,0,0.5,0.2,0.5,0.5v1.2
					C153.6,99.7,153.4,100,153.1,100z"/>
			</g>
			<g>
				<path class="st1" d="M137.1,100c-0.3,0-0.5-0.2-0.5-0.5v-1.2c0-0.3,0.2-0.5,0.5-0.5c0.3,0,0.5,0.2,0.5,0.5v1.2
					C137.6,99.7,137.4,100,137.1,100z"/>
			</g>
			<g>
				<path class="st1" d="M139.4,100c-0.3,0-0.5-0.2-0.5-0.5v-1.2c0-0.3,0.2-0.5,0.5-0.5c0.3,0,0.5,0.2,0.5,0.5v1.2
					C139.9,99.7,139.7,100,139.4,100z"/>
			</g>
			<g>
				<path class="st1" d="M141.7,100c-0.3,0-0.5-0.2-0.5-0.5v-1.2c0-0.3,0.2-0.5,0.5-0.5c0.3,0,0.5,0.2,0.5,0.5v1.2
					C142.2,99.7,141.9,100,141.7,100z"/>
			</g>
			<g>
				<path class="st1" d="M144,100c-0.3,0-0.5-0.2-0.5-0.5v-1.2c0-0.3,0.2-0.5,0.5-0.5c0.3,0,0.5,0.2,0.5,0.5v1.2
					C144.4,99.7,144.2,100,144,100z"/>
			</g>
			<g>
				<path class="st1" d="M146.2,100c-0.3,0-0.5-0.2-0.5-0.5v-1.2c0-0.3,0.2-0.5,0.5-0.5c0.3,0,0.5,0.2,0.5,0.5v1.2
					C146.7,99.7,146.5,100,146.2,100z"/>
			</g>
		</g>
		<g>
			<g>
				<path class="st1" d="M148.5,103.2c-0.3,0-0.5-0.2-0.5-0.5v-1.2c0-0.3,0.2-0.5,0.5-0.5c0.3,0,0.5,0.2,0.5,0.5v1.2
					C149,103,148.8,103.2,148.5,103.2z"/>
			</g>
			<g>
				<path class="st1" d="M150.8,103.2c-0.3,0-0.5-0.2-0.5-0.5v-1.2c0-0.3,0.2-0.5,0.5-0.5c0.3,0,0.5,0.2,0.5,0.5v1.2
					C151.3,103,151.1,103.2,150.8,103.2z"/>
			</g>
			<g>
				<path class="st1" d="M153.1,103.2c-0.3,0-0.5-0.2-0.5-0.5v-1.2c0-0.3,0.2-0.5,0.5-0.5c0.3,0,0.5,0.2,0.5,0.5v1.2
					C153.6,103,153.4,103.2,153.1,103.2z"/>
			</g>
			<g>
				<path class="st1" d="M155.4,103.2c-0.3,0-0.5-0.2-0.5-0.5v-1.2c0-0.3,0.2-0.5,0.5-0.5c0.3,0,0.5,0.2,0.5,0.5v1.2
					C155.9,103,155.6,103.2,155.4,103.2z"/>
			</g>
			<g>
				<path class="st1" d="M157.7,103.2c-0.3,0-0.5-0.2-0.5-0.5v-1.2c0-0.3,0.2-0.5,0.5-0.5c0.3,0,0.5,0.2,0.5,0.5v1.2
					C158.1,103,157.9,103.2,157.7,103.2z"/>
			</g>
			<g>
				<path class="st1" d="M139.4,103.2c-0.3,0-0.5-0.2-0.5-0.5v-1.2c0-0.3,0.2-0.5,0.5-0.5c0.3,0,0.5,0.2,0.5,0.5v1.2
					C139.9,103,139.7,103.2,139.4,103.2z"/>
			</g>
			<g>
				<path class="st1" d="M141.7,103.2c-0.3,0-0.5-0.2-0.5-0.5v-1.2c0-0.3,0.2-0.5,0.5-0.5c0.3,0,0.5,0.2,0.5,0.5v1.2
					C142.2,103,141.9,103.2,141.7,103.2z"/>
			</g>
			<g>
				<path class="st1" d="M146.2,103.2c-0.3,0-0.5-0.2-0.5-0.5v-1.2c0-0.3,0.2-0.5,0.5-0.5c0.3,0,0.5,0.2,0.5,0.5v1.2
					C146.7,103,146.5,103.2,146.2,103.2z"/>
			</g>
		</g>
		<g>
			<g>
				<path class="st1" d="M153.1,106.5c-0.3,0-0.5-0.2-0.5-0.5v-1.2c0-0.3,0.2-0.5,0.5-0.5c0.3,0,0.5,0.2,0.5,0.5v1.2
					C153.6,106.3,153.4,106.5,153.1,106.5z"/>
			</g>
			<g>
				<path class="st1" d="M155.4,106.5c-0.3,0-0.5-0.2-0.5-0.5v-1.2c0-0.3,0.2-0.5,0.5-0.5c0.3,0,0.5,0.2,0.5,0.5v1.2
					C155.9,106.3,155.6,106.5,155.4,106.5z"/>
			</g>
			<g>
				<path class="st1" d="M157.7,106.5c-0.3,0-0.5-0.2-0.5-0.5v-1.2c0-0.3,0.2-0.5,0.5-0.5c0.3,0,0.5,0.2,0.5,0.5v1.2
					C158.1,106.3,157.9,106.5,157.7,106.5z"/>
			</g>
			<g>
				<path class="st1" d="M137.1,106.5c-0.3,0-0.5-0.2-0.5-0.5v-1.2c0-0.3,0.2-0.5,0.5-0.5c0.3,0,0.5,0.2,0.5,0.5v1.2
					C137.6,106.3,137.4,106.5,137.1,106.5z"/>
			</g>
			<g>
				<path class="st1" d="M141.7,106.5c-0.3,0-0.5-0.2-0.5-0.5v-1.2c0-0.3,0.2-0.5,0.5-0.5c0.3,0,0.5,0.2,0.5,0.5v1.2
					C142.2,106.3,141.9,106.5,141.7,106.5z"/>
			</g>
			<g>
				<path class="st1" d="M144,106.5c-0.3,0-0.5-0.2-0.5-0.5v-1.2c0-0.3,0.2-0.5,0.5-0.5c0.3,0,0.5,0.2,0.5,0.5v1.2
					C144.4,106.3,144.2,106.5,144,106.5z"/>
			</g>
			<g>
				<path class="st1" d="M146.2,106.5c-0.3,0-0.5-0.2-0.5-0.5v-1.2c0-0.3,0.2-0.5,0.5-0.5c0.3,0,0.5,0.2,0.5,0.5v1.2
					C146.7,106.3,146.5,106.5,146.2,106.5z"/>
			</g>
		</g>
		<g>
			<g>
				<path class="st1" d="M148.5,109.7c-0.3,0-0.5-0.2-0.5-0.5V108c0-0.3,0.2-0.5,0.5-0.5c0.3,0,0.5,0.2,0.5,0.5v1.2
					C149,109.5,148.8,109.7,148.5,109.7z"/>
			</g>
			<g>
				<path class="st1" d="M150.8,109.7c-0.3,0-0.5-0.2-0.5-0.5V108c0-0.3,0.2-0.5,0.5-0.5c0.3,0,0.5,0.2,0.5,0.5v1.2
					C151.3,109.5,151.1,109.7,150.8,109.7z"/>
			</g>
			<g>
				<path class="st1" d="M153.1,109.7c-0.3,0-0.5-0.2-0.5-0.5V108c0-0.3,0.2-0.5,0.5-0.5c0.3,0,0.5,0.2,0.5,0.5v1.2
					C153.6,109.5,153.4,109.7,153.1,109.7z"/>
			</g>
			<g>
				<path class="st1" d="M157.7,109.7c-0.3,0-0.5-0.2-0.5-0.5V108c0-0.3,0.2-0.5,0.5-0.5c0.3,0,0.5,0.2,0.5,0.5v1.2
					C158.1,109.5,157.9,109.7,157.7,109.7z"/>
			</g>
			<g>
				<path class="st1" d="M137.1,109.7c-0.3,0-0.5-0.2-0.5-0.5V108c0-0.3,0.2-0.5,0.5-0.5c0.3,0,0.5,0.2,0.5,0.5v1.2
					C137.6,109.5,137.4,109.7,137.1,109.7z"/>
			</g>
			<g>
				<path class="st1" d="M139.4,109.7c-0.3,0-0.5-0.2-0.5-0.5V108c0-0.3,0.2-0.5,0.5-0.5c0.3,0,0.5,0.2,0.5,0.5v1.2
					C139.9,109.5,139.7,109.7,139.4,109.7z"/>
			</g>
			<g>
				<path class="st1" d="M141.7,109.7c-0.3,0-0.5-0.2-0.5-0.5V108c0-0.3,0.2-0.5,0.5-0.5c0.3,0,0.5,0.2,0.5,0.5v1.2
					C142.2,109.5,141.9,109.7,141.7,109.7z"/>
			</g>
			<g>
				<path class="st1" d="M146.2,109.7c-0.3,0-0.5-0.2-0.5-0.5V108c0-0.3,0.2-0.5,0.5-0.5c0.3,0,0.5,0.2,0.5,0.5v1.2
					C146.7,109.5,146.5,109.7,146.2,109.7z"/>
			</g>
		</g>
		<g>
			<g>
				<path class="st1" d="M148.5,113c-0.3,0-0.5-0.2-0.5-0.5v-1.2c0-0.3,0.2-0.5,0.5-0.5c0.3,0,0.5,0.2,0.5,0.5v1.2
					C149,112.8,148.8,113,148.5,113z"/>
			</g>
			<g>
				<path class="st1" d="M155.4,113c-0.3,0-0.5-0.2-0.5-0.5v-1.2c0-0.3,0.2-0.5,0.5-0.5c0.3,0,0.5,0.2,0.5,0.5v1.2
					C155.9,112.8,155.6,113,155.4,113z"/>
			</g>
			<g>
				<path class="st1" d="M157.7,113c-0.3,0-0.5-0.2-0.5-0.5v-1.2c0-0.3,0.2-0.5,0.5-0.5c0.3,0,0.5,0.2,0.5,0.5v1.2
					C158.1,112.8,157.9,113,157.7,113z"/>
			</g>
			<g>
				<path class="st1" d="M139.4,113c-0.3,0-0.5-0.2-0.5-0.5v-1.2c0-0.3,0.2-0.5,0.5-0.5c0.3,0,0.5,0.2,0.5,0.5v1.2
					C139.9,112.8,139.7,113,139.4,113z"/>
			</g>
			<g>
				<path class="st1" d="M141.7,113c-0.3,0-0.5-0.2-0.5-0.5v-1.2c0-0.3,0.2-0.5,0.5-0.5c0.3,0,0.5,0.2,0.5,0.5v1.2
					C142.2,112.8,141.9,113,141.7,113z"/>
			</g>
			<g>
				<path class="st1" d="M144,113c-0.3,0-0.5-0.2-0.5-0.5v-1.2c0-0.3,0.2-0.5,0.5-0.5c0.3,0,0.5,0.2,0.5,0.5v1.2
					C144.4,112.8,144.2,113,144,113z"/>
			</g>
			<g>
				<path class="st1" d="M146.2,113c-0.3,0-0.5-0.2-0.5-0.5v-1.2c0-0.3,0.2-0.5,0.5-0.5c0.3,0,0.5,0.2,0.5,0.5v1.2
					C146.7,112.8,146.5,113,146.2,113z"/>
			</g>
		</g>
		<g>
			<g>
				<path class="st1" d="M148.5,116.3c-0.3,0-0.5-0.2-0.5-0.5v-1.2c0-0.3,0.2-0.5,0.5-0.5c0.3,0,0.5,0.2,0.5,0.5v1.2
					C149,116.1,148.8,116.3,148.5,116.3z"/>
			</g>
			<g>
				<path class="st1" d="M150.8,116.3c-0.3,0-0.5-0.2-0.5-0.5v-1.2c0-0.3,0.2-0.5,0.5-0.5c0.3,0,0.5,0.2,0.5,0.5v1.2
					C151.3,116.1,151.1,116.3,150.8,116.3z"/>
			</g>
			<g>
				<path class="st1" d="M153.1,116.3c-0.3,0-0.5-0.2-0.5-0.5v-1.2c0-0.3,0.2-0.5,0.5-0.5c0.3,0,0.5,0.2,0.5,0.5v1.2
					C153.6,116.1,153.4,116.3,153.1,116.3z"/>
			</g>
			<g>
				<path class="st1" d="M155.4,116.3c-0.3,0-0.5-0.2-0.5-0.5v-1.2c0-0.3,0.2-0.5,0.5-0.5c0.3,0,0.5,0.2,0.5,0.5v1.2
					C155.9,116.1,155.6,116.3,155.4,116.3z"/>
			</g>
			<g>
				<path class="st1" d="M157.7,116.3c-0.3,0-0.5-0.2-0.5-0.5v-1.2c0-0.3,0.2-0.5,0.5-0.5c0.3,0,0.5,0.2,0.5,0.5v1.2
					C158.1,116.1,157.9,116.3,157.7,116.3z"/>
			</g>
			<g>
				<path class="st1" d="M137.1,116.3c-0.3,0-0.5-0.2-0.5-0.5v-1.2c0-0.3,0.2-0.5,0.5-0.5c0.3,0,0.5,0.2,0.5,0.5v1.2
					C137.6,116.1,137.4,116.3,137.1,116.3z"/>
			</g>
			<g>
				<path class="st1" d="M139.4,116.3c-0.3,0-0.5-0.2-0.5-0.5v-1.2c0-0.3,0.2-0.5,0.5-0.5c0.3,0,0.5,0.2,0.5,0.5v1.2
					C139.9,116.1,139.7,116.3,139.4,116.3z"/>
			</g>
			<g>
				<path class="st1" d="M144,116.3c-0.3,0-0.5-0.2-0.5-0.5v-1.2c0-0.3,0.2-0.5,0.5-0.5c0.3,0,0.5,0.2,0.5,0.5v1.2
					C144.4,116.1,144.2,116.3,144,116.3z"/>
			</g>
		</g>
		<g>
			<g>
				<path class="st1" d="M150.8,119.5c-0.3,0-0.5-0.2-0.5-0.5v-1.2c0-0.3,0.2-0.5,0.5-0.5c0.3,0,0.5,0.2,0.5,0.5v1.2
					C151.3,119.3,151.1,119.5,150.8,119.5z"/>
			</g>
			<g>
				<path class="st1" d="M155.4,119.5c-0.3,0-0.5-0.2-0.5-0.5v-1.2c0-0.3,0.2-0.5,0.5-0.5c0.3,0,0.5,0.2,0.5,0.5v1.2
					C155.9,119.3,155.6,119.5,155.4,119.5z"/>
			</g>
			<g>
				<path class="st1" d="M137.1,119.5c-0.3,0-0.5-0.2-0.5-0.5v-1.2c0-0.3,0.2-0.5,0.5-0.5c0.3,0,0.5,0.2,0.5,0.5v1.2
					C137.6,119.3,137.4,119.5,137.1,119.5z"/>
			</g>
			<g>
				<path class="st1" d="M139.4,119.5c-0.3,0-0.5-0.2-0.5-0.5v-1.2c0-0.3,0.2-0.5,0.5-0.5c0.3,0,0.5,0.2,0.5,0.5v1.2
					C139.9,119.3,139.7,119.5,139.4,119.5z"/>
			</g>
			<g>
				<path class="st1" d="M141.7,119.5c-0.3,0-0.5-0.2-0.5-0.5v-1.2c0-0.3,0.2-0.5,0.5-0.5c0.3,0,0.5,0.2,0.5,0.5v1.2
					C142.2,119.3,141.9,119.5,141.7,119.5z"/>
			</g>
			<g>
				<path class="st1" d="M144,119.5c-0.3,0-0.5-0.2-0.5-0.5v-1.2c0-0.3,0.2-0.5,0.5-0.5c0.3,0,0.5,0.2,0.5,0.5v1.2
					C144.4,119.3,144.2,119.5,144,119.5z"/>
			</g>
			<g>
				<path class="st1" d="M146.2,119.5c-0.3,0-0.5-0.2-0.5-0.5v-1.2c0-0.3,0.2-0.5,0.5-0.5c0.3,0,0.5,0.2,0.5,0.5v1.2
					C146.7,119.3,146.5,119.5,146.2,119.5z"/>
			</g>
		</g>
		<g>
			<g>
				<path class="st1" d="M148.5,122.8c-0.3,0-0.5-0.2-0.5-0.5v-1.2c0-0.3,0.2-0.5,0.5-0.5c0.3,0,0.5,0.2,0.5,0.5v1.2
					C149,122.6,148.8,122.8,148.5,122.8z"/>
			</g>
			<g>
				<path class="st1" d="M150.8,122.8c-0.3,0-0.5-0.2-0.5-0.5v-1.2c0-0.3,0.2-0.5,0.5-0.5c0.3,0,0.5,0.2,0.5,0.5v1.2
					C151.3,122.6,151.1,122.8,150.8,122.8z"/>
			</g>
			<g>
				<path class="st1" d="M153.1,122.8c-0.3,0-0.5-0.2-0.5-0.5v-1.2c0-0.3,0.2-0.5,0.5-0.5c0.3,0,0.5,0.2,0.5,0.5v1.2
					C153.6,122.6,153.4,122.8,153.1,122.8z"/>
			</g>
			<g>
				<path class="st1" d="M155.4,122.8c-0.3,0-0.5-0.2-0.5-0.5v-1.2c0-0.3,0.2-0.5,0.5-0.5c0.3,0,0.5,0.2,0.5,0.5v1.2
					C155.9,122.6,155.6,122.8,155.4,122.8z"/>
			</g>
			<g>
				<path class="st1" d="M157.7,122.8c-0.3,0-0.5-0.2-0.5-0.5v-1.2c0-0.3,0.2-0.5,0.5-0.5c0.3,0,0.5,0.2,0.5,0.5v1.2
					C158.1,122.6,157.9,122.8,157.7,122.8z"/>
			</g>
			<g>
				<path class="st1" d="M137.1,122.8c-0.3,0-0.5-0.2-0.5-0.5v-1.2c0-0.3,0.2-0.5,0.5-0.5c0.3,0,0.5,0.2,0.5,0.5v1.2
					C137.6,122.6,137.4,122.8,137.1,122.8z"/>
			</g>
			<g>
				<path class="st1" d="M141.7,122.8c-0.3,0-0.5-0.2-0.5-0.5v-1.2c0-0.3,0.2-0.5,0.5-0.5c0.3,0,0.5,0.2,0.5,0.5v1.2
					C142.2,122.6,141.9,122.8,141.7,122.8z"/>
			</g>
			<g>
				<path class="st1" d="M146.2,122.8c-0.3,0-0.5-0.2-0.5-0.5v-1.2c0-0.3,0.2-0.5,0.5-0.5c0.3,0,0.5,0.2,0.5,0.5v1.2
					C146.7,122.6,146.5,122.8,146.2,122.8z"/>
			</g>
		</g>
		<g>
			<g>
				<path class="st1" d="M153.1,126.1c-0.3,0-0.5-0.2-0.5-0.5v-1.2c0-0.3,0.2-0.5,0.5-0.5c0.3,0,0.5,0.2,0.5,0.5v1.2
					C153.6,125.8,153.4,126.1,153.1,126.1z"/>
			</g>
			<g>
				<path class="st1" d="M155.4,126.1c-0.3,0-0.5-0.2-0.5-0.5v-1.2c0-0.3,0.2-0.5,0.5-0.5c0.3,0,0.5,0.2,0.5,0.5v1.2
					C155.9,125.8,155.6,126.1,155.4,126.1z"/>
			</g>
			<g>
				<path class="st1" d="M157.7,126.1c-0.3,0-0.5-0.2-0.5-0.5v-1.2c0-0.3,0.2-0.5,0.5-0.5c0.3,0,0.5,0.2,0.5,0.5v1.2
					C158.1,125.8,157.9,126.1,157.7,126.1z"/>
			</g>
			<g>
				<path class="st1" d="M137.1,126.1c-0.3,0-0.5-0.2-0.5-0.5v-1.2c0-0.3,0.2-0.5,0.5-0.5c0.3,0,0.5,0.2,0.5,0.5v1.2
					C137.6,125.8,137.4,126.1,137.1,126.1z"/>
			</g>
			<g>
				<path class="st1" d="M139.4,126.1c-0.3,0-0.5-0.2-0.5-0.5v-1.2c0-0.3,0.2-0.5,0.5-0.5c0.3,0,0.5,0.2,0.5,0.5v1.2
					C139.9,125.8,139.7,126.1,139.4,126.1z"/>
			</g>
			<g>
				<path class="st1" d="M141.7,126.1c-0.3,0-0.5-0.2-0.5-0.5v-1.2c0-0.3,0.2-0.5,0.5-0.5c0.3,0,0.5,0.2,0.5,0.5v1.2
					C142.2,125.8,141.9,126.1,141.7,126.1z"/>
			</g>
			<g>
				<path class="st1" d="M144,126.1c-0.3,0-0.5-0.2-0.5-0.5v-1.2c0-0.3,0.2-0.5,0.5-0.5c0.3,0,0.5,0.2,0.5,0.5v1.2
					C144.4,125.8,144.2,126.1,144,126.1z"/>
			</g>
		</g>
		<g>
			<g>
				<path class="st1" d="M148.5,129.3c-0.3,0-0.5-0.2-0.5-0.5v-1.2c0-0.3,0.2-0.5,0.5-0.5c0.3,0,0.5,0.2,0.5,0.5v1.2
					C149,129.1,148.8,129.3,148.5,129.3z"/>
			</g>
			<g>
				<path class="st1" d="M150.8,129.3c-0.3,0-0.5-0.2-0.5-0.5v-1.2c0-0.3,0.2-0.5,0.5-0.5c0.3,0,0.5,0.2,0.5,0.5v1.2
					C151.3,129.1,151.1,129.3,150.8,129.3z"/>
			</g>
			<g>
				<path class="st1" d="M153.1,129.3c-0.3,0-0.5-0.2-0.5-0.5v-1.2c0-0.3,0.2-0.5,0.5-0.5c0.3,0,0.5,0.2,0.5,0.5v1.2
					C153.6,129.1,153.4,129.3,153.1,129.3z"/>
			</g>
			<g>
				<path class="st1" d="M157.7,129.3c-0.3,0-0.5-0.2-0.5-0.5v-1.2c0-0.3,0.2-0.5,0.5-0.5c0.3,0,0.5,0.2,0.5,0.5v1.2
					C158.1,129.1,157.9,129.3,157.7,129.3z"/>
			</g>
			<g>
				<path class="st1" d="M139.4,129.3c-0.3,0-0.5-0.2-0.5-0.5v-1.2c0-0.3,0.2-0.5,0.5-0.5c0.3,0,0.5,0.2,0.5,0.5v1.2
					C139.9,129.1,139.7,129.3,139.4,129.3z"/>
			</g>
			<g>
				<path class="st1" d="M141.7,129.3c-0.3,0-0.5-0.2-0.5-0.5v-1.2c0-0.3,0.2-0.5,0.5-0.5c0.3,0,0.5,0.2,0.5,0.5v1.2
					C142.2,129.1,141.9,129.3,141.7,129.3z"/>
			</g>
			<g>
				<path class="st1" d="M144,129.3c-0.3,0-0.5-0.2-0.5-0.5v-1.2c0-0.3,0.2-0.5,0.5-0.5c0.3,0,0.5,0.2,0.5,0.5v1.2
					C144.4,129.1,144.2,129.3,144,129.3z"/>
			</g>
			<g>
				<path class="st1" d="M146.2,129.3c-0.3,0-0.5-0.2-0.5-0.5v-1.2c0-0.3,0.2-0.5,0.5-0.5c0.3,0,0.5,0.2,0.5,0.5v1.2
					C146.7,129.1,146.5,129.3,146.2,129.3z"/>
			</g>
		</g>
		<g>
			<g>
				<path class="st1" d="M150.8,132.6c-0.3,0-0.5-0.2-0.5-0.5v-1.2c0-0.3,0.2-0.5,0.5-0.5c0.3,0,0.5,0.2,0.5,0.5v1.2
					C151.3,132.4,151.1,132.6,150.8,132.6z"/>
			</g>
			<g>
				<path class="st1" d="M153.1,132.6c-0.3,0-0.5-0.2-0.5-0.5v-1.2c0-0.3,0.2-0.5,0.5-0.5c0.3,0,0.5,0.2,0.5,0.5v1.2
					C153.6,132.4,153.4,132.6,153.1,132.6z"/>
			</g>
			<g>
				<path class="st1" d="M155.4,132.6c-0.3,0-0.5-0.2-0.5-0.5v-1.2c0-0.3,0.2-0.5,0.5-0.5c0.3,0,0.5,0.2,0.5,0.5v1.2
					C155.9,132.4,155.6,132.6,155.4,132.6z"/>
			</g>
			<g>
				<path class="st1" d="M137.1,132.6c-0.3,0-0.5-0.2-0.5-0.5v-1.2c0-0.3,0.2-0.5,0.5-0.5c0.3,0,0.5,0.2,0.5,0.5v1.2
					C137.6,132.4,137.4,132.6,137.1,132.6z"/>
			</g>
			<g>
				<path class="st1" d="M139.4,132.6c-0.3,0-0.5-0.2-0.5-0.5v-1.2c0-0.3,0.2-0.5,0.5-0.5c0.3,0,0.5,0.2,0.5,0.5v1.2
					C139.9,132.4,139.7,132.6,139.4,132.6z"/>
			</g>
			<g>
				<path class="st1" d="M144,132.6c-0.3,0-0.5-0.2-0.5-0.5v-1.2c0-0.3,0.2-0.5,0.5-0.5c0.3,0,0.5,0.2,0.5,0.5v1.2
					C144.4,132.4,144.2,132.6,144,132.6z"/>
			</g>
			<g>
				<path class="st1" d="M146.2,132.6c-0.3,0-0.5-0.2-0.5-0.5v-1.2c0-0.3,0.2-0.5,0.5-0.5c0.3,0,0.5,0.2,0.5,0.5v1.2
					C146.7,132.4,146.5,132.6,146.2,132.6z"/>
			</g>
		</g>
	</g>
	<g>
		<g>
			<g>
				<path class="st1" d="M288.6,115.8h-21.7c-0.3,0-0.6-0.2-0.6-0.5c0-0.3,0.3-0.5,0.6-0.5h21.7c0.3,0,0.6,0.2,0.6,0.5
					C289.2,115.6,289,115.8,288.6,115.8z"/>
			</g>
			<g>
				<path class="st1" d="M288.6,119.8h-21.7c-0.3,0-0.6-0.2-0.6-0.5c0-0.3,0.3-0.5,0.6-0.5h21.7c0.3,0,0.6,0.2,0.6,0.5
					C289.2,119.6,289,119.8,288.6,119.8z"/>
			</g>
			<g>
				<path class="st1" d="M288.6,123.9h-21.7c-0.3,0-0.6-0.2-0.6-0.5c0-0.3,0.3-0.5,0.6-0.5h21.7c0.3,0,0.6,0.2,0.6,0.5
					C289.2,123.6,289,123.9,288.6,123.9z"/>
			</g>
			<g>
				<path class="st1" d="M288.6,127.9h-21.7c-0.3,0-0.6-0.2-0.6-0.5c0-0.3,0.3-0.5,0.6-0.5h21.7c0.3,0,0.6,0.2,0.6,0.5
					C289.2,127.7,289,127.9,288.6,127.9z"/>
			</g>
			<g>
				<path class="st1" d="M288.6,131.9h-21.7c-0.3,0-0.6-0.2-0.6-0.5c0-0.3,0.3-0.5,0.6-0.5h21.7c0.3,0,0.6,0.2,0.6,0.5
					C289.2,131.7,289,131.9,288.6,131.9z"/>
			</g>
		</g>
		<g>
			<g>
				<path class="st1" d="M288.6,95.6h-21.7c-0.3,0-0.6-0.2-0.6-0.5c0-0.3,0.3-0.5,0.6-0.5h21.7c0.3,0,0.6,0.2,0.6,0.5
					C289.2,95.4,289,95.6,288.6,95.6z"/>
			</g>
			<g>
				<path class="st1" d="M288.6,99.6h-21.7c-0.3,0-0.6-0.2-0.6-0.5c0-0.3,0.3-0.5,0.6-0.5h21.7c0.3,0,0.6,0.2,0.6,0.5
					C289.2,99.4,289,99.6,288.6,99.6z"/>
			</g>
			<g>
				<path class="st1" d="M288.6,103.7h-21.7c-0.3,0-0.6-0.2-0.6-0.5c0-0.3,0.3-0.5,0.6-0.5h21.7c0.3,0,0.6,0.2,0.6,0.5
					C289.2,103.4,289,103.7,288.6,103.7z"/>
			</g>
			<g>
				<path class="st1" d="M288.6,107.7h-21.7c-0.3,0-0.6-0.2-0.6-0.5c0-0.3,0.3-0.5,0.6-0.5h21.7c0.3,0,0.6,0.2,0.6,0.5
					C289.2,107.5,289,107.7,288.6,107.7z"/>
			</g>
			<g>
				<path class="st1" d="M288.6,111.8h-21.7c-0.3,0-0.6-0.2-0.6-0.5c0-0.3,0.3-0.5,0.6-0.5h21.7c0.3,0,0.6,0.2,0.6,0.5
					C289.2,111.5,289,111.8,288.6,111.8z"/>
			</g>
		</g>
	</g>
	<g>
		<g>
			<g>
				<g>
					<path class="st1" d="M380.1,107.4c-0.5,0-0.9-0.3-0.9-0.6v-2.4c0-0.3,0.4-0.6,0.9-0.6c0.5,0,0.9,0.3,0.9,0.6v2.4
						C381,107.1,380.6,107.4,380.1,107.4z"/>
				</g>
				<g>
					<path class="st1" d="M385.7,107.4c-0.5,0-0.9-0.3-0.9-0.6v-2.4c0-0.3,0.4-0.6,0.9-0.6c0.5,0,0.9,0.3,0.9,0.6v2.4
						C386.6,107.1,386.2,107.4,385.7,107.4z"/>
				</g>
			</g>
			<g>
				<g>
					<path class="st1" d="M380.1,113.3c-0.5,0-0.9-0.3-0.9-0.6v-2.4c0-0.3,0.4-0.6,0.9-0.6c0.5,0,0.9,0.3,0.9,0.6v2.4
						C381,113,380.6,113.3,380.1,113.3z"/>
				</g>
				<g>
					<path class="st1" d="M385.7,113.3c-0.5,0-0.9-0.3-0.9-0.6v-2.4c0-0.3,0.4-0.6,0.9-0.6c0.5,0,0.9,0.3,0.9,0.6v2.4
						C386.6,113,386.2,113.3,385.7,113.3z"/>
				</g>
			</g>
			<g>
				<g>
					<path class="st1" d="M380.1,119.1c-0.5,0-0.9-0.3-0.9-0.6v-2.4c0-0.3,0.4-0.6,0.9-0.6c0.5,0,0.9,0.3,0.9,0.6v2.4
						C381,118.8,380.6,119.1,380.1,119.1z"/>
				</g>
				<g>
					<path class="st1" d="M385.7,119.1c-0.5,0-0.9-0.3-0.9-0.6v-2.4c0-0.3,0.4-0.6,0.9-0.6c0.5,0,0.9,0.3,0.9,0.6v2.4
						C386.6,118.8,386.2,119.1,385.7,119.1z"/>
				</g>
			</g>
			<g>
				<g>
					<path class="st1" d="M380.1,125c-0.5,0-0.9-0.3-0.9-0.6V122c0-0.3,0.4-0.6,0.9-0.6c0.5,0,0.9,0.3,0.9,0.6v2.4
						C381,124.7,380.6,125,380.1,125z"/>
				</g>
				<g>
					<path class="st1" d="M385.7,125c-0.5,0-0.9-0.3-0.9-0.6V122c0-0.3,0.4-0.6,0.9-0.6c0.5,0,0.9,0.3,0.9,0.6v2.4
						C386.6,124.7,386.2,125,385.7,125z"/>
				</g>
			</g>
			<g>
				<g>
					<path class="st1" d="M380.1,130.8c-0.5,0-0.9-0.3-0.9-0.6v-2.4c0-0.3,0.4-0.6,0.9-0.6c0.5,0,0.9,0.3,0.9,0.6v2.4
						C381,130.6,380.6,130.8,380.1,130.8z"/>
				</g>
				<g>
					<path class="st1" d="M385.7,130.8c-0.5,0-0.9-0.3-0.9-0.6v-2.4c0-0.3,0.4-0.6,0.9-0.6c0.5,0,0.9,0.3,0.9,0.6v2.4
						C386.6,130.6,386.2,130.8,385.7,130.8z"/>
				</g>
			</g>
		</g>
	</g>
	<g>
		<g>
			<g>
				<path class="st1" d="M394.5,111.8h-3.1c-0.5,0-0.9-0.3-0.9-0.6c0-0.3,0.4-0.6,0.9-0.6h3.1c0.5,0,0.9,0.3,0.9,0.6
					C395.4,111.5,395,111.8,394.5,111.8z"/>
			</g>
			<g>
				<path class="st1" d="M400,111.8h-3.1c-0.5,0-0.9-0.3-0.9-0.6c0-0.3,0.4-0.6,0.9-0.6h3.1c0.5,0,0.9,0.3,0.9,0.6
					C400.9,111.5,400.5,111.8,400,111.8z"/>
			</g>
			<g>
				<path class="st1" d="M411.1,111.8H408c-0.5,0-0.9-0.3-0.9-0.6c0-0.3,0.4-0.6,0.9-0.6h3.1c0.5,0,0.9,0.3,0.9,0.6
					C412,111.5,411.6,111.8,411.1,111.8z"/>
			</g>
		</g>
		<g>
			<g>
				<path class="st1" d="M394.5,117.9h-3.1c-0.5,0-0.9-0.3-0.9-0.6c0-0.3,0.4-0.6,0.9-0.6h3.1c0.5,0,0.9,0.3,0.9,0.6
					C395.4,117.6,395,117.9,394.5,117.9z"/>
			</g>
			<g>
				<path class="st1" d="M400,117.9h-3.1c-0.5,0-0.9-0.3-0.9-0.6c0-0.3,0.4-0.6,0.9-0.6h3.1c0.5,0,0.9,0.3,0.9,0.6
					C400.9,117.6,400.5,117.9,400,117.9z"/>
			</g>
			<g>
				<path class="st1" d="M405.6,117.9h-3.1c-0.5,0-0.9-0.3-0.9-0.6c0-0.3,0.4-0.6,0.9-0.6h3.1c0.5,0,0.9,0.3,0.9,0.6
					C406.5,117.6,406.1,117.9,405.6,117.9z"/>
			</g>
		</g>
		<g>
			<g>
				<path class="st1" d="M400,124h-3.1c-0.5,0-0.9-0.3-0.9-0.6c0-0.3,0.4-0.6,0.9-0.6h3.1c0.5,0,0.9,0.3,0.9,0.6
					C400.9,123.7,400.5,124,400,124z"/>
			</g>
			<g>
				<path class="st1" d="M405.6,124h-3.1c-0.5,0-0.9-0.3-0.9-0.6c0-0.3,0.4-0.6,0.9-0.6h3.1c0.5,0,0.9,0.3,0.9,0.6
					C406.5,123.7,406.1,124,405.6,124z"/>
			</g>
			<g>
				<path class="st1" d="M411.1,124H408c-0.5,0-0.9-0.3-0.9-0.6c0-0.3,0.4-0.6,0.9-0.6h3.1c0.5,0,0.9,0.3,0.9,0.6
					C412,123.7,411.6,124,411.1,124z"/>
			</g>
		</g>
		<g>
			<g>
				<path class="st1" d="M394.5,130.1h-3.1c-0.5,0-0.9-0.3-0.9-0.6c0-0.3,0.4-0.6,0.9-0.6h3.1c0.5,0,0.9,0.3,0.9,0.6
					C395.4,129.8,395,130.1,394.5,130.1z"/>
			</g>
			<g>
				<path class="st1" d="M405.6,130.1h-3.1c-0.5,0-0.9-0.3-0.9-0.6c0-0.3,0.4-0.6,0.9-0.6h3.1c0.5,0,0.9,0.3,0.9,0.6
					C406.5,129.8,406.1,130.1,405.6,130.1z"/>
			</g>
			<g>
				<path class="st1" d="M411.1,130.1H408c-0.5,0-0.9-0.3-0.9-0.6c0-0.3,0.4-0.6,0.9-0.6h3.1c0.5,0,0.9,0.3,0.9,0.6
					C412,129.8,411.6,130.1,411.1,130.1z"/>
			</g>
		</g>
	</g>
	<g>
		<g>
			<g>
				<path class="st1" d="M86.7,95h-2.3c-0.3,0-0.5-0.2-0.5-0.5s0.2-0.5,0.5-0.5h2.3c0.3,0,0.5,0.2,0.5,0.5S87,95,86.7,95z"/>
			</g>
			<g>
				<path class="st1" d="M90.8,95h-2.3c-0.3,0-0.5-0.2-0.5-0.5s0.2-0.5,0.5-0.5h2.3c0.3,0,0.5,0.2,0.5,0.5S91,95,90.8,95z"/>
			</g>
			<g>
				<path class="st1" d="M94.9,95h-2.3c-0.3,0-0.5-0.2-0.5-0.5s0.2-0.5,0.5-0.5h2.3c0.3,0,0.5,0.2,0.5,0.5S95.1,95,94.9,95z"/>
			</g>
		</g>
		<g>
			<g>
				<path class="st1" d="M90.8,98.8h-2.3c-0.3,0-0.5-0.2-0.5-0.5c0-0.3,0.2-0.5,0.5-0.5h2.3c0.3,0,0.5,0.2,0.5,0.5
					C91.2,98.6,91,98.8,90.8,98.8z"/>
			</g>
			<g>
				<path class="st1" d="M94.9,98.8h-2.3c-0.3,0-0.5-0.2-0.5-0.5c0-0.3,0.2-0.5,0.5-0.5h2.3c0.3,0,0.5,0.2,0.5,0.5
					C95.3,98.6,95.1,98.8,94.9,98.8z"/>
			</g>
			<g>
				<path class="st1" d="M98.9,98.8h-2.3c-0.3,0-0.5-0.2-0.5-0.5c0-0.3,0.2-0.5,0.5-0.5h2.3c0.3,0,0.5,0.2,0.5,0.5
					C99.4,98.6,99.2,98.8,98.9,98.8z"/>
			</g>
		</g>
		<g>
			<g>
				<path class="st1" d="M86.7,102.7h-2.3c-0.3,0-0.5-0.2-0.5-0.5c0-0.3,0.2-0.5,0.5-0.5h2.3c0.3,0,0.5,0.2,0.5,0.5
					C87.2,102.5,87,102.7,86.7,102.7z"/>
			</g>
			<g>
				<path class="st1" d="M94.9,102.7h-2.3c-0.3,0-0.5-0.2-0.5-0.5c0-0.3,0.2-0.5,0.5-0.5h2.3c0.3,0,0.5,0.2,0.5,0.5
					C95.3,102.5,95.1,102.7,94.9,102.7z"/>
			</g>
			<g>
				<path class="st1" d="M98.9,102.7h-2.3c-0.3,0-0.5-0.2-0.5-0.5c0-0.3,0.2-0.5,0.5-0.5h2.3c0.3,0,0.5,0.2,0.5,0.5
					C99.4,102.5,99.2,102.7,98.9,102.7z"/>
			</g>
		</g>
		<g>
			<g>
				<path class="st1" d="M86.7,106.6h-2.3c-0.3,0-0.5-0.2-0.5-0.5c0-0.3,0.2-0.5,0.5-0.5h2.3c0.3,0,0.5,0.2,0.5,0.5
					C87.2,106.4,87,106.6,86.7,106.6z"/>
			</g>
			<g>
				<path class="st1" d="M90.8,106.6h-2.3c-0.3,0-0.5-0.2-0.5-0.5c0-0.3,0.2-0.5,0.5-0.5h2.3c0.3,0,0.5,0.2,0.5,0.5
					C91.2,106.4,91,106.6,90.8,106.6z"/>
			</g>
			<g>
				<path class="st1" d="M98.9,106.6h-2.3c-0.3,0-0.5-0.2-0.5-0.5c0-0.3,0.2-0.5,0.5-0.5h2.3c0.3,0,0.5,0.2,0.5,0.5
					C99.4,106.4,99.2,106.6,98.9,106.6z"/>
			</g>
		</g>
		<g>
			<g>
				<path class="st1" d="M86.7,110.5h-2.3c-0.3,0-0.5-0.2-0.5-0.5c0-0.3,0.2-0.5,0.5-0.5h2.3c0.3,0,0.5,0.2,0.5,0.5
					C87.2,110.3,87,110.5,86.7,110.5z"/>
			</g>
			<g>
				<path class="st1" d="M90.8,110.5h-2.3c-0.3,0-0.5-0.2-0.5-0.5c0-0.3,0.2-0.5,0.5-0.5h2.3c0.3,0,0.5,0.2,0.5,0.5
					C91.2,110.3,91,110.5,90.8,110.5z"/>
			</g>
			<g>
				<path class="st1" d="M94.9,110.5h-2.3c-0.3,0-0.5-0.2-0.5-0.5c0-0.3,0.2-0.5,0.5-0.5h2.3c0.3,0,0.5,0.2,0.5,0.5
					C95.3,110.3,95.1,110.5,94.9,110.5z"/>
			</g>
		</g>
		<g>
			<g>
				<path class="st1" d="M90.8,114.3h-2.3c-0.3,0-0.5-0.2-0.5-0.5c0-0.3,0.2-0.5,0.5-0.5h2.3c0.3,0,0.5,0.2,0.5,0.5
					C91.2,114.1,91,114.3,90.8,114.3z"/>
			</g>
			<g>
				<path class="st1" d="M94.9,114.3h-2.3c-0.3,0-0.5-0.2-0.5-0.5c0-0.3,0.2-0.5,0.5-0.5h2.3c0.3,0,0.5,0.2,0.5,0.5
					C95.3,114.1,95.1,114.3,94.9,114.3z"/>
			</g>
			<g>
				<path class="st1" d="M98.9,114.3h-2.3c-0.3,0-0.5-0.2-0.5-0.5c0-0.3,0.2-0.5,0.5-0.5h2.3c0.3,0,0.5,0.2,0.5,0.5
					C99.4,114.1,99.2,114.3,98.9,114.3z"/>
			</g>
		</g>
		<g>
			<g>
				<path class="st1" d="M86.7,118.2h-2.3c-0.3,0-0.5-0.2-0.5-0.5c0-0.3,0.2-0.5,0.5-0.5h2.3c0.3,0,0.5,0.2,0.5,0.5
					C87.2,118,87,118.2,86.7,118.2z"/>
			</g>
			<g>
				<path class="st1" d="M94.9,118.2h-2.3c-0.3,0-0.5-0.2-0.5-0.5c0-0.3,0.2-0.5,0.5-0.5h2.3c0.3,0,0.5,0.2,0.5,0.5
					C95.3,118,95.1,118.2,94.9,118.2z"/>
			</g>
			<g>
				<path class="st1" d="M98.9,118.2h-2.3c-0.3,0-0.5-0.2-0.5-0.5c0-0.3,0.2-0.5,0.5-0.5h2.3c0.3,0,0.5,0.2,0.5,0.5
					C99.4,118,99.2,118.2,98.9,118.2z"/>
			</g>
		</g>
	</g>
	<g>
		<g>
			<path class="st1" d="M43.5,109.9H27c-0.3,0-0.5-0.2-0.5-0.5c0-0.3,0.2-0.5,0.5-0.5h16.6c0.3,0,0.5,0.2,0.5,0.5
				C44,109.7,43.8,109.9,43.5,109.9z"/>
		</g>
		<g>
			<path class="st1" d="M43.5,113.1H27c-0.3,0-0.5-0.2-0.5-0.5c0-0.3,0.2-0.5,0.5-0.5h16.6c0.3,0,0.5,0.2,0.5,0.5
				C44,112.9,43.8,113.1,43.5,113.1z"/>
		</g>
		<g>
			<path class="st1" d="M43.5,116.3H27c-0.3,0-0.5-0.2-0.5-0.5c0-0.3,0.2-0.5,0.5-0.5h16.6c0.3,0,0.5,0.2,0.5,0.5
				C44,116.1,43.8,116.3,43.5,116.3z"/>
		</g>
		<g>
			<path class="st1" d="M43.5,119.5H27c-0.3,0-0.5-0.2-0.5-0.5c0-0.3,0.2-0.5,0.5-0.5h16.6c0.3,0,0.5,0.2,0.5,0.5
				C44,119.3,43.8,119.5,43.5,119.5z"/>
		</g>
		<g>
			<path class="st1" d="M43.5,122.7H27c-0.3,0-0.5-0.2-0.5-0.5c0-0.3,0.2-0.5,0.5-0.5h16.6c0.3,0,0.5,0.2,0.5,0.5
				C44,122.5,43.8,122.7,43.5,122.7z"/>
		</g>
	</g>
</g>
</svg>
