<?xml version="1.0" encoding="utf-8"?>
<!-- Generator: Adobe Illustrator 23.0.3, SVG Export Plug-In . SVG Version: 6.00 Build 0)  -->
<svg version="1.1" id="Layer_1" xmlns="http://www.w3.org/2000/svg" xmlns:xlink="http://www.w3.org/1999/xlink" x="0px" y="0px"
	 viewBox="0 0 425.2 194.7" style="enable-background:new 0 0 425.2 194.7;" xml:space="preserve">
<style type="text/css">
	.st0{fill:#658EC2;}
	.st1{fill:#8FC1EA;}
</style>
<g>
	<polygon class="st0" points="407.4,132 407.4,145.3 404.9,145.3 404.9,135 402.1,135 402.1,131.3 397.4,131.3 397.4,135 389.9,135 
		389.9,140.9 364.6,140.9 364.6,130 361.4,130 361.4,125.8 353.4,125.8 353.4,130 342.3,130 342.3,145.3 338.6,145.3 338.6,138.1 
		326.9,138.1 326.9,126.5 315.7,126.5 315.7,123.2 309.9,123.2 309.9,126.5 292.9,126.5 292.9,130 283,130 283,135 252.5,135 
		252.5,129.5 235.2,129.5 235.2,133.1 222.4,133.1 222.4,140.2 215.6,140.2 215.6,132.4 215.6,127.6 210,127.6 210,132.4 
		199.1,132.4 199.1,121.9 178.1,121.9 178.1,136.1 159.7,136.1 159.7,142.6 147.8,142.6 147.8,122.8 128.9,122.8 128.9,127.4 
		119.3,127.4 119.3,129.9 95.2,129.9 95.2,138.1 85.4,138.1 85.4,145.3 71.9,145.3 71.9,121.1 48.4,121.1 48.4,136.1 35.2,136.1 
		35.2,125.8 20.5,125.8 20.5,130.9 0,130.9 0,145.3 0,195.1 425.2,195.1 425.2,152.3 425.2,145.3 425.2,132 	"/>
	<g>
		<rect x="53.1" y="124.9" class="st1" width="3.3" height="4.4"/>
		<rect x="58.7" y="124.9" class="st1" width="3.3" height="4.4"/>
		<rect x="64.2" y="124.9" class="st1" width="3.3" height="4.4"/>
		<rect x="53.1" y="134.6" class="st1" width="3.3" height="4.4"/>
		<rect x="64.2" y="134.6" class="st1" width="3.3" height="4.4"/>
		<rect x="53.1" y="144.3" class="st1" width="3.3" height="4.4"/>
		<rect x="58.7" y="144.3" class="st1" width="3.3" height="4.4"/>
		<rect x="64.2" y="144.3" class="st1" width="3.3" height="4.4"/>
		<rect x="53.1" y="154" class="st1" width="3.3" height="4.4"/>
		<rect x="23" y="128.3" class="st1" width="2.7" height="2.9"/>
		<rect x="30.6" y="128.3" class="st1" width="2.7" height="2.9"/>
		<rect x="2.4" y="136.8" class="st1" width="1.6" height="3.8"/>
		<rect x="2.4" y="144.6" class="st1" width="1.6" height="3.8"/>
		<rect x="5.7" y="136.8" class="st1" width="1.6" height="3.8"/>
		<rect x="5.7" y="152.4" class="st1" width="1.6" height="3.8"/>
		<rect x="9" y="136.8" class="st1" width="1.6" height="3.8"/>
		<rect x="9" y="152.4" class="st1" width="1.6" height="3.8"/>
		<rect x="12.4" y="136.8" class="st1" width="1.6" height="3.8"/>
		<rect x="15.7" y="144.6" class="st1" width="1.6" height="3.8"/>
		<rect x="141.4" y="130.8" class="st1" width="2.7" height="3.5"/>
		<rect x="135.1" y="130.8" class="st1" width="2.7" height="3.5"/>
		<rect x="128.8" y="130.8" class="st1" width="2.7" height="3.5"/>
		<rect x="122.5" y="130.8" class="st1" width="2.7" height="3.5"/>
		<rect x="90.2" y="144.6" class="st1" width="4.6" height="4.1"/>
		<rect x="101.5" y="144.6" class="st1" width="4.6" height="4.1"/>
		<rect x="112.9" y="144.6" class="st1" width="4.6" height="4.1"/>
		<rect x="180.4" y="126.4" class="st1" width="2.4" height="4.4"/>
		<rect x="184.2" y="126.4" class="st1" width="2.4" height="4.4"/>
		<rect x="191.6" y="126.4" class="st1" width="2.4" height="4.4"/>
		<rect x="162.6" y="139.4" class="st1" width="2.6" height="2.6"/>
		<rect x="162.6" y="145.6" class="st1" width="2.6" height="2.6"/>
		<rect x="162.6" y="151.9" class="st1" width="2.6" height="2.6"/>
		<rect x="168.3" y="145.6" class="st1" width="2.6" height="2.6"/>
		<rect x="168.3" y="151.9" class="st1" width="2.6" height="2.6"/>
		<rect x="174.1" y="139.4" class="st1" width="2.6" height="2.6"/>
		<rect x="174.1" y="151.9" class="st1" width="2.6" height="2.6"/>
		<rect x="174.1" y="158.1" class="st1" width="2.6" height="2.6"/>
		<rect x="179.8" y="139.4" class="st1" width="2.6" height="2.6"/>
		<rect x="179.8" y="145.6" class="st1" width="2.6" height="2.6"/>
		<rect x="179.8" y="151.9" class="st1" width="2.6" height="2.6"/>
		<rect x="224.9" y="136.1" class="st1" width="2.1" height="4.5"/>
		<rect x="235.2" y="136.1" class="st1" width="2.1" height="4.5"/>
		<rect x="240.3" y="136.1" class="st1" width="2.1" height="4.5"/>
		<rect x="245.5" y="136.1" class="st1" width="2.1" height="4.5"/>
		<rect x="224.9" y="148.2" class="st1" width="2.1" height="4.5"/>
		<rect x="230.1" y="148.2" class="st1" width="2.1" height="4.5"/>
		<rect x="235.2" y="148.2" class="st1" width="2.1" height="4.5"/>
		<rect x="286.7" y="133.1" class="st1" width="1.9" height="3"/>
		<rect x="290.8" y="133.1" class="st1" width="1.9" height="3"/>
		<rect x="299.1" y="133.1" class="st1" width="1.9" height="3"/>
		<rect x="307.5" y="133.1" class="st1" width="1.9" height="3"/>
		<rect x="311.6" y="133.1" class="st1" width="1.9" height="3"/>
		<rect x="315.8" y="133.1" class="st1" width="1.9" height="3"/>
		<rect x="320" y="133.1" class="st1" width="1.9" height="3"/>
		<rect x="365.8" y="145.4" class="st1" width="2.7" height="2.9"/>
		<rect x="370.2" y="145.4" class="st1" width="2.7" height="2.9"/>
		<rect x="379" y="145.4" class="st1" width="2.7" height="2.9"/>
		<rect x="383.3" y="145.4" class="st1" width="2.7" height="2.9"/>
		<rect x="387.7" y="145.4" class="st1" width="2.7" height="2.9"/>
		<rect x="365.8" y="151.9" class="st1" width="2.7" height="2.9"/>
		<rect x="374.6" y="151.9" class="st1" width="2.7" height="2.9"/>
		<rect x="379" y="151.9" class="st1" width="2.7" height="2.9"/>
		<rect x="392.1" y="151.9" class="st1" width="2.7" height="2.9"/>
		<rect x="411" y="135.3" class="st1" width="2.8" height="5"/>
		<rect x="418.8" y="135.3" class="st1" width="2.8" height="5"/>
		<rect x="411" y="145.8" class="st1" width="2.8" height="5"/>
		<rect x="418.8" y="145.8" class="st1" width="2.8" height="5"/>
		<rect x="411" y="156.3" class="st1" width="2.8" height="5"/>
	</g>
</g>
</svg>
