<?xml version="1.0" encoding="utf-8"?>
<!-- Generator: Adobe Illustrator 23.0.3, SVG Export Plug-In . SVG Version: 6.00 Build 0)  -->
<svg version="1.1" id="Layer_1" xmlns="http://www.w3.org/2000/svg" xmlns:xlink="http://www.w3.org/1999/xlink" x="0px" y="0px"
	 viewBox="0 0 425.2 194.7" style="enable-background:new 0 0 425.2 194.7;" xml:space="preserve">
<style type="text/css">
	.st0{fill:#8FC1EA;}
	.st1{fill:#9ACEF4;}
	.st2{opacity:0.3;fill:#FFFFFF;}
	.st3{opacity:0.3;}
	.st4{opacity:0.7;fill:#FFFFFF;}
	.st5{opacity:0.7;}
</style>
<path id="Cityscape_4_" class="st0" d="M95.1,109.8h1.1v1.1h-0.5v84.6H73.3v-82H73v-1h3.5v-5.8h18.6V109.8z M386.2,85h1.1v1.1h-0.5
	v109.4h-22.3V88.7h-0.3v-1.1h3.5v-5.8h18.6V85H386.2z M227.3,97.1h-0.5v-1.9c0-0.1-0.1-0.3-0.3-0.3c-0.1,0-0.3,0.1-0.3,0.3v1.9h-7.4
	v-9.6h-0.5v-1.9c0-0.1-0.1-0.3-0.3-0.3c-0.1,0-0.3,0.1-0.3,0.3v1.9h-2.4v-1.1h0.5v-1.1h-0.5v-1.1h0.5v-1.1h-0.5V82h0.5v-1.1h-0.5
	v-1.1h0.5v-1.1h-0.5v-5.3h-0.5v-1.9c0-0.1-0.1-0.3-0.3-0.3s-0.3,0.1-0.3,0.3v1.9H201v-1.9c0-0.1-0.1-0.3-0.3-0.3s-0.3,0.1-0.3,0.3
	v1.9h-0.5v5.3h-0.5v1.1h0.5v1.1h-0.5V82h0.5v1.1h-0.5v1.1h0.5v1.1h-0.5v1.1h0.5v1.1h-2.4v-1.9c0-0.1-0.1-0.3-0.3-0.3
	s-0.2,0.2-0.2,0.3v1.9h-0.5v9.6H189v-1.9c0-0.1-0.1-0.3-0.3-0.3s-0.3,0.1-0.3,0.3v1.9h-0.5v98.4h-1.6l0,0h0.5l0,0h41.5l0,0h0.5l0,0
	h-1.6V97.1H227.3z M288.2,52.8h-5.3v-1.1h-5.3v1.1h-5.3v2.1h-6.9V56l1.1,1.1h0.5v10.1h-0.3v0.5h-0.5v0.5h0.5v0.5h0.3v126.8h26.6
	V68.7h0.3v-0.5h0.5v-0.5h-0.5v-0.5h-0.3V57h0.5l1.1-1.1v-1.1h-6.9v-2C288.3,52.8,288.2,52.8,288.2,52.8z M123.8,79h-13.3v5.8h-4v1.1
	h0.3v109.6h18.1V83.2h0.5v-1.1h-1.6V79z M329.2,71.9h-13.3v5.8h-4v1.1h0.3v116.7h18.1V76.2h0.5v-1.1h-1.6V71.9z M29.2,84H16.9v-1.8
	c0.1,0,0.3-0.1,0.3-0.3v-0.5c0-0.1-0.1-0.3-0.3-0.3v-4.3c0.1,0,0.3-0.1,0.3-0.3V76c0-0.1-0.1-0.3-0.3-0.3v-4.3
	c0.1,0,0.3-0.1,0.3-0.3v-0.5c0-0.1-0.1-0.3-0.3-0.3V66c0.1,0,0.3-0.1,0.3-0.3v-0.5c0-0.1-0.1-0.3-0.3-0.3v-4.3
	c0.1,0,0.3-0.1,0.3-0.3v-0.8l-1.1-1.1H-0.1v137.1h33V90.9h0.3v-1.1h-4V84z M414.8,58.8l-1.1,1.1v0.8c0,0.1,0.1,0.3,0.3,0.3v4.3
	c-0.1,0-0.3,0.1-0.3,0.3v0.5c0,0.1,0.1,0.3,0.3,0.3v4.1c-0.1,0-0.3,0.1-0.3,0.3v0.5c0,0.1,0.1,0.3,0.3,0.3v4.3
	c-0.1,0-0.3,0.1-0.3,0.3v0.5c0,0.1,0.1,0.3,0.3,0.3v4.3c-0.1,0-0.3,0.1-0.3,0.3v0.5c0,0.1,0.1,0.3,0.3,0.3v4.3
	c-0.1,0-0.3,0.1-0.3,0.3v0.5c0,0.1,0.1,0.3,0.3,0.3v4.3c-0.1,0-0.3,0.1-0.3,0.3v0.1c0,0.1,0.1,0.3,0.3,0.3v4.3
	c-0.1,0-0.3,0.1-0.3,0.3v0.5c0,0.1,0.1,0.3,0.3,0.3v4.3c-0.1,0-0.3,0.1-0.3,0.3v0.5c0,0.1,0.1,0.3,0.3,0.3v4.3
	c-0.1,0-0.3,0.1-0.3,0.3v0.3c0,0.1,0.1,0.3,0.3,0.3v4.3c-0.1,0-0.3,0.1-0.3,0.3v0.5c0,0.1,0.1,0.3,0.3,0.3v4.3
	c-0.1,0-0.3,0.1-0.3,0.3v0.5c0,0.1,0.1,0.3,0.3,0.3v4.3c-0.1,0-0.3,0.1-0.3,0.3v0.5c0,0.1,0.1,0.3,0.3,0.3v4.3
	c-0.1,0-0.3,0.1-0.3,0.3v0.5c0,0.1,0.1,0.3,0.3,0.3v65.1h11.2V58.8H414.8z"/>
<path id="Cityscape_3_" class="st0" d="M270.2,102.4v93.1h-23.9V83.2c-0.3-0.7-0.5-1.4-0.8-2.1l0,0c-0.1-0.2-0.1-0.4-0.2-0.5l0,0
	c-0.5-1.6-0.9-3.2-1.2-4.8l0,0c0-0.1,0-0.1,0-0.2s0-0.2-0.1-0.3l0,0l0,0c-0.3-1.6-0.4-3.2-0.4-4.8h23.9v19.2c0.2,0.5,0.4,1,0.6,1.5
	l0,0c0.1,0.2,0.1,0.4,0.2,0.5l0,0c0.5,1.6,1,3.2,1.3,4.8l0,0c0,0.2,0.1,0.4,0.1,0.5l0,0c0.3,1.6,0.5,3.2,0.5,4.8l0,0
	C270.2,102,270.2,102.2,270.2,102.4z M140.4,101.3h-5.3V85.4h-3.7v-4.3h-1.2l-0.2-0.5l-3.9-9.3l-3.8,9.3l-0.2,0.5h-1.2v4.3h-3.7
	v15.9h-5.3v26.6h-1.6v67.6H142v-67.6h-1.6V101.3z M411,112h-5.3v-8.9H402v-4.3h-1.2l-0.2-0.5l-3.9-9.3l-3.8,9.3l-0.2,0.5h-1.2v4.3
	h-3.7v8.9h-5.3v19.5h-1.6v64h31.9v-64H411V112z M81.6,121.5h0.5v-1h-0.5v-2.1h0.5v-1.1h-0.5v-2.1h0.5v-1.1h-0.5V112h0.5v-1.1h-0.5
	v-2.1h0.5v-1.1h-0.5v-2.1h0.5v-1.1h-0.5v-2.1h0.5v-1.1h-0.5v-2.1h0.5v-1.1h-0.5V96h0.5v-1.1h-0.5v-2.1h0.5v-1.1h-0.5v-2.1h0.5v-1.1
	h-0.5v-2.1h-0.5v-1.9c0-0.1-0.1-0.3-0.3-0.3c-0.1,0-0.3,0.1-0.3,0.3v1.9h-4.3V70.5h-0.5v-1.9c0-0.1-0.1-0.3-0.3-0.3
	s-0.3,0.1-0.3,0.3v1.9h-1.6v-5.3h-5.3v5.3h-4.3v-1.9c0-0.1-0.1-0.3-0.3-0.3s-0.3,0.1-0.3,0.3v1.9H63v2.1h-0.5v1.1H63v1.1h-0.5v1.1
	H63V77h-0.5v1.1H63v1.1h-0.5v1.1H63v1.1h-6.9v-1.9c0-0.1-0.1-0.3-0.3-0.3c-0.1,0-0.3,0.1-0.3,0.3v1.9H55v42.5h-5.3v3.2h1.1v68.4
	h35.1v-68.7H87v-3.2h-5.3L81.6,121.5L81.6,121.5z M190.4,91.8v-2.7l-2.7-2.7h-16.1l-2.7,2.7v2.7c-0.1,0-0.3,0.1-0.3,0.3
	s0.1,0.3,0.3,0.3v103.1h21.4V92.3c0.1,0,0.3-0.1,0.3-0.3S190.6,91.8,190.4,91.8z M358.2,98.8v-2.7l-2.7-2.7h-15.4l-2.7,2.7v2.7
	c-0.1,0-0.3,0.1-0.3,0.3c0,0.1,0.1,0.3,0.3,0.3v96.1h20.7V99.4c0.1,0,0.3-0.1,0.3-0.3C358.5,99,358.4,98.8,358.2,98.8z"/>
<g>
	<path class="st1" d="M423.1,110.6V76h-2.3v-7.2H419l1.7-4.4H401l1.4,4.4h-1.9V76h-2.3v45.2h-2.1v-4.8h-4.8v-3.7h-11.1v-3.2h-6.7
		V87.1h-1.5c-1.3-3.1-3.2-5.4-5.8-6.8v-1.2c0-0.2,0-0.3-0.2-0.3h-9.9c-0.2,0-0.4,0.1-0.4,0.3v1c-2.1,1.4-4.5,3.9-5.8,7h-1.5v18.6
		H340v20.2h-19.1V60.1h-1.6v-5.3h-1.6v-3.2l-4.2-2.1l0-1.6l-1.6-1.4v-14l-2.3-3.7l-1.2-24.8l-1.2,24.8l-2.7,3.7v14l-1.6,1.4v1.6
		l-3.7,2.1v3.2h-1.6v6.9h-2.1v61h-6.4v2.1h-5.8v2.1H279v-4.2h-2.9v-7.1v-6.5V84.7c0-0.2-0.4-0.6-0.7-0.6h-23.2
		c-0.3,0-0.5,0.4-0.5,0.6v18.4h-6.2v-9h-11.7v3.2h-3.2v2.1h-2.1v3.2h-2.7v18.6h-2.7v-2.7h-3.7v4.2h-4.8v-6.4h-1.5V69.7h-23.4v46.6
		h-2.2v2.1h-0.5v-6.4h-1.6v-6.4h-11.1l-1.7-1.6h-1V81.8c0-0.7-5.4-1.3-12.1-1.3c-6.7,0-12.1,0.6-12.1,1.3v39.8h-2.5v1.1h-4.8v-11.7
		h-5.7V69.3l-11.2-16.8l-10.7,16.8V118h-1V81.4H92.7v-1.1h-1.1v-1.1h-2.1v1.1h-2.7l-1.2-32.5l-1.4,32.5h-6.3l-0.1-2.7h-4.3l-0.2-3.9
		H55l-0.2,3.9h-4.3l-0.7,19.2h-0.6v-5.3h-2.7v-2.1l-0.9,0l-0.9-33.6l-0.9,33.6h-1.1v2.1h-3.2v4.8h-1.6v1.6h-4.8v4.2h-3.7v6.9h-0.7
		V82.2h-4.8v-4.6c-9.5-7.9-17.2,0-17.2,0v4.6H2.2v24.1H0.4v88.4h424.5v-84.1H423.1z"/>
	<g>
		<g>
			<g>
				<path class="st2" d="M316.8,95h-15.9c-0.3,0-0.5-0.2-0.5-0.5c0-0.3,0.2-0.5,0.5-0.5h15.9c0.3,0,0.5,0.2,0.5,0.5
					C317.4,94.8,317.1,95,316.8,95z"/>
			</g>
			<g>
				<path class="st2" d="M316.8,99h-15.9c-0.3,0-0.5-0.2-0.5-0.5c0-0.3,0.2-0.5,0.5-0.5h15.9c0.3,0,0.5,0.2,0.5,0.5
					C317.4,98.8,317.1,99,316.8,99z"/>
			</g>
			<g>
				<path class="st2" d="M316.8,103h-15.9c-0.3,0-0.5-0.2-0.5-0.5c0-0.3,0.2-0.5,0.5-0.5h15.9c0.3,0,0.5,0.2,0.5,0.5
					C317.4,102.8,317.1,103,316.8,103z"/>
			</g>
			<g>
				<path class="st2" d="M316.8,107.1h-15.9c-0.3,0-0.5-0.2-0.5-0.5c0-0.3,0.2-0.5,0.5-0.5h15.9c0.3,0,0.5,0.2,0.5,0.5
					C317.4,106.8,317.1,107.1,316.8,107.1z"/>
			</g>
			<g>
				<path class="st2" d="M316.8,111.1h-15.9c-0.3,0-0.5-0.2-0.5-0.5c0-0.3,0.2-0.5,0.5-0.5h15.9c0.3,0,0.5,0.2,0.5,0.5
					C317.4,110.8,317.1,111.1,316.8,111.1z"/>
			</g>
			<g>
				<path class="st2" d="M316.8,115.1h-15.9c-0.3,0-0.5-0.2-0.5-0.5s0.2-0.5,0.5-0.5h15.9c0.3,0,0.5,0.2,0.5,0.5
					S317.1,115.1,316.8,115.1z"/>
			</g>
			<g>
				<path class="st2" d="M316.8,119.1h-15.9c-0.3,0-0.5-0.2-0.5-0.5c0-0.3,0.2-0.5,0.5-0.5h15.9c0.3,0,0.5,0.2,0.5,0.5
					C317.4,118.9,317.1,119.1,316.8,119.1z"/>
			</g>
			<g>
				<path class="st2" d="M316.8,66.9h-15.9c-0.3,0-0.5-0.2-0.5-0.5c0-0.3,0.2-0.5,0.5-0.5h15.9c0.3,0,0.5,0.2,0.5,0.5
					C317.4,66.7,317.1,66.9,316.8,66.9z"/>
			</g>
			<g>
				<path class="st2" d="M316.8,70.9h-15.9c-0.3,0-0.5-0.2-0.5-0.5c0-0.3,0.2-0.5,0.5-0.5h15.9c0.3,0,0.5,0.2,0.5,0.5
					C317.4,70.7,317.1,70.9,316.8,70.9z"/>
			</g>
			<g>
				<path class="st2" d="M316.8,74.9h-15.9c-0.3,0-0.5-0.2-0.5-0.5c0-0.3,0.2-0.5,0.5-0.5h15.9c0.3,0,0.5,0.2,0.5,0.5
					C317.4,74.7,317.1,74.9,316.8,74.9z"/>
			</g>
			<g>
				<path class="st2" d="M316.8,78.9h-15.9c-0.3,0-0.5-0.2-0.5-0.5c0-0.3,0.2-0.5,0.5-0.5h15.9c0.3,0,0.5,0.2,0.5,0.5
					C317.4,78.7,317.1,78.9,316.8,78.9z"/>
			</g>
			<g>
				<path class="st2" d="M316.8,83h-15.9c-0.3,0-0.5-0.2-0.5-0.5c0-0.3,0.2-0.5,0.5-0.5h15.9c0.3,0,0.5,0.2,0.5,0.5
					C317.4,82.7,317.1,83,316.8,83z"/>
			</g>
			<g>
				<path class="st2" d="M316.8,87h-15.9c-0.3,0-0.5-0.2-0.5-0.5c0-0.3,0.2-0.5,0.5-0.5h15.9c0.3,0,0.5,0.2,0.5,0.5
					C317.4,86.7,317.1,87,316.8,87z"/>
			</g>
			<g>
				<path class="st2" d="M316.8,91h-15.9c-0.3,0-0.5-0.2-0.5-0.5c0-0.3,0.2-0.5,0.5-0.5h15.9c0.3,0,0.5,0.2,0.5,0.5
					C317.4,90.8,317.1,91,316.8,91z"/>
			</g>
			<g>
				<path class="st2" d="M316.8,123.1h-15.9c-0.3,0-0.5-0.2-0.5-0.5c0-0.3,0.2-0.5,0.5-0.5h15.9c0.3,0,0.5,0.2,0.5,0.5
					C317.4,122.9,317.1,123.1,316.8,123.1z"/>
			</g>
			<g>
				<path class="st2" d="M316.8,127.1h-15.9c-0.3,0-0.5-0.2-0.5-0.5c0-0.3,0.2-0.5,0.5-0.5h15.9c0.3,0,0.5,0.2,0.5,0.5
					C317.4,126.9,317.1,127.1,316.8,127.1z"/>
			</g>
			<g>
				<path class="st2" d="M316.8,131.1h-15.9c-0.3,0-0.5-0.2-0.5-0.5c0-0.3,0.2-0.5,0.5-0.5h15.9c0.3,0,0.5,0.2,0.5,0.5
					C317.4,130.9,317.1,131.1,316.8,131.1z"/>
			</g>
			<g>
				<path class="st2" d="M316.8,135.2h-15.9c-0.3,0-0.5-0.2-0.5-0.5c0-0.3,0.2-0.5,0.5-0.5h15.9c0.3,0,0.5,0.2,0.5,0.5
					C317.4,134.9,317.1,135.2,316.8,135.2z"/>
			</g>
			<g>
				<path class="st2" d="M316.8,139.2h-15.9c-0.3,0-0.5-0.2-0.5-0.5c0-0.3,0.2-0.5,0.5-0.5h15.9c0.3,0,0.5,0.2,0.5,0.5
					C317.4,139,317.1,139.2,316.8,139.2z"/>
			</g>
			<g>
				<path class="st2" d="M316.8,143.2h-15.9c-0.3,0-0.5-0.2-0.5-0.5c0-0.3,0.2-0.5,0.5-0.5h15.9c0.3,0,0.5,0.2,0.5,0.5
					C317.4,143,317.1,143.2,316.8,143.2z"/>
			</g>
			<g>
				<path class="st2" d="M316.8,147.2h-15.9c-0.3,0-0.5-0.2-0.5-0.5c0-0.3,0.2-0.5,0.5-0.5h15.9c0.3,0,0.5,0.2,0.5,0.5
					C317.4,147,317.1,147.2,316.8,147.2z"/>
			</g>
			<g>
				<path class="st2" d="M316.8,151.2h-15.9c-0.3,0-0.5-0.2-0.5-0.5c0-0.3,0.2-0.5,0.5-0.5h15.9c0.3,0,0.5,0.2,0.5,0.5
					C317.4,151,317.1,151.2,316.8,151.2z"/>
			</g>
		</g>
		<g>
			<g>
				<path class="st2" d="M302.9,61.2c-0.3,0-0.5-0.2-0.5-0.5v-5.5c0-0.3,0.2-0.5,0.5-0.5c0.3,0,0.5,0.2,0.5,0.5v5.5
					C303.5,60.9,303.2,61.2,302.9,61.2z"/>
			</g>
			<g>
				<path class="st2" d="M305.8,61.2c-0.3,0-0.5-0.2-0.5-0.5v-5.5c0-0.3,0.2-0.5,0.5-0.5c0.3,0,0.5,0.2,0.5,0.5v5.5
					C306.3,60.9,306,61.2,305.8,61.2z"/>
			</g>
			<g>
				<path class="st2" d="M308.6,61.2c-0.3,0-0.5-0.2-0.5-0.5v-5.5c0-0.3,0.2-0.5,0.5-0.5c0.3,0,0.5,0.2,0.5,0.5v5.5
					C309.1,60.9,308.9,61.2,308.6,61.2z"/>
			</g>
			<g>
				<path class="st2" d="M311.4,61.2c-0.3,0-0.5-0.2-0.5-0.5v-5.5c0-0.3,0.2-0.5,0.5-0.5c0.3,0,0.5,0.2,0.5,0.5v5.5
					C311.9,60.9,311.7,61.2,311.4,61.2z"/>
			</g>
			<g>
				<path class="st2" d="M314.2,61.2c-0.3,0-0.5-0.2-0.5-0.5v-5.5c0-0.3,0.2-0.5,0.5-0.5s0.5,0.2,0.5,0.5v5.5
					C314.7,60.9,314.5,61.2,314.2,61.2z"/>
			</g>
		</g>
		<g>
			<g>
				<g>
					<path class="st2" d="M206.7,78c-0.4,0-0.7-0.2-0.7-0.5v-1.9c0-0.3,0.3-0.5,0.7-0.5c0.4,0,0.7,0.2,0.7,0.5v1.9
						C207.4,77.8,207.1,78,206.7,78z"/>
				</g>
				<g>
					<path class="st2" d="M210.1,78c-0.4,0-0.7-0.2-0.7-0.5v-1.9c0-0.3,0.3-0.5,0.7-0.5c0.4,0,0.7,0.2,0.7,0.5v1.9
						C210.8,77.8,210.5,78,210.1,78z"/>
				</g>
				<g>
					<path class="st2" d="M193.2,78c-0.4,0-0.7-0.2-0.7-0.5v-1.9c0-0.3,0.3-0.5,0.7-0.5c0.4,0,0.7,0.2,0.7,0.5v1.9
						C193.9,77.8,193.6,78,193.2,78z"/>
				</g>
				<g>
					<path class="st2" d="M196.5,78c-0.4,0-0.7-0.2-0.7-0.5v-1.9c0-0.3,0.3-0.5,0.7-0.5c0.4,0,0.7,0.2,0.7,0.5v1.9
						C197.3,77.8,196.9,78,196.5,78z"/>
				</g>
				<g>
					<path class="st2" d="M199.9,78c-0.4,0-0.7-0.2-0.7-0.5v-1.9c0-0.3,0.3-0.5,0.7-0.5c0.4,0,0.7,0.2,0.7,0.5v1.9
						C200.6,77.8,200.3,78,199.9,78z"/>
				</g>
			</g>
			<g>
				<g>
					<path class="st2" d="M203.3,83c-0.4,0-0.7-0.2-0.7-0.5v-1.9c0-0.3,0.3-0.5,0.7-0.5s0.7,0.2,0.7,0.5v1.9
						C204,82.8,203.7,83,203.3,83z"/>
				</g>
				<g>
					<path class="st2" d="M210.1,83c-0.4,0-0.7-0.2-0.7-0.5v-1.9c0-0.3,0.3-0.5,0.7-0.5c0.4,0,0.7,0.2,0.7,0.5v1.9
						C210.8,82.8,210.5,83,210.1,83z"/>
				</g>
				<g>
					<path class="st2" d="M193.2,83c-0.4,0-0.7-0.2-0.7-0.5v-1.9c0-0.3,0.3-0.5,0.7-0.5c0.4,0,0.7,0.2,0.7,0.5v1.9
						C193.9,82.8,193.6,83,193.2,83z"/>
				</g>
				<g>
					<path class="st2" d="M199.9,83c-0.4,0-0.7-0.2-0.7-0.5v-1.9c0-0.3,0.3-0.5,0.7-0.5c0.4,0,0.7,0.2,0.7,0.5v1.9
						C200.6,82.8,200.3,83,199.9,83z"/>
				</g>
			</g>
			<g>
				<g>
					<path class="st2" d="M203.3,88c-0.4,0-0.7-0.2-0.7-0.5v-1.9c0-0.3,0.3-0.5,0.7-0.5s0.7,0.2,0.7,0.5v1.9
						C204,87.8,203.7,88,203.3,88z"/>
				</g>
				<g>
					<path class="st2" d="M206.7,88c-0.4,0-0.7-0.2-0.7-0.5v-1.9c0-0.3,0.3-0.5,0.7-0.5c0.4,0,0.7,0.2,0.7,0.5v1.9
						C207.4,87.8,207.1,88,206.7,88z"/>
				</g>
				<g>
					<path class="st2" d="M210.1,88c-0.4,0-0.7-0.2-0.7-0.5v-1.9c0-0.3,0.3-0.5,0.7-0.5c0.4,0,0.7,0.2,0.7,0.5v1.9
						C210.8,87.8,210.5,88,210.1,88z"/>
				</g>
				<g>
					<path class="st2" d="M193.2,88c-0.4,0-0.7-0.2-0.7-0.5v-1.9c0-0.3,0.3-0.5,0.7-0.5c0.4,0,0.7,0.2,0.7,0.5v1.9
						C193.9,87.8,193.6,88,193.2,88z"/>
				</g>
				<g>
					<path class="st2" d="M196.5,88c-0.4,0-0.7-0.2-0.7-0.5v-1.9c0-0.3,0.3-0.5,0.7-0.5c0.4,0,0.7,0.2,0.7,0.5v1.9
						C197.3,87.8,196.9,88,196.5,88z"/>
				</g>
				<g>
					<path class="st2" d="M199.9,88c-0.4,0-0.7-0.2-0.7-0.5v-1.9c0-0.3,0.3-0.5,0.7-0.5c0.4,0,0.7,0.2,0.7,0.5v1.9
						C200.6,87.8,200.3,88,199.9,88z"/>
				</g>
			</g>
			<g>
				<g>
					<path class="st2" d="M203.3,93c-0.4,0-0.7-0.2-0.7-0.5v-1.9c0-0.3,0.3-0.5,0.7-0.5s0.7,0.2,0.7,0.5v1.9
						C204,92.8,203.7,93,203.3,93z"/>
				</g>
				<g>
					<path class="st2" d="M206.7,93c-0.4,0-0.7-0.2-0.7-0.5v-1.9c0-0.3,0.3-0.5,0.7-0.5c0.4,0,0.7,0.2,0.7,0.5v1.9
						C207.4,92.8,207.1,93,206.7,93z"/>
				</g>
				<g>
					<path class="st2" d="M196.5,93c-0.4,0-0.7-0.2-0.7-0.5v-1.9c0-0.3,0.3-0.5,0.7-0.5c0.4,0,0.7,0.2,0.7,0.5v1.9
						C197.3,92.8,196.9,93,196.5,93z"/>
				</g>
			</g>
			<g>
				<g>
					<path class="st2" d="M206.7,98c-0.4,0-0.7-0.2-0.7-0.5v-1.9c0-0.3,0.3-0.5,0.7-0.5c0.4,0,0.7,0.2,0.7,0.5v1.9
						C207.4,97.8,207.1,98,206.7,98z"/>
				</g>
				<g>
					<path class="st2" d="M210.1,98c-0.4,0-0.7-0.2-0.7-0.5v-1.9c0-0.3,0.3-0.5,0.7-0.5c0.4,0,0.7,0.2,0.7,0.5v1.9
						C210.8,97.8,210.5,98,210.1,98z"/>
				</g>
				<g>
					<path class="st2" d="M193.2,98c-0.4,0-0.7-0.2-0.7-0.5v-1.9c0-0.3,0.3-0.5,0.7-0.5c0.4,0,0.7,0.2,0.7,0.5v1.9
						C193.9,97.8,193.6,98,193.2,98z"/>
				</g>
				<g>
					<path class="st2" d="M196.5,98c-0.4,0-0.7-0.2-0.7-0.5v-1.9c0-0.3,0.3-0.5,0.7-0.5c0.4,0,0.7,0.2,0.7,0.5v1.9
						C197.3,97.8,196.9,98,196.5,98z"/>
				</g>
				<g>
					<path class="st2" d="M199.9,98c-0.4,0-0.7-0.2-0.7-0.5v-1.9c0-0.3,0.3-0.5,0.7-0.5c0.4,0,0.7,0.2,0.7,0.5v1.9
						C200.6,97.8,200.3,98,199.9,98z"/>
				</g>
			</g>
			<g>
				<g>
					<path class="st2" d="M203.3,103c-0.4,0-0.7-0.2-0.7-0.5v-1.9c0-0.3,0.3-0.5,0.7-0.5s0.7,0.2,0.7,0.5v1.9
						C204,102.8,203.7,103,203.3,103z"/>
				</g>
				<g>
					<path class="st2" d="M210.1,103c-0.4,0-0.7-0.2-0.7-0.5v-1.9c0-0.3,0.3-0.5,0.7-0.5c0.4,0,0.7,0.2,0.7,0.5v1.9
						C210.8,102.8,210.5,103,210.1,103z"/>
				</g>
				<g>
					<path class="st2" d="M193.2,103c-0.4,0-0.7-0.2-0.7-0.5v-1.9c0-0.3,0.3-0.5,0.7-0.5c0.4,0,0.7,0.2,0.7,0.5v1.9
						C193.9,102.8,193.6,103,193.2,103z"/>
				</g>
				<g>
					<path class="st2" d="M196.5,103c-0.4,0-0.7-0.2-0.7-0.5v-1.9c0-0.3,0.3-0.5,0.7-0.5c0.4,0,0.7,0.2,0.7,0.5v1.9
						C197.3,102.8,196.9,103,196.5,103z"/>
				</g>
				<g>
					<path class="st2" d="M199.9,103c-0.4,0-0.7-0.2-0.7-0.5v-1.9c0-0.3,0.3-0.5,0.7-0.5c0.4,0,0.7,0.2,0.7,0.5v1.9
						C200.6,102.8,200.3,103,199.9,103z"/>
				</g>
			</g>
			<g>
				<g>
					<path class="st2" d="M203.3,108c-0.4,0-0.7-0.2-0.7-0.5v-1.9c0-0.3,0.3-0.5,0.7-0.5s0.7,0.2,0.7,0.5v1.9
						C204,107.7,203.7,108,203.3,108z"/>
				</g>
				<g>
					<path class="st2" d="M206.7,108c-0.4,0-0.7-0.2-0.7-0.5v-1.9c0-0.3,0.3-0.5,0.7-0.5c0.4,0,0.7,0.2,0.7,0.5v1.9
						C207.4,107.7,207.1,108,206.7,108z"/>
				</g>
				<g>
					<path class="st2" d="M210.1,108c-0.4,0-0.7-0.2-0.7-0.5v-1.9c0-0.3,0.3-0.5,0.7-0.5c0.4,0,0.7,0.2,0.7,0.5v1.9
						C210.8,107.7,210.5,108,210.1,108z"/>
				</g>
				<g>
					<path class="st2" d="M193.2,108c-0.4,0-0.7-0.2-0.7-0.5v-1.9c0-0.3,0.3-0.5,0.7-0.5c0.4,0,0.7,0.2,0.7,0.5v1.9
						C193.9,107.7,193.6,108,193.2,108z"/>
				</g>
				<g>
					<path class="st2" d="M199.9,108c-0.4,0-0.7-0.2-0.7-0.5v-1.9c0-0.3,0.3-0.5,0.7-0.5c0.4,0,0.7,0.2,0.7,0.5v1.9
						C200.6,107.7,200.3,108,199.9,108z"/>
				</g>
			</g>
			<g>
				<g>
					<path class="st2" d="M210.1,113c-0.4,0-0.7-0.2-0.7-0.5v-1.9c0-0.3,0.3-0.5,0.7-0.5c0.4,0,0.7,0.2,0.7,0.5v1.9
						C210.8,112.7,210.5,113,210.1,113z"/>
				</g>
				<g>
					<path class="st2" d="M193.2,113c-0.4,0-0.7-0.2-0.7-0.5v-1.9c0-0.3,0.3-0.5,0.7-0.5c0.4,0,0.7,0.2,0.7,0.5v1.9
						C193.9,112.7,193.6,113,193.2,113z"/>
				</g>
				<g>
					<path class="st2" d="M196.5,113c-0.4,0-0.7-0.2-0.7-0.5v-1.9c0-0.3,0.3-0.5,0.7-0.5c0.4,0,0.7,0.2,0.7,0.5v1.9
						C197.3,112.7,196.9,113,196.5,113z"/>
				</g>
				<g>
					<path class="st2" d="M199.9,113c-0.4,0-0.7-0.2-0.7-0.5v-1.9c0-0.3,0.3-0.5,0.7-0.5c0.4,0,0.7,0.2,0.7,0.5v1.9
						C200.6,112.7,200.3,113,199.9,113z"/>
				</g>
			</g>
			<g>
				<g>
					<path class="st2" d="M203.3,118c-0.4,0-0.7-0.2-0.7-0.5v-1.9c0-0.3,0.3-0.5,0.7-0.5s0.7,0.2,0.7,0.5v1.9
						C204,117.7,203.7,118,203.3,118z"/>
				</g>
				<g>
					<path class="st2" d="M206.7,118c-0.4,0-0.7-0.2-0.7-0.5v-1.9c0-0.3,0.3-0.5,0.7-0.5c0.4,0,0.7,0.2,0.7,0.5v1.9
						C207.4,117.7,207.1,118,206.7,118z"/>
				</g>
				<g>
					<path class="st2" d="M210.1,118c-0.4,0-0.7-0.2-0.7-0.5v-1.9c0-0.3,0.3-0.5,0.7-0.5c0.4,0,0.7,0.2,0.7,0.5v1.9
						C210.8,117.7,210.5,118,210.1,118z"/>
				</g>
				<g>
					<path class="st2" d="M193.2,118c-0.4,0-0.7-0.2-0.7-0.5v-1.9c0-0.3,0.3-0.5,0.7-0.5c0.4,0,0.7,0.2,0.7,0.5v1.9
						C193.9,117.7,193.6,118,193.2,118z"/>
				</g>
				<g>
					<path class="st2" d="M199.9,118c-0.4,0-0.7-0.2-0.7-0.5v-1.9c0-0.3,0.3-0.5,0.7-0.5c0.4,0,0.7,0.2,0.7,0.5v1.9
						C200.6,117.7,200.3,118,199.9,118z"/>
				</g>
			</g>
			<g>
				<g>
					<path class="st2" d="M203.3,123c-0.4,0-0.7-0.2-0.7-0.5v-1.9c0-0.3,0.3-0.5,0.7-0.5s0.7,0.2,0.7,0.5v1.9
						C204,122.7,203.7,123,203.3,123z"/>
				</g>
				<g>
					<path class="st2" d="M193.2,123c-0.4,0-0.7-0.2-0.7-0.5v-1.9c0-0.3,0.3-0.5,0.7-0.5c0.4,0,0.7,0.2,0.7,0.5v1.9
						C193.9,122.7,193.6,123,193.2,123z"/>
				</g>
				<g>
					<path class="st2" d="M196.5,123c-0.4,0-0.7-0.2-0.7-0.5v-1.9c0-0.3,0.3-0.5,0.7-0.5c0.4,0,0.7,0.2,0.7,0.5v1.9
						C197.3,122.7,196.9,123,196.5,123z"/>
				</g>
				<g>
					<path class="st2" d="M199.9,123c-0.4,0-0.7-0.2-0.7-0.5v-1.9c0-0.3,0.3-0.5,0.7-0.5c0.4,0,0.7,0.2,0.7,0.5v1.9
						C200.6,122.7,200.3,123,199.9,123z"/>
				</g>
			</g>
			<g>
				<g>
					<path class="st2" d="M203.3,128c-0.4,0-0.7-0.2-0.7-0.5v-1.9c0-0.3,0.3-0.5,0.7-0.5s0.7,0.2,0.7,0.5v1.9
						C204,127.7,203.7,128,203.3,128z"/>
				</g>
				<g>
					<path class="st2" d="M206.7,128c-0.4,0-0.7-0.2-0.7-0.5v-1.9c0-0.3,0.3-0.5,0.7-0.5c0.4,0,0.7,0.2,0.7,0.5v1.9
						C207.4,127.7,207.1,128,206.7,128z"/>
				</g>
				<g>
					<path class="st2" d="M210.1,128c-0.4,0-0.7-0.2-0.7-0.5v-1.9c0-0.3,0.3-0.5,0.7-0.5c0.4,0,0.7,0.2,0.7,0.5v1.9
						C210.8,127.7,210.5,128,210.1,128z"/>
				</g>
				<g>
					<path class="st2" d="M196.5,128c-0.4,0-0.7-0.2-0.7-0.5v-1.9c0-0.3,0.3-0.5,0.7-0.5c0.4,0,0.7,0.2,0.7,0.5v1.9
						C197.3,127.7,196.9,128,196.5,128z"/>
				</g>
			</g>
			<g>
				<g>
					<path class="st2" d="M206.7,132.9c-0.4,0-0.7-0.2-0.7-0.5v-1.9c0-0.3,0.3-0.5,0.7-0.5c0.4,0,0.7,0.2,0.7,0.5v1.9
						C207.4,132.7,207.1,132.9,206.7,132.9z"/>
				</g>
				<g>
					<path class="st2" d="M193.2,132.9c-0.4,0-0.7-0.2-0.7-0.5v-1.9c0-0.3,0.3-0.5,0.7-0.5c0.4,0,0.7,0.2,0.7,0.5v1.9
						C193.9,132.7,193.6,132.9,193.2,132.9z"/>
				</g>
				<g>
					<path class="st2" d="M196.5,132.9c-0.4,0-0.7-0.2-0.7-0.5v-1.9c0-0.3,0.3-0.5,0.7-0.5c0.4,0,0.7,0.2,0.7,0.5v1.9
						C197.3,132.7,196.9,132.9,196.5,132.9z"/>
				</g>
				<g>
					<path class="st2" d="M199.9,132.9c-0.4,0-0.7-0.2-0.7-0.5v-1.9c0-0.3,0.3-0.5,0.7-0.5c0.4,0,0.7,0.2,0.7,0.5v1.9
						C200.6,132.7,200.3,132.9,199.9,132.9z"/>
				</g>
			</g>
			<g>
				<g>
					<path class="st2" d="M203.3,137.9c-0.4,0-0.7-0.2-0.7-0.5v-1.9c0-0.3,0.3-0.5,0.7-0.5s0.7,0.2,0.7,0.5v1.9
						C204,137.7,203.7,137.9,203.3,137.9z"/>
				</g>
				<g>
					<path class="st2" d="M206.7,137.9c-0.4,0-0.7-0.2-0.7-0.5v-1.9c0-0.3,0.3-0.5,0.7-0.5c0.4,0,0.7,0.2,0.7,0.5v1.9
						C207.4,137.7,207.1,137.9,206.7,137.9z"/>
				</g>
				<g>
					<path class="st2" d="M210.1,137.9c-0.4,0-0.7-0.2-0.7-0.5v-1.9c0-0.3,0.3-0.5,0.7-0.5c0.4,0,0.7,0.2,0.7,0.5v1.9
						C210.8,137.7,210.5,137.9,210.1,137.9z"/>
				</g>
				<g>
					<path class="st2" d="M193.2,137.9c-0.4,0-0.7-0.2-0.7-0.5v-1.9c0-0.3,0.3-0.5,0.7-0.5c0.4,0,0.7,0.2,0.7,0.5v1.9
						C193.9,137.7,193.6,137.9,193.2,137.9z"/>
				</g>
				<g>
					<path class="st2" d="M199.9,137.9c-0.4,0-0.7-0.2-0.7-0.5v-1.9c0-0.3,0.3-0.5,0.7-0.5c0.4,0,0.7,0.2,0.7,0.5v1.9
						C200.6,137.7,200.3,137.9,199.9,137.9z"/>
				</g>
			</g>
			<g>
				<g>
					<path class="st2" d="M210.1,142.9c-0.4,0-0.7-0.2-0.7-0.5v-1.9c0-0.3,0.3-0.5,0.7-0.5c0.4,0,0.7,0.2,0.7,0.5v1.9
						C210.8,142.7,210.5,142.9,210.1,142.9z"/>
				</g>
				<g>
					<path class="st2" d="M193.2,142.9c-0.4,0-0.7-0.2-0.7-0.5v-1.9c0-0.3,0.3-0.5,0.7-0.5c0.4,0,0.7,0.2,0.7,0.5v1.9
						C193.9,142.7,193.6,142.9,193.2,142.9z"/>
				</g>
				<g>
					<path class="st2" d="M196.5,142.9c-0.4,0-0.7-0.2-0.7-0.5v-1.9c0-0.3,0.3-0.5,0.7-0.5c0.4,0,0.7,0.2,0.7,0.5v1.9
						C197.3,142.7,196.9,142.9,196.5,142.9z"/>
				</g>
			</g>
			<g>
				<g>
					<path class="st2" d="M203.3,147.9c-0.4,0-0.7-0.2-0.7-0.5v-1.9c0-0.3,0.3-0.5,0.7-0.5s0.7,0.2,0.7,0.5v1.9
						C204,147.7,203.7,147.9,203.3,147.9z"/>
				</g>
				<g>
					<path class="st2" d="M206.7,147.9c-0.4,0-0.7-0.2-0.7-0.5v-1.9c0-0.3,0.3-0.5,0.7-0.5c0.4,0,0.7,0.2,0.7,0.5v1.9
						C207.4,147.7,207.1,147.9,206.7,147.9z"/>
				</g>
				<g>
					<path class="st2" d="M210.1,147.9c-0.4,0-0.7-0.2-0.7-0.5v-1.9c0-0.3,0.3-0.5,0.7-0.5c0.4,0,0.7,0.2,0.7,0.5v1.9
						C210.8,147.7,210.5,147.9,210.1,147.9z"/>
				</g>
				<g>
					<path class="st2" d="M193.2,147.9c-0.4,0-0.7-0.2-0.7-0.5v-1.9c0-0.3,0.3-0.5,0.7-0.5c0.4,0,0.7,0.2,0.7,0.5v1.9
						C193.9,147.7,193.6,147.9,193.2,147.9z"/>
				</g>
				<g>
					<path class="st2" d="M196.5,147.9c-0.4,0-0.7-0.2-0.7-0.5v-1.9c0-0.3,0.3-0.5,0.7-0.5c0.4,0,0.7,0.2,0.7,0.5v1.9
						C197.3,147.7,196.9,147.9,196.5,147.9z"/>
				</g>
				<g>
					<path class="st2" d="M199.9,147.9c-0.4,0-0.7-0.2-0.7-0.5v-1.9c0-0.3,0.3-0.5,0.7-0.5c0.4,0,0.7,0.2,0.7,0.5v1.9
						C200.6,147.7,200.3,147.9,199.9,147.9z"/>
				</g>
			</g>
			<g>
				<g>
					<path class="st2" d="M206.7,152.9c-0.4,0-0.7-0.2-0.7-0.5v-1.9c0-0.3,0.3-0.5,0.7-0.5c0.4,0,0.7,0.2,0.7,0.5v1.9
						C207.4,152.7,207.1,152.9,206.7,152.9z"/>
				</g>
				<g>
					<path class="st2" d="M210.1,152.9c-0.4,0-0.7-0.2-0.7-0.5v-1.9c0-0.3,0.3-0.5,0.7-0.5c0.4,0,0.7,0.2,0.7,0.5v1.9
						C210.8,152.7,210.5,152.9,210.1,152.9z"/>
				</g>
				<g>
					<path class="st2" d="M196.5,152.9c-0.4,0-0.7-0.2-0.7-0.5v-1.9c0-0.3,0.3-0.5,0.7-0.5c0.4,0,0.7,0.2,0.7,0.5v1.9
						C197.3,152.7,196.9,152.9,196.5,152.9z"/>
				</g>
				<g>
					<path class="st2" d="M199.9,152.9c-0.4,0-0.7-0.2-0.7-0.5v-1.9c0-0.3,0.3-0.5,0.7-0.5c0.4,0,0.7,0.2,0.7,0.5v1.9
						C200.6,152.7,200.3,152.9,199.9,152.9z"/>
				</g>
			</g>
		</g>
		<g>
			<g>
				<g>
					<path class="st2" d="M57.3,158.5h-2.2c-0.3,0-0.5-0.2-0.5-0.5c0-0.3,0.2-0.5,0.5-0.5h2.2c0.3,0,0.5,0.2,0.5,0.5
						C57.8,158.3,57.6,158.5,57.3,158.5z"/>
				</g>
				<g>
					<path class="st2" d="M61.3,158.5h-2.2c-0.3,0-0.5-0.2-0.5-0.5c0-0.3,0.2-0.5,0.5-0.5h2.2c0.3,0,0.5,0.2,0.5,0.5
						C61.8,158.3,61.6,158.5,61.3,158.5z"/>
				</g>
				<g>
					<path class="st2" d="M65.3,158.5h-2.2c-0.3,0-0.5-0.2-0.5-0.5c0-0.3,0.2-0.5,0.5-0.5h2.2c0.3,0,0.5,0.2,0.5,0.5
						C65.8,158.3,65.6,158.5,65.3,158.5z"/>
				</g>
				<g>
					<path class="st2" d="M69.3,158.5h-2.2c-0.3,0-0.5-0.2-0.5-0.5c0-0.3,0.2-0.5,0.5-0.5h2.2c0.3,0,0.5,0.2,0.5,0.5
						C69.8,158.3,69.6,158.5,69.3,158.5z"/>
				</g>
				<g>
					<path class="st2" d="M73.3,158.5h-2.2c-0.3,0-0.5-0.2-0.5-0.5c0-0.3,0.2-0.5,0.5-0.5h2.2c0.3,0,0.5,0.2,0.5,0.5
						C73.8,158.3,73.6,158.5,73.3,158.5z"/>
				</g>
			</g>
			<g>
				<g>
					<path class="st2" d="M57.3,155.1h-2.2c-0.3,0-0.5-0.2-0.5-0.5c0-0.3,0.2-0.5,0.5-0.5h2.2c0.3,0,0.5,0.2,0.5,0.5
						C57.8,154.8,57.6,155.1,57.3,155.1z"/>
				</g>
				<g>
					<path class="st2" d="M61.3,155.1h-2.2c-0.3,0-0.5-0.2-0.5-0.5c0-0.3,0.2-0.5,0.5-0.5h2.2c0.3,0,0.5,0.2,0.5,0.5
						C61.8,154.8,61.6,155.1,61.3,155.1z"/>
				</g>
				<g>
					<path class="st2" d="M65.3,155.1h-2.2c-0.3,0-0.5-0.2-0.5-0.5c0-0.3,0.2-0.5,0.5-0.5h2.2c0.3,0,0.5,0.2,0.5,0.5
						C65.8,154.8,65.6,155.1,65.3,155.1z"/>
				</g>
				<g>
					<path class="st2" d="M69.3,155.1h-2.2c-0.3,0-0.5-0.2-0.5-0.5c0-0.3,0.2-0.5,0.5-0.5h2.2c0.3,0,0.5,0.2,0.5,0.5
						C69.8,154.8,69.6,155.1,69.3,155.1z"/>
				</g>
				<g>
					<path class="st2" d="M73.3,155.1h-2.2c-0.3,0-0.5-0.2-0.5-0.5c0-0.3,0.2-0.5,0.5-0.5h2.2c0.3,0,0.5,0.2,0.5,0.5
						C73.8,154.8,73.6,155.1,73.3,155.1z"/>
				</g>
			</g>
			<g>
				<g>
					<path class="st2" d="M57.3,151.6h-2.2c-0.3,0-0.5-0.2-0.5-0.5c0-0.3,0.2-0.5,0.5-0.5h2.2c0.3,0,0.5,0.2,0.5,0.5
						C57.8,151.4,57.6,151.6,57.3,151.6z"/>
				</g>
				<g>
					<path class="st2" d="M61.3,151.6h-2.2c-0.3,0-0.5-0.2-0.5-0.5c0-0.3,0.2-0.5,0.5-0.5h2.2c0.3,0,0.5,0.2,0.5,0.5
						C61.8,151.4,61.6,151.6,61.3,151.6z"/>
				</g>
				<g>
					<path class="st2" d="M65.3,151.6h-2.2c-0.3,0-0.5-0.2-0.5-0.5c0-0.3,0.2-0.5,0.5-0.5h2.2c0.3,0,0.5,0.2,0.5,0.5
						C65.8,151.4,65.6,151.6,65.3,151.6z"/>
				</g>
				<g>
					<path class="st2" d="M69.3,151.6h-2.2c-0.3,0-0.5-0.2-0.5-0.5c0-0.3,0.2-0.5,0.5-0.5h2.2c0.3,0,0.5,0.2,0.5,0.5
						C69.8,151.4,69.6,151.6,69.3,151.6z"/>
				</g>
				<g>
					<path class="st2" d="M73.3,151.6h-2.2c-0.3,0-0.5-0.2-0.5-0.5c0-0.3,0.2-0.5,0.5-0.5h2.2c0.3,0,0.5,0.2,0.5,0.5
						C73.8,151.4,73.6,151.6,73.3,151.6z"/>
				</g>
			</g>
			<g>
				<g>
					<path class="st2" d="M57.3,148.2h-2.2c-0.3,0-0.5-0.2-0.5-0.5c0-0.3,0.2-0.5,0.5-0.5h2.2c0.3,0,0.5,0.2,0.5,0.5
						C57.8,147.9,57.6,148.2,57.3,148.2z"/>
				</g>
				<g>
					<path class="st2" d="M61.3,148.2h-2.2c-0.3,0-0.5-0.2-0.5-0.5c0-0.3,0.2-0.5,0.5-0.5h2.2c0.3,0,0.5,0.2,0.5,0.5
						C61.8,147.9,61.6,148.2,61.3,148.2z"/>
				</g>
				<g>
					<path class="st2" d="M65.3,148.2h-2.2c-0.3,0-0.5-0.2-0.5-0.5c0-0.3,0.2-0.5,0.5-0.5h2.2c0.3,0,0.5,0.2,0.5,0.5
						C65.8,147.9,65.6,148.2,65.3,148.2z"/>
				</g>
				<g>
					<path class="st2" d="M69.3,148.2h-2.2c-0.3,0-0.5-0.2-0.5-0.5c0-0.3,0.2-0.5,0.5-0.5h2.2c0.3,0,0.5,0.2,0.5,0.5
						C69.8,147.9,69.6,148.2,69.3,148.2z"/>
				</g>
				<g>
					<path class="st2" d="M73.3,148.2h-2.2c-0.3,0-0.5-0.2-0.5-0.5c0-0.3,0.2-0.5,0.5-0.5h2.2c0.3,0,0.5,0.2,0.5,0.5
						C73.8,147.9,73.6,148.2,73.3,148.2z"/>
				</g>
			</g>
			<g>
				<g>
					<path class="st2" d="M57.3,144.7h-2.2c-0.3,0-0.5-0.2-0.5-0.5c0-0.3,0.2-0.5,0.5-0.5h2.2c0.3,0,0.5,0.2,0.5,0.5
						C57.8,144.5,57.6,144.7,57.3,144.7z"/>
				</g>
				<g>
					<path class="st2" d="M61.3,144.7h-2.2c-0.3,0-0.5-0.2-0.5-0.5c0-0.3,0.2-0.5,0.5-0.5h2.2c0.3,0,0.5,0.2,0.5,0.5
						C61.8,144.5,61.6,144.7,61.3,144.7z"/>
				</g>
				<g>
					<path class="st2" d="M65.3,144.7h-2.2c-0.3,0-0.5-0.2-0.5-0.5c0-0.3,0.2-0.5,0.5-0.5h2.2c0.3,0,0.5,0.2,0.5,0.5
						C65.8,144.5,65.6,144.7,65.3,144.7z"/>
				</g>
				<g>
					<path class="st2" d="M69.3,144.7h-2.2c-0.3,0-0.5-0.2-0.5-0.5c0-0.3,0.2-0.5,0.5-0.5h2.2c0.3,0,0.5,0.2,0.5,0.5
						C69.8,144.5,69.6,144.7,69.3,144.7z"/>
				</g>
				<g>
					<path class="st2" d="M73.3,144.7h-2.2c-0.3,0-0.5-0.2-0.5-0.5c0-0.3,0.2-0.5,0.5-0.5h2.2c0.3,0,0.5,0.2,0.5,0.5
						C73.8,144.5,73.6,144.7,73.3,144.7z"/>
				</g>
			</g>
			<g>
				<g>
					<path class="st2" d="M57.3,141.3h-2.2c-0.3,0-0.5-0.2-0.5-0.5c0-0.3,0.2-0.5,0.5-0.5h2.2c0.3,0,0.5,0.2,0.5,0.5
						C57.8,141,57.6,141.3,57.3,141.3z"/>
				</g>
				<g>
					<path class="st2" d="M61.3,141.3h-2.2c-0.3,0-0.5-0.2-0.5-0.5c0-0.3,0.2-0.5,0.5-0.5h2.2c0.3,0,0.5,0.2,0.5,0.5
						C61.8,141,61.6,141.3,61.3,141.3z"/>
				</g>
				<g>
					<path class="st2" d="M65.3,141.3h-2.2c-0.3,0-0.5-0.2-0.5-0.5c0-0.3,0.2-0.5,0.5-0.5h2.2c0.3,0,0.5,0.2,0.5,0.5
						C65.8,141,65.6,141.3,65.3,141.3z"/>
				</g>
				<g>
					<path class="st2" d="M69.3,141.3h-2.2c-0.3,0-0.5-0.2-0.5-0.5c0-0.3,0.2-0.5,0.5-0.5h2.2c0.3,0,0.5,0.2,0.5,0.5
						C69.8,141,69.6,141.3,69.3,141.3z"/>
				</g>
				<g>
					<path class="st2" d="M73.3,141.3h-2.2c-0.3,0-0.5-0.2-0.5-0.5c0-0.3,0.2-0.5,0.5-0.5h2.2c0.3,0,0.5,0.2,0.5,0.5
						C73.8,141,73.6,141.3,73.3,141.3z"/>
				</g>
			</g>
			<g>
				<g>
					<path class="st2" d="M57.3,137.8h-2.2c-0.3,0-0.5-0.2-0.5-0.5c0-0.3,0.2-0.5,0.5-0.5h2.2c0.3,0,0.5,0.2,0.5,0.5
						C57.8,137.6,57.6,137.8,57.3,137.8z"/>
				</g>
				<g>
					<path class="st2" d="M61.3,137.8h-2.2c-0.3,0-0.5-0.2-0.5-0.5c0-0.3,0.2-0.5,0.5-0.5h2.2c0.3,0,0.5,0.2,0.5,0.5
						C61.8,137.6,61.6,137.8,61.3,137.8z"/>
				</g>
				<g>
					<path class="st2" d="M65.3,137.8h-2.2c-0.3,0-0.5-0.2-0.5-0.5c0-0.3,0.2-0.5,0.5-0.5h2.2c0.3,0,0.5,0.2,0.5,0.5
						C65.8,137.6,65.6,137.8,65.3,137.8z"/>
				</g>
				<g>
					<path class="st2" d="M69.3,137.8h-2.2c-0.3,0-0.5-0.2-0.5-0.5c0-0.3,0.2-0.5,0.5-0.5h2.2c0.3,0,0.5,0.2,0.5,0.5
						C69.8,137.6,69.6,137.8,69.3,137.8z"/>
				</g>
				<g>
					<path class="st2" d="M73.3,137.8h-2.2c-0.3,0-0.5-0.2-0.5-0.5c0-0.3,0.2-0.5,0.5-0.5h2.2c0.3,0,0.5,0.2,0.5,0.5
						C73.8,137.6,73.6,137.8,73.3,137.8z"/>
				</g>
			</g>
			<g>
				<g>
					<path class="st2" d="M57.3,134.4h-2.2c-0.3,0-0.5-0.2-0.5-0.5c0-0.3,0.2-0.5,0.5-0.5h2.2c0.3,0,0.5,0.2,0.5,0.5
						C57.8,134.1,57.6,134.4,57.3,134.4z"/>
				</g>
				<g>
					<path class="st2" d="M61.3,134.4h-2.2c-0.3,0-0.5-0.2-0.5-0.5c0-0.3,0.2-0.5,0.5-0.5h2.2c0.3,0,0.5,0.2,0.5,0.5
						C61.8,134.1,61.6,134.4,61.3,134.4z"/>
				</g>
				<g>
					<path class="st2" d="M65.3,134.4h-2.2c-0.3,0-0.5-0.2-0.5-0.5c0-0.3,0.2-0.5,0.5-0.5h2.2c0.3,0,0.5,0.2,0.5,0.5
						C65.8,134.1,65.6,134.4,65.3,134.4z"/>
				</g>
				<g>
					<path class="st2" d="M69.3,134.4h-2.2c-0.3,0-0.5-0.2-0.5-0.5c0-0.3,0.2-0.5,0.5-0.5h2.2c0.3,0,0.5,0.2,0.5,0.5
						C69.8,134.1,69.6,134.4,69.3,134.4z"/>
				</g>
				<g>
					<path class="st2" d="M73.3,134.4h-2.2c-0.3,0-0.5-0.2-0.5-0.5c0-0.3,0.2-0.5,0.5-0.5h2.2c0.3,0,0.5,0.2,0.5,0.5
						C73.8,134.1,73.6,134.4,73.3,134.4z"/>
				</g>
			</g>
			<g>
				<g>
					<path class="st2" d="M57.3,130.9h-2.2c-0.3,0-0.5-0.2-0.5-0.5c0-0.3,0.2-0.5,0.5-0.5h2.2c0.3,0,0.5,0.2,0.5,0.5
						C57.8,130.7,57.6,130.9,57.3,130.9z"/>
				</g>
				<g>
					<path class="st2" d="M61.3,130.9h-2.2c-0.3,0-0.5-0.2-0.5-0.5c0-0.3,0.2-0.5,0.5-0.5h2.2c0.3,0,0.5,0.2,0.5,0.5
						C61.8,130.7,61.6,130.9,61.3,130.9z"/>
				</g>
				<g>
					<path class="st2" d="M65.3,130.9h-2.2c-0.3,0-0.5-0.2-0.5-0.5c0-0.3,0.2-0.5,0.5-0.5h2.2c0.3,0,0.5,0.2,0.5,0.5
						C65.8,130.7,65.6,130.9,65.3,130.9z"/>
				</g>
				<g>
					<path class="st2" d="M69.3,130.9h-2.2c-0.3,0-0.5-0.2-0.5-0.5c0-0.3,0.2-0.5,0.5-0.5h2.2c0.3,0,0.5,0.2,0.5,0.5
						C69.8,130.7,69.6,130.9,69.3,130.9z"/>
				</g>
				<g>
					<path class="st2" d="M73.3,130.9h-2.2c-0.3,0-0.5-0.2-0.5-0.5c0-0.3,0.2-0.5,0.5-0.5h2.2c0.3,0,0.5,0.2,0.5,0.5
						C73.8,130.7,73.6,130.9,73.3,130.9z"/>
				</g>
			</g>
			<g>
				<g>
					<path class="st2" d="M57.3,127.5h-2.2c-0.3,0-0.5-0.2-0.5-0.5c0-0.3,0.2-0.5,0.5-0.5h2.2c0.3,0,0.5,0.2,0.5,0.5
						C57.8,127.2,57.6,127.5,57.3,127.5z"/>
				</g>
				<g>
					<path class="st2" d="M61.3,127.5h-2.2c-0.3,0-0.5-0.2-0.5-0.5c0-0.3,0.2-0.5,0.5-0.5h2.2c0.3,0,0.5,0.2,0.5,0.5
						C61.8,127.2,61.6,127.5,61.3,127.5z"/>
				</g>
				<g>
					<path class="st2" d="M65.3,127.5h-2.2c-0.3,0-0.5-0.2-0.5-0.5c0-0.3,0.2-0.5,0.5-0.5h2.2c0.3,0,0.5,0.2,0.5,0.5
						C65.8,127.2,65.6,127.5,65.3,127.5z"/>
				</g>
				<g>
					<path class="st2" d="M69.3,127.5h-2.2c-0.3,0-0.5-0.2-0.5-0.5c0-0.3,0.2-0.5,0.5-0.5h2.2c0.3,0,0.5,0.2,0.5,0.5
						C69.8,127.2,69.6,127.5,69.3,127.5z"/>
				</g>
				<g>
					<path class="st2" d="M73.3,127.5h-2.2c-0.3,0-0.5-0.2-0.5-0.5c0-0.3,0.2-0.5,0.5-0.5h2.2c0.3,0,0.5,0.2,0.5,0.5
						C73.8,127.2,73.6,127.5,73.3,127.5z"/>
				</g>
			</g>
			<g>
				<g>
					<path class="st2" d="M57.3,124h-2.2c-0.3,0-0.5-0.2-0.5-0.5c0-0.3,0.2-0.5,0.5-0.5h2.2c0.3,0,0.5,0.2,0.5,0.5
						C57.8,123.8,57.6,124,57.3,124z"/>
				</g>
				<g class="st3">
					<path class="st4" d="M61.3,124h-2.2c-0.3,0-0.5-0.2-0.5-0.5c0-0.3,0.2-0.5,0.5-0.5h2.2c0.3,0,0.5,0.2,0.5,0.5
						C61.8,123.8,61.6,124,61.3,124z"/>
				</g>
				<g>
					<path class="st2" d="M65.3,124h-2.2c-0.3,0-0.5-0.2-0.5-0.5c0-0.3,0.2-0.5,0.5-0.5h2.2c0.3,0,0.5,0.2,0.5,0.5
						C65.8,123.8,65.6,124,65.3,124z"/>
				</g>
				<g>
					<path class="st2" d="M69.3,124h-2.2c-0.3,0-0.5-0.2-0.5-0.5c0-0.3,0.2-0.5,0.5-0.5h2.2c0.3,0,0.5,0.2,0.5,0.5
						C69.8,123.8,69.6,124,69.3,124z"/>
				</g>
				<g>
					<path class="st2" d="M73.3,124h-2.2c-0.3,0-0.5-0.2-0.5-0.5c0-0.3,0.2-0.5,0.5-0.5h2.2c0.3,0,0.5,0.2,0.5,0.5
						C73.8,123.8,73.6,124,73.3,124z"/>
				</g>
			</g>
			<g>
				<g>
					<path class="st2" d="M57.3,120.6h-2.2c-0.3,0-0.5-0.2-0.5-0.5s0.2-0.5,0.5-0.5h2.2c0.3,0,0.5,0.2,0.5,0.5
						S57.6,120.6,57.3,120.6z"/>
				</g>
				<g>
					<path class="st2" d="M61.3,120.6h-2.2c-0.3,0-0.5-0.2-0.5-0.5s0.2-0.5,0.5-0.5h2.2c0.3,0,0.5,0.2,0.5,0.5
						S61.6,120.6,61.3,120.6z"/>
				</g>
				<g>
					<path class="st2" d="M65.3,120.6h-2.2c-0.3,0-0.5-0.2-0.5-0.5s0.2-0.5,0.5-0.5h2.2c0.3,0,0.5,0.2,0.5,0.5
						S65.6,120.6,65.3,120.6z"/>
				</g>
				<g>
					<path class="st2" d="M69.3,120.6h-2.2c-0.3,0-0.5-0.2-0.5-0.5s0.2-0.5,0.5-0.5h2.2c0.3,0,0.5,0.2,0.5,0.5
						S69.6,120.6,69.3,120.6z"/>
				</g>
				<g>
					<path class="st2" d="M73.3,120.6h-2.2c-0.3,0-0.5-0.2-0.5-0.5s0.2-0.5,0.5-0.5h2.2c0.3,0,0.5,0.2,0.5,0.5
						S73.6,120.6,73.3,120.6z"/>
				</g>
			</g>
			<g>
				<g>
					<path class="st2" d="M57.3,117.1h-2.2c-0.3,0-0.5-0.2-0.5-0.5c0-0.3,0.2-0.5,0.5-0.5h2.2c0.3,0,0.5,0.2,0.5,0.5
						C57.8,116.9,57.6,117.1,57.3,117.1z"/>
				</g>
				<g>
					<path class="st2" d="M61.3,117.1h-2.2c-0.3,0-0.5-0.2-0.5-0.5c0-0.3,0.2-0.5,0.5-0.5h2.2c0.3,0,0.5,0.2,0.5,0.5
						C61.8,116.9,61.6,117.1,61.3,117.1z"/>
				</g>
				<g class="st5">
					<path class="st2" d="M65.3,117.1h-2.2c-0.3,0-0.5-0.2-0.5-0.5c0-0.3,0.2-0.5,0.5-0.5h2.2c0.3,0,0.5,0.2,0.5,0.5
						C65.8,116.9,65.6,117.1,65.3,117.1z"/>
				</g>
				<g>
					<path class="st2" d="M69.3,117.1h-2.2c-0.3,0-0.5-0.2-0.5-0.5c0-0.3,0.2-0.5,0.5-0.5h2.2c0.3,0,0.5,0.2,0.5,0.5
						C69.8,116.9,69.6,117.1,69.3,117.1z"/>
				</g>
				<g>
					<path class="st2" d="M73.3,117.1h-2.2c-0.3,0-0.5-0.2-0.5-0.5c0-0.3,0.2-0.5,0.5-0.5h2.2c0.3,0,0.5,0.2,0.5,0.5
						C73.8,116.9,73.6,117.1,73.3,117.1z"/>
				</g>
			</g>
			<g>
				<g>
					<path class="st2" d="M57.3,113.6h-2.2c-0.3,0-0.5-0.2-0.5-0.5c0-0.3,0.2-0.5,0.5-0.5h2.2c0.3,0,0.5,0.2,0.5,0.5
						C57.8,113.4,57.6,113.6,57.3,113.6z"/>
				</g>
				<g>
					<path class="st2" d="M61.3,113.6h-2.2c-0.3,0-0.5-0.2-0.5-0.5c0-0.3,0.2-0.5,0.5-0.5h2.2c0.3,0,0.5,0.2,0.5,0.5
						C61.8,113.4,61.6,113.6,61.3,113.6z"/>
				</g>
				<g>
					<path class="st2" d="M65.3,113.6h-2.2c-0.3,0-0.5-0.2-0.5-0.5c0-0.3,0.2-0.5,0.5-0.5h2.2c0.3,0,0.5,0.2,0.5,0.5
						C65.8,113.4,65.6,113.6,65.3,113.6z"/>
				</g>
				<g>
					<path class="st2" d="M69.3,113.6h-2.2c-0.3,0-0.5-0.2-0.5-0.5c0-0.3,0.2-0.5,0.5-0.5h2.2c0.3,0,0.5,0.2,0.5,0.5
						C69.8,113.4,69.6,113.6,69.3,113.6z"/>
				</g>
				<g>
					<path class="st2" d="M73.3,113.6h-2.2c-0.3,0-0.5-0.2-0.5-0.5c0-0.3,0.2-0.5,0.5-0.5h2.2c0.3,0,0.5,0.2,0.5,0.5
						C73.8,113.4,73.6,113.6,73.3,113.6z"/>
				</g>
			</g>
			<g>
				<g>
					<path class="st2" d="M57.3,110.2h-2.2c-0.3,0-0.5-0.2-0.5-0.5c0-0.3,0.2-0.5,0.5-0.5h2.2c0.3,0,0.5,0.2,0.5,0.5
						C57.8,110,57.6,110.2,57.3,110.2z"/>
				</g>
				<g>
					<path class="st2" d="M61.3,110.2h-2.2c-0.3,0-0.5-0.2-0.5-0.5c0-0.3,0.2-0.5,0.5-0.5h2.2c0.3,0,0.5,0.2,0.5,0.5
						C61.8,110,61.6,110.2,61.3,110.2z"/>
				</g>
				<g>
					<path class="st2" d="M65.3,110.2h-2.2c-0.3,0-0.5-0.2-0.5-0.5c0-0.3,0.2-0.5,0.5-0.5h2.2c0.3,0,0.5,0.2,0.5,0.5
						C65.8,110,65.6,110.2,65.3,110.2z"/>
				</g>
				<g>
					<path class="st2" d="M69.3,110.2h-2.2c-0.3,0-0.5-0.2-0.5-0.5c0-0.3,0.2-0.5,0.5-0.5h2.2c0.3,0,0.5,0.2,0.5,0.5
						C69.8,110,69.6,110.2,69.3,110.2z"/>
				</g>
				<g>
					<path class="st2" d="M73.3,110.2h-2.2c-0.3,0-0.5-0.2-0.5-0.5c0-0.3,0.2-0.5,0.5-0.5h2.2c0.3,0,0.5,0.2,0.5,0.5
						C73.8,110,73.6,110.2,73.3,110.2z"/>
				</g>
			</g>
			<g>
				<g>
					<path class="st2" d="M57.3,106.7h-2.2c-0.3,0-0.5-0.2-0.5-0.5c0-0.3,0.2-0.5,0.5-0.5h2.2c0.3,0,0.5,0.2,0.5,0.5
						C57.8,106.5,57.6,106.7,57.3,106.7z"/>
				</g>
				<g>
					<path class="st2" d="M61.3,106.7h-2.2c-0.3,0-0.5-0.2-0.5-0.5c0-0.3,0.2-0.5,0.5-0.5h2.2c0.3,0,0.5,0.2,0.5,0.5
						C61.8,106.5,61.6,106.7,61.3,106.7z"/>
				</g>
				<g>
					<path class="st2" d="M65.3,106.7h-2.2c-0.3,0-0.5-0.2-0.5-0.5c0-0.3,0.2-0.5,0.5-0.5h2.2c0.3,0,0.5,0.2,0.5,0.5
						C65.8,106.5,65.6,106.7,65.3,106.7z"/>
				</g>
				<g>
					<path class="st2" d="M69.3,106.7h-2.2c-0.3,0-0.5-0.2-0.5-0.5c0-0.3,0.2-0.5,0.5-0.5h2.2c0.3,0,0.5,0.2,0.5,0.5
						C69.8,106.5,69.6,106.7,69.3,106.7z"/>
				</g>
				<g>
					<path class="st2" d="M73.3,106.7h-2.2c-0.3,0-0.5-0.2-0.5-0.5c0-0.3,0.2-0.5,0.5-0.5h2.2c0.3,0,0.5,0.2,0.5,0.5
						C73.8,106.5,73.6,106.7,73.3,106.7z"/>
				</g>
			</g>
			<g>
				<g>
					<path class="st2" d="M57.3,103.3h-2.2c-0.3,0-0.5-0.2-0.5-0.5c0-0.3,0.2-0.5,0.5-0.5h2.2c0.3,0,0.5,0.2,0.5,0.5
						C57.8,103,57.6,103.3,57.3,103.3z"/>
				</g>
				<g>
					<path class="st2" d="M61.3,103.3h-2.2c-0.3,0-0.5-0.2-0.5-0.5c0-0.3,0.2-0.5,0.5-0.5h2.2c0.3,0,0.5,0.2,0.5,0.5
						C61.8,103,61.6,103.3,61.3,103.3z"/>
				</g>
				<g>
					<path class="st2" d="M65.3,103.3h-2.2c-0.3,0-0.5-0.2-0.5-0.5c0-0.3,0.2-0.5,0.5-0.5h2.2c0.3,0,0.5,0.2,0.5,0.5
						C65.8,103,65.6,103.3,65.3,103.3z"/>
				</g>
				<g>
					<path class="st2" d="M69.3,103.3h-2.2c-0.3,0-0.5-0.2-0.5-0.5c0-0.3,0.2-0.5,0.5-0.5h2.2c0.3,0,0.5,0.2,0.5,0.5
						C69.8,103,69.6,103.3,69.3,103.3z"/>
				</g>
				<g>
					<path class="st2" d="M73.3,103.3h-2.2c-0.3,0-0.5-0.2-0.5-0.5c0-0.3,0.2-0.5,0.5-0.5h2.2c0.3,0,0.5,0.2,0.5,0.5
						C73.8,103,73.6,103.3,73.3,103.3z"/>
				</g>
			</g>
			<g>
				<g>
					<path class="st2" d="M57.3,99.8h-2.2c-0.3,0-0.5-0.2-0.5-0.5c0-0.3,0.2-0.5,0.5-0.5h2.2c0.3,0,0.5,0.2,0.5,0.5
						C57.8,99.6,57.6,99.8,57.3,99.8z"/>
				</g>
				<g>
					<path class="st2" d="M61.3,99.8h-2.2c-0.3,0-0.5-0.2-0.5-0.5c0-0.3,0.2-0.5,0.5-0.5h2.2c0.3,0,0.5,0.2,0.5,0.5
						C61.8,99.6,61.6,99.8,61.3,99.8z"/>
				</g>
				<g>
					<path class="st2" d="M65.3,99.8h-2.2c-0.3,0-0.5-0.2-0.5-0.5c0-0.3,0.2-0.5,0.5-0.5h2.2c0.3,0,0.5,0.2,0.5,0.5
						C65.8,99.6,65.6,99.8,65.3,99.8z"/>
				</g>
				<g>
					<path class="st2" d="M69.3,99.8h-2.2c-0.3,0-0.5-0.2-0.5-0.5c0-0.3,0.2-0.5,0.5-0.5h2.2c0.3,0,0.5,0.2,0.5,0.5
						C69.8,99.6,69.6,99.8,69.3,99.8z"/>
				</g>
				<g>
					<path class="st2" d="M73.3,99.8h-2.2c-0.3,0-0.5-0.2-0.5-0.5c0-0.3,0.2-0.5,0.5-0.5h2.2c0.3,0,0.5,0.2,0.5,0.5
						C73.8,99.6,73.6,99.8,73.3,99.8z"/>
				</g>
			</g>
			<g>
				<g>
					<path class="st2" d="M57.3,96.4h-2.2c-0.3,0-0.5-0.2-0.5-0.5c0-0.3,0.2-0.5,0.5-0.5h2.2c0.3,0,0.5,0.2,0.5,0.5
						C57.8,96.1,57.6,96.4,57.3,96.4z"/>
				</g>
				<g>
					<path class="st2" d="M61.3,96.4h-2.2c-0.3,0-0.5-0.2-0.5-0.5c0-0.3,0.2-0.5,0.5-0.5h2.2c0.3,0,0.5,0.2,0.5,0.5
						C61.8,96.1,61.6,96.4,61.3,96.4z"/>
				</g>
				<g>
					<path class="st2" d="M65.3,96.4h-2.2c-0.3,0-0.5-0.2-0.5-0.5c0-0.3,0.2-0.5,0.5-0.5h2.2c0.3,0,0.5,0.2,0.5,0.5
						C65.8,96.1,65.6,96.4,65.3,96.4z"/>
				</g>
				<g>
					<path class="st2" d="M69.3,96.4h-2.2c-0.3,0-0.5-0.2-0.5-0.5c0-0.3,0.2-0.5,0.5-0.5h2.2c0.3,0,0.5,0.2,0.5,0.5
						C69.8,96.1,69.6,96.4,69.3,96.4z"/>
				</g>
				<g>
					<path class="st2" d="M73.3,96.4h-2.2c-0.3,0-0.5-0.2-0.5-0.5c0-0.3,0.2-0.5,0.5-0.5h2.2c0.3,0,0.5,0.2,0.5,0.5
						C73.8,96.1,73.6,96.4,73.3,96.4z"/>
				</g>
			</g>
			<g>
				<g>
					<path class="st2" d="M57.3,92.9h-2.2c-0.3,0-0.5-0.2-0.5-0.5c0-0.3,0.2-0.5,0.5-0.5h2.2c0.3,0,0.5,0.2,0.5,0.5
						C57.8,92.7,57.6,92.9,57.3,92.9z"/>
				</g>
				<g>
					<path class="st2" d="M61.3,92.9h-2.2c-0.3,0-0.5-0.2-0.5-0.5c0-0.3,0.2-0.5,0.5-0.5h2.2c0.3,0,0.5,0.2,0.5,0.5
						C61.8,92.7,61.6,92.9,61.3,92.9z"/>
				</g>
				<g>
					<path class="st2" d="M65.3,92.9h-2.2c-0.3,0-0.5-0.2-0.5-0.5c0-0.3,0.2-0.5,0.5-0.5h2.2c0.3,0,0.5,0.2,0.5,0.5
						C65.8,92.7,65.6,92.9,65.3,92.9z"/>
				</g>
				<g>
					<path class="st2" d="M69.3,92.9h-2.2c-0.3,0-0.5-0.2-0.5-0.5c0-0.3,0.2-0.5,0.5-0.5h2.2c0.3,0,0.5,0.2,0.5,0.5
						C69.8,92.7,69.6,92.9,69.3,92.9z"/>
				</g>
				<g>
					<path class="st2" d="M73.3,92.9h-2.2c-0.3,0-0.5-0.2-0.5-0.5c0-0.3,0.2-0.5,0.5-0.5h2.2c0.3,0,0.5,0.2,0.5,0.5
						C73.8,92.7,73.6,92.9,73.3,92.9z"/>
				</g>
			</g>
			<g>
				<g>
					<path class="st2" d="M57.3,89.5h-2.2c-0.3,0-0.5-0.2-0.5-0.5s0.2-0.5,0.5-0.5h2.2c0.3,0,0.5,0.2,0.5,0.5S57.6,89.5,57.3,89.5z"
						/>
				</g>
				<g>
					<path class="st2" d="M61.3,89.5h-2.2c-0.3,0-0.5-0.2-0.5-0.5s0.2-0.5,0.5-0.5h2.2c0.3,0,0.5,0.2,0.5,0.5S61.6,89.5,61.3,89.5z"
						/>
				</g>
				<g>
					<path class="st2" d="M65.3,89.5h-2.2c-0.3,0-0.5-0.2-0.5-0.5s0.2-0.5,0.5-0.5h2.2c0.3,0,0.5,0.2,0.5,0.5S65.6,89.5,65.3,89.5z"
						/>
				</g>
				<g>
					<path class="st2" d="M69.3,89.5h-2.2c-0.3,0-0.5-0.2-0.5-0.5s0.2-0.5,0.5-0.5h2.2c0.3,0,0.5,0.2,0.5,0.5S69.6,89.5,69.3,89.5z"
						/>
				</g>
				<g>
					<path class="st2" d="M73.3,89.5h-2.2c-0.3,0-0.5-0.2-0.5-0.5s0.2-0.5,0.5-0.5h2.2c0.3,0,0.5,0.2,0.5,0.5S73.6,89.5,73.3,89.5z"
						/>
				</g>
			</g>
			<g>
				<g>
					<path class="st2" d="M57.3,86h-2.2c-0.3,0-0.5-0.2-0.5-0.5c0-0.3,0.2-0.5,0.5-0.5h2.2c0.3,0,0.5,0.2,0.5,0.5
						C57.8,85.8,57.6,86,57.3,86z"/>
				</g>
				<g>
					<path class="st2" d="M61.3,86h-2.2c-0.3,0-0.5-0.2-0.5-0.5c0-0.3,0.2-0.5,0.5-0.5h2.2c0.3,0,0.5,0.2,0.5,0.5
						C61.8,85.8,61.6,86,61.3,86z"/>
				</g>
				<g>
					<path class="st2" d="M65.3,86h-2.2c-0.3,0-0.5-0.2-0.5-0.5c0-0.3,0.2-0.5,0.5-0.5h2.2c0.3,0,0.5,0.2,0.5,0.5
						C65.8,85.8,65.6,86,65.3,86z"/>
				</g>
				<g>
					<path class="st2" d="M69.3,86h-2.2c-0.3,0-0.5-0.2-0.5-0.5c0-0.3,0.2-0.5,0.5-0.5h2.2c0.3,0,0.5,0.2,0.5,0.5
						C69.8,85.8,69.6,86,69.3,86z"/>
				</g>
				<g>
					<path class="st2" d="M73.3,86h-2.2c-0.3,0-0.5-0.2-0.5-0.5c0-0.3,0.2-0.5,0.5-0.5h2.2c0.3,0,0.5,0.2,0.5,0.5
						C73.8,85.8,73.6,86,73.3,86z"/>
				</g>
			</g>
			<g>
				<g>
					<path class="st2" d="M57.3,82.6h-2.2c-0.3,0-0.5-0.2-0.5-0.5c0-0.3,0.2-0.5,0.5-0.5h2.2c0.3,0,0.5,0.2,0.5,0.5
						C57.8,82.3,57.6,82.6,57.3,82.6z"/>
				</g>
				<g>
					<path class="st2" d="M61.3,82.6h-2.2c-0.3,0-0.5-0.2-0.5-0.5c0-0.3,0.2-0.5,0.5-0.5h2.2c0.3,0,0.5,0.2,0.5,0.5
						C61.8,82.3,61.6,82.6,61.3,82.6z"/>
				</g>
				<g>
					<path class="st2" d="M65.3,82.6h-2.2c-0.3,0-0.5-0.2-0.5-0.5c0-0.3,0.2-0.5,0.5-0.5h2.2c0.3,0,0.5,0.2,0.5,0.5
						C65.8,82.3,65.6,82.6,65.3,82.6z"/>
				</g>
				<g>
					<path class="st2" d="M69.3,82.6h-2.2c-0.3,0-0.5-0.2-0.5-0.5c0-0.3,0.2-0.5,0.5-0.5h2.2c0.3,0,0.5,0.2,0.5,0.5
						C69.8,82.3,69.6,82.6,69.3,82.6z"/>
				</g>
				<g>
					<path class="st2" d="M73.3,82.6h-2.2c-0.3,0-0.5-0.2-0.5-0.5c0-0.3,0.2-0.5,0.5-0.5h2.2c0.3,0,0.5,0.2,0.5,0.5
						C73.8,82.3,73.6,82.6,73.3,82.6z"/>
				</g>
			</g>
		</g>
		<g>
			<g>
				<g>
					<path class="st2" d="M403,145h-2.5c-0.3,0-0.5-0.2-0.5-0.5c0-0.3,0.2-0.5,0.5-0.5h2.5c0.3,0,0.5,0.2,0.5,0.5
						C403.6,144.8,403.3,145,403,145z"/>
				</g>
				<g>
					<path class="st2" d="M411.9,145h-2.5c-0.3,0-0.5-0.2-0.5-0.5c0-0.3,0.2-0.5,0.5-0.5h2.5c0.3,0,0.5,0.2,0.5,0.5
						C412.5,144.8,412.2,145,411.9,145z"/>
				</g>
				<g>
					<path class="st2" d="M420.8,145h-6.6c-0.3,0-0.5-0.2-0.5-0.5c0-0.3,0.2-0.5,0.5-0.5h6.6c0.3,0,0.5,0.2,0.5,0.5
						C421.3,144.8,421.1,145,420.8,145z"/>
				</g>
			</g>
			<g>
				<g>
					<path class="st2" d="M407.5,141.6h-5.7c-0.3,0-0.5-0.2-0.5-0.5c0-0.3,0.2-0.5,0.5-0.5h5.7c0.3,0,0.5,0.2,0.5,0.5
						C408,141.4,407.8,141.6,407.5,141.6z"/>
				</g>
				<g>
					<path class="st2" d="M416.4,141.6h-2.5c-0.3,0-0.5-0.2-0.5-0.5c0-0.3,0.2-0.5,0.5-0.5h2.5c0.3,0,0.5,0.2,0.5,0.5
						C416.9,141.4,416.7,141.6,416.4,141.6z"/>
				</g>
			</g>
			<g>
				<g>
					<path class="st2" d="M403,138.2h-2.5c-0.3,0-0.5-0.2-0.5-0.5c0-0.3,0.2-0.5,0.5-0.5h2.5c0.3,0,0.5,0.2,0.5,0.5
						C403.6,138,403.3,138.2,403,138.2z"/>
				</g>
				<g>
					<path class="st2" d="M414.2,138.2h-4.8c-0.3,0-0.5-0.2-0.5-0.5c0-0.3,0.2-0.5,0.5-0.5h4.8c0.3,0,0.5,0.2,0.5,0.5
						C414.8,138,414.5,138.2,414.2,138.2z"/>
				</g>
				<g>
					<path class="st2" d="M420.8,138.2h-2.5c-0.3,0-0.5-0.2-0.5-0.5c0-0.3,0.2-0.5,0.5-0.5h2.5c0.3,0,0.5,0.2,0.5,0.5
						C421.3,138,421.1,138.2,420.8,138.2z"/>
				</g>
			</g>
			<g>
				<g>
					<path class="st2" d="M407.5,134.8h-4.1c-0.3,0-0.5-0.2-0.5-0.5c0-0.3,0.2-0.5,0.5-0.5h4.1c0.3,0,0.5,0.2,0.5,0.5
						C408,134.6,407.8,134.8,407.5,134.8z"/>
				</g>
				<g>
					<path class="st2" d="M416.4,134.8h-2.5c-0.3,0-0.5-0.2-0.5-0.5c0-0.3,0.2-0.5,0.5-0.5h2.5c0.3,0,0.5,0.2,0.5,0.5
						C416.9,134.6,416.7,134.8,416.4,134.8z"/>
				</g>
			</g>
			<g>
				<g>
					<path class="st2" d="M403,131.4h-2.5c-0.3,0-0.5-0.2-0.5-0.5c0-0.3,0.2-0.5,0.5-0.5h2.5c0.3,0,0.5,0.2,0.5,0.5
						C403.6,131.2,403.3,131.4,403,131.4z"/>
				</g>
				<g>
					<path class="st2" d="M414.2,131.4h-4.8c-0.3,0-0.5-0.2-0.5-0.5c0-0.3,0.2-0.5,0.5-0.5h4.8c0.3,0,0.5,0.2,0.5,0.5
						C414.8,131.2,414.5,131.4,414.2,131.4z"/>
				</g>
				<g>
					<path class="st2" d="M420.8,131.4h-2.5c-0.3,0-0.5-0.2-0.5-0.5c0-0.3,0.2-0.5,0.5-0.5h2.5c0.3,0,0.5,0.2,0.5,0.5
						C421.3,131.2,421.1,131.4,420.8,131.4z"/>
				</g>
			</g>
			<g>
				<g>
					<path class="st2" d="M410.1,128H405c-0.3,0-0.5-0.2-0.5-0.5c0-0.3,0.2-0.5,0.5-0.5h5.1c0.3,0,0.5,0.2,0.5,0.5
						C410.7,127.7,410.4,128,410.1,128z"/>
				</g>
				<g>
					<path class="st2" d="M416.4,128h-2.5c-0.3,0-0.5-0.2-0.5-0.5c0-0.3,0.2-0.5,0.5-0.5h2.5c0.3,0,0.5,0.2,0.5,0.5
						C416.9,127.7,416.7,128,416.4,128z"/>
				</g>
			</g>
			<g>
				<g>
					<path class="st2" d="M403,124.6h-2.5c-0.3,0-0.5-0.2-0.5-0.5c0-0.3,0.2-0.5,0.5-0.5h2.5c0.3,0,0.5,0.2,0.5,0.5
						C403.6,124.3,403.3,124.6,403,124.6z"/>
				</g>
				<g>
					<path class="st2" d="M411.9,124.6h-2.5c-0.3,0-0.5-0.2-0.5-0.5c0-0.3,0.2-0.5,0.5-0.5h2.5c0.3,0,0.5,0.2,0.5,0.5
						C412.5,124.3,412.2,124.6,411.9,124.6z"/>
				</g>
				<g>
					<path class="st2" d="M420.8,124.6h-6.9c-0.3,0-0.5-0.2-0.5-0.5c0-0.3,0.2-0.5,0.5-0.5h6.9c0.3,0,0.5,0.2,0.5,0.5
						C421.3,124.3,421.1,124.6,420.8,124.6z"/>
				</g>
			</g>
			<g>
				<g>
					<path class="st2" d="M410.7,121.2H405c-0.3,0-0.5-0.2-0.5-0.5c0-0.3,0.2-0.5,0.5-0.5h5.7c0.3,0,0.5,0.2,0.5,0.5
						C411.2,120.9,411,121.2,410.7,121.2z"/>
				</g>
				<g>
					<path class="st2" d="M416.4,121.2h-2.5c-0.3,0-0.5-0.2-0.5-0.5c0-0.3,0.2-0.5,0.5-0.5h2.5c0.3,0,0.5,0.2,0.5,0.5
						C416.9,120.9,416.7,121.2,416.4,121.2z"/>
				</g>
			</g>
			<g>
				<g>
					<path class="st2" d="M406.2,117.7h-5.7c-0.3,0-0.5-0.2-0.5-0.5c0-0.3,0.2-0.5,0.5-0.5h5.7c0.3,0,0.5,0.2,0.5,0.5
						C406.8,117.5,406.5,117.7,406.2,117.7z"/>
				</g>
				<g>
					<path class="st2" d="M411.9,117.7h-2.5c-0.3,0-0.5-0.2-0.5-0.5c0-0.3,0.2-0.5,0.5-0.5h2.5c0.3,0,0.5,0.2,0.5,0.5
						C412.5,117.5,412.2,117.7,411.9,117.7z"/>
				</g>
				<g>
					<path class="st2" d="M420.8,117.7h-2.5c-0.3,0-0.5-0.2-0.5-0.5c0-0.3,0.2-0.5,0.5-0.5h2.5c0.3,0,0.5,0.2,0.5,0.5
						C421.3,117.5,421.1,117.7,420.8,117.7z"/>
				</g>
			</g>
			<g>
				<g>
					<path class="st2" d="M407.5,114.3H405c-0.3,0-0.5-0.2-0.5-0.5c0-0.3,0.2-0.5,0.5-0.5h2.5c0.3,0,0.5,0.2,0.5,0.5
						C408,114.1,407.8,114.3,407.5,114.3z"/>
				</g>
				<g>
					<path class="st2" d="M418.3,114.3h-4.4c-0.3,0-0.5-0.2-0.5-0.5c0-0.3,0.2-0.5,0.5-0.5h4.4c0.3,0,0.5,0.2,0.5,0.5
						C418.9,114.1,418.6,114.3,418.3,114.3z"/>
				</g>
			</g>
			<g>
				<g>
					<path class="st2" d="M403,110.9h-2.5c-0.3,0-0.5-0.2-0.5-0.5c0-0.3,0.2-0.5,0.5-0.5h2.5c0.3,0,0.5,0.2,0.5,0.5
						C403.6,110.7,403.3,110.9,403,110.9z"/>
				</g>
				<g>
					<path class="st2" d="M411.9,110.9h-5.7c-0.3,0-0.5-0.2-0.5-0.5c0-0.3,0.2-0.5,0.5-0.5h5.7c0.3,0,0.5,0.2,0.5,0.5
						C412.5,110.7,412.2,110.9,411.9,110.9z"/>
				</g>
				<g>
					<path class="st2" d="M420.8,110.9h-2.5c-0.3,0-0.5-0.2-0.5-0.5c0-0.3,0.2-0.5,0.5-0.5h2.5c0.3,0,0.5,0.2,0.5,0.5
						C421.3,110.7,421.1,110.9,420.8,110.9z"/>
				</g>
			</g>
			<g>
				<g>
					<path class="st2" d="M407.5,107.5H405c-0.3,0-0.5-0.2-0.5-0.5s0.2-0.5,0.5-0.5h2.5c0.3,0,0.5,0.2,0.5,0.5
						S407.8,107.5,407.5,107.5z"/>
				</g>
				<g>
					<path class="st2" d="M419.6,107.5h-5.7c-0.3,0-0.5-0.2-0.5-0.5s0.2-0.5,0.5-0.5h5.7c0.3,0,0.5,0.2,0.5,0.5
						S419.9,107.5,419.6,107.5z"/>
				</g>
			</g>
			<g>
				<g>
					<path class="st2" d="M403,104.1h-2.5c-0.3,0-0.5-0.2-0.5-0.5s0.2-0.5,0.5-0.5h2.5c0.3,0,0.5,0.2,0.5,0.5S403.3,104.1,403,104.1
						z"/>
				</g>
				<g>
					<path class="st2" d="M411.9,104.1h-5.7c-0.3,0-0.5-0.2-0.5-0.5s0.2-0.5,0.5-0.5h5.7c0.3,0,0.5,0.2,0.5,0.5
						S412.2,104.1,411.9,104.1z"/>
				</g>
				<g>
					<path class="st2" d="M420.8,104.1h-2.5c-0.3,0-0.5-0.2-0.5-0.5s0.2-0.5,0.5-0.5h2.5c0.3,0,0.5,0.2,0.5,0.5
						S421.1,104.1,420.8,104.1z"/>
				</g>
			</g>
			<g>
				<g>
					<path class="st2" d="M407.5,100.7H405c-0.3,0-0.5-0.2-0.5-0.5c0-0.3,0.2-0.5,0.5-0.5h2.5c0.3,0,0.5,0.2,0.5,0.5
						C408,100.5,407.8,100.7,407.5,100.7z"/>
				</g>
				<g>
					<path class="st2" d="M416.4,100.7h-5.1c-0.3,0-0.5-0.2-0.5-0.5c0-0.3,0.2-0.5,0.5-0.5h5.1c0.3,0,0.5,0.2,0.5,0.5
						C416.9,100.5,416.7,100.7,416.4,100.7z"/>
				</g>
			</g>
			<g>
				<g>
					<path class="st2" d="M405,97.3h-4.4c-0.3,0-0.5-0.2-0.5-0.5s0.2-0.5,0.5-0.5h4.4c0.3,0,0.5,0.2,0.5,0.5S405.3,97.3,405,97.3z"
						/>
				</g>
				<g>
					<path class="st2" d="M415.1,97.3h-5.7c-0.3,0-0.5-0.2-0.5-0.5s0.2-0.5,0.5-0.5h5.7c0.3,0,0.5,0.2,0.5,0.5
						S415.4,97.3,415.1,97.3z"/>
				</g>
				<g>
					<path class="st2" d="M420.8,97.3h-2.5c-0.3,0-0.5-0.2-0.5-0.5s0.2-0.5,0.5-0.5h2.5c0.3,0,0.5,0.2,0.5,0.5
						S421.1,97.3,420.8,97.3z"/>
				</g>
			</g>
			<g>
				<g>
					<path class="st2" d="M407.5,93.9H405c-0.3,0-0.5-0.2-0.5-0.5s0.2-0.5,0.5-0.5h2.5c0.3,0,0.5,0.2,0.5,0.5S407.8,93.9,407.5,93.9
						z"/>
				</g>
				<g>
					<path class="st2" d="M416.4,93.9h-2.5c-0.3,0-0.5-0.2-0.5-0.5s0.2-0.5,0.5-0.5h2.5c0.3,0,0.5,0.2,0.5,0.5
						S416.7,93.9,416.4,93.9z"/>
				</g>
			</g>
			<g>
				<g>
					<path class="st2" d="M405,90.5h-4.4c-0.3,0-0.5-0.2-0.5-0.5c0-0.3,0.2-0.5,0.5-0.5h4.4c0.3,0,0.5,0.2,0.5,0.5
						C405.5,90.2,405.3,90.5,405,90.5z"/>
				</g>
				<g>
					<path class="st2" d="M411.9,90.5h-2.5c-0.3,0-0.5-0.2-0.5-0.5c0-0.3,0.2-0.5,0.5-0.5h2.5c0.3,0,0.5,0.2,0.5,0.5
						C412.5,90.2,412.2,90.5,411.9,90.5z"/>
				</g>
				<g>
					<path class="st2" d="M420.8,90.5h-5.7c-0.3,0-0.5-0.2-0.5-0.5c0-0.3,0.2-0.5,0.5-0.5h5.7c0.3,0,0.5,0.2,0.5,0.5
						C421.3,90.2,421.1,90.5,420.8,90.5z"/>
				</g>
			</g>
			<g>
				<g>
					<path class="st2" d="M407.5,87H405c-0.3,0-0.5-0.2-0.5-0.5c0-0.3,0.2-0.5,0.5-0.5h2.5c0.3,0,0.5,0.2,0.5,0.5
						C408,86.8,407.8,87,407.5,87z"/>
				</g>
				<g>
					<path class="st2" d="M416.4,87h-5.1c-0.3,0-0.5-0.2-0.5-0.5c0-0.3,0.2-0.5,0.5-0.5h5.1c0.3,0,0.5,0.2,0.5,0.5
						C416.9,86.8,416.7,87,416.4,87z"/>
				</g>
			</g>
			<g>
				<g>
					<path class="st2" d="M406.2,83.6h-5.7c-0.3,0-0.5-0.2-0.5-0.5c0-0.3,0.2-0.5,0.5-0.5h5.7c0.3,0,0.5,0.2,0.5,0.5
						C406.8,83.4,406.5,83.6,406.2,83.6z"/>
				</g>
				<g>
					<path class="st2" d="M411.9,83.6h-2.5c-0.3,0-0.5-0.2-0.5-0.5c0-0.3,0.2-0.5,0.5-0.5h2.5c0.3,0,0.5,0.2,0.5,0.5
						C412.5,83.4,412.2,83.6,411.9,83.6z"/>
				</g>
				<g>
					<path class="st2" d="M420.8,83.6h-2.5c-0.3,0-0.5-0.2-0.5-0.5c0-0.3,0.2-0.5,0.5-0.5h2.5c0.3,0,0.5,0.2,0.5,0.5
						C421.3,83.4,421.1,83.6,420.8,83.6z"/>
				</g>
			</g>
			<g>
				<g>
					<path class="st2" d="M407.5,80.2H405c-0.3,0-0.5-0.2-0.5-0.5c0-0.3,0.2-0.5,0.5-0.5h2.5c0.3,0,0.5,0.2,0.5,0.5
						C408,80,407.8,80.2,407.5,80.2z"/>
				</g>
				<g>
					<path class="st2" d="M419.6,80.2h-5.7c-0.3,0-0.5-0.2-0.5-0.5c0-0.3,0.2-0.5,0.5-0.5h5.7c0.3,0,0.5,0.2,0.5,0.5
						C420.1,80,419.9,80.2,419.6,80.2z"/>
				</g>
			</g>
		</g>
		<g>
			<g>
				<path class="st2" d="M403.6,74.7c-0.3,0-0.5-0.2-0.5-0.5v-2c0-0.3,0.2-0.5,0.5-0.5s0.5,0.2,0.5,0.5v2
					C404.1,74.5,403.9,74.7,403.6,74.7z"/>
			</g>
			<g>
				<path class="st2" d="M407.1,74.7c-0.3,0-0.5-0.2-0.5-0.5v-2c0-0.3,0.2-0.5,0.5-0.5c0.3,0,0.5,0.2,0.5,0.5v2
					C407.7,74.5,407.4,74.7,407.1,74.7z"/>
			</g>
			<g>
				<path class="st2" d="M410.7,74.7c-0.3,0-0.5-0.2-0.5-0.5v-2c0-0.3,0.2-0.5,0.5-0.5c0.3,0,0.5,0.2,0.5,0.5v2
					C411.2,74.5,411,74.7,410.7,74.7z"/>
			</g>
			<g>
				<path class="st2" d="M414.2,74.7c-0.3,0-0.5-0.2-0.5-0.5v-2c0-0.3,0.2-0.5,0.5-0.5c0.3,0,0.5,0.2,0.5,0.5v2
					C414.8,74.5,414.5,74.7,414.2,74.7z"/>
			</g>
			<g>
				<path class="st2" d="M417.8,74.7c-0.3,0-0.5-0.2-0.5-0.5v-2c0-0.3,0.2-0.5,0.5-0.5c0.3,0,0.5,0.2,0.5,0.5v2
					C418.3,74.5,418.1,74.7,417.8,74.7z"/>
			</g>
		</g>
		<g>
			<g>
				<path class="st2" d="M169,86.3h-18.4c-0.3,0-0.5-0.2-0.5-0.5c0-0.3,0.2-0.5,0.5-0.5H169c0.3,0,0.5,0.2,0.5,0.5
					C169.5,86,169.3,86.3,169,86.3z"/>
			</g>
			<g>
				<path class="st2" d="M169,89.8h-18.4c-0.3,0-0.5-0.2-0.5-0.5s0.2-0.5,0.5-0.5H169c0.3,0,0.5,0.2,0.5,0.5S169.3,89.8,169,89.8z"
					/>
			</g>
			<g>
				<path class="st2" d="M169,93.4h-18.4c-0.3,0-0.5-0.2-0.5-0.5c0-0.3,0.2-0.5,0.5-0.5H169c0.3,0,0.5,0.2,0.5,0.5
					C169.5,93.2,169.3,93.4,169,93.4z"/>
			</g>
			<g>
				<path class="st2" d="M169,97h-18.4c-0.3,0-0.5-0.2-0.5-0.5c0-0.3,0.2-0.5,0.5-0.5H169c0.3,0,0.5,0.2,0.5,0.5
					C169.5,96.7,169.3,97,169,97z"/>
			</g>
			<g>
				<path class="st2" d="M169,100.5h-18.4c-0.3,0-0.5-0.2-0.5-0.5c0-0.3,0.2-0.5,0.5-0.5H169c0.3,0,0.5,0.2,0.5,0.5
					C169.5,100.3,169.3,100.5,169,100.5z"/>
			</g>
			<g>
				<path class="st2" d="M169,104.1h-18.4c-0.3,0-0.5-0.2-0.5-0.5s0.2-0.5,0.5-0.5H169c0.3,0,0.5,0.2,0.5,0.5S169.3,104.1,169,104.1
					z"/>
			</g>
			<g>
				<path class="st2" d="M169,107.6h-18.4c-0.3,0-0.5-0.2-0.5-0.5c0-0.3,0.2-0.5,0.5-0.5H169c0.3,0,0.5,0.2,0.5,0.5
					C169.5,107.4,169.3,107.6,169,107.6z"/>
			</g>
			<g>
				<path class="st2" d="M169,111.2h-18.4c-0.3,0-0.5-0.2-0.5-0.5c0-0.3,0.2-0.5,0.5-0.5H169c0.3,0,0.5,0.2,0.5,0.5
					C169.5,110.9,169.3,111.2,169,111.2z"/>
			</g>
			<g>
				<path class="st2" d="M169,114.7h-18.4c-0.3,0-0.5-0.2-0.5-0.5c0-0.3,0.2-0.5,0.5-0.5H169c0.3,0,0.5,0.2,0.5,0.5
					C169.5,114.5,169.3,114.7,169,114.7z"/>
			</g>
			<g>
				<path class="st2" d="M169,118.3h-18.4c-0.3,0-0.5-0.2-0.5-0.5c0-0.3,0.2-0.5,0.5-0.5H169c0.3,0,0.5,0.2,0.5,0.5
					C169.5,118.1,169.3,118.3,169,118.3z"/>
			</g>
			<g>
				<path class="st2" d="M169,121.9h-18.4c-0.3,0-0.5-0.2-0.5-0.5c0-0.3,0.2-0.5,0.5-0.5H169c0.3,0,0.5,0.2,0.5,0.5
					C169.5,121.6,169.3,121.9,169,121.9z"/>
			</g>
			<g>
				<path class="st2" d="M169,125.4h-18.4c-0.3,0-0.5-0.2-0.5-0.5s0.2-0.5,0.5-0.5H169c0.3,0,0.5,0.2,0.5,0.5S169.3,125.4,169,125.4
					z"/>
			</g>
			<g>
				<path class="st2" d="M169,129h-18.4c-0.3,0-0.5-0.2-0.5-0.5c0-0.3,0.2-0.5,0.5-0.5H169c0.3,0,0.5,0.2,0.5,0.5
					C169.5,128.7,169.3,129,169,129z"/>
			</g>
			<g>
				<path class="st2" d="M169,132.5h-18.4c-0.3,0-0.5-0.2-0.5-0.5c0-0.3,0.2-0.5,0.5-0.5H169c0.3,0,0.5,0.2,0.5,0.5
					C169.5,132.3,169.3,132.5,169,132.5z"/>
			</g>
			<g>
				<path class="st2" d="M169,136.1h-18.4c-0.3,0-0.5-0.2-0.5-0.5c0-0.3,0.2-0.5,0.5-0.5H169c0.3,0,0.5,0.2,0.5,0.5
					C169.5,135.9,169.3,136.1,169,136.1z"/>
			</g>
		</g>
		<g>
			<g>
				<path class="st2" d="M119,139.8c-0.3,0-0.5-0.2-0.5-0.5V70.4c0-0.3,0.2-0.5,0.5-0.5c0.3,0,0.5,0.2,0.5,0.5v68.9
					C119.5,139.6,119.3,139.8,119,139.8z"/>
			</g>
			<g>
				<path class="st2" d="M121.4,139.8c-0.3,0-0.5-0.2-0.5-0.5V67c0-0.3,0.2-0.5,0.5-0.5c0.3,0,0.5,0.2,0.5,0.5v72.3
					C121.9,139.6,121.7,139.8,121.4,139.8z"/>
			</g>
			<g>
				<path class="st2" d="M123.8,139.8c-0.3,0-0.5-0.2-0.5-0.5V63.4c0-0.3,0.2-0.5,0.5-0.5c0.3,0,0.5,0.2,0.5,0.5v75.9
					C124.3,139.6,124.1,139.8,123.8,139.8z"/>
			</g>
			<g>
				<path class="st2" d="M126.2,139.8c-0.3,0-0.5-0.2-0.5-0.5V67c0-0.3,0.2-0.5,0.5-0.5c0.3,0,0.5,0.2,0.5,0.5v72.3
					C126.7,139.6,126.5,139.8,126.2,139.8z"/>
			</g>
			<g>
				<path class="st2" d="M128.6,139.8c-0.3,0-0.5-0.2-0.5-0.5V70.4c0-0.3,0.2-0.5,0.5-0.5c0.3,0,0.5,0.2,0.5,0.5v68.9
					C129.1,139.6,128.9,139.8,128.6,139.8z"/>
			</g>
		</g>
		<g>
			<g>
				<path class="st2" d="M26.2,88.9h-3.2c-0.3,0-0.5-0.2-0.5-0.5c0-0.3,0.2-0.5,0.5-0.5h3.2c0.3,0,0.5,0.2,0.5,0.5
					C26.7,88.7,26.5,88.9,26.2,88.9z"/>
			</g>
			<g>
				<path class="st2" d="M26.2,92.4h-3.2c-0.3,0-0.5-0.2-0.5-0.5c0-0.3,0.2-0.5,0.5-0.5h3.2c0.3,0,0.5,0.2,0.5,0.5
					C26.7,92.2,26.5,92.4,26.2,92.4z"/>
			</g>
			<g>
				<path class="st2" d="M26.2,96h-3.2c-0.3,0-0.5-0.2-0.5-0.5c0-0.3,0.2-0.5,0.5-0.5h3.2c0.3,0,0.5,0.2,0.5,0.5
					C26.7,95.8,26.5,96,26.2,96z"/>
			</g>
			<g>
				<path class="st2" d="M26.2,99.6h-3.2c-0.3,0-0.5-0.2-0.5-0.5c0-0.3,0.2-0.5,0.5-0.5h3.2c0.3,0,0.5,0.2,0.5,0.5
					C26.7,99.3,26.5,99.6,26.2,99.6z"/>
			</g>
			<g>
				<path class="st2" d="M26.2,103.1h-3.2c-0.3,0-0.5-0.2-0.5-0.5c0-0.3,0.2-0.5,0.5-0.5h3.2c0.3,0,0.5,0.2,0.5,0.5
					C26.7,102.9,26.5,103.1,26.2,103.1z"/>
			</g>
			<g>
				<path class="st2" d="M26.2,106.7h-3.2c-0.3,0-0.5-0.2-0.5-0.5c0-0.3,0.2-0.5,0.5-0.5h3.2c0.3,0,0.5,0.2,0.5,0.5
					C26.7,106.4,26.5,106.7,26.2,106.7z"/>
			</g>
			<g>
				<path class="st2" d="M26.2,110.2h-3.2c-0.3,0-0.5-0.2-0.5-0.5c0-0.3,0.2-0.5,0.5-0.5h3.2c0.3,0,0.5,0.2,0.5,0.5
					C26.7,110,26.5,110.2,26.2,110.2z"/>
			</g>
			<g>
				<path class="st2" d="M26.2,113.8h-3.2c-0.3,0-0.5-0.2-0.5-0.5c0-0.3,0.2-0.5,0.5-0.5h3.2c0.3,0,0.5,0.2,0.5,0.5
					C26.7,113.5,26.5,113.8,26.2,113.8z"/>
			</g>
			<g>
				<path class="st2" d="M26.2,117.3h-3.2c-0.3,0-0.5-0.2-0.5-0.5c0-0.3,0.2-0.5,0.5-0.5h3.2c0.3,0,0.5,0.2,0.5,0.5
					C26.7,117.1,26.5,117.3,26.2,117.3z"/>
			</g>
			<g>
				<path class="st2" d="M26.2,120.9h-3.2c-0.3,0-0.5-0.2-0.5-0.5c0-0.3,0.2-0.5,0.5-0.5h3.2c0.3,0,0.5,0.2,0.5,0.5
					C26.7,120.7,26.5,120.9,26.2,120.9z"/>
			</g>
			<g>
				<path class="st2" d="M26.2,124.5h-3.2c-0.3,0-0.5-0.2-0.5-0.5c0-0.3,0.2-0.5,0.5-0.5h3.2c0.3,0,0.5,0.2,0.5,0.5
					C26.7,124.2,26.5,124.5,26.2,124.5z"/>
			</g>
			<g>
				<path class="st2" d="M26.2,128h-3.2c-0.3,0-0.5-0.2-0.5-0.5c0-0.3,0.2-0.5,0.5-0.5h3.2c0.3,0,0.5,0.2,0.5,0.5
					C26.7,127.8,26.5,128,26.2,128z"/>
			</g>
			<g>
				<path class="st2" d="M26.2,131.6h-3.2c-0.3,0-0.5-0.2-0.5-0.5c0-0.3,0.2-0.5,0.5-0.5h3.2c0.3,0,0.5,0.2,0.5,0.5
					C26.7,131.3,26.5,131.6,26.2,131.6z"/>
			</g>
			<g>
				<path class="st2" d="M26.2,135.1h-3.2c-0.3,0-0.5-0.2-0.5-0.5c0-0.3,0.2-0.5,0.5-0.5h3.2c0.3,0,0.5,0.2,0.5,0.5
					C26.7,134.9,26.5,135.1,26.2,135.1z"/>
			</g>
			<g>
				<path class="st2" d="M26.2,138.7h-3.2c-0.3,0-0.5-0.2-0.5-0.5c0-0.3,0.2-0.5,0.5-0.5h3.2c0.3,0,0.5,0.2,0.5,0.5
					C26.7,138.5,26.5,138.7,26.2,138.7z"/>
			</g>
		</g>
		<g>
			<g>
				<path class="st2" d="M8.2,88.9H5c-0.3,0-0.5-0.2-0.5-0.5c0-0.3,0.2-0.5,0.5-0.5h3.2c0.3,0,0.5,0.2,0.5,0.5
					C8.7,88.7,8.5,88.9,8.2,88.9z"/>
			</g>
			<g>
				<path class="st2" d="M8.2,92.4H5c-0.3,0-0.5-0.2-0.5-0.5c0-0.3,0.2-0.5,0.5-0.5h3.2c0.3,0,0.5,0.2,0.5,0.5
					C8.7,92.2,8.5,92.4,8.2,92.4z"/>
			</g>
			<g>
				<path class="st2" d="M8.2,96H5c-0.3,0-0.5-0.2-0.5-0.5c0-0.3,0.2-0.5,0.5-0.5h3.2c0.3,0,0.5,0.2,0.5,0.5C8.7,95.8,8.5,96,8.2,96
					z"/>
			</g>
			<g>
				<path class="st2" d="M8.2,99.6H5c-0.3,0-0.5-0.2-0.5-0.5c0-0.3,0.2-0.5,0.5-0.5h3.2c0.3,0,0.5,0.2,0.5,0.5
					C8.7,99.3,8.5,99.6,8.2,99.6z"/>
			</g>
			<g>
				<path class="st2" d="M8.2,103.1H5c-0.3,0-0.5-0.2-0.5-0.5c0-0.3,0.2-0.5,0.5-0.5h3.2c0.3,0,0.5,0.2,0.5,0.5
					C8.7,102.9,8.5,103.1,8.2,103.1z"/>
			</g>
			<g>
				<path class="st2" d="M8.2,106.7H5c-0.3,0-0.5-0.2-0.5-0.5c0-0.3,0.2-0.5,0.5-0.5h3.2c0.3,0,0.5,0.2,0.5,0.5
					C8.7,106.4,8.5,106.7,8.2,106.7z"/>
			</g>
			<g>
				<path class="st2" d="M8.2,110.2H5c-0.3,0-0.5-0.2-0.5-0.5c0-0.3,0.2-0.5,0.5-0.5h3.2c0.3,0,0.5,0.2,0.5,0.5
					C8.7,110,8.5,110.2,8.2,110.2z"/>
			</g>
			<g>
				<path class="st2" d="M8.2,113.8H5c-0.3,0-0.5-0.2-0.5-0.5c0-0.3,0.2-0.5,0.5-0.5h3.2c0.3,0,0.5,0.2,0.5,0.5
					C8.7,113.5,8.5,113.8,8.2,113.8z"/>
			</g>
			<g>
				<path class="st2" d="M8.2,117.3H5c-0.3,0-0.5-0.2-0.5-0.5c0-0.3,0.2-0.5,0.5-0.5h3.2c0.3,0,0.5,0.2,0.5,0.5
					C8.7,117.1,8.5,117.3,8.2,117.3z"/>
			</g>
			<g>
				<path class="st2" d="M8.2,120.9H5c-0.3,0-0.5-0.2-0.5-0.5c0-0.3,0.2-0.5,0.5-0.5h3.2c0.3,0,0.5,0.2,0.5,0.5
					C8.7,120.7,8.5,120.9,8.2,120.9z"/>
			</g>
			<g>
				<path class="st2" d="M8.2,124.5H5c-0.3,0-0.5-0.2-0.5-0.5c0-0.3,0.2-0.5,0.5-0.5h3.2c0.3,0,0.5,0.2,0.5,0.5
					C8.7,124.2,8.5,124.5,8.2,124.5z"/>
			</g>
			<g>
				<path class="st2" d="M8.2,128H5c-0.3,0-0.5-0.2-0.5-0.5c0-0.3,0.2-0.5,0.5-0.5h3.2c0.3,0,0.5,0.2,0.5,0.5
					C8.7,127.8,8.5,128,8.2,128z"/>
			</g>
			<g>
				<path class="st2" d="M8.2,131.6H5c-0.3,0-0.5-0.2-0.5-0.5c0-0.3,0.2-0.5,0.5-0.5h3.2c0.3,0,0.5,0.2,0.5,0.5
					C8.7,131.3,8.5,131.6,8.2,131.6z"/>
			</g>
			<g>
				<path class="st2" d="M8.2,135.1H5c-0.3,0-0.5-0.2-0.5-0.5c0-0.3,0.2-0.5,0.5-0.5h3.2c0.3,0,0.5,0.2,0.5,0.5
					C8.7,134.9,8.5,135.1,8.2,135.1z"/>
			</g>
			<g>
				<path class="st2" d="M8.2,138.7H5c-0.3,0-0.5-0.2-0.5-0.5c0-0.3,0.2-0.5,0.5-0.5h3.2c0.3,0,0.5,0.2,0.5,0.5
					C8.7,138.5,8.5,138.7,8.2,138.7z"/>
			</g>
		</g>
		<g>
			<g>
				<path class="st2" d="M10.8,142.3c-0.3,0-0.5-0.2-0.5-0.5V79c0-0.3,0.2-0.5,0.5-0.5c0.3,0,0.5,0.2,0.5,0.5v62.8
					C11.3,142.1,11.1,142.3,10.8,142.3z"/>
			</g>
			<g>
				<path class="st2" d="M13.2,142.3c-0.3,0-0.5-0.2-0.5-0.5V79c0-0.3,0.2-0.5,0.5-0.5c0.3,0,0.5,0.2,0.5,0.5v62.8
					C13.7,142.1,13.5,142.3,13.2,142.3z"/>
			</g>
			<g>
				<path class="st2" d="M15.6,142.3c-0.3,0-0.5-0.2-0.5-0.5V79c0-0.3,0.2-0.5,0.5-0.5c0.3,0,0.5,0.2,0.5,0.5v62.8
					C16.1,142.1,15.9,142.3,15.6,142.3z"/>
			</g>
			<g>
				<path class="st2" d="M18,142.3c-0.3,0-0.5-0.2-0.5-0.5V79c0-0.3,0.2-0.5,0.5-0.5c0.3,0,0.5,0.2,0.5,0.5v62.8
					C18.5,142.1,18.3,142.3,18,142.3z"/>
			</g>
			<g>
				<path class="st2" d="M20.4,142.3c-0.3,0-0.5-0.2-0.5-0.5V79c0-0.3,0.2-0.5,0.5-0.5c0.3,0,0.5,0.2,0.5,0.5v62.8
					C20.9,142.1,20.7,142.3,20.4,142.3z"/>
			</g>
		</g>
		<g>
			<g>
				<path class="st2" d="M273.1,89.1h-18.2c-0.3,0-0.5-0.2-0.5-0.5s0.2-0.5,0.5-0.5h18.2c0.3,0,0.5,0.2,0.5,0.5
					S273.4,89.1,273.1,89.1z"/>
			</g>
			<g>
				<path class="st2" d="M273.1,92.5h-18.2c-0.3,0-0.5-0.2-0.5-0.5c0-0.3,0.2-0.5,0.5-0.5h18.2c0.3,0,0.5,0.2,0.5,0.5
					C273.6,92.3,273.4,92.5,273.1,92.5z"/>
			</g>
			<g>
				<path class="st2" d="M273.1,95.9h-18.2c-0.3,0-0.5-0.2-0.5-0.5c0-0.3,0.2-0.5,0.5-0.5h18.2c0.3,0,0.5,0.2,0.5,0.5
					C273.6,95.7,273.4,95.9,273.1,95.9z"/>
			</g>
			<g>
				<path class="st2" d="M273.1,99.3h-18.2c-0.3,0-0.5-0.2-0.5-0.5c0-0.3,0.2-0.5,0.5-0.5h18.2c0.3,0,0.5,0.2,0.5,0.5
					C273.6,99.1,273.4,99.3,273.1,99.3z"/>
			</g>
			<g>
				<path class="st2" d="M273.1,102.7h-18.2c-0.3,0-0.5-0.2-0.5-0.5c0-0.3,0.2-0.5,0.5-0.5h18.2c0.3,0,0.5,0.2,0.5,0.5
					C273.6,102.5,273.4,102.7,273.1,102.7z"/>
			</g>
			<g>
				<path class="st2" d="M273.1,106.2h-18.2c-0.3,0-0.5-0.2-0.5-0.5s0.2-0.5,0.5-0.5h18.2c0.3,0,0.5,0.2,0.5,0.5
					S273.4,106.2,273.1,106.2z"/>
			</g>
		</g>
		<g>
			<g>
				<g>
					<g>
						<path class="st2" d="M246.7,115.5c-0.3,0-0.5-0.2-0.5-0.5v-2.2c0-0.3,0.2-0.5,0.5-0.5c0.3,0,0.5,0.2,0.5,0.5v2.2
							C247.2,115.2,247,115.5,246.7,115.5z"/>
					</g>
					<g>
						<path class="st2" d="M250,115.5c-0.3,0-0.5-0.2-0.5-0.5v-2.2c0-0.3,0.2-0.5,0.5-0.5c0.3,0,0.5,0.2,0.5,0.5v2.2
							C250.5,115.2,250.3,115.5,250,115.5z"/>
					</g>
				</g>
				<g>
					<g>
						<path class="st2" d="M246.7,121c-0.3,0-0.5-0.2-0.5-0.5v-2.2c0-0.3,0.2-0.5,0.5-0.5c0.3,0,0.5,0.2,0.5,0.5v2.2
							C247.2,120.7,247,121,246.7,121z"/>
					</g>
					<g>
						<path class="st2" d="M250,121c-0.3,0-0.5-0.2-0.5-0.5v-2.2c0-0.3,0.2-0.5,0.5-0.5c0.3,0,0.5,0.2,0.5,0.5v2.2
							C250.5,120.7,250.3,121,250,121z"/>
					</g>
				</g>
				<g>
					<g>
						<path class="st2" d="M246.7,126.5c-0.3,0-0.5-0.2-0.5-0.5v-2.2c0-0.3,0.2-0.5,0.5-0.5c0.3,0,0.5,0.2,0.5,0.5v2.2
							C247.2,126.3,247,126.5,246.7,126.5z"/>
					</g>
					<g>
						<path class="st2" d="M250,126.5c-0.3,0-0.5-0.2-0.5-0.5v-2.2c0-0.3,0.2-0.5,0.5-0.5c0.3,0,0.5,0.2,0.5,0.5v2.2
							C250.5,126.3,250.3,126.5,250,126.5z"/>
					</g>
				</g>
				<g>
					<g>
						<path class="st2" d="M246.7,132c-0.3,0-0.5-0.2-0.5-0.5v-2.2c0-0.3,0.2-0.5,0.5-0.5c0.3,0,0.5,0.2,0.5,0.5v2.2
							C247.2,131.8,247,132,246.7,132z"/>
					</g>
					<g>
						<path class="st2" d="M250,132c-0.3,0-0.5-0.2-0.5-0.5v-2.2c0-0.3,0.2-0.5,0.5-0.5c0.3,0,0.5,0.2,0.5,0.5v2.2
							C250.5,131.8,250.3,132,250,132z"/>
					</g>
				</g>
				<g>
					<g>
						<path class="st2" d="M246.7,137.5c-0.3,0-0.5-0.2-0.5-0.5v-2.2c0-0.3,0.2-0.5,0.5-0.5c0.3,0,0.5,0.2,0.5,0.5v2.2
							C247.2,137.3,247,137.5,246.7,137.5z"/>
					</g>
					<g>
						<path class="st2" d="M250,137.5c-0.3,0-0.5-0.2-0.5-0.5v-2.2c0-0.3,0.2-0.5,0.5-0.5c0.3,0,0.5,0.2,0.5,0.5v2.2
							C250.5,137.3,250.3,137.5,250,137.5z"/>
					</g>
				</g>
				<g>
					<g>
						<path class="st2" d="M246.7,143c-0.3,0-0.5-0.2-0.5-0.5v-2.2c0-0.3,0.2-0.5,0.5-0.5c0.3,0,0.5,0.2,0.5,0.5v2.2
							C247.2,142.8,247,143,246.7,143z"/>
					</g>
					<g>
						<path class="st2" d="M250,143c-0.3,0-0.5-0.2-0.5-0.5v-2.2c0-0.3,0.2-0.5,0.5-0.5c0.3,0,0.5,0.2,0.5,0.5v2.2
							C250.5,142.8,250.3,143,250,143z"/>
					</g>
				</g>
				<g>
					<g>
						<path class="st2" d="M246.7,148.6c-0.3,0-0.5-0.2-0.5-0.5v-2.2c0-0.3,0.2-0.5,0.5-0.5c0.3,0,0.5,0.2,0.5,0.5v2.2
							C247.2,148.3,247,148.6,246.7,148.6z"/>
					</g>
					<g>
						<path class="st2" d="M250,148.6c-0.3,0-0.5-0.2-0.5-0.5v-2.2c0-0.3,0.2-0.5,0.5-0.5c0.3,0,0.5,0.2,0.5,0.5v2.2
							C250.5,148.3,250.3,148.6,250,148.6z"/>
					</g>
				</g>
				<g>
					<g>
						<path class="st2" d="M246.7,154.1c-0.3,0-0.5-0.2-0.5-0.5v-2.2c0-0.3,0.2-0.5,0.5-0.5c0.3,0,0.5,0.2,0.5,0.5v2.2
							C247.2,153.8,247,154.1,246.7,154.1z"/>
					</g>
					<g>
						<path class="st2" d="M250,154.1c-0.3,0-0.5-0.2-0.5-0.5v-2.2c0-0.3,0.2-0.5,0.5-0.5c0.3,0,0.5,0.2,0.5,0.5v2.2
							C250.5,153.8,250.3,154.1,250,154.1z"/>
					</g>
				</g>
			</g>
			<g>
				<g>
					<g>
						<path class="st2" d="M257.7,115.5c-0.3,0-0.5-0.2-0.5-0.5v-2.2c0-0.3,0.2-0.5,0.5-0.5c0.3,0,0.5,0.2,0.5,0.5v2.2
							C258.2,115.2,258,115.5,257.7,115.5z"/>
					</g>
					<g>
						<path class="st2" d="M260.9,115.5c-0.3,0-0.5-0.2-0.5-0.5v-2.2c0-0.3,0.2-0.5,0.5-0.5c0.3,0,0.5,0.2,0.5,0.5v2.2
							C261.5,115.2,261.2,115.5,260.9,115.5z"/>
					</g>
				</g>
				<g>
					<g>
						<path class="st2" d="M257.7,121c-0.3,0-0.5-0.2-0.5-0.5v-2.2c0-0.3,0.2-0.5,0.5-0.5c0.3,0,0.5,0.2,0.5,0.5v2.2
							C258.2,120.7,258,121,257.7,121z"/>
					</g>
					<g>
						<path class="st2" d="M260.9,121c-0.3,0-0.5-0.2-0.5-0.5v-2.2c0-0.3,0.2-0.5,0.5-0.5c0.3,0,0.5,0.2,0.5,0.5v2.2
							C261.5,120.7,261.2,121,260.9,121z"/>
					</g>
				</g>
				<g>
					<g>
						<path class="st2" d="M257.7,126.5c-0.3,0-0.5-0.2-0.5-0.5v-2.2c0-0.3,0.2-0.5,0.5-0.5c0.3,0,0.5,0.2,0.5,0.5v2.2
							C258.2,126.3,258,126.5,257.7,126.5z"/>
					</g>
					<g>
						<path class="st2" d="M260.9,126.5c-0.3,0-0.5-0.2-0.5-0.5v-2.2c0-0.3,0.2-0.5,0.5-0.5c0.3,0,0.5,0.2,0.5,0.5v2.2
							C261.5,126.3,261.2,126.5,260.9,126.5z"/>
					</g>
				</g>
				<g>
					<g>
						<path class="st2" d="M257.7,132c-0.3,0-0.5-0.2-0.5-0.5v-2.2c0-0.3,0.2-0.5,0.5-0.5c0.3,0,0.5,0.2,0.5,0.5v2.2
							C258.2,131.8,258,132,257.7,132z"/>
					</g>
					<g>
						<path class="st2" d="M260.9,132c-0.3,0-0.5-0.2-0.5-0.5v-2.2c0-0.3,0.2-0.5,0.5-0.5c0.3,0,0.5,0.2,0.5,0.5v2.2
							C261.5,131.8,261.2,132,260.9,132z"/>
					</g>
				</g>
				<g>
					<g>
						<path class="st2" d="M257.7,137.5c-0.3,0-0.5-0.2-0.5-0.5v-2.2c0-0.3,0.2-0.5,0.5-0.5c0.3,0,0.5,0.2,0.5,0.5v2.2
							C258.2,137.3,258,137.5,257.7,137.5z"/>
					</g>
					<g>
						<path class="st2" d="M260.9,137.5c-0.3,0-0.5-0.2-0.5-0.5v-2.2c0-0.3,0.2-0.5,0.5-0.5c0.3,0,0.5,0.2,0.5,0.5v2.2
							C261.5,137.3,261.2,137.5,260.9,137.5z"/>
					</g>
				</g>
				<g>
					<g>
						<path class="st2" d="M257.7,143c-0.3,0-0.5-0.2-0.5-0.5v-2.2c0-0.3,0.2-0.5,0.5-0.5c0.3,0,0.5,0.2,0.5,0.5v2.2
							C258.2,142.8,258,143,257.7,143z"/>
					</g>
					<g>
						<path class="st2" d="M260.9,143c-0.3,0-0.5-0.2-0.5-0.5v-2.2c0-0.3,0.2-0.5,0.5-0.5c0.3,0,0.5,0.2,0.5,0.5v2.2
							C261.5,142.8,261.2,143,260.9,143z"/>
					</g>
				</g>
				<g>
					<g>
						<path class="st2" d="M257.7,148.6c-0.3,0-0.5-0.2-0.5-0.5v-2.2c0-0.3,0.2-0.5,0.5-0.5c0.3,0,0.5,0.2,0.5,0.5v2.2
							C258.2,148.3,258,148.6,257.7,148.6z"/>
					</g>
					<g>
						<path class="st2" d="M260.9,148.6c-0.3,0-0.5-0.2-0.5-0.5v-2.2c0-0.3,0.2-0.5,0.5-0.5c0.3,0,0.5,0.2,0.5,0.5v2.2
							C261.5,148.3,261.2,148.6,260.9,148.6z"/>
					</g>
				</g>
				<g>
					<g>
						<path class="st2" d="M257.7,154.1c-0.3,0-0.5-0.2-0.5-0.5v-2.2c0-0.3,0.2-0.5,0.5-0.5c0.3,0,0.5,0.2,0.5,0.5v2.2
							C258.2,153.8,258,154.1,257.7,154.1z"/>
					</g>
					<g>
						<path class="st2" d="M260.9,154.1c-0.3,0-0.5-0.2-0.5-0.5v-2.2c0-0.3,0.2-0.5,0.5-0.5c0.3,0,0.5,0.2,0.5,0.5v2.2
							C261.5,153.8,261.2,154.1,260.9,154.1z"/>
					</g>
				</g>
			</g>
			<g>
				<g>
					<g>
						<path class="st2" d="M268.6,115.5c-0.3,0-0.5-0.2-0.5-0.5v-2.2c0-0.3,0.2-0.5,0.5-0.5c0.3,0,0.5,0.2,0.5,0.5v2.2
							C269.1,115.2,268.9,115.5,268.6,115.5z"/>
					</g>
					<g>
						<path class="st2" d="M271.9,115.5c-0.3,0-0.5-0.2-0.5-0.5v-2.2c0-0.3,0.2-0.5,0.5-0.5c0.3,0,0.5,0.2,0.5,0.5v2.2
							C272.4,115.2,272.2,115.5,271.9,115.5z"/>
					</g>
				</g>
				<g>
					<g>
						<path class="st2" d="M268.6,121c-0.3,0-0.5-0.2-0.5-0.5v-2.2c0-0.3,0.2-0.5,0.5-0.5c0.3,0,0.5,0.2,0.5,0.5v2.2
							C269.1,120.7,268.9,121,268.6,121z"/>
					</g>
					<g>
						<path class="st2" d="M271.9,121c-0.3,0-0.5-0.2-0.5-0.5v-2.2c0-0.3,0.2-0.5,0.5-0.5c0.3,0,0.5,0.2,0.5,0.5v2.2
							C272.4,120.7,272.2,121,271.9,121z"/>
					</g>
				</g>
				<g>
					<g>
						<path class="st2" d="M268.6,126.5c-0.3,0-0.5-0.2-0.5-0.5v-2.2c0-0.3,0.2-0.5,0.5-0.5c0.3,0,0.5,0.2,0.5,0.5v2.2
							C269.1,126.3,268.9,126.5,268.6,126.5z"/>
					</g>
					<g>
						<path class="st2" d="M271.9,126.5c-0.3,0-0.5-0.2-0.5-0.5v-2.2c0-0.3,0.2-0.5,0.5-0.5c0.3,0,0.5,0.2,0.5,0.5v2.2
							C272.4,126.3,272.2,126.5,271.9,126.5z"/>
					</g>
				</g>
				<g>
					<g>
						<path class="st2" d="M268.6,132c-0.3,0-0.5-0.2-0.5-0.5v-2.2c0-0.3,0.2-0.5,0.5-0.5c0.3,0,0.5,0.2,0.5,0.5v2.2
							C269.1,131.8,268.9,132,268.6,132z"/>
					</g>
					<g>
						<path class="st2" d="M271.9,132c-0.3,0-0.5-0.2-0.5-0.5v-2.2c0-0.3,0.2-0.5,0.5-0.5c0.3,0,0.5,0.2,0.5,0.5v2.2
							C272.4,131.8,272.2,132,271.9,132z"/>
					</g>
				</g>
				<g>
					<g>
						<path class="st2" d="M268.6,137.5c-0.3,0-0.5-0.2-0.5-0.5v-2.2c0-0.3,0.2-0.5,0.5-0.5c0.3,0,0.5,0.2,0.5,0.5v2.2
							C269.1,137.3,268.9,137.5,268.6,137.5z"/>
					</g>
					<g>
						<path class="st2" d="M271.9,137.5c-0.3,0-0.5-0.2-0.5-0.5v-2.2c0-0.3,0.2-0.5,0.5-0.5c0.3,0,0.5,0.2,0.5,0.5v2.2
							C272.4,137.3,272.2,137.5,271.9,137.5z"/>
					</g>
				</g>
				<g>
					<g>
						<path class="st2" d="M268.6,143c-0.3,0-0.5-0.2-0.5-0.5v-2.2c0-0.3,0.2-0.5,0.5-0.5c0.3,0,0.5,0.2,0.5,0.5v2.2
							C269.1,142.8,268.9,143,268.6,143z"/>
					</g>
					<g>
						<path class="st2" d="M271.9,143c-0.3,0-0.5-0.2-0.5-0.5v-2.2c0-0.3,0.2-0.5,0.5-0.5c0.3,0,0.5,0.2,0.5,0.5v2.2
							C272.4,142.8,272.2,143,271.9,143z"/>
					</g>
				</g>
				<g>
					<g>
						<path class="st2" d="M268.6,148.6c-0.3,0-0.5-0.2-0.5-0.5v-2.2c0-0.3,0.2-0.5,0.5-0.5c0.3,0,0.5,0.2,0.5,0.5v2.2
							C269.1,148.3,268.9,148.6,268.6,148.6z"/>
					</g>
					<g>
						<path class="st2" d="M271.9,148.6c-0.3,0-0.5-0.2-0.5-0.5v-2.2c0-0.3,0.2-0.5,0.5-0.5c0.3,0,0.5,0.2,0.5,0.5v2.2
							C272.4,148.3,272.2,148.6,271.9,148.6z"/>
					</g>
				</g>
				<g>
					<g>
						<path class="st2" d="M268.6,154.1c-0.3,0-0.5-0.2-0.5-0.5v-2.2c0-0.3,0.2-0.5,0.5-0.5c0.3,0,0.5,0.2,0.5,0.5v2.2
							C269.1,153.8,268.9,154.1,268.6,154.1z"/>
					</g>
					<g>
						<path class="st2" d="M271.9,154.1c-0.3,0-0.5-0.2-0.5-0.5v-2.2c0-0.3,0.2-0.5,0.5-0.5c0.3,0,0.5,0.2,0.5,0.5v2.2
							C272.4,153.8,272.2,154.1,271.9,154.1z"/>
					</g>
				</g>
			</g>
		</g>
		<g>
			<g>
				<g>
					<path class="st2" d="M356.2,90.3h-7.3c-0.3,0-0.5-0.2-0.5-0.5c0-0.3,0.2-0.5,0.5-0.5h7.3c0.3,0,0.5,0.2,0.5,0.5
						C356.7,90.1,356.5,90.3,356.2,90.3z"/>
				</g>
				<g>
					<path class="st2" d="M373.1,90.3h-7.3c-0.3,0-0.5-0.2-0.5-0.5c0-0.3,0.2-0.5,0.5-0.5h7.3c0.3,0,0.5,0.2,0.5,0.5
						C373.7,90.1,373.4,90.3,373.1,90.3z"/>
				</g>
			</g>
			<g>
				<g>
					<path class="st2" d="M356.2,93.5h-7.3c-0.3,0-0.5-0.2-0.5-0.5c0-0.3,0.2-0.5,0.5-0.5h7.3c0.3,0,0.5,0.2,0.5,0.5
						C356.7,93.3,356.5,93.5,356.2,93.5z"/>
				</g>
				<g>
					<path class="st2" d="M373.1,93.5h-7.3c-0.3,0-0.5-0.2-0.5-0.5c0-0.3,0.2-0.5,0.5-0.5h7.3c0.3,0,0.5,0.2,0.5,0.5
						C373.7,93.3,373.4,93.5,373.1,93.5z"/>
				</g>
			</g>
			<g>
				<g>
					<path class="st2" d="M356.2,96.7h-7.3c-0.3,0-0.5-0.2-0.5-0.5c0-0.3,0.2-0.5,0.5-0.5h7.3c0.3,0,0.5,0.2,0.5,0.5
						C356.7,96.5,356.5,96.7,356.2,96.7z"/>
				</g>
				<g>
					<path class="st2" d="M373.1,96.7h-7.3c-0.3,0-0.5-0.2-0.5-0.5c0-0.3,0.2-0.5,0.5-0.5h7.3c0.3,0,0.5,0.2,0.5,0.5
						C373.7,96.5,373.4,96.7,373.1,96.7z"/>
				</g>
			</g>
			<g>
				<g>
					<path class="st2" d="M356.2,99.9h-7.3c-0.3,0-0.5-0.2-0.5-0.5c0-0.3,0.2-0.5,0.5-0.5h7.3c0.3,0,0.5,0.2,0.5,0.5
						C356.7,99.7,356.5,99.9,356.2,99.9z"/>
				</g>
				<g>
					<path class="st2" d="M373.1,99.9h-7.3c-0.3,0-0.5-0.2-0.5-0.5c0-0.3,0.2-0.5,0.5-0.5h7.3c0.3,0,0.5,0.2,0.5,0.5
						C373.7,99.7,373.4,99.9,373.1,99.9z"/>
				</g>
			</g>
			<g>
				<g>
					<path class="st2" d="M356.2,103.1h-7.3c-0.3,0-0.5-0.2-0.5-0.5s0.2-0.5,0.5-0.5h7.3c0.3,0,0.5,0.2,0.5,0.5
						S356.5,103.1,356.2,103.1z"/>
				</g>
				<g>
					<path class="st2" d="M373.1,103.1h-7.3c-0.3,0-0.5-0.2-0.5-0.5s0.2-0.5,0.5-0.5h7.3c0.3,0,0.5,0.2,0.5,0.5
						S373.4,103.1,373.1,103.1z"/>
				</g>
			</g>
			<g>
				<g>
					<path class="st2" d="M356.2,106.3h-7.3c-0.3,0-0.5-0.2-0.5-0.5c0-0.3,0.2-0.5,0.5-0.5h7.3c0.3,0,0.5,0.2,0.5,0.5
						C356.7,106,356.5,106.3,356.2,106.3z"/>
				</g>
				<g>
					<path class="st2" d="M373.1,106.3h-7.3c-0.3,0-0.5-0.2-0.5-0.5c0-0.3,0.2-0.5,0.5-0.5h7.3c0.3,0,0.5,0.2,0.5,0.5
						C373.7,106,373.4,106.3,373.1,106.3z"/>
				</g>
			</g>
			<g>
				<g>
					<path class="st2" d="M356.2,109.5h-7.3c-0.3,0-0.5-0.2-0.5-0.5c0-0.3,0.2-0.5,0.5-0.5h7.3c0.3,0,0.5,0.2,0.5,0.5
						C356.7,109.2,356.5,109.5,356.2,109.5z"/>
				</g>
				<g>
					<path class="st2" d="M373.1,109.5h-7.3c-0.3,0-0.5-0.2-0.5-0.5c0-0.3,0.2-0.5,0.5-0.5h7.3c0.3,0,0.5,0.2,0.5,0.5
						C373.7,109.2,373.4,109.5,373.1,109.5z"/>
				</g>
			</g>
			<g>
				<g>
					<path class="st2" d="M356.2,112.7h-7.3c-0.3,0-0.5-0.2-0.5-0.5s0.2-0.5,0.5-0.5h7.3c0.3,0,0.5,0.2,0.5,0.5
						S356.5,112.7,356.2,112.7z"/>
				</g>
				<g>
					<path class="st2" d="M373.1,112.7h-7.3c-0.3,0-0.5-0.2-0.5-0.5s0.2-0.5,0.5-0.5h7.3c0.3,0,0.5,0.2,0.5,0.5
						S373.4,112.7,373.1,112.7z"/>
				</g>
			</g>
			<g>
				<g>
					<path class="st2" d="M356.2,115.9h-7.3c-0.3,0-0.5-0.2-0.5-0.5c0-0.3,0.2-0.5,0.5-0.5h7.3c0.3,0,0.5,0.2,0.5,0.5
						C356.7,115.6,356.5,115.9,356.2,115.9z"/>
				</g>
				<g>
					<path class="st2" d="M373.1,115.9h-7.3c-0.3,0-0.5-0.2-0.5-0.5c0-0.3,0.2-0.5,0.5-0.5h7.3c0.3,0,0.5,0.2,0.5,0.5
						C373.7,115.6,373.4,115.9,373.1,115.9z"/>
				</g>
			</g>
			<g>
				<g>
					<path class="st2" d="M356.2,119.1h-7.3c-0.3,0-0.5-0.2-0.5-0.5c0-0.3,0.2-0.5,0.5-0.5h7.3c0.3,0,0.5,0.2,0.5,0.5
						C356.7,118.8,356.5,119.1,356.2,119.1z"/>
				</g>
				<g>
					<path class="st2" d="M373.1,119.1h-7.3c-0.3,0-0.5-0.2-0.5-0.5c0-0.3,0.2-0.5,0.5-0.5h7.3c0.3,0,0.5,0.2,0.5,0.5
						C373.7,118.8,373.4,119.1,373.1,119.1z"/>
				</g>
			</g>
			<g>
				<g>
					<path class="st2" d="M356.2,122.3h-7.3c-0.3,0-0.5-0.2-0.5-0.5c0-0.3,0.2-0.5,0.5-0.5h7.3c0.3,0,0.5,0.2,0.5,0.5
						C356.7,122,356.5,122.3,356.2,122.3z"/>
				</g>
				<g>
					<path class="st2" d="M373.1,122.3h-7.3c-0.3,0-0.5-0.2-0.5-0.5c0-0.3,0.2-0.5,0.5-0.5h7.3c0.3,0,0.5,0.2,0.5,0.5
						C373.7,122,373.4,122.3,373.1,122.3z"/>
				</g>
			</g>
			<g>
				<g>
					<path class="st2" d="M356.2,125.5h-7.3c-0.3,0-0.5-0.2-0.5-0.5s0.2-0.5,0.5-0.5h7.3c0.3,0,0.5,0.2,0.5,0.5
						S356.5,125.5,356.2,125.5z"/>
				</g>
				<g>
					<path class="st2" d="M373.1,125.5h-7.3c-0.3,0-0.5-0.2-0.5-0.5s0.2-0.5,0.5-0.5h7.3c0.3,0,0.5,0.2,0.5,0.5
						S373.4,125.5,373.1,125.5z"/>
				</g>
			</g>
			<g>
				<g>
					<path class="st2" d="M356.2,128.7h-7.3c-0.3,0-0.5-0.2-0.5-0.5c0-0.3,0.2-0.5,0.5-0.5h7.3c0.3,0,0.5,0.2,0.5,0.5
						C356.7,128.4,356.5,128.7,356.2,128.7z"/>
				</g>
				<g>
					<path class="st2" d="M373.1,128.7h-7.3c-0.3,0-0.5-0.2-0.5-0.5c0-0.3,0.2-0.5,0.5-0.5h7.3c0.3,0,0.5,0.2,0.5,0.5
						C373.7,128.4,373.4,128.7,373.1,128.7z"/>
				</g>
			</g>
			<g>
				<g>
					<path class="st2" d="M356.2,131.8h-7.3c-0.3,0-0.5-0.2-0.5-0.5c0-0.3,0.2-0.5,0.5-0.5h7.3c0.3,0,0.5,0.2,0.5,0.5
						C356.7,131.6,356.5,131.8,356.2,131.8z"/>
				</g>
				<g>
					<path class="st2" d="M373.1,131.8h-7.3c-0.3,0-0.5-0.2-0.5-0.5c0-0.3,0.2-0.5,0.5-0.5h7.3c0.3,0,0.5,0.2,0.5,0.5
						C373.7,131.6,373.4,131.8,373.1,131.8z"/>
				</g>
			</g>
			<g>
				<g>
					<path class="st2" d="M356.2,135h-7.3c-0.3,0-0.5-0.2-0.5-0.5c0-0.3,0.2-0.5,0.5-0.5h7.3c0.3,0,0.5,0.2,0.5,0.5
						C356.7,134.8,356.5,135,356.2,135z"/>
				</g>
				<g>
					<path class="st2" d="M373.1,135h-7.3c-0.3,0-0.5-0.2-0.5-0.5c0-0.3,0.2-0.5,0.5-0.5h7.3c0.3,0,0.5,0.2,0.5,0.5
						C373.7,134.8,373.4,135,373.1,135z"/>
				</g>
			</g>
			<g>
				<g>
					<path class="st2" d="M356.2,138.2h-7.3c-0.3,0-0.5-0.2-0.5-0.5c0-0.3,0.2-0.5,0.5-0.5h7.3c0.3,0,0.5,0.2,0.5,0.5
						C356.7,138,356.5,138.2,356.2,138.2z"/>
				</g>
				<g>
					<path class="st2" d="M373.1,138.2h-7.3c-0.3,0-0.5-0.2-0.5-0.5c0-0.3,0.2-0.5,0.5-0.5h7.3c0.3,0,0.5,0.2,0.5,0.5
						C373.7,138,373.4,138.2,373.1,138.2z"/>
				</g>
			</g>
			<g>
				<g>
					<path class="st2" d="M356.2,141.4h-7.3c-0.3,0-0.5-0.2-0.5-0.5c0-0.3,0.2-0.5,0.5-0.5h7.3c0.3,0,0.5,0.2,0.5,0.5
						C356.7,141.2,356.5,141.4,356.2,141.4z"/>
				</g>
				<g>
					<path class="st2" d="M373.1,141.4h-7.3c-0.3,0-0.5-0.2-0.5-0.5c0-0.3,0.2-0.5,0.5-0.5h7.3c0.3,0,0.5,0.2,0.5,0.5
						C373.7,141.2,373.4,141.4,373.1,141.4z"/>
				</g>
			</g>
			<g>
				<g>
					<path class="st2" d="M356.2,144.6h-7.3c-0.3,0-0.5-0.2-0.5-0.5c0-0.3,0.2-0.5,0.5-0.5h7.3c0.3,0,0.5,0.2,0.5,0.5
						C356.7,144.4,356.5,144.6,356.2,144.6z"/>
				</g>
				<g>
					<path class="st2" d="M373.1,144.6h-7.3c-0.3,0-0.5-0.2-0.5-0.5c0-0.3,0.2-0.5,0.5-0.5h7.3c0.3,0,0.5,0.2,0.5,0.5
						C373.7,144.4,373.4,144.6,373.1,144.6z"/>
				</g>
			</g>
		</g>
		<g>
			<g>
				<path class="st2" d="M359.5,147.9c-0.3,0-0.5-0.2-0.5-0.5V89.1c0-0.3,0.2-0.5,0.5-0.5s0.5,0.2,0.5,0.5v58.3
					C360,147.7,359.8,147.9,359.5,147.9z"/>
			</g>
			<g>
				<path class="st2" d="M362.5,147.9c-0.3,0-0.5-0.2-0.5-0.5V89.1c0-0.3,0.2-0.5,0.5-0.5c0.3,0,0.5,0.2,0.5,0.5v58.3
					C363.1,147.7,362.8,147.9,362.5,147.9z"/>
			</g>
		</g>
		<g>
			<rect x="83.4" y="86.3" class="st2" width="3.1" height="1.5"/>
			<rect x="87.5" y="86.3" class="st2" width="3.1" height="1.5"/>
			<rect x="91.6" y="86.3" class="st2" width="3.1" height="1.5"/>
			<rect x="95.7" y="86.3" class="st2" width="3.1" height="1.5"/>
			<rect x="99.8" y="86.3" class="st2" width="3.1" height="1.5"/>
			<rect x="103.9" y="86.3" class="st2" width="3.1" height="1.5"/>
			<rect x="83.4" y="89.8" class="st2" width="3.1" height="1.5"/>
			<rect x="87.5" y="89.8" class="st2" width="3.1" height="1.5"/>
			<rect x="91.6" y="89.8" class="st2" width="3.1" height="1.5"/>
			<rect x="95.7" y="89.8" class="st2" width="3.1" height="1.5"/>
			<rect x="99.8" y="89.8" class="st2" width="3.1" height="1.5"/>
			<rect x="103.9" y="89.8" class="st2" width="3.1" height="1.5"/>
			<rect x="83.4" y="93.4" class="st2" width="3.1" height="1.5"/>
			<rect x="87.5" y="93.4" class="st2" width="3.1" height="1.5"/>
			<rect x="91.6" y="93.4" class="st2" width="3.1" height="1.5"/>
			<rect x="95.7" y="93.4" class="st2" width="3.1" height="1.5"/>
			<rect x="99.8" y="93.4" class="st2" width="3.1" height="1.5"/>
			<rect x="103.9" y="93.4" class="st2" width="3.1" height="1.5"/>
			<rect x="83.4" y="97" class="st2" width="3.1" height="1.5"/>
			<rect x="87.5" y="97" class="st2" width="3.1" height="1.5"/>
			<rect x="91.6" y="97" class="st2" width="3.1" height="1.5"/>
			<rect x="95.7" y="97" class="st2" width="3.1" height="1.5"/>
			<rect x="99.8" y="97" class="st2" width="3.1" height="1.5"/>
			<rect x="103.9" y="97" class="st2" width="3.1" height="1.5"/>
			<rect x="83.4" y="100.5" class="st2" width="3.1" height="1.5"/>
			<rect x="87.5" y="100.5" class="st2" width="3.1" height="1.5"/>
			<rect x="91.6" y="100.5" class="st2" width="3.1" height="1.5"/>
			<rect x="95.7" y="100.5" class="st2" width="3.1" height="1.5"/>
			<rect x="99.8" y="100.5" class="st2" width="3.1" height="1.5"/>
			<rect x="103.9" y="100.5" class="st2" width="3.1" height="1.5"/>
			<rect x="83.4" y="104.1" class="st2" width="3.1" height="1.5"/>
			<rect x="87.5" y="104.1" class="st2" width="3.1" height="1.5"/>
			<rect x="91.6" y="104.1" class="st2" width="3.1" height="1.5"/>
			<rect x="95.7" y="104.1" class="st2" width="3.1" height="1.5"/>
			<rect x="99.8" y="104.1" class="st2" width="3.1" height="1.5"/>
			<rect x="103.9" y="104.1" class="st2" width="3.1" height="1.5"/>
			<rect x="83.4" y="107.6" class="st2" width="3.1" height="1.5"/>
			<rect x="87.5" y="107.6" class="st2" width="3.1" height="1.5"/>
			<rect x="91.6" y="107.6" class="st2" width="3.1" height="1.5"/>
			<rect x="95.7" y="107.6" class="st2" width="3.1" height="1.5"/>
			<rect x="99.8" y="107.6" class="st2" width="3.1" height="1.5"/>
			<rect x="103.9" y="107.6" class="st2" width="3.1" height="1.5"/>
			<rect x="83.4" y="111.2" class="st2" width="3.1" height="1.5"/>
			<rect x="87.5" y="111.2" class="st2" width="3.1" height="1.5"/>
			<rect x="91.6" y="111.2" class="st2" width="3.1" height="1.5"/>
			<rect x="95.7" y="111.2" class="st2" width="3.1" height="1.5"/>
			<rect x="99.8" y="111.2" class="st2" width="3.1" height="1.5"/>
			<rect x="103.9" y="111.2" class="st2" width="3.1" height="1.5"/>
			<rect x="83.4" y="114.7" class="st2" width="3.1" height="1.5"/>
			<rect x="87.5" y="114.7" class="st2" width="3.1" height="1.5"/>
			<rect x="91.6" y="114.7" class="st2" width="3.1" height="1.5"/>
			<rect x="95.7" y="114.7" class="st2" width="3.1" height="1.5"/>
			<rect x="99.8" y="114.7" class="st2" width="3.1" height="1.5"/>
			<rect x="103.9" y="114.7" class="st2" width="3.1" height="1.5"/>
			<rect x="83.4" y="118.3" class="st2" width="3.1" height="1.5"/>
			<rect x="87.5" y="118.3" class="st2" width="3.1" height="1.5"/>
			<rect x="91.6" y="118.3" class="st2" width="3.1" height="1.5"/>
			<rect x="95.7" y="118.3" class="st2" width="3.1" height="1.5"/>
			<rect x="99.8" y="118.3" class="st2" width="3.1" height="1.5"/>
			<rect x="103.9" y="118.3" class="st2" width="3.1" height="1.5"/>
			<rect x="83.4" y="121.8" class="st2" width="3.1" height="1.5"/>
			<rect x="87.5" y="121.8" class="st2" width="3.1" height="1.5"/>
			<rect x="91.6" y="121.8" class="st2" width="3.1" height="1.5"/>
			<rect x="95.7" y="121.8" class="st2" width="3.1" height="1.5"/>
			<rect x="99.8" y="121.8" class="st2" width="3.1" height="1.5"/>
			<rect x="103.9" y="121.8" class="st2" width="3.1" height="1.5"/>
			<rect x="83.4" y="125.4" class="st2" width="3.1" height="1.5"/>
			<rect x="87.5" y="125.4" class="st2" width="3.1" height="1.5"/>
			<rect x="91.6" y="125.4" class="st2" width="3.1" height="1.5"/>
			<rect x="95.7" y="125.4" class="st2" width="3.1" height="1.5"/>
			<rect x="99.8" y="125.4" class="st2" width="3.1" height="1.5"/>
			<rect x="103.9" y="125.4" class="st2" width="3.1" height="1.5"/>
		</g>
	</g>
</g>
</svg>
