<?xml version="1.0" encoding="utf-8"?>
<!-- Generator: Adobe Illustrator 23.0.4, SVG Export Plug-In . SVG Version: 6.00 Build 0)  -->
<svg version="1.1" id="Layer_1" xmlns="http://www.w3.org/2000/svg" xmlns:xlink="http://www.w3.org/1999/xlink" x="0px" y="0px"
	 viewBox="0 0 800 800" style="enable-background:new 0 0 800 800;" xml:space="preserve">
<style type="text/css">
	.st0{opacity:0.9;fill:none;stroke:#FFFFFF;stroke-width:0.25;stroke-miterlimit:10;}
	.st1{opacity:0.9;}
	.st2{fill:#C1D9EA;}
	.st3{fill:#B0C81F;}
	.st4{fill:#37A5C8;}
	.st5{fill:#CC4E32;}
	.st6{fill:#2BA367;}
	.st7{fill:#815ACC;}
	.st8{fill:#CC5C9A;}
	.st9{fill:#FFFFFF;}
	.st10{fill:#333333;}
</style>
<line class="st0" x1="308.8" y1="319.9" x2="342.9" y2="370.5"/>
<polyline class="st0" points="419.9,384.8 458.9,281.9 254.4,358.8 235.6,428.2 321.4,421.6 "/>
<line class="st0" x1="539.2" y1="285.2" x2="452.3" y2="372.1"/>
<line class="st0" x1="582.1" y1="411.7" x2="465.5" y2="407.3"/>
<line class="st0" x1="554.6" y1="479.9" x2="469.9" y2="459"/>
<polyline class="st0" points="326.9,473.3 277.4,507.4 200.4,511.8 235.4,437.8 138.4,434.8 49.2,376 355,407.9 "/>
<line class="st0" x1="254.3" y1="358.9" x2="324.7" y2="393"/>
<line class="st0" x1="301.6" y1="252.2" x2="347.8" y2="366.6"/>
<polyline class="st0" points="332.4,380.9 222.4,289.6 174.9,379.2 238.4,216.5 324.7,174.1 377.5,375.4 "/>
<polyline class="st0" points="325.8,438.1 148.7,443.6 389.4,631.8 347.8,569 372,503 "/>
<line class="st0" x1="200.4" y1="511.8" x2="319.2" y2="457.9"/>
<line class="st0" x1="284" y1="576.7" x2="347.8" y2="489.8"/>
<line class="st0" x1="486.4" y1="599.8" x2="435.8" y2="496.4"/>
<line class="st0" x1="630.5" y1="272" x2="425.9" y2="401.8"/>
<polyline class="st0" points="425.9,386.4 554.6,207.1 501.4,149.8 659.7,165.9 425.4,401.3 "/>
<polyline class="st0" points="401.7,371 385.2,140 324.4,173.8 254.3,157.6 361,372.1 "/>
<line class="st0" x1="151.5" y1="302.3" x2="324.2" y2="385.9"/>
<line class="st0" x1="238.4" y1="216.5" x2="342.9" y2="370.5"/>
<polyline class="st0" points="385.8,351.8 346.2,92.2 259.8,155.9 265.9,69.1 382.5,402.4 "/>
<polyline class="st0" points="411.1,368.3 492,148.6 518.9,75.7 411.4,53.8 445.4,110.8 445.4,110.8 573.9,141.7 425.4,385.9 "/>
<polyline class="st0" points="428.7,417.8 681.7,333.1 692.4,263.8 539.2,285.2 458.4,281.8 483.4,211.8 555.4,207.8 628.9,207.7 
	411.1,394.7 "/>
<polyline class="st0" points="433.1,424.4 641,392.5 518.4,358.8 734.5,385.9 389.1,431 "/>
<polyline class="st0" points="419.9,457.4 545.3,625.7 578.4,559.8 628.4,547.8 622.4,487.8 "/>
<polyline class="st0" points="395.7,469.5 389.1,632.3 620.4,644.8 570.6,681.8 411.1,455.2 "/>
<line class="st0" x1="309.9" y1="647.7" x2="371.5" y2="461.8"/>
<polyline class="st0" points="360.5,475 237.3,648.8 90.4,559.8 84.4,474.8 151.4,606.8 193.4,690.8 265.4,748.8 378.4,758.8 
	82.4,458.8 359.4,458.5 "/>
<line class="st0" x1="219.7" y1="572.9" x2="347.3" y2="469.5"/>
<polyline class="st0" points="371.5,484.9 151.4,606.8 382.5,449.7 "/>
<line class="st0" x1="308.8" y1="693.9" x2="389.1" y2="479.4"/>
<polyline class="st0" points="382.5,467.3 448.4,672.8 445.4,736.8 445.4,736.8 369.4,712.8 389.4,631.8 310.4,647.8 448.5,673 
	408.9,467.3 "/>
<polyline class="st0" points="395.7,469.5 445.2,736.8 508.4,758.8 378.1,758.8 389.1,442 "/>
<line class="st0" x1="506.8" y1="695" x2="408.9" y2="467.3"/>
<polyline class="st0" points="408.9,442 676.2,610.3 692.4,263.8 713.4,535.8 621.2,644.4 400.1,443.1 "/>
<line class="st0" x1="106.4" y1="368.3" x2="355" y2="407.9"/>
<line class="st0" x1="174.6" y1="373.8" x2="373.7" y2="406.8"/>
<line class="st0" x1="149.3" y1="229.7" x2="382.5" y2="402.4"/>
<line class="st0" x1="99.8" y1="285.8" x2="378.1" y2="421.1"/>
<polyline class="st0" points="378.1,435.4 83.3,458.5 49.4,375.8 99.4,285.8 149.4,229.8 238.4,216.5 265.4,68.8 411.1,53.7 
	406.7,351.8 "/>
<g class="st1">
	<path class="st2" d="M620.3,452.5c9.6-1,18.2,5.9,19.2,15.4c1,9.6-5.9,18.2-15.4,19.2c-9.6,1.1-18.2-5.9-19.2-15.4
		C603.8,462.2,610.7,453.6,620.3,452.5z"/>
</g>
<path class="st0" d="M512.4,75.8"/>
<polyline class="st0" points="230.4,219.8 293,251.7 222.4,289.8 254.3,358.9 324.4,173.8 399.5,219.2 399.5,347.9 "/>
<polyline class="st0" points="639.4,268.8 659.4,165.8 692.7,263.8 428.7,417.8 "/>
<polyline class="st0" points="463.3,389.7 518.3,358.9 458.4,281.8 399.4,218.8 539.4,285.8 555.4,207.8 573.4,141.8 501.4,149.8 
	483.1,211.5 413.8,352.3 "/>
<polyline class="st0" points="561.4,763.8 560.7,747.8 389.1,431 "/>
<polyline class="st0" points="200.4,511.8 219.7,572.9 284,576.7 309.9,647.7 378.4,758.8 151.5,607 350.6,461.8 "/>
<polyline class="st0" points="406.7,435.4 713.4,534.8 744.4,474.8 734.4,385.8 426.5,428.8 "/>
<polyline class="st0" points="399.4,218.8 483.4,211.8 385.4,139.8 265.4,68.8 445.7,111.4 420.4,368.8 "/>
<polyline class="st0" points="449,484.3 512.8,534.9 554.6,479.9 582.1,411.7 630.5,272 628.4,207.8 501.4,149.8 518.9,75.7 
	445.4,110.8 402.4,139.8 492.4,148.8 "/>
<polyline class="st0" points="486.4,599.8 512.4,534.8 578.8,559.1 444.6,470 "/>
<polyline class="st0" points="151.4,606.8 143.4,531.8 193.4,690.8 378.4,758.8 570.4,681.8 620.4,644.8 560.4,747.8 399,435.4 "/>
<polygon class="st0" points="508.4,758.8 427.1,501.2 570.4,681.8 "/>
<polyline class="st0" points="560.4,747.8 508.4,758.8 512.4,534.8 544.4,625.8 620.4,644.8 578.4,559.8 622.4,469.8 696.4,441.8 
	628.9,547.6 419.9,448.6 "/>
<polyline class="st0" points="414.9,508.5 425.9,577.8 347.4,568.8 315.4,315.8 518.4,358.8 521.4,435.8 622.4,469.8 639.4,391.8 
	696.4,441.8 713.4,534.8 639.4,547.8 620.4,644.8 265.4,748.8 237.4,648.8 222.4,589.8 148.4,443.8 106.4,367.8 99.4,285.8 
	174.9,379.2 "/>
<polygon class="st0" points="586.4,148.8 628.4,207.8 518.4,75.8 "/>
<polyline class="st0" points="586.4,148.8 582.4,411.8 539.4,285.8 682.4,332.8 734.4,385.8 692.4,263.8 406.7,435.4 "/>
<polyline class="st0" points="734.4,385.8 713.4,534.8 555.4,207.8 365.4,289.8 315.1,316 301.6,252.2 399.4,218.8 365.4,289.6 
	377.5,352.3 "/>
<path class="st0" d="M458.4,281.8"/>
<polyline class="st0" points="448.5,445.3 622.3,469.5 659.4,165.8 512.4,75.8 265.4,68.8 193.4,157.8 277.4,507.8 235.4,427.8 
	308.4,319.8 555.4,479.8 521.4,435.8 512.4,534.8 277.4,507.8 308.8,319.9 582.4,411.8 521.6,435.9 468.8,435.9 "/>
<polyline class="st0" points="254.3,157.6 193.4,157.8 151.4,301.8 149.4,229.8 193.3,158.2 382.5,402.4 "/>
<polyline class="st0" points="458.4,281.8 365.4,289.8 426.4,576.8 518.4,358.8 235.4,427.8 105.4,366.8 82.4,458.8 99.4,285.8 
	143.8,532.2 329.7,448.6 "/>
<polyline class="st0" points="582.4,411.8 578.4,559.8 347.4,568.8 448.4,672.8 369.4,712.8 518.4,358.8 277.4,507.8 417.1,579 
	512.4,534.8 539.4,285.8 301.4,251.8 148.4,443.8 200.4,511.8 284.4,576.8 265.4,748.8 555.4,207.8 200.4,511.8 174.6,373.8 
	151.4,301.8 49.4,375.8 200.4,511.8 "/>
<polygon class="st0" points="284.4,576.8 347.4,568.8 277.4,507.8 "/>
<g>
	<g>
		<g>
			<path class="st3" d="M358.6,305.9c-8.8-3.8-12.9-14.1-9.1-22.9c3.8-8.8,14.1-12.9,22.9-9.1c8.9,3.8,12.9,14.1,9.1,22.9
				C377.7,305.6,367.5,309.7,358.6,305.9z"/>
		</g>
		<g>
			<path class="st3" d="M548.1,495.5c-8.8-3.8-12.9-14.1-9.1-22.9c3.8-8.8,14.1-12.9,22.9-9.1c8.9,3.8,12.9,14.1,9.1,22.9
				C567.2,495.2,556.9,499.3,548.1,495.5z"/>
		</g>
		<g>
			<path class="st3" d="M303.5,331.8c-8.8-3.8-12.9-14.1-9.1-22.9c3.8-8.8,14.1-12.9,22.9-9.1c8.9,3.8,12.9,14.1,9.1,22.9
				C322.6,331.6,312.4,335.7,303.5,331.8z"/>
		</g>
		<g>
			<path class="st3" d="M340.8,584.8c-8.8-3.8-12.9-14.1-9.1-22.9c3.8-8.8,14.1-12.9,22.9-9.1c8.9,3.8,12.9,14.1,9.1,22.9
				C359.9,584.5,349.6,588.6,340.8,584.8z"/>
		</g>
		<g>
			<path class="st3" d="M421.2,592.8c-8.8-3.8-12.9-14.1-9.1-22.9c3.8-8.8,14.1-12.9,22.9-9.1c8.9,3.8,12.9,14.1,9.1,22.9
				C440.3,592.6,430,596.6,421.2,592.8z"/>
		</g>
		<g>
			<path class="st3" d="M230.5,444c-8.8-3.8-12.9-14.1-9.1-22.9c3.8-8.8,14.1-12.9,22.9-9.1c8.9,3.8,12.9,14.1,9.1,22.9
				C249.5,443.7,239.3,447.8,230.5,444z"/>
		</g>
		<g>
			<path class="st3" d="M511.6,374.9c-8.8-3.8-12.9-14.1-9.1-22.9c3.8-8.8,14.1-12.9,22.9-9.1c8.9,3.8,12.9,14.1,9.1,22.9
				C530.7,374.6,520.5,378.7,511.6,374.9z"/>
		</g>
		<g>
			<path class="st4" d="M452.4,297.6c-8.8-3.8-12.9-14.1-9.1-22.9c3.8-8.8,14.1-12.9,22.9-9.1c8.9,3.8,12.9,14.1,9.1,22.9
				C471.4,297.4,461.2,301.5,452.4,297.6z"/>
		</g>
		<g>
			<path class="st4" d="M270.8,523.3c-8.8-3.8-12.9-14.1-9.1-22.9c3.8-8.8,14.1-12.9,22.9-9.1c8.9,3.8,12.9,14.1,9.1,22.9
				C289.9,523,279.7,527.1,270.8,523.3z"/>
		</g>
		<g>
			<path class="st4" d="M505.6,550.8c-8.8-3.8-12.9-14.1-9.1-22.9c3.8-8.8,14.1-12.9,22.9-9.1c8.9,3.8,12.9,14.1,9.1,22.9
				C524.7,550.5,514.5,554.6,505.6,550.8z"/>
		</g>
		<g>
			<path class="st4" d="M575,427.9c-8.8-3.8-12.9-14.1-9.1-22.9c3.8-8.8,14.1-12.9,22.9-9.1c8.9,3.8,12.9,14.1,9.1,22.9
				C594.1,427.6,583.8,431.7,575,427.9z"/>
		</g>
		<g>
			<path class="st4" d="M247.3,375c-8.8-3.8-12.9-14.1-9.1-22.9c3.8-8.8,14.1-12.9,22.9-9.1c8.9,3.8,12.9,14.1,9.1,22.9
				C266.3,374.7,256.1,378.8,247.3,375z"/>
		</g>
		<g>
			<path class="st4" d="M532.5,301.3c-8.8-3.8-12.9-14.1-9.1-22.9c3.8-8.8,14.1-12.9,22.9-9.1c8.9,3.8,12.9,14.1,9.1,22.9
				C551.6,301.1,541.3,305.1,532.5,301.3z"/>
		</g>
		<g>
			<path class="st4" d="M479.9,616c-8.8-3.8-12.9-14.1-9.1-22.9c3.8-8.8,14.1-12.9,22.9-9.1c8.9,3.8,12.9,14.1,9.1,22.9
				C499,615.7,488.7,619.8,479.9,616z"/>
		</g>
		<g>
			<path class="st4" d="M292.3,267.8c-8.8-3.8-12.9-14.1-9.1-22.9c3.8-8.8,14.1-12.9,22.9-9.1c8.9,3.8,12.9,14.1,9.1,22.9
				C311.4,267.5,301.1,271.6,292.3,267.8z"/>
		</g>
		<g>
			<path class="st4" d="M392.8,235.8c-8.8-3.8-12.9-14.1-9.1-22.9c3.8-8.8,14.1-12.9,22.9-9.1c8.9,3.8,12.9,14.1,9.1,22.9
				C411.8,235.5,401.6,239.6,392.8,235.8z"/>
		</g>
		<g>
			<path class="st5" d="M476.1,227.9c-8.8-3.8-12.9-14.1-9.1-22.9c3.8-8.8,14.1-12.9,22.9-9.1c8.9,3.8,12.9,14.1,9.1,22.9
				C495.2,227.6,485,231.7,476.1,227.9z"/>
		</g>
		<g>
			<path class="st5" d="M514.4,451.6c-8.8-3.8-12.9-14.1-9.1-22.9c3.8-8.8,14.1-12.9,22.9-9.1c8.9,3.8,12.9,14.1,9.1,22.9
				C533.5,451.3,523.2,455.4,514.4,451.6z"/>
		</g>
		<g>
			<path class="st5" d="M277.6,589.4c-8.8-3.8-12.9-14.1-9.1-22.9c3.8-8.8,14.1-12.9,22.9-9.1c8.9,3.8,12.9,14.1,9.1,22.9
				C296.7,589.1,286.4,593.2,277.6,589.4z"/>
		</g>
		<g>
			<path class="st6" d="M322.5,159.8c9.6-1,18.2,5.9,19.2,15.4c1,9.6-5.9,18.2-15.4,19.2c-9.6,1.1-18.2-5.9-19.2-15.4
				C306,169.5,312.9,160.9,322.5,159.8z"/>
		</g>
		<g>
			<path class="st6" d="M553.8,190.1c9.6-1,18.2,5.9,19.2,15.4c1,9.6-5.9,18.2-15.4,19.2c-9.6,1.1-18.2-5.9-19.2-15.4
				C537.3,199.7,544.3,191.1,553.8,190.1z"/>
		</g>
		<g>
			<path class="st6" d="M220.4,272c9.6-1,18.2,5.9,19.2,15.4c1,9.6-5.9,18.2-15.4,19.2c-9.6,1.1-18.2-5.9-19.2-15.4
				C203.9,281.6,210.8,273,220.4,272z"/>
		</g>
		<g>
			<path class="st6" d="M642.2,372.3c9.6-1,18.2,5.9,19.2,15.4c1,9.6-5.9,18.2-15.4,19.2c-9.6,1.1-18.2-5.9-19.2-15.4
				C625.7,382,632.6,373.4,642.2,372.3z"/>
		</g>
		<g>
			<path class="st6" d="M198.3,493.1c9.6-1,18.2,5.9,19.2,15.4c1,9.6-5.9,18.2-15.4,19.2c-9.6,1.1-18.2-5.9-19.2-15.4
				C181.8,502.8,188.8,494.2,198.3,493.1z"/>
		</g>
		<g>
			<path class="st6" d="M580.1,544.3c9.6-1,18.2,5.9,19.2,15.4c1,9.6-5.9,18.2-15.4,19.2c-9.6,1.1-18.2-5.9-19.2-15.4
				C563.6,553.9,570.5,545.3,580.1,544.3z"/>
		</g>
		<g>
			<path class="st6" d="M387.5,613.2c9.6-1,18.2,5.9,19.2,15.4c1,9.6-5.9,18.2-15.4,19.2c-9.6,1.1-18.2-5.9-19.2-15.4
				C371,622.9,377.9,614.3,387.5,613.2z"/>
		</g>
		<g>
			<path class="st6" d="M173,358.3c9.6-1,18.2,5.9,19.2,15.4c1,9.6-5.9,18.2-15.4,19.2c-9.6,1.1-18.2-5.9-19.2-15.4
				C156.5,368,163.4,359.4,173,358.3z"/>
		</g>
		<g>
			<path class="st6" d="M629.3,254.9c9.6-1,18.2,5.9,19.2,15.4c1,9.6-5.9,18.2-15.4,19.2c-9.6,1.1-18.2-5.9-19.2-15.4
				C612.9,264.5,619.8,255.9,629.3,254.9z"/>
		</g>
		<g>
			<path class="st6" d="M447.1,655.4c9.6-1,18.2,5.9,19.2,15.4c1,9.6-5.9,18.2-15.4,19.2c-9.6,1.1-18.2-5.9-19.2-15.4
				C430.6,665,437.5,656.4,447.1,655.4z"/>
		</g>
		<g>
			<path class="st7" d="M383.7,123.2c9.1-1,17.3,5.6,18.3,14.7c1,9.1-5.6,17.3-14.7,18.3c-9.1,1-17.3-5.6-18.3-14.7
				C368.1,132.4,374.6,124.2,383.7,123.2z"/>
		</g>
		<g>
			<path class="st7" d="M494.9,133c9.1-1,17.3,5.6,18.3,14.7c1,9.1-5.6,17.3-14.7,18.3c-9.1,1-17.3-5.6-18.3-14.7
				C479.2,142.2,485.8,134,494.9,133z"/>
		</g>
		<g>
			<path class="st7" d="M544.6,608.8c9.1-1,17.3,5.6,18.3,14.7c1,9.1-5.6,17.3-14.7,18.3c-9.1,1-17.3-5.6-18.3-14.7
				C529,618,535.5,609.8,544.6,608.8z"/>
		</g>
		<g>
			<path class="st7" d="M633.8,531.8c9.1-1,17.3,5.6,18.3,14.7c1,9.1-5.6,17.3-14.7,18.3c-9.1,1-17.3-5.6-18.3-14.7
				C618.1,540.9,624.7,532.7,633.8,531.8z"/>
		</g>
		<g>
			<path class="st7" d="M694.7,421.7c9.1-1,17.3,5.6,18.3,14.7c1,9.1-5.6,17.3-14.7,18.3c-9.1,1-17.3-5.6-18.3-14.7
				C679.1,430.8,685.6,422.6,694.7,421.7z"/>
		</g>
		<g>
			<path class="st7" d="M234.6,199.8c9.1-1,17.3,5.6,18.3,14.7c1,9.1-5.6,17.3-14.7,18.3c-9.1,1-17.3-5.6-18.3-14.7
				C218.9,208.9,225.5,200.7,234.6,199.8z"/>
		</g>
		<g>
			<path class="st7" d="M149.8,286.4c9.1-1,17.3,5.6,18.3,14.7c1,9.1-5.6,17.3-14.7,18.3c-9.1,1-17.3-5.6-18.3-14.7
				C134.2,295.5,140.7,287.4,149.8,286.4z"/>
		</g>
		<g>
			<path class="st7" d="M142.9,425.6c9.1-1,17.3,5.6,18.3,14.7c1,9.1-5.6,17.3-14.7,18.3c-9.1,1-17.3-5.6-18.3-14.7
				C127.2,434.7,133.8,426.6,142.9,425.6z"/>
		</g>
		<g>
			<path class="st7" d="M309,628.3c9.1-1,17.3,5.6,18.3,14.7c1,9.1-5.6,17.3-14.7,18.3c-9.1,1-17.3-5.6-18.3-14.7
				C293.4,637.5,300,629.3,309,628.3z"/>
		</g>
		<g>
			<path class="st7" d="M680.3,314.7c9.1-1,17.3,5.6,18.3,14.7c1,9.1-5.6,17.3-14.7,18.3c-9.1,1-17.3-5.6-18.3-14.7
				C664.6,323.8,671.2,315.6,680.3,314.7z"/>
		</g>
		<g>
			<path class="st7" d="M255.5,140.7c9.1-1,17.3,5.6,18.3,14.7c1,9.1-5.6,17.3-14.7,18.3c-9.1,1-17.3-5.6-18.3-14.7
				C239.8,149.9,246.4,141.7,255.5,140.7z"/>
		</g>
		<g>
			<path class="st7" d="M707.4,517c9.1-1,17.3,5.6,18.3,14.7c1,9.1-5.6,17.3-14.7,18.3c-9.1,1-17.3-5.6-18.3-14.7
				C691.8,526.2,698.3,518,707.4,517z"/>
		</g>
		<g>
			<path class="st7" d="M364.6,695.1c9.1-1,17.3,5.6,18.3,14.7c1,9.1-5.6,17.3-14.7,18.3c-9.1,1-17.3-5.6-18.3-14.7
				C348.9,704.3,355.5,696.1,364.6,695.1z"/>
		</g>
		<g>
			<path class="st7" d="M441.9,720.7c9.1-1,17.3,5.6,18.3,14.7c1,9.1-5.6,17.3-14.7,18.3c-9.1,1-17.3-5.6-18.3-14.7
				C426.2,729.9,432.8,721.7,441.9,720.7z"/>
		</g>
		<g>
			<path class="st7" d="M626.6,190.3c9.1-1,17.3,5.6,18.3,14.7c1,9.1-5.6,17.3-14.7,18.3c-9.1,1-17.3-5.6-18.3-14.7
				C611,199.4,617.5,191.3,626.6,190.3z"/>
		</g>
		<g>
			<path class="st7" d="M218.2,556.9c9.1-1,17.3,5.6,18.3,14.7c1,9.1-5.6,17.3-14.7,18.3c-9.1,1-17.3-5.6-18.3-14.7
				C202.6,566,209.2,557.9,218.2,556.9z"/>
		</g>
		<g>
			<path class="st7" d="M234.4,632.3c9.1-1,17.3,5.6,18.3,14.7c1,9.1-5.6,17.3-14.7,18.3c-9.1,1-17.3-5.6-18.3-14.7
				C218.7,641.5,225.3,633.3,234.4,632.3z"/>
		</g>
		<g>
			<path class="st7" d="M141.9,511.8c9.1-1,17.3,5.6,18.3,14.7c1,9.1-5.6,17.3-14.7,18.3c-9.1,1-17.3-5.6-18.3-14.7
				C126.2,520.9,132.8,512.8,141.9,511.8z"/>
		</g>
		<g>
			<path class="st7" d="M105.3,352.2c9.1-1,17.3,5.6,18.3,14.7c1,9.1-5.6,17.3-14.7,18.3c-9.1,1-17.3-5.6-18.3-14.7
				C89.7,361.4,96.2,353.2,105.3,352.2z"/>
		</g>
		<g>
			<path class="st7" d="M618.8,626.7c9.1-1,17.3,5.6,18.3,14.7c1,9.1-5.6,17.3-14.7,18.3c-9.1,1-17.3-5.6-18.3-14.7
				C603.2,635.9,609.7,627.7,618.8,626.7z"/>
		</g>
		<g>
			<path class="st7" d="M147.4,211.9c9.1-1,17.3,5.6,18.3,14.7c1,9.1-5.6,17.3-14.7,18.3c-9.1,1-17.3-5.6-18.3-14.7
				C131.8,221.1,138.3,212.9,147.4,211.9z"/>
		</g>
		<g>
			<path class="st8" d="M505.3,675.6c8.6-0.9,16.4,5.3,17.3,13.9c0.9,8.6-5.3,16.4-13.9,17.3c-8.6,0.9-16.4-5.3-17.3-13.9
				C490.5,684.3,496.7,676.6,505.3,675.6z"/>
		</g>
		<g>
			<path class="st8" d="M408.8,38.1c8.6-0.9,16.4,5.3,17.3,13.9c0.9,8.6-5.3,16.4-13.9,17.3c-8.6,0.9-16.4-5.3-17.3-13.9
				C394,46.8,400.2,39.1,408.8,38.1z"/>
		</g>
		<g>
			<path class="st8" d="M732.3,370.6c8.6-0.9,16.4,5.3,17.3,13.9c0.9,8.6-5.3,16.4-13.9,17.3c-8.6,0.9-16.4-5.3-17.3-13.9
				C717.4,379.2,723.6,371.5,732.3,370.6z"/>
		</g>
		<g>
			<path class="st8" d="M577.6,126.4c8.6-0.9,16.4,5.3,17.3,13.9c0.9,8.6-5.3,16.4-13.9,17.3c-8.6,0.9-16.4-5.3-17.3-13.9
				C562.8,135.1,569,127.3,577.6,126.4z"/>
		</g>
		<g>
			<path class="st8" d="M189.7,140.3c8.6-0.9,16.4,5.3,17.3,13.9c0.9,8.6-5.3,16.4-13.9,17.3c-8.6,0.9-16.4-5.3-17.3-13.9
				C174.9,149,181.1,141.3,189.7,140.3z"/>
		</g>
		<g>
			<path class="st8" d="M147.5,591.5c8.6-0.9,16.4,5.3,17.3,13.9c0.9,8.6-5.3,16.4-13.9,17.3c-8.6,0.9-16.4-5.3-17.3-13.9
				C132.6,600.1,138.8,592.4,147.5,591.5z"/>
		</g>
		<g>
			<path class="st8" d="M306.6,678c8.6-0.9,16.4,5.3,17.3,13.9c0.9,8.6-5.3,16.4-13.9,17.3c-8.6,0.9-16.4-5.3-17.3-13.9
				C291.8,686.7,298,679,306.6,678z"/>
		</g>
		<g>
			<path class="st8" d="M569,666.3c8.6-0.9,16.4,5.3,17.3,13.9c0.9,8.6-5.3,16.4-13.9,17.3c-8.6,0.9-16.4-5.3-17.3-13.9
				C554.2,675,560.4,667.2,569,666.3z"/>
		</g>
		<g>
			<path class="st8" d="M98.5,270.3c8.6-0.9,16.4,5.3,17.3,13.9c0.9,8.6-5.3,16.4-13.9,17.3c-8.6,0.9-16.4-5.3-17.3-13.9
				C83.7,279,89.9,271.3,98.5,270.3z"/>
		</g>
		<g>
			<path class="st8" d="M690.6,247c8.6-0.9,16.4,5.3,17.3,13.9c0.9,8.6-5.3,16.4-13.9,17.3c-8.6,0.9-16.4-5.3-17.3-13.9
				C675.8,255.7,682,247.9,690.6,247z"/>
		</g>
		<g>
			<path class="st8" d="M81.2,443.2c8.6-0.9,16.4,5.3,17.3,13.9c0.9,8.6-5.3,16.4-13.9,17.3c-8.6,0.9-16.4-5.3-17.3-13.9
				C66.3,451.9,72.5,444.2,81.2,443.2z"/>
		</g>
		<g>
			<path class="st8" d="M48,360.9c8.6-0.9,16.4,5.3,17.3,13.9c0.9,8.6-5.3,16.4-13.9,17.3c-8.6,0.9-16.4-5.3-17.3-13.9
				C33.2,369.6,39.4,361.9,48,360.9z"/>
		</g>
		<g>
			<path class="st8" d="M675,594.6c8.6-0.9,16.4,5.3,17.3,13.9c0.9,8.6-5.3,16.4-13.9,17.3c-8.6,0.9-16.4-5.3-17.3-13.9
				C660.1,603.3,666.4,595.5,675,594.6z"/>
		</g>
		<g>
			<path class="st8" d="M517.6,60.6c8.6-0.9,16.4,5.3,17.3,13.9c0.9,8.6-5.3,16.4-13.9,17.3c-8.6,0.9-16.4-5.3-17.3-13.9
				C502.8,69.3,509,61.5,517.6,60.6z"/>
		</g>
		<g>
			<path class="st8" d="M344.3,77.7c8.4-0.8,16.1,5.4,17.1,14c1,8.6-5,16.2-13.4,17c-8.4,0.8-16.1-5.4-17.1-14
				C329.9,86.1,335.9,78.5,344.3,77.7z"/>
		</g>
		<g>
			<path class="st8" d="M658,149.3c8.6-0.9,16.4,5.3,17.3,13.9c0.9,8.6-5.3,16.4-13.9,17.3c-8.6,0.9-16.4-5.3-17.3-13.9
				C643.1,158,649.4,150.2,658,149.3z"/>
		</g>
		<g>
			<path class="st8" d="M191.4,673.7c8.6-0.9,16.4,5.3,17.3,13.9c0.9,8.6-5.3,16.4-13.9,17.3c-8.6,0.9-16.4-5.3-17.3-13.9
				C176.6,682.3,182.8,674.6,191.4,673.7z"/>
		</g>
		<g>
			<path class="st8" d="M506.3,744.5c8.6-0.9,16.4,5.3,17.3,13.9c0.9,8.6-5.3,16.4-13.9,17.3c-8.6,0.9-16.4-5.3-17.3-13.9
				C491.4,753.1,497.7,745.4,506.3,744.5z"/>
		</g>
		<g>
			<path class="st8" d="M88.5,541.2c8.6-0.9,16.4,5.3,17.3,13.9c0.9,8.6-5.3,16.4-13.9,17.3c-8.6,0.9-16.4-5.3-17.3-13.9
				C73.6,549.9,79.9,542.2,88.5,541.2z"/>
		</g>
		<g>
			<path class="st8" d="M748.6,457.6c8.6-0.9,16.4,5.3,17.3,13.9c0.9,8.6-5.3,16.4-13.9,17.3c-8.6,0.9-16.4-5.3-17.3-13.9
				C733.7,466.3,740,458.6,748.6,457.6z"/>
		</g>
		<g>
			<path class="st8" d="M262,54.9c8.6-0.9,16.4,5.3,17.3,13.9c0.9,8.6-5.3,16.4-13.9,17.3c-8.6,0.9-16.4-5.3-17.3-13.9
				C247.1,63.6,253.4,55.8,262,54.9z"/>
		</g>
		<g>
			<path class="st8" d="M376.8,742.9c8.6-0.9,16.4,5.3,17.3,13.9c0.9,8.6-5.3,16.4-13.9,17.3c-8.6,0.9-16.4-5.3-17.3-13.9
				C362,751.5,368.2,743.8,376.8,742.9z"/>
		</g>
		<g>
			<path class="st8" d="M264.8,732c8.6-0.9,16.4,5.3,17.3,13.9c0.9,8.6-5.3,16.4-13.9,17.3c-8.6,0.9-16.4-5.3-17.3-13.9
				C250,740.6,256.2,732.9,264.8,732z"/>
		</g>
		<g>
			<path class="st8" d="M558.7,732.9c8.6-0.9,16.4,5.3,17.3,13.9c0.9,8.6-5.3,16.4-13.9,17.3c-8.6,0.9-16.4-5.3-17.3-13.9
				C543.9,741.5,550.1,733.8,558.7,732.9z"/>
		</g>
		<g>
			<path class="st2" d="M444.3,93.9c9.6-1,18.2,5.9,19.2,15.4c1,9.6-5.9,18.2-15.4,19.2c-9.6,1.1-18.2-5.9-19.2-15.4
				C427.8,103.6,434.7,95,444.3,93.9z"/>
		</g>
	</g>
	<g>
		<path class="st9" d="M386.3,351.8c43.9-4.8,83.5,26.9,88.4,70.8c4.9,43.9-26.8,83.3-70.7,88.1c-43.9,4.8-83.5-26.9-88.4-70.8
			C310.7,396.1,342.4,356.6,386.3,351.8z"/>
	</g>
	<g>
		<path class="st10" d="M361.8,409h31.2v7.2l-19.4,36.1h-10.8l19.3-35h-20.3V409z"/>
		<path class="st10" d="M424.3,408.7v26.5h5.8v7.7h-5.8v9.3h-9.1V443H394l-1.5-6.7l23.7-27.5H424.3z M415.2,421.8l-11.5,13.5h11.5
			V421.8z"/>
	</g>
</g>
</svg>
