<?xml version="1.0" encoding="utf-8"?>
<!-- Generator: Adobe Illustrator 22.1.0, SVG Export Plug-In . SVG Version: 6.00 Build 0)  -->
<svg version="1.1" id="Layer_1" xmlns="http://www.w3.org/2000/svg" xmlns:xlink="http://www.w3.org/1999/xlink" x="0px" y="0px"
	 viewBox="0 0 425.2 194.7" style="enable-background:new 0 0 425.2 194.7;" xml:space="preserve">
<style type="text/css">
	.st0{display:none;fill:url(#SVGID_1_);}
	.st1{display:none;}
	.st2{display:inline;fill:#70A847;}
	.st3{display:inline;}
	.st4{fill:#7DB356;}
	.st5{fill:#70A847;}
	.st6{display:inline;fill:#7DB356;}
	.st7{fill:#52993A;}
	.st8{fill:#5CA644;}
	.st9{display:inline;fill:#3D9635;}
	.st10{fill:#308728;}
	.st11{fill:#3D9635;}
	.st12{fill:#16521B;}
	.st13{fill:#1C6B21;}
	.st14{fill:#208229;}
	.st15{display:inline;fill:#16521B;}
	.st16{fill:#0D3B19;}
	.st17{fill:#0A2B12;}
</style>
<linearGradient id="SVGID_1_" gradientUnits="userSpaceOnUse" x1="212.6" y1="180.0069" x2="212.6" y2="24.5206" gradientTransform="matrix(1 0 0 -1 0 196)">
	<stop  offset="0" style="stop-color:#80C7C7"/>
	<stop  offset="0.5612" style="stop-color:#D7EBD4"/>
	<stop  offset="1" style="stop-color:#EDEDD3"/>
</linearGradient>
<rect class="st0" width="425.2" height="194.7"/>
<g class="st1">
	<path class="st2" d="M109.2,112c0.1-2.7,0.1-5.4,0.2-8.1c1-0.6,2.4-1.3,3.5-1.7c1.4-0.6,1.2,0,2.8-1.3c2.6-2,1.7,0.9,3.7-2
		c0.4-0.6,1.8,1,4.2-1.8c0.6-0.7,1.3,0.7,3.5-1c0.7-0.5,1.6,0.6,3.7-1.3c0.9-0.9,1.4,0.1,5-0.8c0.1,0,0.9-0.9,1.9-1.2
		c1-0.3,1.6,0.5,2.3-0.1c0.1-0.1,0.7-0.6,1.5-0.8c0.5-0.1,1.2,0.3,1.8,0.1c0.6-0.1,1.3-0.7,2-0.9c0.7-0.2,1.5,0,2.1-0.1
		c0.8-0.1,1.4-0.8,2.1-1c0.8-0.2,1.5,0,1.8-0.1c0,0,1-0.6,2.2-0.8c0.8-0.1,1.7,0.2,2.6,0.1c1.7-0.1,1.7-0.4,3.2-0.9
		c0.6-0.2,0.8,0.3,1.7,0.2c0.5-0.1,1-0.6,1.6-0.7c0.5-0.1,1.2,0.2,1.6,0.1c0.9-0.1,1.6-0.7,2.3-0.9c0.9-0.2,1.2,0.1,1.7,0
		c0.6,0,0.7-0.5,1.7-0.7c0.6-0.1,1.3,0.4,1.9,0.3c0.8-0.1,1.4-0.9,2.2-1.1c0.9-0.2,2,0.1,2.5-0.1c0,0,0.8,0.3,1.9,0.3
		c0.7,0,1.5-0.7,2.2-0.8c1.1-0.1,2,0.4,2.2,0.5c1.7,0.7,1.6-1.1,5,0c2.2,0.7,1.1-2.2,4.9-0.7c1,0.4,1.7-0.9,4.8-0.7
		c0.7,0.1,2.1,0.4,3.6,0.3c1.8-0.1,1.8-1.1,4.2-0.3c0.3,0.1,1.3-0.5,2.8-0.5c0.9,0,1.7,0.6,2.7,0.7s2.1-0.5,3.1-0.5
		c1.4,0,2.6,0.5,3.3,0.6c2,0.5,0.9-1.1,3.6,0c0,0,0.9,0.4,2.3,0.3c0.9-0.1,2-0.9,3.1-1c0.8-0.1,1.5,0.7,2.2,0.7
		c1.4,0.1,2.6-0.5,3-0.5c1.4,0,1.3,1.4,4,0.5c1.8-0.6,0.2,1.6,4.1,0.4c0.6-0.2,1.5,1.4,4.6,0.9c0.3-0.1,1.1,0.6,2.5,0.9
		c0.8,0.1,2-0.5,2.9-0.4s1.9,0.5,2.9,0.4c0.5-0.1,1.2,0.6,2.5,0.8c0.9,0.1,1.9-0.2,2.9-0.1c1.7,0.2,3.1,0.8,3.6,1.1
		c0.6,0.5,2.8,0.4,3.6,0.5c1.7,0.2,2,0.7,2.4,0.7c0.5,0,1.5-0.5,2.8,0.6c1.4,1.2,3-0.9,4.9,0.5c0.4,0.3,0.8-0.6,3.1,1.1
		c0.5,0.4,1.9-0.5,3.4,0.6c1,0.7,1.7-0.7,3.8,1c2.2,1.8,3.5-0.5,5.1,2.2c0.5,0.9,1.6-0.8,4.5,1.4c1.7,1.3,3-0.3,5.6,1.4
		c1.6,1.1,2.6-0.4,6,1.8c1.2,0.8,1.3-0.7,4,1.4c0.7,0.6,0.9-0.7,3.9,1.5c0.5,0.4,1.3,1,2.5,1.4c0.6,0.2,1.4,0,2,0.2
		c1,0.3,1.8,0.7,2.3,0.7c0.3,0,1.2,0.9,2.5,1.3c0.6,0.2,1.5-0.1,2.2,0.1c0.8,0.2,1.3,0.9,2,1.2c1.3,0.5,2.5,0.6,2.8,0.9
		c0.2,0.2,0.7,1.1,1.5,1.8c1.1,0.9,3.7,3,3.7,3C260.5,113.5,184.3,112,109.2,112z"/>
	<g class="st3">
		<path class="st4" d="M148.9,96.7c0.7,0,1.1,0,1.7,0c-0.4-3.4-0.4-6.8-0.3-10.1c-0.3,0-0.7,0-1,0C149.3,90.1,149.3,93.5,148.9,96.7
			z"/>
		<path class="st4" d="M153.3,89.4c0,1.3-0.5,2.7-2.1,2.9c-1,0.7-2.4,0.7-3.3,0c-1.3-0.1-2.2-1.3-2.2-2.6c-0.7-0.7-0.9-2.1-0.4-3
			c-0.7-0.7-0.8-2.1-0.3-3.1c-0.3-1-0.3-2.1,0.4-3c-0.1-1.2,0.2-2.3,1.2-3.3c0.2-1,0.6-1.7,1.4-2c0.9-1.5,2.6-1.7,3.5,0
			c1.1,0.4,1.6,1.1,1.7,2.3c0.9,1.1,1.1,2.2,0.8,3.3c1.1,1.9,0.8,3.6,0.3,5.3C154.5,87.6,154.1,89,153.3,89.4z"/>
	</g>
	<g class="st3">
		<path class="st4" d="M161.1,93.5c0.6,0,1,0,1.6,0c-0.4-3.2-0.4-6.4-0.3-9.6c-0.3,0-0.6,0-0.9,0C161.4,87.2,161.4,90.4,161.1,93.5z
			"/>
		<path class="st4" d="M163.9,88.9c0.8,0.4,2.1-0.4,2.1-1.4c0.5-0.4,0.9-1.4,0.7-2.3c0.5-1,0.6-2.1,0.1-3.4c0.2-1.1,0.2-2.3-0.6-3.3
			c0.1-1.2-0.3-2.4-1.3-3.3c-0.1-1.1-0.7-2-1.7-2.3c-0.6-1.3-2-1.2-2.5,0c-1,0.5-1.4,1.4-1.5,2.6c-1,0.9-1.4,2-1.3,3.2
			c-0.9,0.9-1,2-0.7,3.2c-0.5,1.3-0.5,2.4,0,3.4c-0.2,0.9,0.1,1.8,0.6,2.3c0,1,1.4,1.7,2.2,1.4C160.8,89.9,162.8,89.8,163.9,88.9z"
			/>
	</g>
	<g class="st3">
		<path class="st4" d="M141.9,98.1c0.6,0,0.9,0,1.5,0c-0.3-3-0.3-6-0.3-9c-0.3,0-0.6,0-0.9,0C142.3,92.2,142.3,95.2,141.9,98.1z"/>
		<path class="st4" d="M139.4,91.5c-0.1,1.2,0.4,2.5,1.8,2.6c0.5,0.3,1,0.5,1.6,0.4c0.5,0,1.1-0.2,1.5-0.5c1.2-0.1,2-1.2,2-2.4
			c0.7-0.7,0.8-1.9,0.3-2.8c0.6-0.6,0.6-2,0.1-2.8c0.2-0.9,0.2-1.9-0.5-2.8c0-1.1-0.2-2.1-1.1-3c-0.1-0.9-0.5-1.5-1.1-1.8
			c-0.4-0.7-0.9-1.1-1.4-1.1s-1,0.3-1.4,1.1c-0.8,0.3-1.3,1-1.4,2.1c-0.7,1-1,2.1-0.8,3.1c-0.5,0.9-0.7,1.7-0.8,2.5s0,1.6,0.2,2.4
			C138.4,89.8,138.7,91.1,139.4,91.5z"/>
	</g>
	<g class="st3">
		<path class="st4" d="M171.8,92c2.1,0,3.9-1.7,3.9-3.9c0-2.1-1.7-3.9-3.9-3.9s-3.9,1.7-3.9,3.9C167.9,90.2,169.6,92,171.8,92z"/>
		<g>
			<path class="st5" d="M171.1,90.8c-1.2,0-2.1-1.1-2.1-2.4c0-1.7,1.2-3.1,2.7-3.1s2.7,1.4,2.7,3.1c0,0.1-0.1,0.2-0.2,0.2
				c-0.1,0-0.2-0.1-0.2-0.2c0-1.5-1-2.7-2.3-2.7s-2.3,1.2-2.3,2.7c0,1.1,0.8,2,1.7,2s1.7-0.9,1.7-2c0-0.7-0.5-1.2-1.1-1.2
				s-1.1,0.6-1.1,1.2c0,0.3,0.2,0.5,0.4,0.5s0.4-0.2,0.4-0.5c0-0.1,0.1-0.2,0.2-0.2c0.1,0,0.2,0.1,0.2,0.2c0,0.5-0.4,0.9-0.8,0.9
				c-0.5,0-0.8-0.4-0.8-0.9c0-0.9,0.7-1.6,1.5-1.6s1.5,0.7,1.5,1.6C173.2,89.7,172.3,90.8,171.1,90.8z"/>
		</g>
	</g>
	<g class="st3">
		<path class="st4" d="M156,94.5c1.9-0.9,2.8-3.2,1.9-5.1c-0.9-1.9-3.2-2.8-5.1-1.9c-1.9,0.9-2.8,3.2-1.9,5.1S154.1,95.4,156,94.5z"
			/>
		<g>
			<path class="st5" d="M154.2,93.9c-0.8,0-1.7-0.5-2.1-1.4c-0.3-0.7-0.4-1.6-0.2-2.3c0.2-0.7,0.7-1.3,1.4-1.6
				c1.4-0.6,3,0.1,3.7,1.7c0,0.1,0,0.2-0.1,0.3c-0.1,0-0.2,0-0.3-0.1c-0.6-1.3-2.1-2-3.2-1.5c-0.6,0.3-1,0.7-1.2,1.4
				c-0.2,0.6-0.1,1.4,0.2,2c0.4,1,1.5,1.5,2.3,1.1c0.4-0.2,0.7-0.5,0.8-1s0.1-1-0.1-1.5c-0.3-0.6-0.9-0.9-1.5-0.7
				c-0.5,0.2-0.7,0.9-0.4,1.6c0.1,0.3,0.4,0.4,0.6,0.3c0.2-0.1,0.3-0.4,0.2-0.6c0-0.1,0-0.2,0.1-0.3c0.1,0,0.2,0,0.3,0.1
				c0.2,0.5,0,1-0.4,1.2s-0.9,0-1.1-0.5c-0.4-0.8-0.1-1.8,0.6-2.1c0.7-0.3,1.6,0.1,2,0.9c0.3,0.6,0.3,1.2,0.1,1.8
				c-0.2,0.6-0.5,1-1.1,1.3C154.7,93.8,154.5,93.9,154.2,93.9z"/>
		</g>
	</g>
	<g class="st3">
		<path class="st4" d="M143.4,95.2c0.5-2.1-0.8-4.2-2.9-4.7c-2.1-0.5-4.2,0.8-4.7,2.9s0.8,4.2,2.9,4.7
			C140.8,98.6,142.9,97.3,143.4,95.2z"/>
		<g>
			<path class="st5" d="M139.9,97.1c-0.2,0-0.4,0-0.6-0.1c-0.8-0.2-1.5-0.6-1.9-1.3c-0.4-0.6-0.6-1.4-0.4-2.1c0.4-1.5,2-2.3,3.6-1.9
				c0.1,0,0.2,0.1,0.1,0.2c0,0.1-0.1,0.2-0.2,0.1c-1.4-0.3-2.8,0.4-3.1,1.6c-0.1,0.6,0,1.2,0.4,1.8c0.4,0.5,1,0.9,1.7,1.1
				c0.5,0.1,1,0.1,1.5-0.2c0.4-0.2,0.7-0.6,0.8-1s0-0.9-0.3-1.3s-0.7-0.7-1.2-0.8c-0.7-0.2-1.3,0.2-1.4,0.7c-0.1,0.3,0,0.6,0.2,0.8
				c0.2,0.3,0.5,0.4,0.8,0.5c0.1,0,0.3,0,0.4-0.1c0.1,0,0.1-0.1,0.2-0.2c0.1-0.2-0.1-0.5-0.4-0.5c-0.1,0-0.2-0.1-0.1-0.2
				c0-0.1,0.1-0.2,0.2-0.1c0.5,0.1,0.8,0.6,0.7,1c0,0.2-0.2,0.4-0.4,0.5s-0.5,0.2-0.7,0.1c-0.4-0.1-0.8-0.3-1-0.7
				c-0.2-0.3-0.3-0.7-0.2-1.1c0.2-0.8,1.1-1.2,1.9-1c0.6,0.1,1.1,0.5,1.5,1c0.3,0.5,0.5,1.1,0.3,1.6c-0.1,0.5-0.5,1-1,1.3
				C140.7,97,140.3,97.1,139.9,97.1z"/>
		</g>
	</g>
	<g class="st3">
		<path class="st5" d="M217.8,67.3c-2.3,0-8.2,0-10.5,0l-3,22c4.3,0,12.2,0,16.5,0L217.8,67.3z"/>
		<path class="st4" d="M215.3,67.3c-1.2,0-4.2,0-5.3,0l-1.5,22c2.2,0,6.2,0,8.4,0L215.3,67.3z"/>
		<path class="st4" d="M212.6,60.8c-3.3,0-6,2.8-6,6.3V69h12.1v-1.9C218.6,63.6,215.9,60.8,212.6,60.8z"/>
		<rect x="206.5" y="67.1" class="st5" width="12.1" height="1.9"/>
		<g>
			<rect x="210.8" y="74.3" class="st4" width="3.6" height="5.7"/>
			<path class="st5" d="M214.4,74.1h-3.8v6.1h4v-6.1H214.4L214.4,74.1z M211,74.5h3.2v5.3H211V74.5z"/>
			<rect x="212.4" y="74.3" class="st5" width="0.4" height="5.7"/>
			<rect x="210.8" y="77" class="st5" width="3.6" height="0.4"/>
		</g>
		<path class="st5" d="M212.6,66.6c0.3,0,0.5-0.2,0.5-0.5s-0.2-0.5-0.5-0.5s-0.5,0.2-0.5,0.5S212.3,66.6,212.6,66.6z"/>
		<g>
			<g>
				
					<rect x="199.6" y="71.3" transform="matrix(0.7076 -0.7066 0.7066 0.7076 10.1243 167.2997)" class="st5" width="15.3" height="0.3"/>
				<g>
					<path class="st5" d="M208.5,68l1,1l-9.2,9.2l-1-1L208.5,68L208.5,68z M209.7,68.9l-1.2-1.2l-9.5,9.5l1.3,1.3L209.7,68.9
						L209.7,68.9z"/>
					
						<rect x="197.8" y="72.9" transform="matrix(0.7071 -0.7071 0.7071 0.7071 8.2435 165.8894)" class="st5" width="13.2" height="0.2"/>
					
						<rect x="201.2" y="75.4" transform="matrix(0.7071 -0.7071 0.7071 0.7071 5.1194 164.6628)" class="st5" width="0.2" height="1.6"/>
					<polygon class="st5" points="202.2,74.1 203.3,75.2 203.5,75.1 202.3,74 					"/>
					<polygon class="st5" points="203.7,72.5 204.9,73.7 205,73.5 203.9,72.4 					"/>
					
						<rect x="205.8" y="70.7" transform="matrix(0.7071 -0.7071 0.7071 0.7071 9.7437 166.556)" class="st5" width="0.2" height="1.6"/>
					
						<rect x="207.4" y="69.1" transform="matrix(0.7071 -0.7071 0.7071 0.7071 11.3437 167.1813)" class="st5" width="0.2" height="1.6"/>
				</g>
				<polygon class="st5" points="210.9,70.1 209.7,68.9 200.3,78.4 201.5,79.7 211,70.2 				"/>
			</g>
			<g>
				
					<rect x="207.1" y="53" transform="matrix(0.7068 -0.7075 0.7075 0.7068 17.889 164.3807)" class="st5" width="0.3" height="15.3"/>
				<g>
					<path class="st5" d="M210.7,62l-1,1l-9.2-9.2l1-1L210.7,62L210.7,62z M209.8,63.1L211,62l-9.5-9.5l-1.3,1.3L209.8,63.1
						L209.8,63.1z"/>
					
						<rect x="205.5" y="51.3" transform="matrix(0.7071 -0.7071 0.7071 0.7071 19.2809 162.3772)" class="st5" width="0.2" height="13.2"/>
					
						<rect x="201.7" y="54.6" transform="matrix(0.7071 -0.7071 0.7071 0.7071 20.6039 159.2045)" class="st5" width="1.6" height="0.2"/>
					
						<rect x="203.3" y="56.2" transform="matrix(0.7071 -0.7071 0.7071 0.7071 19.9788 160.8043)" class="st5" width="1.6" height="0.2"/>
					
						<rect x="204.8" y="57.7" transform="matrix(0.7071 -0.7071 0.7071 0.7071 19.3118 162.3046)" class="st5" width="1.6" height="0.2"/>
					
						<rect x="206.4" y="59.3" transform="matrix(0.7071 -0.7071 0.7071 0.7071 18.6865 163.9045)" class="st5" width="1.6" height="0.2"/>
					
						<rect x="208" y="60.9" transform="matrix(0.7071 -0.7071 0.7071 0.7071 18.0567 165.5103)" class="st5" width="1.6" height="0.2"/>
				</g>
				<polygon class="st5" points="208.6,64.4 209.7,63.2 200.3,53.7 199,55 208.5,64.5 				"/>
			</g>
			<g>
				
					<rect x="210.4" y="60.5" transform="matrix(0.7076 -0.7066 0.7066 0.7076 20.9192 171.7739)" class="st5" width="15.3" height="0.3"/>
				<g>
					<path class="st5" d="M216.7,64.2l-1-1l9.2-9.2l1,1L216.7,64.2L216.7,64.2z M215.5,63.3l1.2,1.2l9.5-9.5l-1.3-1.3L215.5,63.3
						L215.5,63.3z"/>
					
						<rect x="214.2" y="59" transform="matrix(0.7071 -0.7071 0.7071 0.7071 22.8675 173.4434)" class="st5" width="13.2" height="0.2"/>
					
						<rect x="223.8" y="55.2" transform="matrix(0.7071 -0.7071 0.7071 0.7071 25.9673 174.7353)" class="st5" width="0.2" height="1.6"/>
					
						<rect x="222.3" y="56.8" transform="matrix(0.7071 -0.7071 0.7071 0.7071 24.4382 174.1394)" class="st5" width="0.2" height="1.6"/>
					
						<rect x="220.7" y="58.3" transform="matrix(0.7071 -0.7071 0.7071 0.7071 22.8671 173.4438)" class="st5" width="0.2" height="1.6"/>
					
						<rect x="219.2" y="59.9" transform="matrix(0.7071 -0.7071 0.7071 0.7071 21.3381 172.8475)" class="st5" width="0.2" height="1.6"/>
					
						<rect x="217.6" y="61.4" transform="matrix(0.7071 -0.7071 0.7071 0.7071 19.7677 172.1511)" class="st5" width="0.2" height="1.6"/>
				</g>
				<polygon class="st5" points="214.3,62 215.5,63.2 224.9,53.7 223.7,52.5 214.2,62 				"/>
			</g>
			<g>
				
					<rect x="217.9" y="63.8" transform="matrix(0.7064 -0.7078 0.7078 0.7064 13.4557 175.2855)" class="st5" width="0.3" height="15.3"/>
				<g>
					<path class="st5" d="M214.5,70.2l1-1l9.2,9.2l-1,1L214.5,70.2L214.5,70.2z M215.4,69l-1.2,1.2l9.5,9.5l1.3-1.3L215.4,69
						L215.4,69z"/>
					
						<rect x="219.5" y="67.7" transform="matrix(0.7071 -0.7071 0.7071 0.7071 11.7998 177.0276)" class="st5" width="0.2" height="13.2"/>
					
						<rect x="221.9" y="77.3" transform="matrix(0.7071 -0.7071 0.7071 0.7071 10.5019 180.1342)" class="st5" width="1.6" height="0.2"/>
					
						<rect x="220.3" y="75.7" transform="matrix(0.7071 -0.7071 0.7071 0.7071 11.1273 178.5342)" class="st5" width="1.6" height="0.2"/>
					
						<rect x="218.8" y="74.2" transform="matrix(0.7072 -0.707 0.707 0.7072 11.7842 176.9995)" class="st5" width="1.6" height="0.2"/>
					
						<rect x="217.2" y="72.6" transform="matrix(0.7071 -0.7071 0.7071 0.7071 12.4246 175.4283)" class="st5" width="1.6" height="0.2"/>
					
						<rect x="215.7" y="71.1" transform="matrix(0.707 -0.7072 0.7072 0.707 13.1063 173.9564)" class="st5" width="1.6" height="0.2"/>
				</g>
				<polygon class="st5" points="216.6,67.7 215.5,68.9 224.9,78.4 226.2,77.1 216.7,67.7 				"/>
			</g>
		</g>
	</g>
	<g class="st3">
		<path class="st4" d="M254.9,91.5c0.6,0,0.9,0,1.5,0c-0.3-3-0.3-6.1-0.3-9.1c-0.3,0-0.6,0-0.9,0C255.2,85.6,255.2,88.6,254.9,91.5z
			"/>
		<path class="st4" d="M260.2,83.5c0.3,1-0.6,3-2.4,3.1c-1.2,0.8-3,0.7-4,0c-1.8-0.2-2.8-1.6-2.6-3.3c-0.5-1.5-0.8-2.9,0.4-4.2
			c-0.2-1.7,0.6-3.1,2.1-4c0.7-1.8,2.9-1.9,3.6,0c1.1,0.3,2.2,2,2.1,3.5C260.7,79.8,260.8,81.9,260.2,83.5z"/>
	</g>
	<g class="st3">
		<path class="st4" d="M273.8,95.2c0.8,0,1.3,0,2.2,0c-0.5-4.3-0.5-8.5-0.4-12.8c-0.4,0-0.8,0-1.3,0
			C274.3,86.8,274.3,91.1,273.8,95.2z"/>
		<path class="st4" d="M272.4,70.7c-1.2,0.4-2,1.7-2.1,3c-1.6,0.8-2.7,2.3-2.6,4.3c-1.6,0.7-2.2,2.9-2,5.2c-1.2,1.2-0.5,5.1,4,6
			c1.9,2.9,7.9,2.9,9.9,0c4.6-0.1,6.1-4.7,4.5-6.2c0.4-2.1-0.4-4-2-4.7c-0.3-2.4-1-4.2-2.9-5.1c-0.3-1.3-1.2-2.3-2.6-2.8
			C276.2,67.3,272.6,68,272.4,70.7z"/>
	</g>
	<path class="st6" d="M42.1,147.5c0-22.8,0,12.3,0-10.5c117.3-64.7,231-65,341.1,0c0,22.8,0-12.3,0,10.5
		C269.4,147.5,155.7,147.5,42.1,147.5z"/>
	<g class="st3">
		<path class="st5" d="M158.2,99.4c-5.5,1.3-10.9,2.9-16.2,4.7c36.1-10.1,73-11.9,110.4-9.4C218.8,91.9,186.9,92.4,158.2,99.4"/>
		<path class="st5" d="M252,95.1c-40.2-2.3-77.8,0.1-110.2,12.2C177.6,96.3,214.5,93.6,252,95.1z"/>
		<path class="st5" d="M231.9,98.6c-18.9-1.5-36.8-1.1-52.3,3.1C196.1,98.7,213.6,98.3,231.9,98.6z"/>
		<path class="st5" d="M223.4,105.8c-19.1-1-45.8,1.2-61,6.8C178.7,108.7,205.1,106.5,223.4,105.8z"/>
		<path class="st5" d="M223,106.5c-16.4-0.1-39.2,2.7-52,8.1C184.8,110.7,207.4,107.8,223,106.5z"/>
		<path class="st5" d="M273.2,104.1c-39.9-5.5-77.5-6.1-110.8,3.5C199,99.5,236,99.7,273.2,104.1z"/>
		<path class="st5" d="M198.1,114.4c18.9-3.1,45.7-3.9,61.4,0C242.9,112.4,216.4,113.1,198.1,114.4z"/>
		<path class="st5" d="M198.6,115c16.3-1.9,39.3-1.6,52.6,2.3C237,115,214.3,114.6,198.6,115z"/>
	</g>
</g>
<g class="st1">
	<g class="st3">
		<path class="st7" d="M344.4,110.3c-3.8,0-6.8-3.1-6.8-6.8c0-3.8,3-6.8,6.8-6.8s6.8,3.1,6.8,6.8
			C351.2,107.2,348.2,110.3,344.4,110.3z"/>
		<path class="st8" d="M344.2,104.1c0-0.1,0.1-0.3,0.3-0.3c0.1,0,0.3,0.1,0.3,0.3c0,0.3,0.1,0.5,0.3,0.7c0.1,0.2,0.4,0.3,0.6,0.3
			s0.4-0.1,0.6-0.3c0.2-0.2,0.3-0.4,0.3-0.7c0-0.6-0.2-1.2-0.6-1.6c-0.3-0.4-0.8-0.6-1.4-0.6c-0.5,0-1,0.2-1.4,0.6s-0.6,1-0.6,1.6
			c0,1,0.3,1.9,0.9,2.5c0.5,0.6,1.3,1,2.1,1c0.8,0,1.6-0.4,2.1-1c0.6-0.6,0.9-1.5,0.9-2.5c0-1.3-0.5-2.5-1.2-3.4s-1.8-1.4-2.9-1.4
			s-2.2,0.5-2.9,1.4c-0.8,0.9-1.2,2.1-1.2,3.4c0,0.1-0.1,0.3-0.3,0.3c-0.1,0-0.3-0.1-0.3-0.3c0-1.5,0.5-2.8,1.4-3.7
			c0.8-1,2-1.6,3.3-1.6s2.5,0.6,3.3,1.6s1.4,2.3,1.4,3.7c0,1.1-0.4,2.1-1,2.8c-0.6,0.7-1.5,1.2-2.5,1.2s-1.9-0.5-2.5-1.2
			s-1-1.7-1-2.8c0-0.8,0.3-1.5,0.7-2c0.4-0.5,1.1-0.8,1.8-0.8c0.7,0,1.3,0.3,1.8,0.8c0.4,0.5,0.7,1.2,0.7,2c0,0.4-0.1,0.8-0.4,1.1
			c-0.2,0.3-0.6,0.5-1,0.5s-0.7-0.2-1-0.5C344.3,104.9,344.2,104.5,344.2,104.1z"/>
	</g>
	<g class="st3">
		<path class="st7" d="M301.2,95.1l-0.4,0.1l0.1,1l0.4-0.1c0.2,0,0.4,0.1,0.5,0.4l0.9,6.2l1-0.1l-0.9-6.2
			C302.8,95.6,302,95,301.2,95.1z"/>
		
			<rect x="300.5" y="99.1" transform="matrix(0.9905 -0.1376 0.1376 0.9905 -11.0298 42.3639)" class="st7" width="0.8" height="3.7"/>
		
			<rect x="315.1" y="91.7" transform="matrix(0.9905 -0.1375 0.1375 0.9905 -10.1319 44.3234)" class="st7" width="1.3" height="7.6"/>
		<polygon class="st7" points="309.5,100.2 310.5,92.6 309.1,92.8 308.1,100.4 		"/>
		<polygon class="st7" points="321.8,98.3 319.9,91.3 318.6,91.4 320.5,98.5 		"/>
		<polygon class="st7" points="322.8,107 324,101.9 321.7,98.3 308.1,100.2 308.4,102.4 		"/>
		<path class="st7" d="M297.7,101.6l22.4-3.1c0.9-0.1,1.7,0.5,1.8,1.4l0.9,6.6c0.1,0.9-0.5,1.7-1.4,1.8l-22.4,3.1
			c-0.9,0.1-1.7-0.5-1.8-1.4l-0.9-6.6C296.2,102.6,296.8,101.8,297.7,101.6z"/>
		<path class="st7" d="M308.2,92.5L308.2,92.5c0-0.3,0.2-0.7,0.5-0.7l10.9-1.5c0.3,0,0.7,0.2,0.7,0.5l0,0c0,0.3-0.2,0.7-0.5,0.7
			L308.9,93C308.5,93.1,308.2,92.8,308.2,92.5z"/>
		
			<rect x="299.3" y="103.4" transform="matrix(0.9905 -0.1375 0.1375 0.9905 -11.5988 42.1862)" class="st8" width="0.5" height="3.3"/>
		
			<rect x="300.4" y="103.2" transform="matrix(0.9905 -0.1375 0.1375 0.9905 -11.5603 42.3349)" class="st8" width="0.5" height="3.3"/>
		
			<rect x="301.5" y="103.1" transform="matrix(0.9905 -0.1375 0.1375 0.9905 -11.5365 42.4864)" class="st8" width="0.5" height="3.3"/>
		
			<rect x="302.6" y="102.9" transform="matrix(0.9905 -0.1375 0.1375 0.9905 -11.4988 42.635)" class="st8" width="0.5" height="3.3"/>
		<g>
			<path class="st7" d="M299.1,115.6c-2.3,0.3-4.4-1.3-4.7-3.5c-0.3-2.3,1.3-4.4,3.5-4.7c2.3-0.3,4.4,1.3,4.7,3.5
				C302.9,113.2,301.3,115.3,299.1,115.6z"/>
			<path class="st8" d="M298.9,114.1c-1.4,0.2-2.7-0.8-2.9-2.2c-0.2-1.4,0.8-2.7,2.2-2.9c1.4-0.2,2.7,0.8,2.9,2.2
				C301.3,112.5,300.3,113.9,298.9,114.1z"/>
			<path class="st7" d="M298.6,112.2c-0.4,0.1-0.8-0.2-0.8-0.6c-0.1-0.4,0.2-0.8,0.6-0.8c0.4-0.1,0.8,0.2,0.8,0.6
				C299.3,111.8,299,112.2,298.6,112.2z"/>
		</g>
		<g>
			<path class="st7" d="M319,112.8c-3.4,0.5-6.5-1.9-7-5.3s1.9-6.5,5.3-7s6.5,1.9,7,5.3C324.8,109.2,322.4,112.4,319,112.8z"/>
			<path class="st8" d="M318.7,110.5c-2.1,0.3-4.1-1.2-4.4-3.3c-0.3-2.1,1.2-4.1,3.3-4.4c2.1-0.3,4.1,1.2,4.4,3.3
				C322.3,108.3,320.8,110.2,318.7,110.5z"/>
			<path class="st7" d="M318.3,107.7c-0.5,0.1-1-0.3-1.1-0.8s0.3-1,0.8-1.1s1,0.3,1.1,0.8C319.2,107.1,318.8,107.6,318.3,107.7z"/>
		</g>
		
			<rect x="299.9" y="98.7" transform="matrix(0.9905 -0.1376 0.1376 0.9905 -10.7686 42.3045)" class="st7" width="1.4" height="0.7"/>
	</g>
	<g class="st3">
		<path class="st7" d="M381.9,110c-0.7,0-1.1,0-1.9,0c0.4-2.9,0.4-5.9,0.3-8.8c0.4,0,0.7,0,1.1,0C381.5,104.3,381.5,107.2,381.9,110
			z"/>
		<path class="st7" d="M381,82.3c2.9,2.9,8.1,21.6,0.6,22.6c-0.5,0-0.9,0-1.4,0C373,103.7,378.1,85.7,381,82.3z"/>
	</g>
	<g class="st3">
		<path class="st7" d="M419,110c-1.1,0-1.7,0-2.8,0c0.6-4.4,0.6-8.8,0.5-13.3c0.5,0,1.1,0,1.6,0C418.4,101.4,418.5,105.8,419,110z"
			/>
		<path class="st7" d="M417.7,68.4c4.4,4.4,12.1,32.4,0.9,33.9c-0.7,0.1-1.4,0.1-2.1,0C405.7,100.5,413.3,73.6,417.7,68.4z"/>
	</g>
	<g class="st3">
		<path class="st7" d="M405.5,110c-0.9,0-1.3,0-2.2,0c0.5-3.4,0.5-6.9,0.4-10.4c0.4,0,0.9,0,1.3,0C405,103.3,405.1,106.7,405.5,110z
			"/>
		<path class="st7" d="M404.5,77.5c3.4,3.5,9.5,25.3,0.7,26.5c-0.5,0.1-1.1,0-1.6,0C395.1,102.6,401,81.5,404.5,77.5z"/>
	</g>
	<g class="st3">
		<path class="st7" d="M394.2,110c-0.9,0-1.4,0-2.4,0c0.5-3.7,0.5-7.4,0.4-11.2c0.5,0,0.9,0,1.4,0
			C393.6,102.7,393.7,106.5,394.2,110z"/>
		<path class="st7" d="M393,75c3.7,3.7,10.2,27.3,0.8,28.5c-0.6,0.1-1.2,0.1-1.7,0C382.9,102,389.3,79.3,393,75z"/>
	</g>
	<g class="st3">
		<path class="st7" d="M248.2,129.5c-0.7,0-1.1,0-1.8,0c0.4-2.8,0.4-5.6,0.3-8.3c0.3,0,0.7,0,1,0C247.8,124,247.8,126.8,248.2,129.5
			z"/>
		<path class="st7" d="M247.3,103.3c2.8,2.8,7.6,20.4,0.6,21.3c-0.4,0-0.9,0-1.3,0C239.7,123.5,244.6,106.5,247.3,103.3z"/>
	</g>
	<g class="st3">
		<path class="st7" d="M239.5,131.4c-0.6,0-0.9,0-1.5,0c0.3-2.4,0.3-4.8,0.3-7.2c0.3,0,0.6,0,0.9,0
			C239.1,126.8,239.2,129.1,239.5,131.4z"/>
		<path class="st7" d="M238.7,109c2.4,2.4,6.5,17.5,0.5,18.3c-0.4,0-0.7,0-1.1,0C232.2,126.3,236.4,111.8,238.7,109z"/>
	</g>
	<g class="st3">
		<path class="st7" d="M231.6,134.2c-0.5,0-0.8,0-1.4,0c0.3-2.1,0.3-4.3,0.2-6.4c0.3,0,0.5,0,0.8,0
			C231.3,130,231.3,132.2,231.6,134.2z"/>
		<path class="st7" d="M230.9,114.1c2.1,2.1,5.9,15.7,0.4,16.4c-0.3,0-0.7,0-1,0C225.1,129.6,228.8,116.6,230.9,114.1z"/>
	</g>
	<g class="st3">
		<path class="st7" d="M119.3,193.9c89.9,0,216,0,305.9,0c0-26.3,0-58.3,0-84.6C317.9,102.7,192.5,126.5,119.3,193.9z"/>
		<g>
			<path class="st8" d="M381,194.7h8.1c2.5-17.8,6.5-25.9,12-41.2c6.1-16.6,13.7-31.6,22.3-44.3c-3.1-0.2-6.1-0.3-9.2-0.5
				c-7.9,12.4-15,26.6-20.7,42.2C387.8,166.9,383.5,175.9,381,194.7z"/>
			<path class="st8" d="M360,194.7h8.1c2.5-17.8,6.5-25.9,12-41.2c6.2-17,14.1-32.2,22.9-45.1c-3.1-0.1-6.3-0.1-9.5-0.2
				c-8.1,12.5-15.2,26.9-21,42.7C366.6,166.9,362.5,175.9,360,194.7z"/>
			<path class="st8" d="M338.8,194.7h8.1c2.5-17.8,6.5-25.9,12-41.2c6.2-17.1,14.1-32.3,23-45.3c-3.2,0-6.4,0.1-9.7,0.2
				c-8,12.4-15.1,26.7-20.9,42.5C345.5,166.9,341.2,175.9,338.8,194.7z"/>
			<path class="st8" d="M317.6,194.7h8.1c2.5-17.8,6.5-25.9,12-41.2c6.1-16.8,13.8-31.8,22.5-44.6c-3.3,0.2-6.6,0.4-9.9,0.6
				c-7.7,12.2-14.6,26.1-20.2,41.5C324.3,166.9,320.1,175.9,317.6,194.7z"/>
			<path class="st8" d="M296.5,194.7h8.1c2.5-17.8,6.5-25.9,12-41.2c5.9-16.1,13.2-30.6,21.5-43.1c-3.4,0.3-6.7,0.6-10.1,1
				c-7.2,11.7-13.7,25-19,39.5C303.1,166.9,299,175.9,296.5,194.7z"/>
			<path class="st8" d="M275.2,194.7h8.1c2.5-17.8,6.5-25.9,12-41.2c5.5-15,12.2-28.6,19.8-40.5c-3.4,0.5-6.9,1-10.3,1.5
				c-6.5,11-12.3,23.2-17.2,36.5C282,166.9,277.8,175.9,275.2,194.7z"/>
			<path class="st8" d="M254.1,194.7h8.1c2.5-17.8,6.5-25.9,12-41.2c4.9-13.5,10.9-25.8,17.5-36.8c-3.5,0.6-7,1.3-10.4,2
				c-5.5,9.8-10.5,20.6-14.7,32.2C260.8,166.9,256.6,175.9,254.1,194.7z"/>
			<path class="st8" d="M232.9,194.7h8.1c2.5-17.8,6.4-25.9,12.1-41.2c4.2-11.4,9.1-22,14.5-31.6c-3.5,0.9-7,1.8-10.5,2.7
				c-4.3,8.2-8.1,17-11.6,26.4C239.7,166.9,235.4,175.9,232.9,194.7z"/>
			<path class="st8" d="M211.9,194.7h8.1c2.5-17.8,6.4-25.9,12.1-41.2c3.2-8.8,6.8-17,10.8-24.8c-3.6,1.1-7.1,2.3-10.6,3.5
				c-2.8,6-5.4,12.2-7.8,18.7C218.5,166.9,214.4,175.9,211.9,194.7z"/>
			<path class="st8" d="M190.6,194.7h8.1c2.5-17.8,6.4-25.9,12.1-41.2c2-5.4,4.1-10.7,6.5-15.8c-3.6,1.4-7.1,2.9-10.6,4.4
				c-1.2,2.9-2.3,5.8-3.4,8.8C197.4,166.9,193.1,175.9,190.6,194.7z"/>
			<path class="st8" d="M169.6,194.7h8.1c2.5-17.8,6.4-25.9,12.1-41.2c0.5-1.4,1-2.7,1.5-4.1c-3.6,1.8-7.1,3.7-10.6,5.6
				C175.5,169.9,171.9,177.5,169.6,194.7z"/>
			<path class="st8" d="M148.4,194.7h8.1c1.9-13.6,4.6-18,8.4-30.1c-3.5,2.3-7,4.7-10.4,7.2C151.7,181.8,149.9,183.7,148.4,194.7z"
				/>
			<path class="st8" d="M127.1,194.7h8.1c0.9-6.4,1.8-4.1,3.1-10.2c-3.4,3-6.8,6.1-10,9.3C127.9,196.8,127.6,191.4,127.1,194.7z"/>
			<path class="st8" d="M402.2,194.7h8.1c2.5-17.8,6.5-25.9,12-41.2c0.9-2.5,1.8-4.9,2.8-7.3v-19.4c-3.8,7.6-7.3,15.6-10.4,24.1
				C408.9,166.9,404.8,175.9,402.2,194.7z"/>
		</g>
	</g>
	<g class="st3">
		<path class="st7" d="M360,107.1c-2.7-2.7-2.7-7,0-9.6c2.7-2.7,7-2.7,9.6,0c2.7,2.7,2.7,7,0,9.6C367,109.8,362.7,109.8,360,107.1z"
			/>
		<path class="st8" d="M364.2,102.5c0.1-0.1,0.3-0.1,0.4,0s0.1,0.3,0,0.4c-0.2,0.2-0.3,0.4-0.3,0.7c0,0.2,0.1,0.4,0.2,0.6
			c0.2,0.2,0.4,0.2,0.6,0.2s0.5-0.1,0.7-0.3c0.4-0.4,0.7-1,0.7-1.5s-0.1-1-0.5-1.4s-0.9-0.5-1.4-0.5s-1.1,0.3-1.5,0.7
			c-0.7,0.7-1.1,1.6-1.1,2.4c-0.1,0.8,0.2,1.6,0.8,2.2c0.6,0.6,1.4,0.8,2.2,0.8c0.8-0.1,1.7-0.4,2.4-1.1c0.9-0.9,1.5-2.1,1.5-3.3
			c0.1-1.1-0.3-2.2-1.1-3s-1.9-1.2-3-1.1s-2.3,0.6-3.3,1.5c-0.1,0.1-0.3,0.1-0.4,0s-0.1-0.3,0-0.4c1-1,2.3-1.6,3.6-1.7
			c1.3-0.1,2.5,0.3,3.5,1.2c0.9,0.9,1.3,2.2,1.2,3.5c-0.1,1.3-0.7,2.6-1.7,3.6c-0.8,0.8-1.8,1.2-2.7,1.3c-1,0.1-1.9-0.2-2.6-0.9
			c-0.7-0.7-1-1.7-0.9-2.6c0.1-1,0.5-2,1.3-2.7c0.5-0.5,1.2-0.8,1.9-0.9c0.7,0,1.3,0.2,1.8,0.7s0.7,1.2,0.7,1.8
			c0,0.7-0.3,1.4-0.9,1.9c-0.3,0.3-0.7,0.5-1,0.5c-0.4,0-0.7-0.1-1-0.4s-0.4-0.6-0.4-1C363.7,103.2,363.9,102.8,364.2,102.5z"/>
	</g>
	<path class="st9" d="M58,109.5L60.5,90c4-4,3.2,1.2,5.9,0c1-0.4,1-0.7,1.5-0.8c1.1-0.2,1.2,0.7,1.9,0.7c0.3,0,0.6,0,1.2-0.4
		c1-0.7,1.6,0.9,3.2,0.5c1.9-0.5,2.2,1.3,4.1,1.4c0.5,0,1.1,0.1,1.8-0.4c0.6-0.4,1.7-0.8,2.8,0.5c0.9,1.1,1.1-1.5,3.9,0.5
		c0.5,0.3,0.8-0.2,1.7-0.2c0.4,0,0.9,0.3,1.5,0.5c2.2,0.7,1.9-1,3.5,0.2c0.9,0.7,0.6,0.5,1.8,0.4c0.6,0,1.3,0.1,1.9,0.6
		c1.5,1.3,2.4-1.5,4.3,0.2c1.3,1.2,2.8-0.7,3.8,0.8c0.3,0.5,1.8-0.6,3.4,1c0.5,0.5,1.5-0.2,2.7,0c0.5,0.1,1,0.4,1.5,0.7
		c0.6,0.4,1.3-0.3,2.9,0c0.5,0.1,1.2,0.3,1.9,0.8c1.7,1.2,2.9-1.9,5.9,0.5c1.7,1.3,2.4-0.7,4.5,1.1c1.7,1.5,3.8-1,5.3,0.3
		c0.8,0.7,2.7,1.7,3.9,1.1c2.3-1.1,3.5,2.2,5.9,1.2c2.3-1,1.4,1.5,4.2,0.9c1.2-0.3,1,1,2.9,0.7c1.1-0.2,1,1.1,3.6,0.6
		c1.2-0.2,1.1,2.3,4.6,1c1.2-0.5,1.6,2.4,4.1,1.1c0.5-0.3,1.9,1.1,3.4,0.7c1.6-0.4,1.1,1.5,4,1.1c2.2-0.3,2.5,2,5.4,2
		c1.3,0,2.4,1.1,3,1s2.3,0,2.6,0.6c1.1,1.8,2.9,0.8,3.4,1.7c0.9,1.5,2.3,0.8,3.3,2.2c0.9,1.3,4.9,0.1,5.5,2.1
		c0.2,0.9,1.9,0.1,2.4,1.2c0.5,1.3,2.9,0.2,3.3,1.9c0.2,0.9,1,0.5,1.7,0.9c0.3,0.1,0.5,0.9,0.7,1.3c0.3,0.4,1.9-0.1,2.2,1.3
		c0.1,0.2-0.1,0.5,0.2,0.9c0.5,0.8,1,0.7,1.7,1.3c1,0.9,0.3,1.8,1.7,3.2L58,109.5z"/>
	<g class="st3">
		<path class="st10" d="M186,121.1c0.6,0,1,0,1.6,0c-0.3-2.5-0.3-5-0.3-7.4c-0.3,0-0.6,0-0.9,0C186.4,116.3,186.3,118.7,186,121.1z"
			/>
		<path class="st10" d="M186.8,96.3c-2.5,2.5-6.8,18.2-0.5,19c0.4,0,0.8,0,1.2,0C193.5,114.3,189.2,99.1,186.8,96.3z"/>
	</g>
	<g class="st3">
		<path class="st10" d="M194.2,122.3c0.5,0,0.9,0,1.4,0c-0.3-2.2-0.3-4.5-0.3-6.7c-0.3,0-0.5,0-0.8,0
			C194.5,117.9,194.5,120.2,194.2,122.3z"/>
		<path class="st10" d="M194.9,99.6c-2.2,2.2-6.1,16.3-0.5,17.1c0.4,0,0.7,0,1,0C201,115.8,197.1,102.2,194.9,99.6z"/>
	</g>
	<g class="st3">
		<path class="st10" d="M305.9,194.7c-89.9,0-216,0-305.9,0c0-27.4,0-70.4,0-97.7C107.3,90.1,235.2,112.5,305.9,194.7z"/>
		<g>
			<path class="st11" d="M44.4,194.7h-8.1c-2.5-18.5-6.7-35.9-12.3-51.8c-6.1-17.3-13.7-32.8-22.3-46c3.1-0.2,6.1-0.4,9.2-0.5
				c7.9,12.9,15,27.6,20.7,43.9C37.4,157,41.9,175.2,44.4,194.7z"/>
			<path class="st11" d="M65.5,194.7h-8.1c-2.5-18.5-6.7-35.9-12.3-51.8C38.9,125.2,31,109.4,22.2,96c3.1-0.1,6.3-0.1,9.5-0.2
				c8.1,13,15.2,27.9,21,44.4C58.6,157,63,175.2,65.5,194.7z"/>
			<path class="st11" d="M86.7,194.7h-8.1c-2.5-18.5-6.7-35.9-12.3-51.8c-6.2-17.7-14.1-33.6-23-47c3.2,0,6.4,0.1,9.7,0.2
				c8,12.9,15.1,27.8,20.9,44.2C79.7,157,84.2,175.2,86.7,194.7z"/>
			<path class="st11" d="M107.8,194.7h-8.1c-2.5-18.5-6.7-35.9-12.3-51.8c-6.1-17.4-13.8-33.1-22.5-46.4c3.3,0.2,6.6,0.4,9.9,0.6
				c7.7,12.7,14.6,27.2,20.2,43.1C100.9,157,105.3,175.2,107.8,194.7z"/>
			<path class="st11" d="M129,194.7h-8.1c-2.5-18.5-6.7-35.9-12.3-51.8c-5.9-16.7-13.2-31.8-21.5-44.8c3.4,0.3,6.7,0.7,10.1,1
				c7.2,12.2,13.7,26,19,41.1C122.1,157,126.5,175.2,129,194.7z"/>
			<path class="st11" d="M150.2,194.7H142c-2.5-18.5-6.7-35.9-12.3-51.8c-5.5-15.6-12.2-29.8-19.8-42.1c3.4,0.5,6.9,1,10.3,1.5
				c6.5,11.4,12.3,24.1,17.2,37.9C143.2,157,147.6,175.2,150.2,194.7z"/>
			<path class="st11" d="M171.3,194.7h-8.1c-2.5-18.5-6.7-35.9-12.3-51.8c-4.9-14-10.9-26.8-17.5-38.2c3.5,0.7,7,1.4,10.4,2.1
				c5.5,10.2,10.5,21.4,14.7,33.4C164.4,157,168.8,175.2,171.3,194.7z"/>
			<path class="st11" d="M192.5,194.7h-8.1c-2.5-18.5-6.7-35.9-12.3-51.8c-4.2-11.8-9.1-22.9-14.5-32.9c3.5,0.9,7,1.8,10.5,2.8
				c4.3,8.5,8.1,17.7,11.6,27.4C185.5,157,190,175.2,192.5,194.7z"/>
			<path class="st11" d="M213.6,194.7h-8.1c-2.5-18.5-6.7-35.9-12.3-51.8c-3.2-9.1-6.8-17.7-10.8-25.7c3.6,1.2,7.1,2.4,10.6,3.6
				c2.8,6.2,5.4,12.7,7.8,19.5C206.7,157,211.1,175.2,213.6,194.7z"/>
			<path class="st11" d="M234.8,194.7h-8.1c-2.5-18.5-6.7-35.9-12.3-51.8c-2-5.7-4.1-11.1-6.5-16.4c3.6,1.5,7.1,3,10.6,4.6
				c1.2,3,2.3,6,3.4,9.2C227.8,157,232.3,175.2,234.8,194.7z"/>
			<path class="st11" d="M255.9,194.7h-8.1c-2.5-18.5-6.7-35.9-12.3-51.8c-0.5-1.4-1-2.9-1.5-4.3c3.6,1.9,7.1,3.8,10.6,5.9
				C249.7,160,253.6,176.9,255.9,194.7z"/>
			<path class="st11" d="M277.1,194.7H269c-1.9-14.1-4.8-27.6-8.6-40.3c3.5,2.4,7,4.9,10.4,7.5C273.5,172.4,275.6,183.4,277.1,194.7
				z"/>
			<path class="st11" d="M298.3,194.7h-8.1c-0.9-6.7-2-13.2-3.3-19.6c3.4,3.1,6.8,6.3,10,9.6C297.3,188,297.8,191.4,298.3,194.7z"/>
			<path class="st11" d="M23.2,194.7h-8.1c-2.5-18.5-6.7-35.9-12.3-51.8c-0.9-2.6-1.8-5.1-2.8-7.6v-20.1c3.8,7.9,7.3,16.3,10.4,25.1
				C16.3,157,20.7,175.2,23.2,194.7z"/>
		</g>
	</g>
</g>
<g class="st1">
	<g class="st3">
		<path class="st12" d="M264.5,148.4C264.5,148.5,264.5,148.5,264.5,148.4c-0.1,0.2-0.1,0.4-0.1,0.5s0,0.1,0,0.1
			c0.1,0,0.1,0,0.1,0.1c0,0,0,0,0,0.1l0,0c0,0,0,0-0.1,0v0.1c0,0.1-0.1,0.1-0.2,0.1l0,0l0,0c0,0.1-0.1,0.1-0.2,0.1
			c-0.2,0.1-0.3,0-0.5,0.1c-0.1,0-0.2,0-0.3,0.1h-0.1c0,0,0,0-0.1,0c0,0,0,0,0.1,0l0.1-0.1c0,0,0.1,0,0.2,0l0,0c0,0,0,0,0.1,0l0,0
			c0-0.1-0.3-0.1-0.3-0.1c-0.1,0-0.1,0-0.1,0l0,0l0,0c0-0.1,0.3,0,0.3,0c0.1,0,0.1,0,0.1,0l0,0c-0.1,0-0.1,0-0.1,0l0,0l0,0
			c0,0,0.2,0,0.3,0l0,0l0,0c0.1,0,0.2,0,0.2,0s0,0,0-0.1l0,0c0.1-0.1,0.1-0.3,0.1-0.4c-0.2,0-0.3-0.1-0.4-0.2
			c-0.3-0.1-0.6-0.4-0.8-0.7c-0.6-0.4-1.2-1.2-1.5-1.8c-0.1-0.2-0.2-0.4-0.2-0.6c-0.1-0.2-0.1-0.4-0.1-0.7c0-0.1,0-0.2,0.1-0.3
			c0-0.1,0.1-0.2,0.2-0.3c0-0.1,0.1-0.1,0.2-0.2c0.2-0.3,0.4-0.6,0.5-0.8c0.1-0.3,0.3-0.6,0.4-0.8c0.1-0.3,0.2-0.6,0.3-0.9
			c0-0.1,0.1-0.3,0.1-0.5c0-0.1,0-0.1,0-0.2c0,0,0,0,0-0.1h-0.1h-0.1h-0.1c0,0-0.1,0-0.1-0.1c-0.1-0.1-0.2-0.1-0.2-0.2
			c-0.1-0.1-0.1-0.1-0.2-0.1l0,0c-0.2,0-0.4,0-0.4,0c-0.1,0-0.1,0-0.1-0.1s0-0.1,0.1-0.1c0.1-0.1,0.2-0.1,0.3-0.2
			c0.1,0,0.1-0.1,0.1-0.2c0-0.1,0-0.2,0-0.3l0.1-0.1c0.1,0,0.2,0,0.3,0c0.4,0,1,0.3,1.3,0.6c0.3,0.5,0.2,0.9,0.1,1.4
			s-0.3,0.9-0.5,1.4c-0.1,0.2-0.1,0.5-0.1,0.7s0,0.5,0.2,0.6c0.7,0.4,1.8,1.2,2.3,1.8c0.3,0.1,0.7,0.3,1,0.5c0.4,0,0.8-0.2,1.2-0.4
			l0,0l0,0l0,0c0,0.2-0.1,0.4-0.3,0.6c0,0.3-0.2,0.5-0.4,0.7c-0.1,0.4-0.6,0.6-0.9,0.7C265.6,148.1,265.1,148.4,264.5,148.4
			L264.5,148.4z M264.2,149.1L264.2,149.1L264.2,149.1c0.1-0.1,0.1-0.3,0.1-0.5l0,0C264.2,148.8,264.2,148.9,264.2,149.1z"/>
		<path class="st12" d="M256,140.9c-0.3-0.5-1-0.6-1.3-0.1c-0.1,0-0.4,0.3-0.6,0.4l-0.1,0.1c0,0,0,0.1,0.1,0.1c0.1,0.1,0.6,0,0.6,0
			c0.2,0,0.2,0.1,0.5,0.1c0.2,0,0.2,0.1,0.3,0.2c0,0.2,0.1,0.9,0,1.7c-0.2,0.9-0.9,1.1-0.7,2.3c0.1,0.4,0.3,0.7,0.7,1.1
			c0.3,0.3,0.7,0.6,1,0.9c0.2,0.3,0.4,0.6,0.7,0.7c0,0.3,0,0.6,0,0.8c0,0,0,0-0.1,0c0,0-0.1,0,0,0.1c0,0-0.1,0.1-0.3,0.1
			c-0.1,0-0.3,0-0.3,0l0,0l0,0h0.1c0,0,0.2,0,0.3,0c-0.1,0-0.1,0-0.3,0c-0.1,0-0.3,0-0.4,0l0,0l0,0h0.1c0.1,0,0.2,0,0.3,0
			c0,0-0.1,0-0.1,0.1c0,0,0,0-0.1,0c0,0,0,0,0.1,0l0,0c-0.1,0-0.1,0-0.1,0c-0.1,0-0.1,0-0.2,0.1c0,0,0,0-0.1,0c0,0,0,0,0.1,0h0.1
			c0.1,0,0.2,0,0.3-0.1c0.2,0,0.3,0,0.5-0.1c0.1,0,0.2,0,0.2-0.1c0,0,0,0,0-0.1h0.1h0.1l0,0v-0.1l0,0V149l0.1,0.1l0,0V149
			c0-0.1-0.1,0-0.1-0.1s0-0.1,0-0.2c0-0.2,0-0.4,0-0.5c0.9,0.1,1.8-0.4,2.2-1.2c0.3-0.1,0.9-0.4,1.1-0.9c-0.5,0.1-0.7-0.2-1.1-0.2
			c-0.3-0.2-0.6-0.3-0.9-0.4c-0.8-0.6-1.6-1-2.5-1.4c-0.3-0.4-0.3-1.5-0.3-2.2C256.3,141.8,256.3,141.3,256,140.9z"/>
		<path class="st12" d="M253.3,148.8c-0.3-0.1-0.6-0.4-0.6-0.7c0-0.2,0-0.3,0.1-0.5c0-0.1,0-0.1,0-0.2c-0.1,0-0.2,0-0.2-0.1
			c-0.1,0-0.2,0-0.3,0l0,0l0.1-0.1c0.1,0,0.1-0.1,0.2-0.2c0.1-0.4,0.6-0.5,0.8-0.2c0.1,0.1,0.1,0.3,0,0.5c-0.1,0.1-0.1,0.2,0,0.3
			s0.3,0,0.4,0c0.5,0,0.9,0.3,1.2,0.7c0.1,0.1,0.3,0.2,0.4,0.2c-0.1,0.3-0.5,0.4-0.8,0.4c-0.1,0.1-0.2,0.1-0.3,0.1
			c0,0.1,0,0.2,0,0.3v0.1c0,0,0.1,0,0.1,0.1l0,0l0,0h-0.1v0.1l-0.1,0.1c-0.1,0-0.2,0-0.3,0.1c-0.1,0-0.1,0-0.2,0h-0.1l0,0l0,0h0.1
			c0,0,0.1,0,0.1-0.1h-0.1h-0.1l0,0c-0.1,0-0.1,0-0.1,0h-0.1l0,0l0,0h0.1c0,0,0.1,0,0.1-0.1h-0.1h-0.1l0,0l0,0c0,0,0.2,0,0.3,0h0.1
			c0,0,0.1,0,0.1-0.1l0,0c0.1,0,0.1,0,0.1,0c0-0.1,0.1-0.1,0.1-0.2C253.6,149.1,253.5,149,253.3,148.8L253.3,148.8z M253.9,149.2
			L253.9,149.2v0.1v0.1h0.1c0-0.1,0-0.2,0.1-0.2C254,149.2,254,149.2,253.9,149.2L253.9,149.2z M254,149.5L254,149.5
			C254,149.5,253.9,149.4,254,149.5c-0.1,0-0.1,0-0.1,0.1C253.9,149.5,253.9,149.5,254,149.5L254,149.5L254,149.5z M253.7,149.6
			L253.7,149.6L253.7,149.6L253.7,149.6L253.7,149.6C253.8,149.6,253.8,149.6,253.7,149.6C253.8,149.6,253.7,149.6,253.7,149.6z"/>
		<path class="st12" d="M250.8,149c-0.2-0.1-0.5-0.3-0.5-0.6c0-0.1,0-0.3,0.1-0.4v-0.1c-0.1,0-0.1,0-0.2-0.1c-0.1,0-0.2,0-0.3,0l0,0
			l0.1-0.1c0.1,0,0.1-0.1,0.2-0.1c0.1-0.3,0.5-0.4,0.7-0.1c0.1,0.1,0.1,0.3,0,0.4c-0.1,0.1,0,0.2,0,0.2c0.1,0,0.2,0,0.3,0
			c0.4,0,0.7,0.2,1,0.6c0.1,0.1,0.2,0.1,0.4,0.2c-0.1,0.2-0.4,0.4-0.7,0.3c-0.1,0-0.2,0.1-0.3,0.1c0,0.1,0,0.2,0,0.2s0,0,0,0.1
			c0,0,0.1,0,0.1,0.1l0,0l0,0c0,0,0,0-0.1,0c0,0,0,0,0,0.1h-0.1c-0.1,0-0.2,0-0.3,0s-0.1,0-0.2,0c0,0,0,0-0.1,0l0,0l0,0
			c0,0,0,0,0.1,0c0,0,0.1,0,0.1-0.1H251c0,0,0,0-0.1,0l0,0h-0.1c0,0,0,0-0.1,0l0,0l0,0c0,0,0,0,0.1,0c0,0,0.1,0,0.1-0.1h-0.1
			c0,0,0,0-0.1,0l0,0l0,0h0.2c0,0,0,0,0.1,0l0,0l0,0h0.1c0,0,0.1-0.1,0.1-0.2C251.1,149.2,251,149.1,250.8,149L250.8,149z
			 M251.3,149.2L251.3,149.2C251.3,149.3,251.3,149.3,251.3,149.2c0,0.1,0,0.1,0,0.2c0,0,0,0,0.1,0
			C251.4,149.4,251.4,149.3,251.3,149.2C251.4,149.2,251.4,149.2,251.3,149.2L251.3,149.2z M251.4,149.5L251.4,149.5
			C251.3,149.5,251.3,149.4,251.4,149.5C251.3,149.5,251.3,149.5,251.4,149.5C251.3,149.5,251.3,149.5,251.4,149.5L251.4,149.5
			L251.4,149.5z M251.2,149.5L251.2,149.5C251.1,149.6,251.1,149.6,251.2,149.5C251.1,149.6,251.1,149.6,251.2,149.5
			C251.1,149.6,251.2,149.6,251.2,149.5C251.2,149.6,251.2,149.5,251.2,149.5L251.2,149.5z"/>
		<path class="st12" d="M248.4,148.8c0.3-0.1,0.6-0.4,0.6-0.7c0-0.2,0-0.3-0.1-0.5c0-0.1,0-0.1,0-0.2c0.1,0,0.2,0,0.2-0.1
			c0.1,0,0.2,0,0.3,0l0,0l-0.1-0.1c-0.1,0-0.1-0.1-0.2-0.2c-0.1-0.4-0.6-0.5-0.8-0.2c-0.1,0.1-0.1,0.3,0,0.5c0.1,0.1,0.1,0.2,0,0.3
			s-0.3,0-0.4,0c-0.5,0-0.9,0.3-1.2,0.7c-0.1,0.1-0.3,0.2-0.4,0.2c0.1,0.2,0.5,0.4,0.8,0.4c0.1,0.1,0.2,0.1,0.3,0.1
			c0,0.1,0,0.2,0,0.3v0.1c0,0-0.1,0-0.1,0.1l0,0l0,0h0.1v0.1l0.1,0.1c0.1,0,0.2,0,0.3,0.1c0.1,0,0.1,0,0.2,0h0.1l0,0l0,0H248
			c0,0-0.1,0-0.1-0.1h0.1h0.1l0,0h0.1h0.1l0,0l0,0h-0.1c0,0-0.1,0-0.1-0.1h0.1h0.1l0,0l0,0c0,0-0.2,0-0.3,0h-0.1c0,0-0.1,0-0.1-0.1
			l0,0c-0.1,0-0.1,0-0.1,0c0-0.1-0.1-0.1-0.1-0.2C248.1,149.1,248.3,149,248.4,148.8L248.4,148.8z M247.8,149.2L247.8,149.2v0.1v0.1
			h-0.1c0-0.1,0-0.2-0.1-0.2C247.7,149.2,247.8,149.2,247.8,149.2L247.8,149.2z M247.8,149.5L247.8,149.5
			C247.8,149.5,247.8,149.4,247.8,149.5c0.1,0,0.1,0,0.1,0.1C247.8,149.5,247.8,149.5,247.8,149.5L247.8,149.5L247.8,149.5z
			 M248,149.6L248,149.6C248.1,149.6,248.1,149.6,248,149.6C248.1,149.6,248.1,149.6,248,149.6C248.1,149.6,248,149.6,248,149.6
			L248,149.6L248,149.6z"/>
	</g>
	<g class="st3">
		<g>
			<path class="st13" d="M173.6,147.7c-1.5,0-2.4,0-4,0c0.9-7.8,0.9-15.6,0.7-23.5c0.8,0,1.5,0,2.3,0
				C172.7,132.4,172.8,140.2,173.6,147.7z"/>
			<path class="st13" d="M159.9,126.9c-0.7,2.7,1.6,7.9,6.1,8c3.2,2,7.8,1.9,10.3,0c4.7-0.4,7.1-4.2,6.6-8.4c1.4-3.8,2-7.5-1.1-10.9
				c0.4-4.5-1.7-8-5.3-10.4c-1.9-4.7-7.4-4.9-9.3-0.1c-2.9,0.8-5.6,5.3-5.4,9C158.6,117.5,158.4,122.9,159.9,126.9z"/>
		</g>
		<g>
			<path class="st13" d="M129.9,147.7c-1.8,0-2.8,0-4.6,0c1-9,1-18.1,0.8-27.2c0.9,0,1.8,0,2.7,0C128.9,129.9,128.9,139,129.9,147.7
				z"/>
			<path class="st13" d="M133,95.9c2.5,0.9,4.2,3.6,4.5,6.3c3.3,1.6,5.8,5,5.5,9.1c3.3,1.4,4.7,6.2,4.3,11c2.5,2.6,1,10.9-8.6,12.7
				c-4.1,6.2-16.8,6.2-20.9,0c-9.7-0.2-12.9-10-9.6-13.1c-0.9-4.6,0.8-8.5,4.2-10c0.5-5.1,2-8.9,6.1-10.7c0.7-2.9,2.5-4.8,5.5-5.9
				C124.9,88.6,132.6,90.2,133,95.9z"/>
		</g>
		<g>
			<path class="st13" d="M152.2,147.7c-1.4,0-2.2,0-3.5,0c0.8-6.9,0.8-13.8,0.6-20.7c0.7,0,1.4,0,2,0
				C151.5,134.2,151.5,141.1,152.2,147.7z"/>
			<path class="st13" d="M145,137.3c-2.1,0.9-5.7-0.9-5.8-3.3c-1.5-0.9-2.6-3.3-2.1-5.5c-1.5-2.4-1.7-5.1-0.3-8.1
				c-0.7-2.7-0.6-5.6,1.8-7.8c-0.2-2.9,0.9-5.7,3.7-7.8c0.3-2.7,2-4.8,4.7-5.6c1.7-3.2,5.7-2.8,7.1,0.1c2.9,1.1,3.9,3.4,4.2,6.1
				c2.8,2.1,3.8,4.7,3.7,7.6c2.4,2.3,2.7,4.8,2,7.6c1.5,3,1.5,5.7,0,8.1c0.5,2.2-0.3,4.2-1.5,5.5c0,2.4-4,4.1-6,3.3
				C153.5,139.6,147.9,139.6,145,137.3z"/>
		</g>
	</g>
	<g class="st3">
		<g>
			<rect x="67.4" y="85.1" class="st13" width="3.3" height="65.3"/>
			<path class="st13" d="M59.1,77.5c4.9,0,8.9,4,8.9,8.9s-4,8.9-8.9,8.9s-8.9-4-8.9-8.9C50.2,81.5,54.2,77.5,59.1,77.5z"/>
			<rect x="50.2" y="86.4" class="st13" width="17.8" height="64"/>
			<g>
				<rect x="51" y="90.4" class="st14" width="16.3" height="0.4"/>
				<rect x="51" y="94.4" class="st14" width="16.3" height="0.4"/>
				<rect x="51" y="98.4" class="st14" width="16.3" height="0.4"/>
				<rect x="51" y="102.3" class="st14" width="16.3" height="0.4"/>
				<rect x="51" y="106.3" class="st14" width="16.3" height="0.4"/>
				<rect x="51" y="110.3" class="st14" width="16.3" height="0.4"/>
				<rect x="51" y="114.2" class="st14" width="16.3" height="0.4"/>
				<rect x="51" y="118.2" class="st14" width="16.3" height="0.4"/>
				<rect x="51" y="122.2" class="st14" width="16.3" height="0.4"/>
				<rect x="51" y="126.2" class="st14" width="16.3" height="0.4"/>
				<rect x="51" y="130.1" class="st14" width="16.3" height="0.4"/>
				<rect x="51" y="134.1" class="st14" width="16.3" height="0.4"/>
				<rect x="51" y="138.1" class="st14" width="16.3" height="0.4"/>
				<rect x="51" y="142" class="st14" width="16.3" height="0.4"/>
				<rect x="51" y="146" class="st14" width="16.3" height="0.4"/>
			</g>
		</g>
		<g>
			<rect x="47.7" y="77.1" class="st13" width="3.3" height="73.3"/>
			<ellipse class="st13" cx="39.3" cy="78.5" rx="8.9" ry="8.9"/>
			<rect x="30.4" y="78.5" class="st13" width="17.8" height="71.9"/>
			<g>
				<rect x="31.2" y="82.5" class="st14" width="16.3" height="0.4"/>
				<rect x="31.2" y="86.4" class="st14" width="16.3" height="0.4"/>
				<rect x="31.2" y="90.4" class="st14" width="16.3" height="0.4"/>
				<rect x="31.2" y="94.4" class="st14" width="16.3" height="0.4"/>
				<rect x="31.2" y="98.4" class="st14" width="16.3" height="0.4"/>
				<rect x="31.2" y="102.3" class="st14" width="16.3" height="0.4"/>
				<rect x="31.2" y="106.3" class="st14" width="16.3" height="0.4"/>
				<rect x="31.2" y="110.3" class="st14" width="16.3" height="0.4"/>
				<rect x="31.2" y="114.2" class="st14" width="16.3" height="0.4"/>
				<rect x="31.2" y="118.2" class="st14" width="16.3" height="0.4"/>
				<rect x="31.2" y="122.2" class="st14" width="16.3" height="0.4"/>
				<rect x="31.2" y="126.2" class="st14" width="16.3" height="0.4"/>
				<rect x="31.2" y="130.1" class="st14" width="16.3" height="0.4"/>
				<rect x="31.2" y="134.1" class="st14" width="16.3" height="0.4"/>
				<rect x="31.2" y="138.1" class="st14" width="16.3" height="0.4"/>
				<rect x="31.2" y="142" class="st14" width="16.3" height="0.4"/>
				<rect x="31.2" y="146" class="st14" width="16.3" height="0.4"/>
			</g>
		</g>
	</g>
	<g class="st3">
		<path class="st12" d="M113.4,138.7c9.7,0,19.3,0.3,29,0.6s19.4,0.8,29.2,1.3l-0.1,2c-9.8-0.5-19.5-1-29.1-1.3
			c-9.7-0.3-19.3-0.6-28.9-0.6L113.4,138.7z"/>
		<path class="st12" d="M113.4,132c9.7,0,19.3,0.3,29,0.6s19.4,0.8,29.2,1.3l-0.1,2c-9.8-0.5-19.5-1-29.1-1.3
			c-9.7-0.3-19.3-0.6-28.9-0.6L113.4,132z"/>
		<polygon class="st12" points="129.4,145.7 132.3,145.7 132.5,130.8 130.8,129.4 129.1,130.7 		"/>
		<polygon class="st12" points="138.4,146 141.3,146.1 142,131.2 140.2,129.8 138.5,131.2 		"/>
		<polygon class="st12" points="171.2,147.3 168.3,147.2 168.9,131.7 170.7,130.6 172.3,132 		"/>
		<polygon class="st12" points="161.1,146.6 158.1,146.5 158.5,131.5 160.3,130.5 162,131.9 		"/>
		<polygon class="st12" points="151.2,146.3 148.2,146.2 148.4,131.3 150.3,130 151.9,131.5 		"/>
	</g>
	<path class="st15" d="M0,155.3c69.7-14.4,127.8-11.2,191.6-7.7c38.9,2.2,75.8,3,114.9-1c39.5-4.1,78.7-10.2,118.7-9.7
		c0,21,0,19.1,0,40.1c-141.7,0-283.5,0-425.2,0C0,162.5,0,169.8,0,155.3z"/>
	<g class="st3">
		<g>
			<path class="st12" d="M226.6,136.4l-3.9,2.7c0.6,1.9,1.3,2.9,1.9,5c0.1,0.9-0.1,2.2-0.4,3c-0.2,0.2-0.2,0.5-0.2,0.7
				c-0.1,0.2-0.3,0.4-0.4,0.6c-0.2,0.1-0.3,0.2-0.3,0.3c-0.1,0.1-0.3,0.5-0.3,0.6c0,0.2,0.5,0.2,0.7,0.2c0.4,0,0.5-0.2,0.6-0.4
				c0.1-0.1,0.2-0.2,0.1-0.4c0.1-0.2,0.2-0.5,0.3-0.6c0.3-0.2,0.4-0.6,0.4-0.8c0.1-0.8,0.4-2.5,0.6-3.2c0.2-0.7,0-0.9-0.1-1.5
				C224.8,139.7,227.6,138.3,226.6,136.4z"/>
			<path class="st12" d="M216.5,138.5l-2.2-0.3c0,0.8,0.2,1.4,0.4,2.1c0.4,1.4,0.2,3.3,0.6,4.4c0,0.2,0.2,2.3,0.2,2.5
				c-0.2,0.2-0.2,0.4-0.2,0.6c0,0.2-0.1,0.3-0.2,0.4c-0.1,0-0.2,0.1-0.3,0.2c-0.1,0.1-0.3,0.4-0.3,0.5c0,0.2,0.2,0.2,0.5,0.2
				s0.6-0.1,0.7-0.3c0.1-0.1,0.1-0.2,0.1-0.4c0-0.1,0.1-0.4,0.1-0.6c0.3-0.1,0.3-0.5,0.2-0.7c0-0.6-0.1-2,0-2.6
				c0.3-0.8-0.3-3.5,0.3-5C216.5,139.2,216.5,138.9,216.5,138.5z"/>
			<path class="st12" d="M227,134.9c0.7,0.1,1,0.7,1.2,1.5c0.1,0.8,0.1,1.7,0.2,2.2l-0.1-0.1c0.1,0.6-0.1,1,0,1.5c0,0,0,0-0.1-0.1
				c0,0.4-0.1,0.8-0.1,1.2c0,0-0.1,0-0.1-0.1c0,0.2,0,0.4,0.1,0.6c0,0,0,0-0.1-0.1c0,0.2,0.1,0.4,0.1,0.6c-0.3-0.4-0.6-0.8-0.7-1.3
				c-0.1-0.4-0.2-0.9-0.2-1.3c0-0.4,0-0.7,0-1c0,0,0,0-0.1,0.1c0.1-0.4,0.1-2,0.1-2.4C227.1,136.1,226.3,135.2,227,134.9z"/>
			<path class="st12" d="M219.9,133.8c-2.1,0-3.9-0.6-5.5-0.4c-1.4,0.1-2.4,0.5-3.4,1.5c-1.4,1.4-2.5,3.3-3.2,5.5
				c-0.2,0.6-0.1,1.5-1,2.2c0.6,0.7,1.9,1.1,2.8,1.3c0.5-2.7,2.7-4.3,3.7-4.5c0.7,1.3,2.6,1.4,4.2,0.9c3.1,0.4,9-0.4,9.9-4.3
				c-0.1-1-0.6-1.6-1.3-2c-0.8-0.5-1.8-0.6-2.9-0.5C221.9,133.6,221.4,133.7,219.9,133.8z"/>
			<path class="st12" d="M227.1,135.4l-4.8,2.4c0.8,1.9,3,4.5,4.1,6.8c0.3,0.8,0.4,1.9,0.3,2.8c-0.1,0.2-0.1,0.7,0,0.8
				c-0.1,0.2-0.1,0.4-0.3,0.6c-0.1,0.1-0.2,0.2-0.2,0.3c-0.1,0.1-0.3,0.3-0.3,0.5c-0.1,0.3,0.4,0.3,0.6,0.3c0.4,0,0.6-0.2,0.7-0.5
				c0.1-0.1,0.1-0.3,0-0.4c0-0.2,0.1-0.5,0.1-0.7c0.3-0.3,0.3-0.6,0.2-1c-0.1-0.8-0.2-2.2-0.1-2.9c0.1-0.7-0.1-1-0.3-1.6
				C225.9,140.3,228.2,137.4,227.1,135.4z"/>
			<path class="st12" d="M216.1,138.6l-2.2-0.2c-0.1,0.8,0.1,2.1,0.2,2.8c0.2,1.1,0,3.3,0.3,4.2c0,0.2-0.1,1.9-0.1,2.1
				c-0.2,0.2-0.2,0.4-0.2,0.6c0,0.1-0.1,0.3-0.3,0.4c-0.2,0-0.2,0.1-0.3,0.2c-0.1,0.1-0.3,0.5-0.3,0.6c0,0.2,0.2,0.2,0.4,0.2
				c0.3,0,0.6-0.1,0.7-0.3c0.1-0.1,0.1-0.2,0.1-0.3s0.1-0.4,0.1-0.5c0.3-0.1,0.4-0.4,0.3-0.7c0-0.6,0.1-1.6,0.2-2.2
				c0.2-0.5,0.1-2,0.3-3.5c0.1-0.5,0.1-0.9,0.4-1.3C215.9,140.2,216.1,139,216.1,138.6z"/>
			<g>
				<path class="st12" d="M206.7,143.2l-0.4,0.2c-0.3-0.1-0.6-0.3-0.9-0.5c0.3,0.1,0.7,0,1,0L206.7,143.2z"/>
				<path class="st12" d="M206.3,143.5c0,0.5,0.2,0.8,0.4,1.2c0.3,0.7,0.4,1.4,0.5,2.2c-0.1,0.3,0.1,0.7,0.5,0.7
					c0.3,0.2,0.6,0.3,0.8,0c0.3-0.1,0.4-0.4,0.3-0.7c0-0.5,0.3-1,0.5-1.5c0.4-0.3,0.7-1.1,0.4-1.6c-0.3-0.3-0.6-0.6-0.9-0.9
					c-0.4-0.2-0.8-0.4-1.2-0.6C206.8,142.4,206.3,142.8,206.3,143.5z"/>
				<path class="st12" d="M208.4,147.6c0,0,0.1,0,0.1-0.1c0-0.2,0-0.4-0.1-0.5C208.5,147.2,208.5,147.4,208.4,147.6z"/>
				<path class="st12" d="M207.1,144.7c-0.1-0.2,0-0.5,0.3-0.7c0,0.1-0.1,0.2-0.1,0.3c0.1,0,0.2,0.2,0.1,0.3c-0.1,0.1-0.1,0.1-0.2,0
					C207.1,144.6,207.1,144.6,207.1,144.7z"/>
				<path class="st12" d="M206.9,144.7c0.1-0.2,0-0.4,0.2-0.6C206.9,144.3,206.9,144.5,206.9,144.7z"/>
				<path class="st12" d="M207.7,147.4c0-0.1-0.1-0.2-0.2-0.3c-0.2,0-0.3,0.2-0.1,0.3C207.5,147.5,207.6,147.4,207.7,147.4
					L207.7,147.4z"/>
				<path class="st12" d="M206.4,143L206.4,143L206.4,143L206.4,143c-0.2,0.3-0.3,0.5-0.2,0.7c0,0.2,0.2,0.6,0.1,0.8l0.1-0.1
					c0,0.1,0,0.1,0,0.2c0.1-0.1,0.2-0.5,0.2-0.7l0.1,0.1c0-0.4-0.1-0.6,0-1C206.5,143,206.4,143,206.4,143z"/>
				<path class="st12" d="M207.3,142.8l-0.2,0.4c-0.6,0-1.1-0.3-1.6-0.7C206.2,142.6,206.7,142.4,207.3,142.8z"/>
			</g>
			<path class="st12" d="M207.3,142.5c0-0.2,0-0.5,0-0.7s0-0.5,0-0.7c0,0,0,0.1,0.1,0.1c0-0.2,0-0.4,0-0.7l0.1,0.1
				c0-0.2,0.1-0.5,0.1-0.7l0.1,0.1c0.1-0.2,0.1-0.5,0.1-0.7l0.1,0.1c0.1-0.2,0.1-0.4,0.1-0.7l0.1,0.1c0.1-0.2,0.1-0.4,0.2-0.7
				c0,0,0,0.1,0.1,0.1c0.1-0.2,0.1-0.4,0.1-0.6l0.1,0.1c0.1-0.2,0.1-0.3,0.2-0.5l0.1,0.1c0.1-0.2,0.2-0.3,0.2-0.5c0,0,0,0.1,0.1,0.1
				c0.1-0.1,0.2-0.3,0.2-0.5c0,0,0,0.1,0.1,0.1c0.1-0.1,0.2-0.3,0.2-0.4c0,0,0,0,0,0.1c0.1-0.1,0.2-0.3,0.2-0.4c0,0,0,0,0,0.1
				c0.1-0.1,0.2-0.3,0.2-0.4v0.1c0.1-0.1,0.2-0.2,0.3-0.4c0,0,0,0,0,0.1c0.1-0.1,0.3-0.2,0.3-0.4v0.1c0.4-0.4,0.6-0.3,0.9-0.5
				c-1,1.3-2,2.3-2.7,3.7C208.1,139.5,207.7,141,207.3,142.5z"/>
		</g>
		<g>
			<path class="st12" d="M204.7,122.5c1.1-0.7,2.4-1.3,3.4-1.9c-0.4,0.1-1,0.2-1.4,0.3c0,0,0.1,0,0.1,0.1c-0.2,0.1-0.4,0.1-0.6,0.1
				h0.1c-0.2,0.1-0.5,0.1-0.7,0.2c0,0,0.1,0,0.1,0.1c-0.2,0.1-0.5,0.2-0.7,0.2c0,0,0.1,0,0.1,0.1c-0.2,0.1-0.4,0.2-0.6,0.2
				c0,0,0.1,0,0.1,0.1c-0.2,0.1-0.4,0.2-0.6,0.2h0.1c-0.2,0.1-0.3,0.2-0.5,0.2h0.1c-0.2,0.1-0.3,0.2-0.5,0.2h0.1
				c-0.2,0.1-0.3,0.2-0.5,0.2h0.1c-0.1,0.1-0.3,0.2-0.4,0.2h0.1c-0.1,0.1-0.3,0.2-0.4,0.2c0,0,0,0,0.1,0c-0.1,0.1-0.2,0.2-0.4,0.2
				c0,0,0,0,0.1,0c-0.1,0.1-0.3,0.2-0.4,0.2h0.1c-0.1,0.1-0.2,0.2-0.4,0.2h0.1c-0.1,0.1-0.3,0.2-0.4,0.3h0.1
				c-0.3,0.2-0.5,0.5-0.8,0.7C201.7,124.3,203.2,123.4,204.7,122.5z"/>
			<path class="st12" d="M183.9,128c0.3-0.3,0.7-0.7,1-1c-2.7-0.2-3.9,2.8-4.3,4.8c-0.2,0.9-0.1,1.8-0.2,2.7c0.1,0,0.1-0.1,0.1-0.1
				c-0.3,1.2,0.1,2,0,3l0.1-0.1c-0.1,0.9,0.3,1.6,0.3,2.5c0.1-0.1,0.1-0.1,0.1-0.2c0.1,0.4,0.1,0.9,0,1.3c0.1,0,0.1-0.1,0.1-0.1
				c0.1,0.4,0,0.8-0.1,1.2c1-1.4,1.3-3.2,1.3-4.8c0.1,0.1,0.1,0.1,0.2,0.1c-0.1-0.4,0-1.3,0-2.5l0.1,0.1c-0.1-0.5,0-2,0-2.5
				C182.8,130.5,182.8,128.6,183.9,128z"/>
			<path class="st12" d="M207.6,124.3l1.2-3.4l1.1-0.2l1.5,1.4c0.5,0.9,1.2,1.8,1.9,2.8c0.4,0.6,0.6,1,0.3,1.3
				c0.1,0.6-0.3,0.8-0.8,0.8c-0.3,0.2-0.7,0.1-1-0.4c-0.6-0.5-1.4-0.5-2-1.2C208.6,125.5,207.9,125.2,207.6,124.3z"/>
			<path class="st12" d="M209.4,120.9l0.5,0.1c0.3-0.6,0.4-1.2,0.3-1.8C209.9,119.8,209.4,120.1,209.4,120.9z"/>
			<path class="st12" d="M198.4,134.5l3.5-0.2c-0.1,1.2-0.5,2.2-0.9,3.2c-0.5,1.3-0.6,2.2-0.8,3.6c-0.1,0.5-0.2,1.1-0.4,1.6
				c-0.1,0.3-0.3,2.2-0.3,2.5c0.2,0.3,0.3,0.6,0.2,1c0.1,0.3,0.2,0.5,0.3,0.7c0.2,0,0.3,0.2,0.4,0.4c0.1,0.1,0.4,0.7,0.4,0.9
				c0,0.3-0.4,0.3-0.7,0.3c-0.5,0-1-0.2-1-0.6c-0.1-0.2-0.2-0.4-0.1-0.6c0-0.2,0-0.7-0.1-0.9c-0.5-0.2-0.5-0.8-0.3-1.1
				c0.1-1,0.2-1.6,0.2-2.6c-0.3-0.8,0.1-1.7,0-4.1c0-0.8,0-1.4-0.2-2.1C198.5,135.7,198.3,135.2,198.4,134.5z"/>
			<path class="st12" d="M183.6,128.5l6.5,4.8c-1.2,2.5-2.6,4.2-3.8,7.3c-0.1,0.5-0.2,1-0.2,1.6c0,0.8,0.1,1.6,0.3,2.2
				c0.2,0.3,0.3,0.8,0.2,1.1c0.2,0.3,0.4,0.6,0.6,0.9c0.3,0.1,0.4,0.3,0.4,0.5c0.1,0.1,0.5,0.7,0.4,0.9c-0.1,0.3-0.8,0.2-1.1,0.2
				c-0.6-0.1-0.7-0.4-0.9-0.7c-0.2-0.1-0.2-0.4-0.1-0.6c-0.1-0.3-0.2-0.7-0.4-1c-0.5-0.3-0.6-0.8-0.5-1.3c0-1.2-0.1-3.1-0.4-4.2
				c-0.3-1,0.1-1.3,0.4-2.2c0.1-0.3,0.2-0.6,0.3-1.1C185.9,134.5,182.1,130.9,183.6,128.5z"/>
			<path class="st12" d="M183.2,128.3l3.9,7c2.9,0.2,10.5,2.4,14.3,1.5c1.9-0.5,3-2.8,3.1-5.4c2.1-2.7,2.5-5.8,4-6.1l0.5-5
				c-0.2,0-0.5,0.1-0.8,0.3c-2,0.7-6.7,3.6-8.4,5c-2.5,0.6-3.9,2-8.5,1.5C188.5,126.1,184.1,126.1,183.2,128.3z"/>
			<path class="st12" d="M183.5,127.8l5.5,4.8c-1.1,2.9-3.9,4.5-6,7.8c-0.3,0.5-0.5,1.1-0.6,1.7c-0.2,0.9-0.3,1.7-0.3,2.4
				c0.1,0.4,0.1,1-0.1,1.2c0.1,0.4,0.2,0.7,0.4,1c0.2,0.1,0.3,0.3,0.3,0.5c0.1,0.2,0.4,0.5,0.4,0.7c0.1,0.4-0.7,0.4-1,0.4
				c-0.6-0.1-0.9-0.4-1-0.8c-0.1-0.1-0.1-0.5,0-0.7c0-0.3,0-0.7-0.1-1c-0.4-0.5-0.4-1-0.1-1.4c0.1-0.4,0.1-0.9,0.2-1.3
				c0.2-1,0.4-2.1,0.4-3.1c-0.1-1.1,0.3-1.4,0.8-2.3c0.2-0.3,0.3-0.7,0.6-1.2c1.1-2.6-0.9-5.7,0.2-8.3
				C183.3,128.1,183.4,127.9,183.5,127.8z"/>
			<path class="st12" d="M199.3,135.1l3.4-0.7c0.1,1.2-0.2,2.6-0.5,3.6c-0.4,1.3-0.4,2.2-0.5,3.6c0,0.5-0.1,1.1-0.3,1.6
				c0,0.3-0.1,2.2,0,2.5c0.3,0.3,0.3,0.7,0.3,1c0.1,0.2,0.2,0.5,0.4,0.7c0.2,0,0.4,0.2,0.4,0.4c0.1,0.1,0.4,0.7,0.4,0.9
				s-0.4,0.3-0.7,0.2c-0.5,0-0.9-0.2-1-0.6c-0.1-0.1-0.2-0.3-0.1-0.6c0-0.2-0.1-0.6-0.2-0.8c-0.5-0.1-0.6-0.7-0.4-1.1
				c0-1,0.1-1.8,0-2.8c-0.3-0.8-0.1-1.7-0.3-4.1c-0.1-0.8-0.1-1.4-0.4-2.1C199.4,136.3,199.2,135.7,199.3,135.1z"/>
			<path class="st12" d="M212.7,127c-0.1,0-0.1,0.1-0.2,0.1c-0.2-0.1-0.4-0.3-0.4-0.6C212.2,126.7,212.4,126.8,212.7,127z"/>
			<g>
				<path class="st12" d="M210.7,122.8c-0.1-0.3-0.6-0.5-1-0.4c0.1,0.1,0.3,0.1,0.4,0.2c-0.1,0.1,0,0.4,0.2,0.4
					c0.1,0,0.2-0.1,0.2-0.2C210.6,122.8,210.7,122.8,210.7,122.8z"/>
				<path class="st12" d="M210.9,122.6c-0.3,0-0.4-0.3-0.8-0.5C210.6,122.2,210.7,122.4,210.9,122.6z"/>
				<path class="st12" d="M213.1,126.1c-0.1-0.1-0.1-0.3-0.1-0.4c0.1-0.2,0.4-0.1,0.3,0.2c0,0.1-0.2,0.2-0.3,0.1
					C213.1,126,213.1,126,213.1,126.1z"/>
			</g>
			<path class="st12" d="M209.5,120.6c0.1-0.1,0.1-0.2,0.1-0.3c0.6,0.1,0.9,0.3,1.2,0.6c0.2,0.3,0.5,0.9,0.9,1.1c-0.1,0-0.2,0-0.2,0
				c0.1,0.1,0.2,0.2,0.2,0.2c-0.3,0-0.8-0.3-1-0.6c0,0.1,0,0.2,0,0.3C210.1,121.3,210,121,209.5,120.6z"/>
			<path class="st12" d="M208.8,121.1l0.6,0.1c0.4-0.7,0.4-1.5,0.3-2.2C209.4,119.7,208.7,120.2,208.8,121.1z"/>
		</g>
	</g>
	<g class="st3">
		<g>
			<rect x="45.4" y="111.5" class="st12" width="80.7" height="32.3"/>
			<rect x="45.4" y="135.7" class="st12" width="80.7" height="8.1"/>
			<polygon class="st12" points="41.7,111.9 129.8,111.9 111.6,88.1 85.7,74.5 59.8,88.1 			"/>
			<path class="st12" d="M41.8,112.2H41c6.2-8.1,12.4-16.2,18.6-24.3l26.1-13.7c8.7,4.6,17.4,9.1,26.1,13.7
				c6.2,8.1,12.4,16.2,18.6,24.3h-0.8l-2.8-3.6l-15.4-20.2L85.7,74.9L60,88.4C54,96.3,47.9,104.3,41.8,112.2z"/>
			<rect x="45.4" y="135.1" class="st13" width="80.7" height="0.7"/>
			<rect x="69.4" y="117.6" class="st13" width="32.6" height="25.4"/>
			<rect x="71.2" y="119.3" class="st12" width="29.1" height="21.8"/>
			<g>
				<polygon class="st13" points="69.4,117.6 70.9,117.6 102,141.8 102,142.9 100.6,142.9 69.4,118.7 				"/>
				<polygon class="st13" points="100.6,117.6 102,117.6 102,118.7 70.9,142.9 69.4,142.9 69.4,141.8 				"/>
			</g>
			<g>
				<rect x="109.4" y="121.5" class="st12" width="9.2" height="9.2"/>
				<path class="st13" d="M119.2,120.9v10.3h-10.3v-10.3L119.2,120.9L119.2,120.9z M118.1,122H110v8.1h8.1V122z"/>
				<g>
					<polygon class="st13" points="109.7,120.9 119.2,130.5 119.2,131.2 118.4,131.2 108.9,121.7 108.9,120.9 109.4,120.9 					"/>
					<polygon class="st13" points="108.9,130.5 118.4,120.9 119.2,120.9 119.2,121.7 109.7,131.2 108.9,131.2 					"/>
				</g>
			</g>
			<g>
				<rect x="52.8" y="121.5" class="st12" width="9.2" height="9.2"/>
				<path class="st13" d="M62.6,120.9v10.3H52.3v-10.3L62.6,120.9L62.6,120.9z M61.5,122h-8.1v8.1h8.1V122z"/>
				<g>
					<polygon class="st13" points="53,120.9 62.6,130.5 62.6,131.2 61.8,131.2 52.3,121.7 52.3,120.9 52.8,120.9 					"/>
					<polygon class="st13" points="52.3,130.5 61.8,120.9 62.6,120.9 62.6,121.7 53,131.2 52.3,131.2 					"/>
				</g>
			</g>
			<g>
				<g>
					<rect x="81" y="88.5" class="st12" width="9.4" height="9.4"/>
					<path class="st13" d="M91,87.9v10.5H80.5V87.9H91L91,87.9z M89.9,89h-8.3v8.3h8.3V89z"/>
					<g>
						<polygon class="st13" points="81.3,87.9 91,97.6 91,98.4 90.2,98.4 80.5,88.7 80.5,87.9 81,87.9 						"/>
						<polygon class="st13" points="80.5,97.6 90.2,87.9 91,87.9 91,88.7 81.3,98.4 80.5,98.4 						"/>
					</g>
				</g>
				<g>
					<rect x="81" y="99" class="st12" width="9.4" height="9.4"/>
					<path class="st13" d="M91,98.4v10.5H80.5V98.4H91L91,98.4z M89.9,99.5h-8.3v8.3h8.3V99.5z"/>
					<g>
						<polygon class="st13" points="81.3,98.4 91,108.1 91,108.9 90.2,108.9 80.5,99.2 80.5,98.4 81,98.4 						"/>
						<polygon class="st13" points="80.5,108.1 90.2,98.4 91,98.4 91,99.2 81.3,108.9 80.5,108.9 						"/>
					</g>
				</g>
			</g>
			<rect x="68.2" y="107.8" class="st13" width="35" height="1.1"/>
			<rect x="68.2" y="98.4" class="st13" width="35" height="1.1"/>
			<rect x="68.2" y="98.4" class="st13" width="1.1" height="10.5"/>
			<rect x="102.1" y="98.4" class="st13" width="1.1" height="10.5"/>
			<rect x="78.8" y="98.4" class="st13" width="1.1" height="10.5"/>
			<rect x="91.5" y="98.4" class="st13" width="1.1" height="10.5"/>
			<rect x="45.4" y="111.9" class="st13" width="80.7" height="0.7"/>
		</g>
		<rect x="44.9" y="142.9" class="st12" width="81.7" height="5.8"/>
	</g>
</g>
<g>
	<path class="st16" d="M0,184v-24c2-0.8,1.2-2.3,4.8-0.8c1.8,0.8,1.3-1.7,4.8-1c1.8,0.4,1-2.2,4.5-0.9c2.4,0.9,3.4-2,7.7-0.8
		c2.1,0.6,2.6-2,5.3-0.9c1.8,0.8,2.4-1.8,5.8-0.1c2.5,1.3,2.4-1.4,5.3,1.2c1.6,1.5,3.7-0.9,6.6,1.8c1,0.9,2-1.3,3.9,2.5
		c0.7,1.5,2.7,0,3.4,2.8c0.5,2.1,3.8,0.4,3.8,2.9c0,2.7,2.8,1.9,3.1,5.3c0,0.3,0.5,0.8,0.6,0.9L0,184z"/>
	<path class="st16" d="M425.2,174.8l-89.9,1c0.4-1.3,2.3-2.3,3.9-3.8c0.8-0.8,1.3-2.3,2-3.1c0.8-1,2.3-1.4,3.2-1.7
		c0.9-0.3,0.8-2.7,4.1-3.1c1.6-0.2,0.6-3.9,7.3-3.6c1.5,0.1,2.8-4.6,9.5-4.3c2.4,0.1,2.1-2.8,7.8-2.8c3.7,0,1.1-1.9,7.4-1.9
		c3.4,0,4-3,8.4-1.7c3.2,0.9,6-1.2,8.9-0.8s0.8-1.8,7.4-1c2,0.2,2.4-2,6.1-0.5c1.6,0.7,3.5-1,5.9-0.9c0.6,0,1.2,0.1,1.8,0.4
		c2.2,0.8,4.5-0.8,5.9-0.7v28.5H425.2z"/>
	<g>
		<g>
			<path class="st17" d="M398.9,173.5c2.3,0,3.6,0,5.9,0c-1.3-11.5-1.3-23.1-1.1-34.7c-1.1,0-2.3,0-3.4,0
				C400.2,150.8,400.1,162.4,398.9,173.5z"/>
			<path class="st17" d="M418.2,141.6c-0.5,5.8-4.9,9.7-9.2,10c-4,4.5-14,4.3-17.2-1c-5.3-0.7-9.4-6.7-8.1-12.8
				c-3.4-2.2-4.5-7.6-2.9-12.1c-1.5-5.4-0.3-10.4,2.6-12.5c-0.3-6,2.4-10.3,6-11.9c0.7-10.3,11.1-13.8,16.9-9.2
				c4.8-0.5,10.4,5.2,9.9,12c3.4,1.6,4.9,6.8,3.7,11.4c3.6,2.5,4.6,7.9,2.6,12.4C424.1,133,422.1,138.8,418.2,141.6z"/>
		</g>
		<path class="st17" d="M407.6,167.9c-0.4,0.2-1.8,1.4-2,2.3c0.4-0.3,1.7-0.7,2.2-0.7c-0.5,0.2-1.3,1.2-1.6,1.5
			c0.7-0.2,1.8-0.3,2.5,0c-0.9,0.2-2.8,0.8-3.3,1.3c0.7-0.1,1.3-0.1,1.9,0c-0.3,0-1.6,0.7-2.1,1.2c0.7-0.3,1.7-0.5,2.1-0.4
			c-0.6,0.3-1.3,0.8-1.9,1.1c-1.5,0.7-2.2,1-4,0.7c-2.5-0.4-3-2.1-5.7-2.7c0.2-0.3,0.6-0.4,0.8-0.5c-0.4-0.3-1.1-0.3-1.9-0.2
			c0.6-0.4,1.2-0.7,1.5-0.7c-0.3-0.3-0.9-0.5-1.9-0.6c1-0.5,2.3-0.7,3.6-0.7c-0.3-0.6-2-1.2-2.5-1.2c1.1-0.4,2.1-0.4,3.1-0.4
			c-0.1-0.3-0.4-0.7-0.7-0.9c0.7,0.1,1.4,0.3,2,0.7c-0.1-0.5-0.8-2.3-1-2.6c0.7,0.6,1.7,1.8,1.9,2.5c0.2-0.3,0.3-0.7,0.4-1.2
			c0.2,0.2,0.4,0.6,0.5,0.8c0.2-0.7,0.7-1.8,1.3-2.3c-0.3,0.7-0.6,2.6-0.4,3c0.5-1.2,1.4-2.5,2.3-3c-0.3,0.4-0.9,2-0.9,2.7
			c0.6-0.6,1.2-1.3,1.9-1.4c-0.5,0.4-1.3,2.2-1.3,2.9C405,168.6,406.6,168.1,407.6,167.9z"/>
	</g>
	<g>
		<g>
			<path class="st17" d="M375.4,175.6c2,0,3.2,0,5.3,0c-1.2-10.3-1.1-20.6-1-31c-1,0-2,0-3.1,0C376.6,155.4,376.5,165.7,375.4,175.6
				z"/>
			<path class="st17" d="M390.1,147.3c0.1,4.9-2.6,8.3-6.2,8.7c-4.7,3.2-9.8,2.3-12.7-1.5c-5-1.4-7.6-6.4-7.1-10.4
				c-1.8-4.5-1.8-8.6,0-11.6c-1.6-4.6-0.6-8.4,2.2-11.3c-0.4-5.8,1.2-10.3,5.9-12.8c1.4-7.9,6.4-11,9.2-4.4
				c3.3,1.7,5.3,6.1,5.2,10.2c3.6,2,4.8,7.9,4,11.5c3,4.1,3,8.8,1.1,11.9C393.5,141.6,392.4,145.6,390.1,147.3z"/>
		</g>
		<path class="st17" d="M374.9,175.3c-0.6-0.6-3-1.7-3.9-1.9c1-0.1,1.9,0.1,3.1,0.4c-0.3-0.5-1.8-1.3-2.4-1.4c0.2,0,1.7,0.3,1.7,0.3
			c-0.1-0.2-0.5-0.7-0.7-0.8c0.7,0,1.9,0.5,2.4,0.9c-0.4-0.5-1.4-1.7-2.2-2.1c0.6,0.2,1.8,0.7,2.3,1.1c-0.2-0.4-0.9-1.6-1.4-2
			c0.5,0.3,1.5,0.9,1.8,1.2c0-0.4-0.6-1.7-0.8-2.1c0.3,0.3,1,1.2,1.2,1.5c0,0,0.1-1.2,0-1.7c0.3,0.4,0.9,1.6,1.1,2
			c0-0.6,0.1-2.2,0.2-2.4c0,0.3,0.3,1.3,0.5,1.6c0.1-0.4,0.8-1.6,1-1.7c-0.1,0.4-0.4,1.5-0.3,2.4c0.3-0.6,0.9-1.4,1.3-1.6
			c-0.1,0.2-0.2,0.9-0.2,1.2c0.5-0.7,2.3-1.7,2.1-1.5c-1,1.1-1.1,1.2-1.7,2.4c0,0,1.4-0.8,2-0.8c-0.5,0.4-1.4,1.1-1.6,1.5
			c1.4-0.5,1.6-0.4,3.2-0.4c0,0-1.2,0.5-1.5,0.7c0.1,0,1.6,0.3,1.6,0.4c0,0-1.8,0.5-2,0.6c0.2,0,0.8,0.2,0.9,0.3
			c-0.4,0-1.2,0.2-1.5,0.5c0.5,0,2.4,0.2,3.1,0.8c-0.4-0.1-2.2,0.2-2.6,0.4c0.5,0,1.5,0.3,1.6,0.4c-0.4-0.1-1.6-0.2-2.3,0.1
			c0.5,0,1.1,0.1,1.4,0.1c0,0-0.6,0.1-0.7,0.2C379.5,176.3,377,177.3,374.9,175.3z"/>
	</g>
	<g>
		<g>
			<path class="st17" d="M18.7,178.6c2.2,0,3.4,0,5.6,0c-1.2-10.9-1.2-21.9-1-32.8c-1.1,0-2.2,0-3.2,0
				C19.9,157.1,19.8,168.1,18.7,178.6z"/>
			<path class="st17" d="M37,137.8c-0.6,5.1-4,8.9-7.8,9.8c-5.5,4.7-12.1,4.4-16.8,0c-5.1-2.1-8.4-7.4-7.3-13.5
				c-3.2-3.3-4.1-9.1-1.9-12.7c-1.4-5.4-0.7-10.8,3-13.5c0.1-4.5,2-7.8,6.5-9.6c2.4-6.5,10.2-9.9,15.2-2.7c3.3,1.9,5.4,4.8,6.5,8.4
				c3.5,2.9,5.1,6.6,5,11.2c2.7,4.6,2.3,8.7,0,12.3C40.3,131.3,39.5,135.4,37,137.8z"/>
		</g>
		<path class="st17" d="M27.4,172.2c-0.4,0.2-1.8,1.4-2,2.3c0.4-0.3,1.7-0.7,2.2-0.7c-0.5,0.2-1.8,1.3-2.1,1.6
			c0.7-0.2,2.3-0.4,3-0.1c-0.9,0.2-2.8,0.8-3.3,1.3c0.8-0.2,2-0.3,2.6-0.1c-0.3,0-2.3,0.8-2.8,1.3c0.7-0.3,1.7-0.5,2.1-0.4
			c-0.6,0.3-1.3,0.8-1.9,1.1c-1.5,0.7-3,0.9-4.7,0.6c-2.5-0.4-2.2-2-5-2.6c0.2-0.3,1.2-0.5,1.4-0.5c-0.4-0.3-1.8-0.3-2.5-0.1
			c0.5-0.4,1.5-0.9,2.2-0.9c-0.7-0.3-1.5-0.4-2.6-0.4c1-0.5,2.8-0.8,4.1-0.8c-0.3-0.6-2.5-1.1-3-1.1c1.1-0.4,2.6-0.2,3.5,0.2
			c-0.1-0.3-0.8-1.3-1.1-1.5c0.7,0.1,1.4,0.6,2,1c-0.1-0.5-0.8-2.6-1-2.9c0.7,0.6,1.7,2.1,1.9,2.8c0.2-0.3,0.3-1.1,0.4-1.5
			c0.2,0.2,0.5,0.9,0.5,1.3c0.2-0.8,0.7-2.3,1.2-2.8c-0.3,0.7-0.6,2.6-0.4,2.9c0.5-1.2,1.4-2.5,2.3-3c-0.3,0.4-0.9,2-0.9,2.7
			c0.6-0.6,1.2-1.3,1.9-1.4c-0.5,0.4-1.3,2.2-1.3,2.9C24.9,172.9,26.4,172.4,27.4,172.2z"/>
	</g>
	<g>
		<g>
			<path class="st17" d="M44.6,164.4c-0.3-0.7-0.7-1.4-1-2s-0.8-1.3-1-1.9c-0.2-0.5-0.2-1-0.1-1.4c0.2-1,0.5-1.8,0.6-2.9
				c0.3-2.7-0.1-5-1.1-6.9c3.9-1.4,7.8-2.7,11.7-4.1c-1.2,5.3-4.6,8.7-6.1,13.6c-0.3,1.3-0.4,2.6-0.2,4c0.3,2.5,1.4,5.7,2.7,8
				c0.5,0.4,1.3,1,1.8,1.7c0.2,0.3,0,0.5-0.6,0.7c-0.5,0.1-0.9,0.2-1.2,0.1c-0.6,0-1-0.2-1.5-0.6c-0.2-0.2-0.5-0.4-0.5-0.6
				c0-0.2-0.1-0.6-0.6-0.7c0,0.1-0.1,0.2-0.1,0.3s-0.1,0.1-0.1,0c-0.3-0.2-0.5-0.6-0.4-1c-0.1-0.2,0-0.6-0.2-1.1
				C46.1,167.7,45.5,166.1,44.6,164.4z"/>
			<path class="st17" d="M40,156.7c3.7,0.1,9.3,0,10.9,0.6c-0.4,1.3-1.8,3-3.2,3.7c0.1,0.7,0.1,1.8-0.2,1.9c-0.2,0-0.3-0.3-0.3-0.6
				c0,0.4-0.1,0.8-0.2,0.8c-0.3,0-0.4-0.8-0.5-1.6c-0.3,0.1-0.6,0.1-0.9,0.2c0,0.7,0,1.6-0.2,1.6s-0.3-0.4-0.4-0.8
				c0,0.5-0.1,1-0.2,1c-0.3,0-0.4-1-0.5-1.8C41.5,161.2,40.1,158.2,40,156.7z"/>
			<path class="st17" d="M91.5,156.3c0.1-0.1,0.3-0.1,0.5-0.2c1.4-0.2,2.4,1.3,3.7,1.5c-0.9,0.3-1.9-0.2-2.7-0.4
				c-0.5-0.1-0.7,0-1.1,0.1C91.2,157.4,91.1,156.6,91.5,156.3z"/>
			<path class="st17" d="M39.8,137.9c-4,0.3-4.1,3.2-4.9,6.5c0.1,1.7,0.3,3.5,0.5,5.3c0.4,3.8,0.8,7.5,0.7,11.6l-0.9,0.1
				c0.1-4-0.2-7.8-0.6-11.6c-0.2-1.8-0.6-3.5-0.7-5.3c-0.5-4.5-0.4-8.4,6-8.1L39.8,137.9z"/>
			<path class="st17" d="M35.1,154.8c0.1,1.3-0.5,2-0.4,3.3c0.2,1.5-1,2.9,0,4.4c0.4,0.7,1,0.9,0.7,2c0.2-0.3,0.2-0.6,0.5-0.8
				c0,0.7,0.3,1.4,0.3,2.1c0.3-0.5,0.1-1.2,0.2-1.7c0.1,0.2,0.2,0.4,0.3,0.6c0.1-0.4-0.1-0.9-0.1-1.3c0.1,0.2,0.3,0.1,0.6,0.2
				c-0.5-1.3-0.7-2.4-0.5-3.5c0.3-1.8-0.4-2.2-0.8-5.3c-0.1,0-0.1,0.3-0.2,0.3c-0.1,0-0.1-0.4-0.2-0.4c-0.1,0,0,0.4-0.1,0.4
				C35.3,155.2,35.1,154.8,35.1,154.8z"/>
			<path class="st17" d="M71.8,169.4c0.4,0.4,1.1,1,1.4,1.7c0.1,0.3-0.1,0.5-0.7,0.5c-0.4,0.1-0.8,0.1-1.2,0
				c-0.6-0.1-0.9-0.2-1.3-0.6c-0.2-0.2-0.4-0.4-0.3-0.6c0-0.2,0-0.6-0.4-0.7c0,0.1-0.1,0.1-0.1,0.2c0,0-0.1,0.1-0.1,0
				c-0.3-0.2-0.3-0.6-0.2-0.9c-0.1-0.2,0.1-0.5,0-1c-0.3-1.8-0.2-3.7-0.2-5.5c-0.7-1.2-0.5-4.8-0.8-7.2c-0.6-0.9-0.8-1.6-0.7-2.3
				c2-0.3,4-0.6,5.9-0.9c-0.1,2.6-0.9,4.3-1.3,6.6c-0.3,1.7-0.3,2.8-1,4.5C71,165.6,71.1,167.3,71.8,169.4z"/>
			<path class="st17" d="M89.5,155.6c-0.6,3.2-2.6,6.2-5.5,7.7c-0.8-1.6-2-3.3-3.1-3.8c-2.7-1.5-8.1,2.9-13.2-2
				c-3.2,0.9-12.4,2.3-17.7,1.1c-2.1-0.4-8-0.4-9.7-0.3c-0.3-0.2-4.3-10-4.7-11.1c-3.9-11.3,6.5-12.4,15.8-11.5
				c11-0.2,14.8-0.5,19,0.2c4.7,0.7,7.7,3,10.1,5.8C83.4,145.3,86.2,151.5,89.5,155.6z"/>
			<path class="st17" d="M36.2,165.1c-0.2-0.8-0.5-1.5-0.7-2.2s-0.6-1.5-0.7-2.2c-0.1-0.5,0-1,0.1-1.6c0.3-1.1,0.7-1.9,1-3.1
				c0.7-2.9-0.3-8.3-0.9-10.5c4.1-1.1,10.7,3.9,14.7,2.8c-2,5.5-10.2,8.7-10.5,15.5c-0.1,2.7,0.4,6.2,1.3,8.8
				c0.5,0.5,1.2,1.2,1.5,2.1c0.2,0.4-0.1,0.6-0.7,0.7c-0.5,0.1-0.9,0.1-1.2,0c-0.6-0.1-1-0.3-1.4-0.8c-0.2-0.2-0.4-0.5-0.4-0.7
				c0-0.3,0-0.7-0.5-0.8c0,0.1-0.1,0.2-0.1,0.3s-0.1,0.1-0.1,0c-0.3-0.3-0.4-0.7-0.2-1.1c-0.1-0.2,0.1-0.6,0-1.3
				C37.1,168.8,36.7,167.1,36.2,165.1z"/>
			<path class="st17" d="M84.6,160.2l4.9-4.7c1.7-0.6,3.7,1.3,3.6,2.8c0.5,1.7,0.3,3.1-0.3,4.3c0.2,2-0.3,3.7,0.3,5.3
				c1,1.8-1.6,3.3-2.4,2.6c-1.3,0.5-2.4-2.1-4-3c-0.9-0.4-1.6-1.1-2.1-2C83.8,164,83.8,161.9,84.6,160.2z"/>
			<path class="st17" d="M77.5,170.3c0.5,0.4,1.2,0.9,1.7,1.6c0.2,0.3,0,0.5-0.6,0.5c-0.4,0.1-0.8,0.1-1.2,0c-0.6-0.1-1-0.2-1.4-0.6
				c-0.2-0.2-0.4-0.4-0.5-0.6c0-0.2-0.1-0.5-0.5-0.7c0,0.1-0.1,0.1-0.1,0.2c0,0-0.1,0.1-0.1,0c-0.3-0.2-0.4-0.6-0.3-0.9
				c-0.1-0.2,0-0.5-0.1-1c-0.6-1.8-0.8-3.6-1.2-5.4c-0.9-1.1-1.4-4.7-2.1-7.1c-0.5-0.5-0.8-1.1-0.9-1.5c-0.5-1.4-0.1-3.2-1-4.6
				c1.8-0.3,4.8,1.7,6.6,1.4c0.3,2.6,0,5.7,0,8c0,1.7,0.2,2.8-0.2,4.5C76.1,166.6,76.4,168.3,77.5,170.3z"/>
			<path class="st17" d="M91.5,155.1c1.4,0,3.4,1.5,4.8,1.5c-1.3,0.5-2.7-0.1-3.8-0.2c-0.6,0-0.8,0.1-1.3,0.2
				C89.9,156.9,90,155.1,91.5,155.1z"/>
			<path class="st17" d="M89.4,157.4c0.4-0.3,1.5,0.3,1.8,0c-0.8-1.5-0.4-2.7-1-3.9c-0.7-1.4-2.1-0.8-2.1,0.7
				C88.2,155.2,89.2,156.3,89.4,157.4z"/>
			<path class="st17" d="M90.7,170.6c-0.1,0-0.2,0.1-0.3,0.1c-0.4-0.4-0.6-0.8-0.7-1.1C89.9,169.9,90.3,170.2,90.7,170.6z"/>
			<path class="st17" d="M92.9,168.9C92.9,168.8,92.9,168.8,92.9,168.9c-0.1,0.1-0.2,0.2-0.3,0.3c-0.2-0.2-0.5,0.1-0.6,0.3
				c0,0.1,0,0.2,0,0.3C92.3,170,93,169.3,92.9,168.9z"/>
			<path class="st17" d="M90.7,161.3c-0.1-0.1-0.3-0.1-0.4-0.1c0.3-0.3,0.7-0.2,1-0.1c0.4,0.2,0.7,0.5,0.7,0.7
				c-0.1-0.1-0.3-0.1-0.4-0.1c-0.1,0.2-0.4,0.2-0.5,0.2C90.9,161.8,90.7,161.5,90.7,161.3z"/>
			<path class="st17" d="M92.4,161.4c-0.7,0-0.6-0.6-1.5-1C91.9,160.5,92.1,161,92.4,161.4z"/>
		</g>
		<g>
			<path class="st17" d="M125.4,166.7c0.6-2.1,1.2-3.8,1.5-4.5c0.3-0.6,0.4-1,0.5-1.5c0.1-0.7-0.3-1.2-0.5-1.8
				c-0.4-1.2-0.1-2.5-0.1-3.8l-5.8-1c0.2,3.7,3.5,7.4,3.3,9.3c-0.2,1.5-0.9,3.3-1.5,4.9c-0.4,0.3-1,0.8-1.3,1.3
				c-0.2,0.2,0,0.4,0.5,0.4c0.4,0,0.7,0,0.9,0c0.5-0.1,0.8-0.2,1.1-0.5c0.2-0.2,0.3-0.3,0.4-0.5c0-0.2,0.1-0.4,0.4-0.5
				c0,0.1,0.1,0.1,0.1,0.2c0,0,0,0,0.1,0c0.2-0.2,0.4-0.5,0.2-0.7C125.2,168.1,125.1,167.6,125.4,166.7z"/>
			<path class="st17" d="M114.1,166.7c-0.1-2.6,0.4-7.2,0.4-8.6c0.4-1.1,0.1-2.4,0.4-3.6l-4.2,1.4c0.9,2.4,2.2,10.1,1.6,12.5
				c-0.3,0.3-0.7,0.8-0.8,1.3c-0.1,0.2,0.1,0.3,0.5,0.4c0.3,0,0.6,0,0.8,0c0.4-0.1,0.6-0.2,0.9-0.5c0.1-0.1,0.2-0.3,0.2-0.4
				c0-0.1,0-0.4,0.3-0.5c0,0,0.1,0.1,0.1,0.2h0.1c0.2-0.2,0.2-0.4,0-0.6c0-0.1-0.1-0.2-0.1-0.3C114.1,167.4,114.1,167,114.1,166.7z"
				/>
			<path class="st17" d="M129,147.4c-0.1,0-0.3,0-0.3,0.2c0,0.1,0,0.3,0.2,0.3c1.9,0.5,1.7,2.5,1.4,4.7c-0.2,1.7-0.5,3.6,0.1,5.2
				c0,0.1,0.2,0.2,0.3,0.1c0.1,0,0.2-0.2,0.1-0.3c-0.6-1.5-0.3-3.3-0.1-5C131,150.2,131.3,148.1,129,147.4z"/>
			<path class="st17" d="M130.2,157.6c-0.3,0.8,0.9,2.3,1.3,2.4l-0.1-0.1c0.1,0.1,0.3,0.2,0.6,0.2c-0.1,0-0.3-0.1-0.4-0.2
				c0,0,0.1,0,0.2,0c-0.7-0.3-0.5-1.1-0.6-1.7c-0.1-0.3-0.2-0.6-0.4-0.8C130.5,157.2,130.3,157.3,130.2,157.6z"/>
			<path class="st17" d="M111.8,160.7c2.1,0,3-1.4,6-1.1c1.9,0.2,2.5,0,4.8-0.6c2.6-0.6,5.2-1.8,6.9-1.8c-0.1-2,0.8-3.8,1.1-5.2
				c1.3-7.2-8-5.6-12-5c-2.8,0.4-5.9-0.2-8.3,0.4c-0.8,0.2-1.4,0.5-1.9,0.9l0,0c-3,2-5,8.1-7.6,11.9c0.1,1.7,2.8,3.3,4.4,3.6
				c0.3-0.9,1-2.1,1.7-2.8c0.6-0.6,0.8-1,1.6-0.9C109.6,160.2,110.8,160.7,111.8,160.7z"/>
			<path class="st17" d="M111,167.8c0.2-2.6,1.3-7.2,1.5-8.5c0.6-1.1,0.5-2.4,0.9-3.6l-4.6-0.4c0.5,2.4,1.1,11.8,0.2,14.2
				c-0.3,0.3-0.8,0.7-1,1.2c-0.1,0.2,0.1,0.3,0.5,0.4c0.3,0,0.6,0,0.9,0c0.4-0.1,0.7-0.2,0.9-0.5c0.1-0.1,0.3-0.3,0.3-0.4
				c0-0.1,0-0.4,0.3-0.5c0,0,0.1,0.1,0.1,0.2c0,0,0,0,0.1,0c0.2-0.2,0.3-0.4,0.1-0.6c0-0.1,0-0.2-0.1-0.3
				C110.9,168.5,111,168.1,111,167.8z"/>
			<path class="st17" d="M129.8,167.7c0.3-2.2,0.6-3.8,0.8-4.6c0.2-0.7,0.3-1.1,0.2-1.5c-0.1-0.7-0.5-1.2-0.8-1.7
				c-0.6-1.2-0.5-2.4-0.7-3.8l-7.9-0.6c1.5,2.3,6.1,6.3,6.5,7.9c0.4,1.8,0.1,4.4-0.4,6c-0.3,0.3-0.8,0.8-1.1,1.4
				c-0.1,0.3,0.1,0.4,0.5,0.4s0.7,0,0.9,0c0.5-0.1,0.7-0.2,1-0.5c0.2-0.2,0.3-0.4,0.3-0.5c0-0.2,0-0.4,0.3-0.5
				c0,0.1,0.1,0.1,0.1,0.2h0.1c0.2-0.2,0.3-0.5,0.1-0.7C129.8,169,129.7,168.5,129.8,167.7z"/>
			<path class="st17" d="M100.7,161.9c-0.3,0.5-0.5,0.7-0.8,1.2c-0.3-0.7-0.7-1-1-1.2c-0.5-0.4-1.2-1.6-0.1-1.8
				c0.5-0.1,1.1,0.2,1.4,0.6C100.4,161,100.5,161.4,100.7,161.9z"/>
			<path class="st17" d="M101.7,169.7c-0.4,0.4-1.5,0-1.7-0.6c-0.1-0.4-0.1-0.5-0.2-1c-0.2-0.4-0.4-1-0.5-1.4
				c-1.9-2.4-1-5.1,1.5-6.5c1.5,0.5,3.3,1.3,4,2.7c1,1.8-0.2,3.6-1.5,4.9c-0.4,0.4-0.7,0.8-0.9,1.2
				C102.3,169.5,102,169.6,101.7,169.7z"/>
			<path class="st17" d="M100.1,161.6l1-0.8c-0.2-0.6-0.4-0.9-0.7-1.2c-0.3-0.3-0.8-0.7-1.3-0.6c-1,0.2-0.3,1.4,0.1,1.8
				C99.5,160.9,99.8,161.1,100.1,161.6z"/>
			<path class="st17" d="M102.1,169.6c-0.1,0.1-0.2,0.1-0.3,0.1c0.2-0.3,0.2-0.6,0.3-0.9C102.1,168.9,102.1,169.2,102.1,169.6z"/>
			<path class="st17" d="M100.4,169.2L100.4,169.2c0.1,0,0.1,0,0.2,0.1c-0.1,0.2,0.2,0.3,0.4,0.3c0.1,0,0.1,0,0.1-0.1
				C101.2,169.2,100.6,169,100.4,169.2z"/>
			<path class="st17" d="M100.1,165.3c0-0.1,0.1-0.2,0.1-0.2c-0.3,0-0.5,0.1-0.6,0.3c-0.2,0.3-0.2,0.5-0.1,0.6
				c0-0.1,0.1-0.2,0.2-0.2c0.1,0.1,0.3,0,0.3-0.1C100.1,165.6,100.1,165.5,100.1,165.3z"/>
			<path class="st17" d="M99.1,166c0.3-0.3,0.1-0.6,0.4-1.1C99.1,165.4,99.2,165.7,99.1,166z"/>
		</g>
	</g>
	<g>
		<g>
			<path class="st17" d="M321.7,172c-0.4,0.4-1.1,1-1.4,1.7c-0.1,0.3,0.1,0.4,0.7,0.5c0.5,0,0.9,0,1.2-0.1c0.6-0.1,0.9-0.3,1.3-0.7
				c0.2-0.2,0.4-0.4,0.4-0.6c0-0.2,0-0.5,0.4-0.7c0.1,0.1,0.1,0.1,0.1,0.2c0,0,0.1,0.1,0.1,0c0.3-0.2,0.3-0.6,0.2-0.9
				c0.1-0.2-0.1-0.5-0.1-1c0.3-1.8,0.2-3.5,0.2-5.3c0.7-1.2,0.5-4.6,0.8-6.9c0.6-0.9,0.8-1.6,0.7-2.3c-2.1-0.1-4.1-0.3-6.2-0.4
				c0.2,2.5,1,4,1.4,6.2c0.3,1.6,0.4,2.7,1.1,4.3C322.4,168.4,322.4,170,321.7,172z"/>
			<path class="st17" d="M351.7,165.4c0.2-0.7,0.5-1.3,0.7-1.9c0.2-0.6,0.6-1.3,0.7-1.8c0.1-0.4,0.1-0.9-0.1-1.3
				c-1.6-4.2-1.7-7.6,0.2-12c-4.2-0.6-9.5,2-13.7,1.3c1.7,3.8,9.7,10.4,9.5,13.8c-0.1,2.3-1.1,5.8-2,8c-0.5,0.5-1.3,1.4-1.6,2.1
				c-0.3,0.7,1.4,0.5,1.8,0.5c0.6-0.1,1.2-0.2,1.7-0.7c0.2-0.2,0.4-0.6,0.4-0.7c0-0.2,0-0.6,0.5-0.7c0.1,0.1,0.1,0.1,0.1,0.2
				c0,0,0.1,0.1,0.1,0c0.3-0.2,0.4-0.6,0.2-0.9c0.1-0.2-0.1-0.5,0-1C350.7,168.6,351,167.1,351.7,165.4z"/>
			<path class="st17" d="M309.2,147.3c2.5,1,3.9,7,5.9,8.4c1,2.6,3,4.1,4.9,4.4c2.2,0.3,4.7-0.2,7-0.3c1.4,0.1,4.2,0.6,7.4,0.9
				c0.8,0.1,1.5,0.6,2,0.7c-0.1,1,0.6,1.8,1.3,2.2c-0.1-0.2-0.1-0.5-0.1-0.6c0,0.1,0.1,0.1,0.1,0.2c-0.1-0.3,0-0.5,0.1-0.8
				c0,0.1,0,0.1,0.1,0.2c0.2-1.8,3.1-2,4.4-2.2c2.9-0.6,6-1.6,9.6-2.8c1.8-1.5,2.6-2.3,4.5-3.7c0.6-1.6,1.4-3.5,1.8-4.9
				c1.2-4.4,0.5-7.4-1.9-9c-3-2-8.5-1.8-14.2-0.8c-10.6,0.5-15.9-1.6-21.3-2.4c-1.6-0.2-4.4-0.4-6.5,0.2
				C312.8,140.9,310.5,143.3,309.2,147.3z"/>
			<path class="st17" d="M353.5,140.3c3.8,0,4,3,4.9,6.1c0,1.7,0.2,3.4,0.1,5.1c-0.1,3.6-0.2,7.3,0.1,11.1l0.8,0.1
				c-0.4-3.8-0.4-7.5-0.2-11.1c0-1,0.1-2,0.2-3c0.2-2.5,0.6-7.1-1.6-8.9c-1.7-1.3-5.7-1-7.3-0.3L353.5,140.3z"/>
			<path class="st17" d="M308.2,134.9c-0.1-0.2-0.2-0.3-0.3-0.5c-1.1-1.1-2.9-0.4-4.2-1.1c0.6,0.8,1.8,1,2.6,1.4
				c0.5,0.2,0.5,0.5,0.9,0.8C307.8,136,308.4,135.4,308.2,134.9z"/>
			<path class="st17" d="M311.2,146.3c0.6-0.6,1.1-1.4,1.4-2.4c0.7-2,1-4.5,1.5-7c-1.6-1.1-3.2-1.9-4.5-2c-0.9-1.3-3.3-1.2-3.8,0.6
				c-1.4,0.7-2.4,2.1-2.5,3.5c-0.7,1.2-1.3,2.5-2.5,3.5c-1.7,0.7-0.8,3.5,0.2,3.5c0.5,1,1.6,0.6,2.7,0.6
				C306.1,146.7,308.6,148.9,311.2,146.3z"/>
			<path class="st17" d="M301.1,146c0.1,0.1,0.1,0.2,0.2,0.3c0.4,0,0.9-0.2,1.2-0.4C302.1,146,301.5,146,301.1,146z"/>
			<path class="st17" d="M309.7,136.3c-0.1-0.4-0.2-0.9-0.2-1.3c0.4-0.1,0.9-0.4,1.3-0.6c0.5-0.3,1.4-0.8,1.9-0.3
				c0.4,0.4,0.3,1.2-0.2,1.7c-0.4,0.5-1.2,0.7-1.8,0.7C310.2,136.5,309.9,136.4,309.7,136.3z"/>
			<path class="st17" d="M359.2,155.6c0,1.2,0.6,1.8,0.6,3.1c-0.1,1.4,1,2.4,0.2,3.9c-0.4,0.7-0.6,1.2-0.5,2.2
				c-0.3-0.2-0.3-0.3-0.5-0.6c0.1,0.6-0.2,1.4-0.2,2c-0.3-0.5-0.1-1.1-0.3-1.6c0,0.2-0.2,0.4-0.3,0.6c-0.1-0.4,0-0.8,0-1.2
				c-0.1,0.2-0.3,0.2-0.5,0.4c0.3-0.8-0.2-1.6-0.1-2.5c0.1-0.5,0.5-2.2,0.4-3.3s0.3-2,0.3-2.8c0.1,0,0.1,0.2,0.2,0.2
				s0.2-0.3,0.2-0.3c0.1,0,0.1,0.3,0.2,0.3C359.1,155.9,359.2,155.6,359.2,155.6z"/>
			<path class="st17" d="M358.9,166c0.2-0.7,0.3-1.4,0.5-2s0.4-1.3,0.5-2c0-0.5-0.1-0.9-0.3-1.4c-2.2-4.5-2.5-8-1.3-12.8
				c-4.3-0.7-6.1,5.1-10.4,4.4c1.7,4,7.6,8.9,7.9,11.8c0.2,2.4,0.2,6.2-0.5,8.5c-0.4,0.5-1.2,1.5-1.5,2.2c-0.1,0.4,0.2,0.5,0.8,0.5
				c0.5,0,0.9,0,1.3-0.1c0.6-0.1,1-0.3,1.4-0.8c0.2-0.2,0.4-0.5,0.3-0.7s0-0.6,0.4-0.8c0.1,0.1,0.1,0.2,0.1,0.2s0.1,0.1,0.1,0
				c0.3-0.2,0.3-0.7,0.1-1c0.1-0.2-0.2-0.5-0.1-1.1C358.3,169.4,358.5,167.8,358.9,166z"/>
			<path class="st17" d="M318.6,173c-0.5,0.5-1.1,1.1-1.5,1.8c-0.2,0.3,0.1,0.5,0.7,0.5c0.5,0,0.9,0,1.2-0.1c0.6-0.1,1-0.3,1.4-0.7
				c0.2-0.2,0.4-0.5,0.4-0.6c0-0.2,0-0.6,0.5-0.7c0,0.1,0.1,0.1,0.1,0.2c0,0,0.1,0.1,0.1,0c0.3-0.2,0.4-0.6,0.2-0.9
				c0.1-0.2-0.1-0.5,0-1c0.4-1.9,0.3-3.8,0.4-5.7c0.7-1.3,0.7-5,1.1-7.6c0.6-0.9,0.9-1.8,0.8-2.5c-2.1-0.2-4.1-0.3-6.2-0.5
				c0,2.7,0.8,4.4,1.1,6.7c0.3,1.7,0.2,2.9,0.9,4.6C319.6,169.1,319.5,170.8,318.6,173z"/>
			<path class="st17" d="M306.2,139.5c0.1,0,0.3,0,0.4,0c-0.2-0.4-0.5-0.5-0.9-0.6c-0.5,0-0.8,0.1-0.9,0.3c0.1,0,0.3,0,0.4,0.1
				c0,0.2,0.2,0.4,0.4,0.4C305.8,139.8,306,139.7,306.2,139.5z"/>
			<path class="st17" d="M304.6,138.9c0.6,0.3,0.7-0.3,1.7-0.2C305.4,138.3,305.1,138.7,304.6,138.9z"/>
			<path class="st17" d="M300.8,144.6c0-0.1,0-0.2,0-0.3c-0.3,0.1-0.4-0.4-0.3-0.6c0-0.1,0.1-0.2,0.2-0.2c0.4-0.1,0.5,0.7,0.3,1.1
				C300.9,144.6,300.8,144.7,300.8,144.6z"/>
			<path class="st17" d="M309.4,133.7c-1.2-1-3.9-0.9-5.1-1.8c0.7,1.3,2.3,1.7,3.4,2.3c0.5,0.3,0.6,0.6,1,1
				C309.6,136.4,310.7,134.8,309.4,133.7z"/>
		</g>
		<g>
			<path class="st17" d="M229.3,171.4c1.5,0,1.7-3,1.6-5.3c0-3.2-0.1-7.3,2.1-9.8c1.1-1.3,2.7-1.9,5.1-1.5l-0.1,0.6
				c-4.5,0.1-6,4.5-6.2,8.6c-0.1,2,0.3,7.9-2.4,8L229.3,171.4z"/>
			<path class="st17" d="M229.7,171.9c-0.7,0.3-1.4,0.5-2.3,0.5c-1-0.1-2,0.8-3.1,0.3c-0.5-0.3-0.7-0.6-1.4-0.4
				c0.2-0.2,0.4-0.2,0.5-0.4c-0.5,0.1-1-0.1-1.5-0.1c0.3-0.2,0.8-0.1,1.2-0.3c-0.2,0-0.3-0.1-0.4-0.2c0.3-0.1,0.6,0,0.9,0
				c-0.2-0.1-0.1-0.2-0.2-0.4c0.9,0.3,1.7,0.4,2.5,0.2c1-0.3,1.4,0,2.7,0.2c0.3,0,0.6,0.1,1.1,0c0,0-0.2,0.2-0.2,0.3
				c0,0,0.3,0,0.3,0.1l-0.3,0.1C229.4,171.8,229.7,171.9,229.7,171.9z"/>
			<path class="st17" d="M271.8,172.8c-0.2,0.7-0.7,1.4-2.3,1.1c-2.1-0.4-5.6-1.6-7.7-1.7l0,0c-0.6,0.1-1.3,0.1-1.8,0
				c-1-0.2,0.8-2.8,2.1-2.3l0,0c0.2,0.1,0.5,0.2,0.7-0.2c0-0.1-0.1-0.1-0.2-0.2v-0.1c-1.7-0.2-2.8-0.9-2.4-3c0.1-1.1,0-2.2-0.3-3.2
				l6.1,1.1C265.3,167.7,273.1,168.5,271.8,172.8z"/>
			<path class="st17" d="M272.8,153.1c1.3,2.9,2.2,5.8,2.5,8.9c-4.1,2.1-4.1,6.6-6.9,9c-2.3,2-7,2.1-13.6,1.6
				c-7.6,0.5-21.2,1.3-22.8-8.4c-0.6-3.4,0.6-6.7,3.4-8.6c2.9-1.9,7.1-2,10.4-1.2c13.1,0.8,13.8-1.4,20,0.1
				C268.6,154.7,270.6,154.2,272.8,153.1z"/>
			<path class="st17" d="M269.4,173.9c-0.2,0.7-0.6,1.5-2.2,1.4c-2.1-0.2-5.7-1.1-7.8-0.9l0,0c-0.6,0.1-1.3,0.2-1.8,0.1
				c-1-0.1,0.6-2.8,1.9-2.5l0,0c0.2,0.1,0.5,0.1,0.7-0.2c0-0.1-0.1-0.1-0.2-0.2c0,0,0,0,0-0.1c-1.7,0-2.9-0.6-2.7-2.8
				c0-1.2-0.2-2.2-0.6-3.2l6.2,0.5C262.5,169.5,270.3,169.5,269.4,173.9z"/>
			<path class="st17" d="M232.2,159.6c2.4,0.2,4.7,0.7,7.1,1c2,2,1.9,4.9,1,8.3c-0.4,1.4,0.4,2,1.5,2.1c2.2,0.2,4,0.5,4.6,1.5
				c0.3,0.2,1.7,1.3,1.5,1.8s-2.1,0.2-2.5,0.1c-0.6-0.1-1-0.4-1.4-0.7l0,0l0,0c-0.1-0.1-0.6-0.2-0.8-0.2l0,0c0,0.1,0.1,0.2,0.2,0.3
				c0,0,0,0.1-0.1,0.1c-0.4,0.1-0.9-0.1-1.1-0.5c-0.3,0.2-1.8-0.1-2.3-0.1c-1.2,0-3.4,0.3-4.5,0c-1-0.3-0.1-1.5-0.2-2.2
				C234.8,170.1,229.6,168.2,232.2,159.6z"/>
			<path class="st17" d="M279.5,149.8c-0.9,1.6-1.5,1.6-2.6,1.8c-0.9,0.2-0.8,1.3,0,1.3C278.4,152.9,279.4,151.5,279.5,149.8z"/>
			<path class="st17" d="M269.5,149.2c0.7,1.7,1.3,1.8,2.4,2.1c0.9,0.3,0.7,1.4-0.2,1.2C270.1,152.4,269.3,150.8,269.5,149.2z"/>
			<path class="st17" d="M276.5,153c0,0.7,0,1.1,0.1,1.7c0.5,0.3,2,0.8,3.2,0.4c0.6-0.2,1.1-0.5,1.5-0.9c0.3-0.3,0.5-0.6,0.5-0.8
				c0-0.5-1-0.8-1.9-0.9c-1.1-0.1-1.2,0.2-2,0.6C277.7,153.3,277,153.4,276.5,153z"/>
			<path class="st17" d="M272,152.8c-0.1,0.7-0.2,1.1-0.3,1.7c-0.5,0.2-2.1,0.5-3.3,0c-0.5-0.3-1-0.7-1.4-1.1
				c-0.3-0.4-0.4-0.6-0.4-0.9c0-0.5,1.1-0.7,2-0.7c1.2,0,1.1,0.4,1.9,0.9C270.8,152.9,271.5,153,272,152.8z"/>
			<path class="st17" d="M277,152.8c0.2-1.8-1.5-1.6-2.7-1.7c-1.1-0.1-2.8-0.4-2.8,1.3C271.5,154.5,276.8,154.8,277,152.8z"/>
			<path class="st17" d="M274.3,151.9c1.9,0.1,3.7,0.7,3.2,3.1c0.3,0.7,0.3,1.1,0,1.1c0.2,0.3,0.1,0.7-0.1,1c0,0.5-0.3,0.7-0.3,1.1
				c0,1.6-0.9,2.9-1.3,4.8l-2.2-0.2l-2.2-0.1c-0.2-2-0.8-3.3-0.7-4.9c0-0.3-0.3-0.6-0.2-1.1c-0.2-0.3-0.2-0.7,0-1
				c-0.3-0.1-0.3-0.5,0.1-1.1C270.5,152,272.4,151.7,274.3,151.9z"/>
			<path class="st17" d="M276.7,156.5c0.1,0.2,0.5,0.5,0.7,0.5c0.2-0.2,0.3-0.7,0.1-1C277.2,156,276.9,156.2,276.7,156.5z"/>
			<path class="st17" d="M271.4,156.1c-0.2,0.2-0.5,0.5-0.8,0.5c-0.2-0.3-0.2-0.7,0-1C270.9,155.7,271.2,155.9,271.4,156.1z"/>
			<path class="st17" d="M273.7,162.9c-1.7-0.1-2.3,1.9-1.1,2.1c0.3,0.1,0.6,0,1,0c0.3,0,0.7,0.1,1,0.1
				C275.7,165,275.3,163,273.7,162.9z"/>
			<path class="st17" d="M271.6,162.1c-0.3,0.3-0.6,1.6-0.3,2.2c0.2,0.5,1.6,0.1,2.3,0.1c0.7,0.1,2,0.6,2.3,0.1s0.2-1.8,0-2.2
				C275.5,160.7,272.1,160.5,271.6,162.1z"/>
			<path class="st17" d="M275.3,161.6c-0.8-0.7-2.3-0.8-3.2-0.2c0.8-0.2,1,0.2,1.6,0.2S274.6,161.2,275.3,161.6L275.3,161.6z"/>
			<path class="st17" d="M275.3,162.5C275.3,162.4,275.3,162.4,275.3,162.5c-0.1,0.1-0.1,0.2-0.2,0.3c-0.2-0.1-0.4,0.2-0.5,0.4
				c0,0.1,0,0.2,0.1,0.2C275.1,163.6,275.5,162.8,275.3,162.5z"/>
			<path class="st17" d="M272,162.3C272.1,162.2,272.1,162.3,272,162.3c0.1,0.1,0.1,0.2,0.1,0.3c0.2-0.1,0.4,0.3,0.4,0.5
				c0,0.1,0,0.2-0.1,0.2C272.1,163.4,271.9,162.6,272,162.3z"/>
		</g>
		<g>
			<path class="st17" d="M284.4,174.7c0.1,0.4,0.9,1.1,1.9,1c1.3-0.1,3.7-0.8,4.9-0.7l0,0c0.3,0.1,0.8,0.1,1.1,0.1
				c0.6,0-0.3-1.7-1.1-1.6l0,0c-0.1,0.1-0.3,0.1-0.4-0.2l0.1-0.1l0,0c1.1,0,1.8-0.3,1.7-1.6c0-0.7,0.2-1.3,0.4-1.9l-4.3,0.2
				C289,172,283.9,172,284.4,174.7z"/>
			<path class="st17" d="M306,174.2c3.1,0.1,5.1-1.4,5.2-3.4c0.1-2.3-1.6-4.7-4.5-5L306,174.2z"/>
			<path class="st17" d="M283.1,173.9c0.1,0.4,0.9,1.1,1.9,1c1.3-0.1,3.7-0.8,4.9-0.7l0,0c0.3,0.1,0.8,0.1,1.1,0.1
				c0.6,0-0.3-1.7-1.1-1.6l0,0c-0.1,0.1-0.3,0.1-0.4-0.2l0.1-0.1l0,0c1.1,0,1.8-0.3,1.7-1.6c0-0.7,0.2-1.3,0.4-1.9l-4.3,0.2
				C287.7,171.1,282.6,171.1,283.1,173.9z"/>
			<path class="st17" d="M285.8,162c-0.9,1.7-1.7,4.1-2,6c1.3,1.3,1.2,3.8,2.8,5.4c1.4,1.3,6.6,0.7,10.7,0.6
				c4.7,0.6,12.4,1.1,13.2-3.1c0.5-2.6-2.8-5.7-7.2-6c-4.1-0.5-8.5,0.1-12.7-0.4C288.9,164.1,286.9,162.9,285.8,162z"/>
			<path class="st17" d="M288.8,169.9l4.3-0.2c-0.3,0.6-0.4,1.2-0.4,1.9c0.1,1.3-0.6,1.7-1.7,1.6l0,0l-0.1,0.1
				c0.1,0.2,0.3,0.2,0.4,0.2l0,0c0.8-0.2,1.7,1.5,1.1,1.6c-0.3,0-0.8,0-1.1-0.1l0,0c-1.3-0.2-3.7,0.6-4.9,0.7c-1,0.1-1.8-0.6-1.9-1
				C283.9,172,289,172,288.8,169.9z"/>
			<path class="st17" d="M305.7,170.3l-5.9-0.7c-1.4,1.5-0.6,3.4,0.9,4c-1.1,0-2.1,0.1-2.5,0.6c-0.2,0.1-1.2,0.6-1.1,0.9
				c0.1,0.3,1.3,0.3,1.5,0.3c0.3,0,0.7-0.2,0.9-0.3l0,0c0.1,0,0.4-0.1,0.5,0c0,0.1-0.1,0.1-0.1,0.2v0.1c0.2,0.1,0.6,0,0.7-0.2
				c0.2,0.1,2.5,0.2,2.8,0.3c0.7,0.1,2.8,0.5,3.4,0.3c0.7-0.2,0.1-1.2-0.1-1.9c-0.1-0.2-0.5-1.8,0.5-2.2L305.7,170.3z"/>
			<path class="st17" d="M285.9,159.9c0.1,0.5,0.2,1.9,0.6,2.3c0.4-0.7,1.2-0.6,2.1-0.9c0.4-0.2,0.8-0.5,1.1-0.8
				c0.2-0.3,0.3-0.5,0.3-0.7c0-0.3-0.8-0.5-1.4-0.6c-0.9,0-0.9,0.2-1.5,0.6C286.8,160,286.3,160.1,285.9,159.9z"/>
			<path class="st17" d="M282.3,159.9c-0.1,0.5-0.2,1.9-0.6,2.3c-0.4-0.7-1.2-0.6-2.1-0.9c-0.4-0.2-0.8-0.5-1.1-0.8
				c-0.2-0.3-0.3-0.5-0.3-0.7c0-0.3,0.8-0.5,1.4-0.6c0.9,0,0.9,0.2,1.5,0.6C281.4,160,281.9,160.1,282.3,159.9z"/>
			<path class="st17" d="M284.1,159.3c2.1,0,2.7,1.2,2.5,2.9c0.3,0.5,0.3,0.7,0,0.8c0.1,0.2,0.1,0.5,0,0.7c0,0.3-0.2,0.5-0.2,0.7
				c0.1,1.1-0.5,1.8-0.7,3.2h-1.6h-1.6c-0.2-1.4-0.8-2.1-0.7-3.2c0-0.2-0.2-0.4-0.2-0.7c-0.1-0.2-0.2-0.5,0-0.7
				c-0.2-0.1-0.2-0.3,0-0.8C281.4,160.5,282,159.3,284.1,159.3z"/>
			<path class="st17" d="M282.1,163.3c-0.1,0.1-0.4,0.3-0.5,0.3c-0.1-0.2-0.2-0.5,0-0.7C281.8,163,282,163.1,282.1,163.3z"/>
			<path class="st17" d="M286,163.3c0.1,0.1,0.4,0.3,0.5,0.3c0.1-0.2,0.2-0.5,0-0.7C286.4,163,286.2,163.1,286,163.3z"/>
			<path class="st17" d="M284.1,167.3c-1.2,0-1.6,1.6-0.7,1.8c0.2,0,0.5,0,0.7,0s0.5,0.1,0.7,0C285.7,169,285.3,167.3,284.1,167.3z"
				/>
			<path class="st17" d="M282.6,167.2c-0.2,0.2-0.1,1.1,0.1,1.5c0.2,0.3,1,0,1.5,0s1.3,0.3,1.5,0c0.2-0.4,0.3-1.3,0.1-1.5
				C285.3,166.1,282.9,166.1,282.6,167.2z"/>
			<path class="st17" d="M285.2,167.3C285.1,167.3,285.1,167.3,285.2,167.3c-0.1,0.1-0.1,0.1-0.1,0.2c-0.2-0.1-0.3,0.2-0.3,0.3
				s0,0.1,0.1,0.2C285.1,168.1,285.3,167.5,285.2,167.3z"/>
			<path class="st17" d="M283,167.3L283,167.3c0.1,0.1,0.1,0.1,0.1,0.2c0.2-0.1,0.3,0.2,0.3,0.3s0,0.1-0.1,0.2
				C283.1,168.1,282.9,167.5,283,167.3z"/>
			<path class="st17" d="M285.3,166.7c-0.4-0.2-0.8,0.1-1.2,0.1c-0.4,0-0.7-0.3-1.2-0.1C283.5,166.2,284.7,166.2,285.3,166.7z"/>
		</g>
	</g>
	<path class="st16" d="M177.5,170.1l-49-0.6c-0.8-2.5,1.9-1.4,2.4-4c0.2-0.9,1.4,0.2,2.1-2.1c0.1-0.5,2-0.6,2.4-2.3
		c0.2-0.9,1.6,0.7,3.2-2.3c0.6-1.2,1.2,1,3.3-2.4c0.8-1.3,1.5,0.2,3.4-1.4c1.7-1.4,1.7-0.1,4.1-1c2.3-1,1.6,0.7,4.3,0.7
		c1.9,0,0.5,0.8,3.6,0.4c0.8-0.1,1.5,1.2,3.2,0.5c1.4-0.5,0.8,1.4,3.3,1c1.7-0.2,1.1,2,3.3,1.8c1.2-0.1-0.2,2.1,2.2,2.3
		c1.5,0.2-0.1,1.4,2.8,2.4c2.4,0.8-0.5,1.8,2.2,2.8c2.2,0.8,0,1.2,3,2.8C177.6,169,177.8,169.7,177.5,170.1z"/>
	<path class="st16" d="M213.5,171.8l-52.7-1.9c2-2.1,0-1.5,3.5-3c1.1-0.5,0.4-1.5,2.3-1.6c1.5,0,1-2.2,3-2.4c0.8,0,1.3-1.3,2.4-2.1
		c0.5-0.3,1.1-0.5,1.8-0.5c1.3,0.1,1.5-2.7,4.1-2.6c1.4,0.1,0.5-2,4.3-1.5c2,0.2,0.7-1.7,4.2-1.3c2.3,0.3,1.7-2,4.3-0.6
		c1.6,0.9,2.2-1.3,3.8,0.2c0.8,0.8,3.1-0.7,3.3,1c0.1,1.2,2.5-0.4,3.5,2.6c0.6,1.9,2.2-0.6,3,2.8c0.2,0.8,2.6,0.3,2.6,2.6
		c0,1.5,2.4,0.7,2.3,3.4c0,1,2.3,0.1,2.5,2.5C211.8,170.4,213.6,170.8,213.5,171.8z"/>
	<path class="st17" d="M0,180.3c115.5-26.8,290.6,3.7,425.2-10.3c0,11.1,0,13.6,0,24.7c-141.7,0-283.5,0-425.2,0
		C0,187.1,0,188,0,180.3z"/>
</g>
</svg>
