<?xml version="1.0" encoding="utf-8"?>
<!-- Generator: Adobe Illustrator 22.1.0, SVG Export Plug-In . SVG Version: 6.00 Build 0)  -->
<svg version="1.1" width="50%" id="Layer_1" xmlns="http://www.w3.org/2000/svg" xmlns:xlink="http://www.w3.org/1999/xlink" x="0px" y="0px"
	 viewBox="0 0 310 60" style="enable-background:new 0 0 310 60;" xml:space="preserve">
<style type="text/css">
	.st0{fill:#231F20;}
	.st1{fill:#58595B;}
	.st2{fill:#E6E7E8;}
	.st3{fill:#008CCF;}
	.st4{fill:#70B12F;}
	.st5{fill:#FFFFFF;}
	.st6{fill:#006C90;}
	.st7{fill:#6ACFF6;}
	.st8{fill:#598105;}
	.st9{fill:#A1CE57;}
	.st10{fill:#007E3C;}
	.st11{fill:#8FCC90;}
	.st12{fill:#007072;}
	.st13{fill:#00B7A3;}
	.st14{fill:#662D91;}
	.st15{fill:#AA8BB9;}
</style>
<g>
	<g>
		<path class="st0" d="M66.2,14.1H67v8.5h-0.8V14.1z"/>
		<path class="st0" d="M73.6,14.8h-2.9v-0.7h6.6v0.7h-2.9v7.8h-0.8V14.8z"/>
		<path class="st0" d="M86.5,14.1h1.2l3.1,7.1l3.1-7.1H95v8.5h-0.8v-7.5h0l-3.2,7.5h-0.3l-3.3-7.5h0v7.5h-0.8V14.1z"/>
		<path class="st0" d="M99.1,18.3c0-0.6,0.1-1.2,0.3-1.8c0.2-0.5,0.5-1,0.9-1.4c0.4-0.4,0.8-0.7,1.4-0.9s1.1-0.3,1.8-0.3
			c0.6,0,1.2,0.1,1.8,0.3s1,0.5,1.4,0.9c0.4,0.4,0.7,0.9,0.9,1.4s0.3,1.1,0.3,1.8s-0.1,1.2-0.3,1.8s-0.5,1-0.9,1.4
			c-0.4,0.4-0.8,0.7-1.4,0.9s-1.1,0.3-1.8,0.3c-0.6,0-1.2-0.1-1.8-0.3s-1-0.5-1.4-0.9c-0.4-0.4-0.7-0.9-0.9-1.4
			C99.2,19.6,99.1,19,99.1,18.3z M99.8,18.3c0,0.5,0.1,1,0.3,1.5c0.2,0.5,0.4,0.9,0.7,1.2c0.3,0.3,0.7,0.6,1.1,0.8
			c0.4,0.2,0.9,0.3,1.5,0.3s1-0.1,1.5-0.3s0.8-0.5,1.1-0.8c0.3-0.3,0.6-0.7,0.7-1.2c0.2-0.5,0.3-0.9,0.3-1.5s-0.1-1-0.3-1.5
			s-0.4-0.9-0.7-1.2c-0.3-0.3-0.7-0.6-1.1-0.8s-0.9-0.3-1.5-0.3s-1,0.1-1.5,0.3c-0.4,0.2-0.8,0.5-1.1,0.8c-0.3,0.3-0.6,0.7-0.7,1.2
			S99.8,17.8,99.8,18.3z"/>
		<path class="st0" d="M111.9,14.1h2.6c0.7,0,1.4,0.1,1.9,0.3c0.5,0.2,0.9,0.4,1.3,0.7s0.6,0.6,0.8,0.9c0.2,0.3,0.3,0.7,0.4,1
			c0.1,0.3,0.2,0.6,0.2,0.8s0,0.4,0,0.5c0,0.1,0,0.3,0,0.5s-0.1,0.5-0.2,0.8c-0.1,0.3-0.2,0.6-0.4,1c-0.2,0.3-0.5,0.6-0.8,0.9
			s-0.8,0.5-1.3,0.7c-0.5,0.2-1.1,0.3-1.9,0.3h-2.6V14.1z M112.7,21.9h1.6c0.6,0,1.1-0.1,1.6-0.2c0.5-0.1,0.9-0.4,1.3-0.6
			s0.6-0.7,0.9-1.1c0.2-0.4,0.3-1,0.3-1.6c0-0.6-0.1-1.1-0.3-1.6c-0.2-0.4-0.5-0.8-0.9-1.1s-0.8-0.5-1.3-0.6c-0.5-0.1-1-0.2-1.6-0.2
			h-1.6V21.9z"/>
		<path class="st0" d="M123.3,14.1h5.2v0.7h-4.4v3h4.1v0.7h-4.1v3.3h4.6v0.7h-5.4V14.1z"/>
		<path class="st0" d="M132.8,14.1h2.2c0.1,0,0.3,0,0.5,0c0.2,0,0.4,0,0.6,0.1c0.2,0,0.5,0.1,0.7,0.2c0.2,0.1,0.4,0.2,0.6,0.4
			s0.3,0.4,0.5,0.6c0.1,0.3,0.2,0.6,0.2,0.9c0,0.4-0.1,0.7-0.2,1c-0.1,0.3-0.3,0.5-0.5,0.6c-0.2,0.2-0.4,0.3-0.7,0.4
			c-0.3,0.1-0.5,0.1-0.7,0.2l2.5,4.1h-0.9l-2.4-4h-1.5v4h-0.8V14.1z M133.6,17.8h1.7c0.4,0,0.8-0.1,1-0.2c0.3-0.1,0.5-0.2,0.6-0.4
			s0.2-0.3,0.3-0.5c0.1-0.2,0.1-0.3,0.1-0.5c0-0.1,0-0.3-0.1-0.5c-0.1-0.2-0.1-0.3-0.3-0.5c-0.1-0.2-0.3-0.3-0.6-0.4
			c-0.3-0.1-0.6-0.2-1-0.2h-1.7V17.8z"/>
		<path class="st0" d="M142.3,14.1h1l5.2,7.4h0v-7.4h0.8v8.5h-1l-5.2-7.4h0v7.4h-0.8V14.1z"/>
		<path class="st0" d="M154.1,14.1h0.8v8.5h-0.8V14.1z"/>
		<path class="st0" d="M158.7,22l5-7.2h-4.9v-0.7h5.9v0.6l-5,7.1h5.1v0.7h-6.1V22z"/>
		<path class="st0" d="M171.3,14.1h0.8l3.6,8.5h-0.9l-0.9-2.3h-4.5l-1,2.3h-0.8L171.3,14.1z M171.6,14.9l-2,4.7h3.9L171.6,14.9z"/>
		<path class="st0" d="M180.4,14.8h-2.9v-0.7h6.6v0.7h-2.9v7.8h-0.8V14.8z"/>
		<path class="st0" d="M187.8,14.1h0.8v8.5h-0.8V14.1z"/>
		<path class="st0" d="M192.7,18.3c0-0.6,0.1-1.2,0.3-1.8s0.5-1,0.9-1.4c0.4-0.4,0.8-0.7,1.4-0.9c0.5-0.2,1.1-0.3,1.8-0.3
			s1.2,0.1,1.8,0.3c0.5,0.2,1,0.5,1.4,0.9c0.4,0.4,0.7,0.9,0.9,1.4c0.2,0.5,0.3,1.1,0.3,1.8s-0.1,1.2-0.3,1.8
			c-0.2,0.5-0.5,1-0.9,1.4c-0.4,0.4-0.8,0.7-1.4,0.9c-0.5,0.2-1.1,0.3-1.8,0.3s-1.2-0.1-1.8-0.3c-0.5-0.2-1-0.5-1.4-0.9
			c-0.4-0.4-0.7-0.9-0.9-1.4S192.7,19,192.7,18.3z M193.5,18.3c0,0.5,0.1,1,0.3,1.5c0.2,0.5,0.4,0.9,0.7,1.2
			c0.3,0.3,0.7,0.6,1.1,0.8s0.9,0.3,1.5,0.3c0.6,0,1-0.1,1.5-0.3c0.4-0.2,0.8-0.5,1.1-0.8c0.3-0.3,0.6-0.7,0.7-1.2
			c0.2-0.5,0.3-0.9,0.3-1.5s-0.1-1-0.3-1.5s-0.4-0.9-0.7-1.2c-0.3-0.3-0.7-0.6-1.1-0.8c-0.4-0.2-0.9-0.3-1.5-0.3
			c-0.6,0-1.1,0.1-1.5,0.3s-0.8,0.5-1.1,0.8c-0.3,0.3-0.6,0.7-0.7,1.2S193.5,17.8,193.5,18.3z"/>
		<path class="st0" d="M205.7,14.1h1l5.2,7.4h0v-7.4h0.8v8.5h-1l-5.2-7.4h0v7.4h-0.8V14.1z"/>
		<path class="st1" d="M77,46.3c-1.1,0.5-2.4,0.8-3.8,0.8c-1.3,0-2.5-0.2-3.6-0.6c-1.1-0.4-2.1-1-2.9-1.8c-0.8-0.8-1.5-1.7-1.9-2.8
			c-0.5-1.1-0.7-2.3-0.7-3.6c0-1.4,0.2-2.6,0.7-3.7c0.5-1.1,1.1-2,2-2.8c0.8-0.8,1.8-1.4,2.9-1.8s2.3-0.6,3.6-0.6
			c1.2,0,2.4,0.2,3.5,0.6s2.1,1,2.8,1.9l-2.8,2.8c-0.4-0.5-0.9-0.9-1.5-1.2s-1.3-0.4-1.9-0.4c-0.7,0-1.4,0.1-2,0.4
			c-0.6,0.3-1.1,0.6-1.5,1.1c-0.4,0.5-0.8,1-1,1.6s-0.4,1.3-0.4,2.1c0,0.8,0.1,1.5,0.4,2.1c0.2,0.6,0.6,1.2,1,1.6
			c0.4,0.5,0.9,0.8,1.5,1.1c0.6,0.3,1.2,0.4,1.9,0.4c0.8,0,1.5-0.2,2.1-0.5s1.1-0.7,1.5-1.2l2.9,2.7C79,45.1,78.1,45.8,77,46.3z"/>
		<path class="st1" d="M92.6,40.7c0,0.2,0,0.3,0,0.5s0,0.3,0,0.5h-8.7c0,0.3,0.1,0.6,0.3,0.9c0.2,0.3,0.4,0.5,0.6,0.7
			c0.3,0.2,0.6,0.4,0.9,0.5c0.3,0.1,0.7,0.2,1,0.2c0.6,0,1.2-0.1,1.6-0.3c0.4-0.2,0.8-0.5,1.1-0.9l2.7,1.7c-0.6,0.8-1.3,1.4-2.2,1.9
			c-0.9,0.4-2,0.7-3.2,0.7c-0.9,0-1.7-0.1-2.5-0.4c-0.8-0.3-1.5-0.7-2.1-1.2c-0.6-0.5-1.1-1.2-1.4-2c-0.3-0.8-0.5-1.7-0.5-2.7
			c0-1,0.2-1.9,0.5-2.7c0.3-0.8,0.8-1.5,1.4-2c0.6-0.6,1.3-1,2-1.3s1.6-0.5,2.5-0.5c0.9,0,1.7,0.1,2.4,0.4c0.7,0.3,1.4,0.7,1.9,1.3
			c0.5,0.6,0.9,1.2,1.2,2C92.4,38.8,92.6,39.7,92.6,40.7z M89,39.2c0-0.6-0.2-1.2-0.6-1.6c-0.4-0.4-1-0.7-1.8-0.7
			c-0.4,0-0.7,0.1-1.1,0.2c-0.3,0.1-0.6,0.3-0.8,0.5c-0.2,0.2-0.4,0.5-0.6,0.7c-0.1,0.3-0.2,0.6-0.2,0.9H89z"/>
		<path class="st1" d="M102.2,46.6V40c0-0.3,0-0.7-0.1-1c-0.1-0.3-0.1-0.6-0.3-0.8c-0.1-0.2-0.3-0.4-0.5-0.6
			c-0.2-0.1-0.5-0.2-0.9-0.2c-0.4,0-0.7,0.1-0.9,0.2c-0.3,0.1-0.5,0.3-0.7,0.6c-0.2,0.2-0.3,0.5-0.4,0.8c-0.1,0.3-0.1,0.6-0.1,1v6.5
			h-4v-12h3.8v1.7h0c0.1-0.3,0.3-0.5,0.6-0.8c0.2-0.2,0.5-0.5,0.8-0.6c0.3-0.2,0.7-0.3,1-0.4c0.4-0.1,0.8-0.2,1.2-0.2
			c0.8,0,1.5,0.1,2,0.4c0.6,0.3,1,0.7,1.4,1.1c0.3,0.5,0.6,1,0.7,1.6c0.2,0.6,0.2,1.2,0.2,1.8v7.4H102.2z"/>
		<path class="st1" d="M112.9,37.6v4.6c0,0.6,0.1,1,0.3,1.3c0.2,0.3,0.6,0.4,1.2,0.4c0.2,0,0.4,0,0.6,0c0.2,0,0.4-0.1,0.5-0.1l0,2.9
			c-0.3,0.1-0.6,0.2-1,0.3c-0.4,0.1-0.8,0.1-1.2,0.1c-0.8,0-1.5-0.1-2-0.3s-1-0.5-1.3-0.9s-0.6-0.8-0.7-1.3
			c-0.1-0.5-0.2-1.1-0.2-1.7v-5.1h-1.9v-2.9h1.9v-3.1h3.9v3.1h2.8v2.9H112.9z"/>
		<path class="st1" d="M128.8,40.7c0,0.2,0,0.3,0,0.5s0,0.3,0,0.5h-8.7c0,0.3,0.1,0.6,0.3,0.9c0.2,0.3,0.4,0.5,0.6,0.7
			c0.3,0.2,0.6,0.4,0.9,0.5c0.3,0.1,0.7,0.2,1,0.2c0.6,0,1.2-0.1,1.6-0.3c0.4-0.2,0.8-0.5,1.1-0.9l2.7,1.7c-0.6,0.8-1.3,1.4-2.2,1.9
			c-0.9,0.4-2,0.7-3.2,0.7c-0.9,0-1.7-0.1-2.5-0.4c-0.8-0.3-1.5-0.7-2.1-1.2s-1.1-1.2-1.4-2c-0.3-0.8-0.5-1.7-0.5-2.7
			c0-1,0.2-1.9,0.5-2.7s0.8-1.5,1.4-2c0.6-0.6,1.3-1,2-1.3c0.8-0.3,1.6-0.5,2.5-0.5c0.9,0,1.7,0.1,2.4,0.4c0.7,0.3,1.4,0.7,1.9,1.3
			c0.5,0.6,0.9,1.2,1.2,2C128.7,38.8,128.8,39.7,128.8,40.7z M125.2,39.2c0-0.6-0.2-1.2-0.6-1.6c-0.4-0.4-1-0.7-1.8-0.7
			c-0.4,0-0.7,0.1-1.1,0.2s-0.6,0.3-0.8,0.5s-0.4,0.5-0.6,0.7s-0.2,0.6-0.2,0.9H125.2z"/>
		<path class="st1" d="M138.4,37.9c-0.2,0-0.3-0.1-0.5-0.1c-0.2,0-0.3,0-0.5,0c-0.5,0-1,0.1-1.3,0.3c-0.4,0.2-0.6,0.4-0.9,0.7
			c-0.2,0.3-0.4,0.6-0.5,0.9c-0.1,0.3-0.1,0.6-0.1,0.8v6.1h-3.9V34.6h3.8v1.7h0c0.3-0.6,0.7-1.1,1.3-1.5s1.2-0.6,1.9-0.6
			c0.2,0,0.3,0,0.5,0s0.3,0,0.4,0.1L138.4,37.9z"/>
		<path class="st1" d="M146.9,38.2c-0.3-0.3-0.7-0.6-1.1-0.8c-0.4-0.2-0.9-0.3-1.4-0.3c-0.4,0-0.7,0.1-1,0.2
			c-0.3,0.1-0.5,0.4-0.5,0.7c0,0.3,0.2,0.6,0.5,0.7c0.3,0.1,0.9,0.3,1.7,0.5c0.4,0.1,0.9,0.2,1.4,0.4c0.5,0.2,0.9,0.4,1.2,0.7
			c0.4,0.3,0.7,0.6,0.9,1.1s0.3,0.9,0.3,1.5c0,0.8-0.2,1.4-0.5,1.9c-0.3,0.5-0.7,0.9-1.2,1.3c-0.5,0.3-1,0.6-1.6,0.7
			c-0.6,0.1-1.2,0.2-1.8,0.2c-1,0-1.9-0.2-2.9-0.5c-0.9-0.3-1.7-0.8-2.3-1.4l2.2-2.3c0.4,0.4,0.8,0.7,1.3,1c0.5,0.3,1.1,0.4,1.6,0.4
			c0.3,0,0.6-0.1,0.9-0.2c0.3-0.2,0.5-0.4,0.5-0.8c0-0.4-0.2-0.6-0.6-0.8c-0.4-0.2-1-0.4-1.8-0.6c-0.4-0.1-0.8-0.2-1.2-0.4
			c-0.4-0.2-0.8-0.4-1.1-0.6s-0.6-0.6-0.8-1c-0.2-0.4-0.3-0.9-0.3-1.4c0-0.7,0.2-1.3,0.5-1.8c0.3-0.5,0.7-0.9,1.2-1.2
			c0.5-0.3,1-0.6,1.6-0.7c0.6-0.2,1.2-0.2,1.7-0.2c0.9,0,1.8,0.1,2.6,0.4c0.9,0.3,1.6,0.7,2.2,1.3L146.9,38.2z"/>
		<path class="st1" d="M168.6,40.6c0,1-0.2,1.9-0.5,2.7c-0.4,0.8-0.8,1.5-1.4,2c-0.6,0.6-1.3,1-2.1,1.3c-0.8,0.3-1.7,0.5-2.6,0.5
			c-0.9,0-1.7-0.2-2.6-0.5c-0.8-0.3-1.5-0.7-2.1-1.3c-0.6-0.6-1.1-1.2-1.4-2s-0.5-1.7-0.5-2.7c0-1,0.2-1.9,0.5-2.6
			c0.4-0.8,0.8-1.4,1.4-2s1.3-1,2.1-1.2c0.8-0.3,1.7-0.4,2.6-0.4c0.9,0,1.8,0.1,2.6,0.4c0.8,0.3,1.5,0.7,2.1,1.2s1.1,1.2,1.4,2
			C168.5,38.7,168.6,39.6,168.6,40.6z M164.8,40.6c0-0.4-0.1-0.8-0.2-1.1c-0.1-0.4-0.3-0.7-0.6-1c-0.2-0.3-0.5-0.5-0.9-0.7
			c-0.4-0.2-0.8-0.3-1.2-0.3c-0.5,0-0.9,0.1-1.2,0.3s-0.6,0.4-0.9,0.7c-0.2,0.3-0.4,0.6-0.5,1c-0.1,0.4-0.2,0.7-0.2,1.1
			c0,0.4,0.1,0.8,0.2,1.1c0.1,0.4,0.3,0.7,0.5,1c0.2,0.3,0.5,0.5,0.9,0.7c0.4,0.2,0.8,0.3,1.2,0.3c0.5,0,0.9-0.1,1.2-0.3
			c0.4-0.2,0.6-0.4,0.9-0.7c0.2-0.3,0.4-0.6,0.5-1C164.8,41.3,164.8,40.9,164.8,40.6z"/>
		<path class="st1" d="M178.1,31.3c-0.1,0-0.3-0.1-0.5-0.1c-0.2,0-0.4,0-0.6,0c-0.4,0-0.7,0.1-0.9,0.2s-0.4,0.3-0.5,0.5
			c-0.1,0.2-0.2,0.5-0.3,0.7c0,0.3-0.1,0.5-0.1,0.8v1.2h2.7v2.9h-2.7v9h-3.9v-9h-2.2v-2.9h2.2v-1.2c0-0.7,0.1-1.4,0.2-2.1
			s0.4-1.2,0.8-1.8s0.9-0.9,1.6-1.2c0.7-0.3,1.5-0.4,2.5-0.4c0.3,0,0.7,0,1,0.1s0.6,0.1,0.9,0.2L178.1,31.3z"/>
		<path class="st1" d="M184.4,46.6v-17h11.4V33h-7.5v3.2h7.1v3.3h-7.1v3.5h7.9v3.5H184.4z"/>
		<path class="st1" d="M206.8,46.6l-2.6-3.7l-2.6,3.7H197l4.8-6.3l-4.3-5.7h4.6l2.2,3.2l2.3-3.2h4.4l-4.3,5.7l4.7,6.3H206.8z"/>
		<path class="st1" d="M220,38.5c-0.2-0.3-0.5-0.5-0.9-0.7c-0.4-0.2-0.8-0.3-1.2-0.3c-0.4,0-0.8,0.1-1.1,0.3s-0.6,0.4-0.9,0.7
			c-0.2,0.3-0.4,0.6-0.6,1c-0.1,0.4-0.2,0.8-0.2,1.2s0.1,0.8,0.2,1.2c0.1,0.4,0.3,0.7,0.6,1c0.2,0.3,0.5,0.5,0.9,0.7
			s0.7,0.2,1.2,0.2c0.4,0,0.8-0.1,1.2-0.2c0.4-0.2,0.7-0.4,0.9-0.7l2.2,2.7c-0.5,0.5-1.1,0.9-1.9,1.1c-0.8,0.3-1.6,0.4-2.5,0.4
			c-0.9,0-1.8-0.1-2.6-0.4c-0.8-0.3-1.5-0.7-2.1-1.3c-0.6-0.6-1.1-1.2-1.4-2c-0.3-0.8-0.5-1.7-0.5-2.7c0-1,0.2-1.9,0.5-2.6
			c0.3-0.8,0.8-1.5,1.4-2c0.6-0.6,1.3-1,2.1-1.3c0.8-0.3,1.7-0.4,2.6-0.4c0.4,0,0.9,0,1.3,0.1s0.8,0.2,1.2,0.3s0.8,0.3,1.1,0.5
			s0.6,0.4,0.9,0.7L220,38.5z"/>
		<path class="st1" d="M234.9,40.7c0,0.2,0,0.3,0,0.5s0,0.3,0,0.5h-8.7c0,0.3,0.1,0.6,0.3,0.9c0.2,0.3,0.4,0.5,0.6,0.7
			c0.3,0.2,0.6,0.4,0.9,0.5c0.3,0.1,0.7,0.2,1,0.2c0.6,0,1.2-0.1,1.6-0.3c0.4-0.2,0.8-0.5,1.1-0.9l2.7,1.7c-0.6,0.8-1.3,1.4-2.2,1.9
			c-0.9,0.4-2,0.7-3.2,0.7c-0.9,0-1.7-0.1-2.5-0.4c-0.8-0.3-1.5-0.7-2.1-1.2c-0.6-0.5-1.1-1.2-1.4-2c-0.3-0.8-0.5-1.7-0.5-2.7
			c0-1,0.2-1.9,0.5-2.7c0.3-0.8,0.8-1.5,1.4-2c0.6-0.6,1.3-1,2-1.3c0.8-0.3,1.6-0.5,2.5-0.5c0.9,0,1.7,0.1,2.4,0.4s1.4,0.7,1.9,1.3
			c0.5,0.6,0.9,1.2,1.2,2C234.7,38.8,234.9,39.7,234.9,40.7z M231.3,39.2c0-0.6-0.2-1.2-0.6-1.6c-0.4-0.4-1-0.7-1.8-0.7
			c-0.4,0-0.7,0.1-1.1,0.2c-0.3,0.1-0.6,0.3-0.8,0.5c-0.2,0.2-0.4,0.5-0.6,0.7c-0.1,0.3-0.2,0.6-0.2,0.9H231.3z"/>
		<path class="st1" d="M236.7,46.6V28.4h4v18.1H236.7z"/>
		<path class="st1" d="M243.2,46.6V28.4h4v18.1H243.2z"/>
		<path class="st1" d="M261.6,40.7c0,0.2,0,0.3,0,0.5s0,0.3,0,0.5h-8.7c0,0.3,0.1,0.6,0.3,0.9c0.2,0.3,0.4,0.5,0.6,0.7
			c0.3,0.2,0.6,0.4,0.9,0.5c0.3,0.1,0.7,0.2,1,0.2c0.6,0,1.2-0.1,1.6-0.3c0.4-0.2,0.8-0.5,1.1-0.9l2.7,1.7c-0.6,0.8-1.3,1.4-2.2,1.9
			c-0.9,0.4-2,0.7-3.2,0.7c-0.9,0-1.7-0.1-2.5-0.4c-0.8-0.3-1.5-0.7-2.1-1.2s-1.1-1.2-1.4-2c-0.3-0.8-0.5-1.7-0.5-2.7
			c0-1,0.2-1.9,0.5-2.7s0.8-1.5,1.4-2c0.6-0.6,1.3-1,2-1.3c0.8-0.3,1.6-0.5,2.5-0.5c0.9,0,1.7,0.1,2.4,0.4c0.7,0.3,1.4,0.7,1.9,1.3
			c0.5,0.6,0.9,1.2,1.2,2C261.4,38.8,261.6,39.7,261.6,40.7z M257.9,39.2c0-0.6-0.2-1.2-0.6-1.6c-0.4-0.4-1-0.7-1.8-0.7
			c-0.4,0-0.7,0.1-1.1,0.2s-0.6,0.3-0.8,0.5s-0.4,0.5-0.6,0.7s-0.2,0.6-0.2,0.9H257.9z"/>
		<path class="st1" d="M271.2,46.6V40c0-0.3,0-0.7-0.1-1c-0.1-0.3-0.1-0.6-0.3-0.8c-0.1-0.2-0.3-0.4-0.5-0.6s-0.5-0.2-0.9-0.2
			c-0.4,0-0.7,0.1-0.9,0.2c-0.3,0.1-0.5,0.3-0.7,0.6c-0.2,0.2-0.3,0.5-0.4,0.8c-0.1,0.3-0.1,0.6-0.1,1v6.5h-4v-12h3.8v1.7h0
			c0.1-0.3,0.3-0.5,0.6-0.8c0.2-0.2,0.5-0.5,0.8-0.6c0.3-0.2,0.7-0.3,1-0.4c0.4-0.1,0.8-0.2,1.2-0.2c0.8,0,1.5,0.1,2,0.4
			c0.6,0.3,1,0.7,1.4,1.1c0.3,0.5,0.6,1,0.7,1.6c0.2,0.6,0.2,1.2,0.2,1.8v7.4H271.2z"/>
		<path class="st1" d="M285.8,38.5c-0.2-0.3-0.5-0.5-0.9-0.7c-0.4-0.2-0.8-0.3-1.2-0.3c-0.4,0-0.8,0.1-1.1,0.3s-0.6,0.4-0.9,0.7
			c-0.2,0.3-0.4,0.6-0.6,1c-0.1,0.4-0.2,0.8-0.2,1.2s0.1,0.8,0.2,1.2c0.1,0.4,0.3,0.7,0.6,1c0.2,0.3,0.5,0.5,0.9,0.7
			s0.7,0.2,1.2,0.2c0.4,0,0.8-0.1,1.2-0.2c0.4-0.2,0.7-0.4,0.9-0.7l2.2,2.7c-0.5,0.5-1.1,0.9-1.9,1.1c-0.8,0.3-1.6,0.4-2.5,0.4
			c-0.9,0-1.8-0.1-2.6-0.4s-1.5-0.7-2.1-1.3c-0.6-0.6-1.1-1.2-1.4-2c-0.3-0.8-0.5-1.7-0.5-2.7c0-1,0.2-1.9,0.5-2.6
			c0.3-0.8,0.8-1.5,1.4-2s1.3-1,2.1-1.3s1.7-0.4,2.6-0.4c0.4,0,0.9,0,1.3,0.1s0.8,0.2,1.2,0.3c0.4,0.1,0.8,0.3,1.1,0.5
			s0.6,0.4,0.9,0.7L285.8,38.5z"/>
		<path class="st1" d="M300.7,40.7c0,0.2,0,0.3,0,0.5s0,0.3,0,0.5H292c0,0.3,0.1,0.6,0.3,0.9c0.2,0.3,0.4,0.5,0.6,0.7
			c0.3,0.2,0.6,0.4,0.9,0.5c0.3,0.1,0.7,0.2,1,0.2c0.6,0,1.2-0.1,1.6-0.3c0.4-0.2,0.8-0.5,1.1-0.9l2.7,1.7c-0.6,0.8-1.3,1.4-2.2,1.9
			c-0.9,0.4-2,0.7-3.2,0.7c-0.9,0-1.7-0.1-2.5-0.4c-0.8-0.3-1.5-0.7-2.1-1.2s-1.1-1.2-1.4-2c-0.3-0.8-0.5-1.7-0.5-2.7
			c0-1,0.2-1.9,0.5-2.7s0.8-1.5,1.4-2c0.6-0.6,1.3-1,2-1.3c0.8-0.3,1.6-0.5,2.5-0.5c0.9,0,1.7,0.1,2.4,0.4c0.7,0.3,1.4,0.7,1.9,1.3
			c0.5,0.6,0.9,1.2,1.2,2C300.5,38.8,300.7,39.7,300.7,40.7z M297,39.2c0-0.6-0.2-1.2-0.6-1.6c-0.4-0.4-1-0.7-1.8-0.7
			c-0.4,0-0.7,0.1-1.1,0.2s-0.6,0.3-0.8,0.5s-0.4,0.5-0.6,0.7s-0.2,0.6-0.2,0.9H297z"/>
	</g>
	<g>
		<circle class="st2" cx="31.3" cy="30" r="25.6"/>
		<path class="st3" d="M47.9,41.3c-3.6,5.4-9.8,8.9-16.7,8.9C20.1,50.2,11,41.1,11,30s9-20.2,20.2-20.2c7,0,13.1,3.5,16.7,8.9
			l4.7-2.7C48.1,9,40.2,4.4,31.2,4.4C17.1,4.4,5.6,15.9,5.6,30s11.5,25.6,25.6,25.6c9,0,16.9-4.6,21.4-11.6L47.9,41.3z"/>
		<path class="st4" d="M31.1,39.8c-4.7,0-8.7-3.4-9.6-7.8h12.3v-4H21.5c0.9-4.5,4.9-7.8,9.6-7.8c3.1,0,5.9,1.5,7.7,3.8l4.2-2.4
			c-2.7-3.7-7-6.1-11.9-6.1c-8.1,0-14.6,6.5-14.6,14.6c0,8.1,6.5,14.6,14.6,14.6c4.9,0,9.2-2.4,11.9-6.1l-4.2-2.4
			C37,38.4,34.2,39.8,31.1,39.8z"/>
		<path class="st5" d="M31.3,9.8c-11.2,0-20.2,9.1-20.2,20.2s9.1,20.2,20.2,20.2S51.5,41.2,51.5,30S42.5,9.8,31.3,9.8z M31.3,44.4
			c-8,0-14.4-6.5-14.4-14.4s6.5-14.4,14.4-14.4c8,0,14.4,6.5,14.4,14.4S39.3,44.4,31.3,44.4z"/>
	</g>
</g>
</svg>
